G04 EAGLE Gerber RS-274X export*
G75*
%MOMM*%
%FSLAX34Y34*%
%LPD*%
%INTop Copper*%
%IPPOS*%
%AMOC8*
5,1,8,0,0,1.08239X$1,22.5*%
G01*
%ADD10C,0.504000*%
%ADD11R,0.660400X2.032000*%
%ADD12C,1.530000*%
%ADD13C,1.879600*%
%ADD14C,1.320800*%
%ADD15C,0.762000*%
%ADD16C,0.756400*%
%ADD17C,0.254000*%


D10*
X309180Y125430D02*
X309180Y119970D01*
X300420Y119970D01*
X300420Y125430D01*
X309180Y125430D01*
X309180Y124758D02*
X300420Y124758D01*
X300420Y108630D02*
X300420Y103170D01*
X300420Y108630D02*
X309180Y108630D01*
X309180Y103170D01*
X300420Y103170D01*
X300420Y107958D02*
X309180Y107958D01*
X867980Y119970D02*
X867980Y125430D01*
X867980Y119970D02*
X859220Y119970D01*
X859220Y125430D01*
X867980Y125430D01*
X867980Y124758D02*
X859220Y124758D01*
X859220Y108630D02*
X859220Y103170D01*
X859220Y108630D02*
X867980Y108630D01*
X867980Y103170D01*
X859220Y103170D01*
X859220Y107958D02*
X867980Y107958D01*
D11*
X273050Y183134D03*
X273050Y121666D03*
X260350Y183134D03*
X247650Y183134D03*
X260350Y121666D03*
X247650Y121666D03*
X234950Y183134D03*
X234950Y121666D03*
X222250Y183134D03*
X222250Y121666D03*
X209550Y183134D03*
X196850Y183134D03*
X209550Y121666D03*
X196850Y121666D03*
X184150Y183134D03*
X184150Y121666D03*
X831850Y183134D03*
X831850Y121666D03*
X819150Y183134D03*
X806450Y183134D03*
X819150Y121666D03*
X806450Y121666D03*
X793750Y183134D03*
X793750Y121666D03*
X781050Y183134D03*
X781050Y121666D03*
X768350Y183134D03*
X755650Y183134D03*
X768350Y121666D03*
X755650Y121666D03*
X742950Y183134D03*
X742950Y121666D03*
D12*
X393700Y139700D03*
X393700Y165100D03*
X419100Y139700D03*
X419100Y165100D03*
X444500Y139700D03*
X444500Y165100D03*
X469900Y139700D03*
X469900Y165100D03*
X495300Y139700D03*
X495300Y165100D03*
X520700Y139700D03*
X520700Y165100D03*
X546100Y139700D03*
X546100Y165100D03*
X571500Y139700D03*
X571500Y165100D03*
X596900Y139700D03*
X596900Y165100D03*
X622300Y139700D03*
X622300Y165100D03*
D13*
X62230Y203200D03*
X90170Y203200D03*
X62230Y177800D03*
X90170Y177800D03*
X62230Y152400D03*
X90170Y152400D03*
X62230Y127000D03*
X90170Y127000D03*
X62230Y101600D03*
X90170Y101600D03*
X953770Y101600D03*
X925830Y101600D03*
X953770Y127000D03*
X925830Y127000D03*
X953770Y152400D03*
X925830Y152400D03*
X953770Y177800D03*
X925830Y177800D03*
X953770Y203200D03*
X925830Y203200D03*
D14*
X393700Y209296D02*
X393700Y222504D01*
X419100Y222504D02*
X419100Y209296D01*
X444500Y209296D02*
X444500Y222504D01*
X469900Y222504D02*
X469900Y209296D01*
X495300Y209296D02*
X495300Y222504D01*
X520700Y222504D02*
X520700Y209296D01*
X546100Y209296D02*
X546100Y222504D01*
X571500Y222504D02*
X571500Y209296D01*
X596900Y209296D02*
X596900Y222504D01*
X622300Y95504D02*
X622300Y82296D01*
X596900Y82296D02*
X596900Y95504D01*
X571500Y95504D02*
X571500Y82296D01*
X546100Y82296D02*
X546100Y95504D01*
X520700Y95504D02*
X520700Y82296D01*
X495300Y82296D02*
X495300Y95504D01*
X469900Y95504D02*
X469900Y82296D01*
X444500Y82296D02*
X444500Y95504D01*
X419100Y95504D02*
X419100Y82296D01*
D15*
X304800Y105664D02*
X267208Y105664D01*
X261112Y111760D01*
X261112Y120904D01*
X304800Y105900D02*
X304800Y105664D01*
X261112Y120904D02*
X260350Y121666D01*
X307848Y107696D02*
X361696Y107696D01*
X307848Y107696D02*
X304800Y105900D01*
X62992Y101600D02*
X62992Y127000D01*
X62992Y101600D02*
X62230Y101600D01*
X62230Y127000D02*
X62992Y127000D01*
X62992Y130048D02*
X62992Y152400D01*
X62230Y152400D01*
X62992Y130048D02*
X62230Y127000D01*
X62992Y155448D02*
X62992Y177800D01*
X62230Y177800D01*
X62992Y155448D02*
X62230Y152400D01*
X149352Y218440D02*
X183896Y183896D01*
X184150Y183134D01*
X640080Y182880D02*
X742696Y182880D01*
X640080Y182880D02*
X622300Y165100D01*
X742696Y182880D02*
X742950Y183134D01*
X826008Y105664D02*
X863600Y105664D01*
X826008Y105664D02*
X819912Y111760D01*
X819912Y120904D01*
X863600Y105900D02*
X863600Y105664D01*
X819912Y120904D02*
X819150Y121666D01*
X866648Y103632D02*
X902208Y103632D01*
X866648Y103632D02*
X863600Y105900D01*
D16*
X361696Y107696D03*
X149352Y218440D03*
X902208Y103632D03*
D15*
X90424Y101600D02*
X90424Y127000D01*
X90424Y101600D02*
X90170Y101600D01*
X90170Y127000D02*
X90424Y127000D01*
X273304Y121920D02*
X304800Y121920D01*
X304800Y122700D01*
X273304Y121920D02*
X273050Y121666D01*
X307848Y124968D02*
X351536Y124968D01*
X307848Y124968D02*
X304800Y122700D01*
X622808Y139192D02*
X622808Y89408D01*
X622300Y88900D01*
X622808Y139192D02*
X622300Y139700D01*
X832104Y121920D02*
X863600Y121920D01*
X863600Y122700D01*
X832104Y121920D02*
X831850Y121666D01*
X866648Y124968D02*
X896112Y154432D01*
X866648Y124968D02*
X863600Y122700D01*
X830072Y132080D02*
X822960Y139192D01*
X830072Y132080D02*
X830072Y124968D01*
X831850Y121666D01*
X386080Y122936D02*
X354584Y122936D01*
X386080Y122936D02*
X387096Y121920D01*
X460248Y121920D01*
X463296Y124968D01*
X354584Y122936D02*
X351536Y124968D01*
D16*
X351536Y124968D03*
X896112Y154432D03*
X822960Y139192D03*
X463296Y124968D03*
D17*
X819912Y176784D02*
X819912Y182880D01*
X819912Y176784D02*
X835152Y161544D01*
X899160Y161544D01*
X925576Y135128D01*
X925576Y127000D01*
X819912Y182880D02*
X819150Y183134D01*
X925576Y127000D02*
X925830Y127000D01*
X260096Y183896D02*
X260096Y195072D01*
X255016Y200152D01*
X180848Y200152D01*
X260096Y183896D02*
X260350Y183134D01*
X818896Y183896D02*
X818896Y195072D01*
X765048Y248920D01*
X356616Y248920D01*
X277368Y169672D01*
X268224Y169672D01*
X260096Y177800D01*
X260096Y181864D01*
X818896Y183896D02*
X819150Y183134D01*
X260350Y183134D02*
X260096Y181864D01*
D16*
X180848Y200152D03*
D17*
X184912Y120904D02*
X184912Y115824D01*
X244856Y55880D01*
X659384Y55880D01*
X738632Y135128D01*
X747776Y135128D01*
X754888Y128016D01*
X754888Y121920D01*
X184912Y120904D02*
X184150Y121666D01*
X754888Y121920D02*
X755650Y121666D01*
X196088Y121920D02*
X196088Y128016D01*
X120904Y203200D01*
X90170Y203200D01*
X196088Y121920D02*
X196850Y121666D01*
X743712Y120904D02*
X743712Y114808D01*
X762000Y96520D01*
X920496Y96520D01*
X925576Y101600D01*
X743712Y120904D02*
X742950Y121666D01*
X925576Y101600D02*
X925830Y101600D01*
X210312Y115824D02*
X210312Y120904D01*
X210312Y115824D02*
X266192Y59944D01*
X567944Y59944D01*
X596900Y88900D01*
X210312Y120904D02*
X209550Y121666D01*
X597408Y139192D02*
X597408Y89408D01*
X597408Y139192D02*
X596900Y139700D01*
X597408Y89408D02*
X596900Y88900D01*
X222504Y115824D02*
X222504Y120904D01*
X222504Y115824D02*
X274320Y64008D01*
X546608Y64008D01*
X571500Y88900D01*
X222504Y120904D02*
X222250Y121666D01*
X572008Y139192D02*
X572008Y89408D01*
X572008Y139192D02*
X571500Y139700D01*
X572008Y89408D02*
X571500Y88900D01*
X235712Y115824D02*
X235712Y120904D01*
X235712Y115824D02*
X283464Y68072D01*
X525272Y68072D01*
X546100Y88900D01*
X235712Y120904D02*
X234950Y121666D01*
X546608Y139192D02*
X546608Y89408D01*
X546608Y139192D02*
X546100Y139700D01*
X546608Y89408D02*
X546100Y88900D01*
X247904Y114808D02*
X247904Y120904D01*
X247904Y114808D02*
X290576Y72136D01*
X503936Y72136D01*
X520700Y88900D01*
X247904Y120904D02*
X247650Y121666D01*
X521208Y139192D02*
X521208Y89408D01*
X521208Y139192D02*
X520700Y139700D01*
X521208Y89408D02*
X520700Y88900D01*
X247904Y171704D02*
X247904Y182880D01*
X247904Y171704D02*
X265176Y154432D01*
X474472Y154432D01*
X488696Y140208D01*
X494792Y140208D01*
X247904Y182880D02*
X247650Y183134D01*
X494792Y140208D02*
X495300Y139700D01*
X495808Y139192D02*
X495808Y89408D01*
X495300Y88900D01*
X495808Y139192D02*
X495300Y139700D01*
X235712Y183896D02*
X235712Y188976D01*
X242824Y196088D01*
X252984Y196088D01*
X254000Y195072D01*
X254000Y171704D01*
X260096Y165608D01*
X378968Y165608D01*
X389128Y175768D01*
X402336Y175768D01*
X406400Y171704D01*
X235712Y183896D02*
X234950Y183134D01*
X470408Y139192D02*
X470408Y89408D01*
X470408Y139192D02*
X469900Y139700D01*
X470408Y89408D02*
X469900Y88900D01*
D16*
X406400Y171704D03*
D17*
X222504Y177800D02*
X222504Y182880D01*
X222504Y177800D02*
X249936Y150368D01*
X433832Y150368D01*
X444500Y139700D01*
X222504Y182880D02*
X222250Y183134D01*
X210312Y182880D02*
X210312Y176784D01*
X251968Y135128D01*
X383032Y135128D01*
X389128Y129032D01*
X408432Y129032D01*
X419100Y139700D01*
X210312Y182880D02*
X209550Y183134D01*
X768096Y127000D02*
X768096Y121920D01*
X768096Y127000D02*
X744728Y150368D01*
X510032Y150368D01*
X506984Y147320D01*
X768096Y121920D02*
X768350Y121666D01*
D16*
X506984Y147320D03*
D17*
X780288Y120904D02*
X780288Y115824D01*
X771144Y106680D01*
X762000Y106680D01*
X780288Y120904D02*
X781050Y121666D01*
X445008Y165608D02*
X445008Y215392D01*
X444500Y215900D01*
X445008Y165608D02*
X444500Y165100D01*
D16*
X762000Y106680D03*
D17*
X793496Y121920D02*
X793496Y127000D01*
X766064Y154432D01*
X480568Y154432D01*
X469900Y165100D01*
X793496Y121920D02*
X793750Y121666D01*
X470408Y165608D02*
X470408Y215392D01*
X469900Y215900D01*
X470408Y165608D02*
X469900Y165100D01*
X806704Y165608D02*
X806704Y121920D01*
X806704Y165608D02*
X812800Y171704D01*
X812800Y195072D01*
X763016Y244856D01*
X524256Y244856D01*
X495300Y215900D01*
X806450Y121666D02*
X806704Y121920D01*
X495808Y165608D02*
X495808Y215392D01*
X495808Y165608D02*
X495300Y165100D01*
X495808Y215392D02*
X495300Y215900D01*
X805688Y188976D02*
X805688Y183896D01*
X805688Y188976D02*
X753872Y240792D01*
X545592Y240792D01*
X520700Y215900D01*
X805688Y183896D02*
X806450Y183134D01*
X521208Y165608D02*
X521208Y215392D01*
X521208Y165608D02*
X520700Y165100D01*
X521208Y215392D02*
X520700Y215900D01*
X793496Y188976D02*
X793496Y183896D01*
X793496Y188976D02*
X745744Y236728D01*
X566928Y236728D01*
X546100Y215900D01*
X793496Y183896D02*
X793750Y183134D01*
X546608Y165608D02*
X546608Y215392D01*
X546608Y165608D02*
X546100Y165100D01*
X546608Y215392D02*
X546100Y215900D01*
X780288Y188976D02*
X780288Y183896D01*
X780288Y188976D02*
X736600Y232664D01*
X588264Y232664D01*
X571500Y215900D01*
X780288Y183896D02*
X781050Y183134D01*
X572008Y165608D02*
X572008Y215392D01*
X572008Y165608D02*
X571500Y165100D01*
X572008Y215392D02*
X571500Y215900D01*
X768096Y188976D02*
X768096Y183896D01*
X768096Y188976D02*
X741680Y215392D01*
X597408Y215392D01*
X768096Y183896D02*
X768350Y183134D01*
X597408Y215392D02*
X596900Y215900D01*
X597408Y214376D02*
X597408Y165608D01*
X596900Y165100D01*
X597408Y214376D02*
X596900Y215900D01*
X832104Y182880D02*
X895096Y182880D01*
X925576Y152400D01*
X832104Y182880D02*
X831850Y183134D01*
X925576Y152400D02*
X925830Y152400D01*
X272288Y183896D02*
X272288Y188976D01*
X235712Y225552D01*
X94488Y225552D01*
X77216Y208280D01*
X77216Y164592D01*
X89408Y152400D01*
X272288Y183896D02*
X273050Y183134D01*
X90170Y152400D02*
X89408Y152400D01*
X831088Y183896D02*
X831088Y188976D01*
X767080Y252984D01*
X337312Y252984D01*
X273304Y188976D01*
X831088Y183896D02*
X831850Y183134D01*
X273304Y188976D02*
X273050Y183134D01*
M02*
