G04 EAGLE Gerber RS-274X export*
G75*
%MOMM*%
%FSLAX34Y34*%
%LPD*%
%IN*%
%IPPOS*%
%AMOC8*
5,1,8,0,0,1.08239X$1,22.5*%
G01*
%ADD10C,0.254000*%


D10*
X0Y0D02*
X1000000Y0D01*
X1000000Y304700D01*
X0Y304700D01*
X0Y0D01*
X181610Y37560D02*
X181539Y36481D01*
X181398Y35409D01*
X181187Y34349D01*
X180908Y33305D01*
X180560Y32281D01*
X180146Y31283D01*
X179668Y30313D01*
X179128Y29377D01*
X178527Y28478D01*
X177869Y27621D01*
X177157Y26808D01*
X176392Y26044D01*
X175579Y25331D01*
X174722Y24673D01*
X173823Y24072D01*
X172887Y23532D01*
X171917Y23054D01*
X170919Y22640D01*
X169895Y22292D01*
X168851Y22013D01*
X167791Y21802D01*
X166719Y21661D01*
X165640Y21590D01*
X164560Y21590D01*
X163481Y21661D01*
X162409Y21802D01*
X161349Y22013D01*
X160305Y22292D01*
X159281Y22640D01*
X158283Y23054D01*
X157313Y23532D01*
X156377Y24072D01*
X155478Y24673D01*
X154621Y25331D01*
X153808Y26044D01*
X153044Y26808D01*
X152331Y27621D01*
X151673Y28478D01*
X151072Y29377D01*
X150532Y30313D01*
X150054Y31283D01*
X149640Y32281D01*
X149292Y33305D01*
X149013Y34349D01*
X148802Y35409D01*
X148661Y36481D01*
X148590Y37560D01*
X148590Y38640D01*
X148661Y39719D01*
X148802Y40791D01*
X149013Y41851D01*
X149292Y42895D01*
X149640Y43919D01*
X150054Y44917D01*
X150532Y45887D01*
X151072Y46823D01*
X151673Y47722D01*
X152331Y48579D01*
X153044Y49392D01*
X153808Y50157D01*
X154621Y50869D01*
X155478Y51527D01*
X156377Y52128D01*
X157313Y52668D01*
X158283Y53146D01*
X159281Y53560D01*
X160305Y53908D01*
X161349Y54187D01*
X162409Y54398D01*
X163481Y54539D01*
X164560Y54610D01*
X165640Y54610D01*
X166719Y54539D01*
X167791Y54398D01*
X168851Y54187D01*
X169895Y53908D01*
X170919Y53560D01*
X171917Y53146D01*
X172887Y52668D01*
X173823Y52128D01*
X174722Y51527D01*
X175579Y50869D01*
X176392Y50157D01*
X177157Y49392D01*
X177869Y48579D01*
X178527Y47722D01*
X179128Y46823D01*
X179668Y45887D01*
X180146Y44917D01*
X180560Y43919D01*
X180908Y42895D01*
X181187Y41851D01*
X181398Y40791D01*
X181539Y39719D01*
X181610Y38640D01*
X181610Y37560D01*
X181610Y266160D02*
X181539Y265081D01*
X181398Y264009D01*
X181187Y262949D01*
X180908Y261905D01*
X180560Y260881D01*
X180146Y259883D01*
X179668Y258913D01*
X179128Y257977D01*
X178527Y257078D01*
X177869Y256221D01*
X177157Y255408D01*
X176392Y254644D01*
X175579Y253931D01*
X174722Y253273D01*
X173823Y252672D01*
X172887Y252132D01*
X171917Y251654D01*
X170919Y251240D01*
X169895Y250892D01*
X168851Y250613D01*
X167791Y250402D01*
X166719Y250261D01*
X165640Y250190D01*
X164560Y250190D01*
X163481Y250261D01*
X162409Y250402D01*
X161349Y250613D01*
X160305Y250892D01*
X159281Y251240D01*
X158283Y251654D01*
X157313Y252132D01*
X156377Y252672D01*
X155478Y253273D01*
X154621Y253931D01*
X153808Y254644D01*
X153044Y255408D01*
X152331Y256221D01*
X151673Y257078D01*
X151072Y257977D01*
X150532Y258913D01*
X150054Y259883D01*
X149640Y260881D01*
X149292Y261905D01*
X149013Y262949D01*
X148802Y264009D01*
X148661Y265081D01*
X148590Y266160D01*
X148590Y267240D01*
X148661Y268319D01*
X148802Y269391D01*
X149013Y270451D01*
X149292Y271495D01*
X149640Y272519D01*
X150054Y273517D01*
X150532Y274487D01*
X151072Y275423D01*
X151673Y276322D01*
X152331Y277179D01*
X153044Y277992D01*
X153808Y278757D01*
X154621Y279469D01*
X155478Y280127D01*
X156377Y280728D01*
X157313Y281268D01*
X158283Y281746D01*
X159281Y282160D01*
X160305Y282508D01*
X161349Y282787D01*
X162409Y282998D01*
X163481Y283139D01*
X164560Y283210D01*
X165640Y283210D01*
X166719Y283139D01*
X167791Y282998D01*
X168851Y282787D01*
X169895Y282508D01*
X170919Y282160D01*
X171917Y281746D01*
X172887Y281268D01*
X173823Y280728D01*
X174722Y280127D01*
X175579Y279469D01*
X176392Y278757D01*
X177157Y277992D01*
X177869Y277179D01*
X178527Y276322D01*
X179128Y275423D01*
X179668Y274487D01*
X180146Y273517D01*
X180560Y272519D01*
X180908Y271495D01*
X181187Y270451D01*
X181398Y269391D01*
X181539Y268319D01*
X181610Y267240D01*
X181610Y266160D01*
X854710Y266160D02*
X854639Y265081D01*
X854498Y264009D01*
X854287Y262949D01*
X854008Y261905D01*
X853660Y260881D01*
X853246Y259883D01*
X852768Y258913D01*
X852228Y257977D01*
X851627Y257078D01*
X850969Y256221D01*
X850257Y255408D01*
X849492Y254644D01*
X848679Y253931D01*
X847822Y253273D01*
X846923Y252672D01*
X845987Y252132D01*
X845017Y251654D01*
X844019Y251240D01*
X842995Y250892D01*
X841951Y250613D01*
X840891Y250402D01*
X839819Y250261D01*
X838740Y250190D01*
X837660Y250190D01*
X836581Y250261D01*
X835509Y250402D01*
X834449Y250613D01*
X833405Y250892D01*
X832381Y251240D01*
X831383Y251654D01*
X830413Y252132D01*
X829477Y252672D01*
X828578Y253273D01*
X827721Y253931D01*
X826908Y254644D01*
X826144Y255408D01*
X825431Y256221D01*
X824773Y257078D01*
X824172Y257977D01*
X823632Y258913D01*
X823154Y259883D01*
X822740Y260881D01*
X822392Y261905D01*
X822113Y262949D01*
X821902Y264009D01*
X821761Y265081D01*
X821690Y266160D01*
X821690Y267240D01*
X821761Y268319D01*
X821902Y269391D01*
X822113Y270451D01*
X822392Y271495D01*
X822740Y272519D01*
X823154Y273517D01*
X823632Y274487D01*
X824172Y275423D01*
X824773Y276322D01*
X825431Y277179D01*
X826144Y277992D01*
X826908Y278757D01*
X827721Y279469D01*
X828578Y280127D01*
X829477Y280728D01*
X830413Y281268D01*
X831383Y281746D01*
X832381Y282160D01*
X833405Y282508D01*
X834449Y282787D01*
X835509Y282998D01*
X836581Y283139D01*
X837660Y283210D01*
X838740Y283210D01*
X839819Y283139D01*
X840891Y282998D01*
X841951Y282787D01*
X842995Y282508D01*
X844019Y282160D01*
X845017Y281746D01*
X845987Y281268D01*
X846923Y280728D01*
X847822Y280127D01*
X848679Y279469D01*
X849492Y278757D01*
X850257Y277992D01*
X850969Y277179D01*
X851627Y276322D01*
X852228Y275423D01*
X852768Y274487D01*
X853246Y273517D01*
X853660Y272519D01*
X854008Y271495D01*
X854287Y270451D01*
X854498Y269391D01*
X854639Y268319D01*
X854710Y267240D01*
X854710Y266160D01*
X854710Y37560D02*
X854639Y36481D01*
X854498Y35409D01*
X854287Y34349D01*
X854008Y33305D01*
X853660Y32281D01*
X853246Y31283D01*
X852768Y30313D01*
X852228Y29377D01*
X851627Y28478D01*
X850969Y27621D01*
X850257Y26808D01*
X849492Y26044D01*
X848679Y25331D01*
X847822Y24673D01*
X846923Y24072D01*
X845987Y23532D01*
X845017Y23054D01*
X844019Y22640D01*
X842995Y22292D01*
X841951Y22013D01*
X840891Y21802D01*
X839819Y21661D01*
X838740Y21590D01*
X837660Y21590D01*
X836581Y21661D01*
X835509Y21802D01*
X834449Y22013D01*
X833405Y22292D01*
X832381Y22640D01*
X831383Y23054D01*
X830413Y23532D01*
X829477Y24072D01*
X828578Y24673D01*
X827721Y25331D01*
X826908Y26044D01*
X826144Y26808D01*
X825431Y27621D01*
X824773Y28478D01*
X824172Y29377D01*
X823632Y30313D01*
X823154Y31283D01*
X822740Y32281D01*
X822392Y33305D01*
X822113Y34349D01*
X821902Y35409D01*
X821761Y36481D01*
X821690Y37560D01*
X821690Y38640D01*
X821761Y39719D01*
X821902Y40791D01*
X822113Y41851D01*
X822392Y42895D01*
X822740Y43919D01*
X823154Y44917D01*
X823632Y45887D01*
X824172Y46823D01*
X824773Y47722D01*
X825431Y48579D01*
X826144Y49392D01*
X826908Y50157D01*
X827721Y50869D01*
X828578Y51527D01*
X829477Y52128D01*
X830413Y52668D01*
X831383Y53146D01*
X832381Y53560D01*
X833405Y53908D01*
X834449Y54187D01*
X835509Y54398D01*
X836581Y54539D01*
X837660Y54610D01*
X838740Y54610D01*
X839819Y54539D01*
X840891Y54398D01*
X841951Y54187D01*
X842995Y53908D01*
X844019Y53560D01*
X845017Y53146D01*
X845987Y52668D01*
X846923Y52128D01*
X847822Y51527D01*
X848679Y50869D01*
X849492Y50157D01*
X850257Y49392D01*
X850969Y48579D01*
X851627Y47722D01*
X852228Y46823D01*
X852768Y45887D01*
X853246Y44917D01*
X853660Y43919D01*
X854008Y42895D01*
X854287Y41851D01*
X854498Y40791D01*
X854639Y39719D01*
X854710Y38640D01*
X854710Y37560D01*
M02*
