M48
;GenerationSoftware,Autodesk,EAGLE,9.6.2*%
;CreationDate,2022-07-24T20:14:23Z*%
FMAT,2
ICI,OFF
METRIC,TZ,000.000
T5C0.350
T4C1.016
T3C1.200
T2C3.302
%
G90
M71
T2
X60960Y17780
X24130Y17780
X60960Y69850
X24130Y69850
T3
X59690Y26670
X59690Y24130
X59690Y33020
X59690Y35560
X59690Y40640
X59690Y43180
X59690Y48260
X59690Y50800
X59690Y55880
X59690Y58420
T4
X40640Y20320
X53340Y67310
X50800Y67310
X48260Y67310
X45720Y67310
X43180Y67310
X40640Y67310
X38100Y67310
X53340Y20320
X50800Y20320
X48260Y20320
X45720Y20320
X43180Y20320
X38100Y20320
T5
X34290Y59690
X40640Y50800
X22860Y38100
X34290Y33020
X34290Y36830
X34290Y40640
X34290Y44450
X34290Y48260
X34290Y52070
X34290Y55880
X50800Y54610
X40640Y41910
X45720Y41910
X48260Y30480
X50800Y58420
X50800Y30480
X50800Y34290
X50800Y38100
X50800Y41910
X50800Y45720
X50800Y49530
M30