G04 EAGLE Gerber RS-274X export*
G75*
%MOMM*%
%FSLAX34Y34*%
%LPD*%
%INBottom Copper*%
%IPPOS*%
%AMOC8*
5,1,8,0,0,1.08239X$1,22.5*%
G01*
%ADD10C,1.530000*%
%ADD11C,1.879600*%
%ADD12C,1.320800*%
%ADD13C,0.762000*%
%ADD14C,0.756400*%
%ADD15C,0.254000*%


D10*
X393700Y139700D03*
X393700Y165100D03*
X419100Y139700D03*
X419100Y165100D03*
X444500Y139700D03*
X444500Y165100D03*
X469900Y139700D03*
X469900Y165100D03*
X495300Y139700D03*
X495300Y165100D03*
X520700Y139700D03*
X520700Y165100D03*
X546100Y139700D03*
X546100Y165100D03*
X571500Y139700D03*
X571500Y165100D03*
X596900Y139700D03*
X596900Y165100D03*
X622300Y139700D03*
X622300Y165100D03*
D11*
X62230Y203200D03*
X90170Y203200D03*
X62230Y177800D03*
X90170Y177800D03*
X62230Y152400D03*
X90170Y152400D03*
X62230Y127000D03*
X90170Y127000D03*
X62230Y101600D03*
X90170Y101600D03*
X953770Y101600D03*
X925830Y101600D03*
X953770Y127000D03*
X925830Y127000D03*
X953770Y152400D03*
X925830Y152400D03*
X953770Y177800D03*
X925830Y177800D03*
X953770Y203200D03*
X925830Y203200D03*
D12*
X393700Y209296D02*
X393700Y222504D01*
X419100Y222504D02*
X419100Y209296D01*
X444500Y209296D02*
X444500Y222504D01*
X469900Y222504D02*
X469900Y209296D01*
X495300Y209296D02*
X495300Y222504D01*
X520700Y222504D02*
X520700Y209296D01*
X546100Y209296D02*
X546100Y222504D01*
X571500Y222504D02*
X571500Y209296D01*
X596900Y209296D02*
X596900Y222504D01*
X622300Y95504D02*
X622300Y82296D01*
X596900Y82296D02*
X596900Y95504D01*
X571500Y95504D02*
X571500Y82296D01*
X546100Y82296D02*
X546100Y95504D01*
X520700Y95504D02*
X520700Y82296D01*
X495300Y82296D02*
X495300Y95504D01*
X469900Y95504D02*
X469900Y82296D01*
X444500Y82296D02*
X444500Y95504D01*
X419100Y95504D02*
X419100Y82296D01*
D13*
X361696Y107696D02*
X393700Y139700D01*
X149352Y218440D02*
X78232Y218440D01*
X62992Y203200D01*
X62230Y203200D01*
X62992Y200152D02*
X62992Y177800D01*
X62230Y177800D01*
X62992Y200152D02*
X62230Y203200D01*
X115824Y105664D02*
X358648Y105664D01*
X115824Y105664D02*
X96520Y86360D01*
X78232Y86360D01*
X62992Y101600D01*
X358648Y105664D02*
X361696Y107696D01*
X62992Y101600D02*
X62230Y101600D01*
X902208Y103632D02*
X919480Y86360D01*
X937768Y86360D01*
X953008Y101600D01*
X953770Y101600D01*
X954024Y104648D02*
X954024Y127000D01*
X953770Y127000D01*
X954024Y104648D02*
X953770Y101600D01*
X954024Y130048D02*
X954024Y152400D01*
X953770Y152400D01*
X954024Y130048D02*
X953770Y127000D01*
X954024Y155448D02*
X954024Y177800D01*
X953770Y177800D01*
X954024Y155448D02*
X953770Y152400D01*
X954024Y180848D02*
X954024Y203200D01*
X953770Y203200D01*
X954024Y180848D02*
X953770Y177800D01*
X840232Y164592D02*
X622808Y164592D01*
X840232Y164592D02*
X899160Y105664D01*
X622808Y164592D02*
X622300Y165100D01*
X899160Y105664D02*
X902208Y103632D01*
X373888Y220472D02*
X152400Y220472D01*
X373888Y220472D02*
X388112Y234696D01*
X577088Y234696D01*
X584200Y227584D01*
X584200Y203200D01*
X622300Y165100D01*
X152400Y220472D02*
X149352Y218440D01*
D14*
X361696Y107696D03*
X149352Y218440D03*
X902208Y103632D03*
D13*
X394208Y165608D02*
X394208Y215392D01*
X393700Y215900D01*
X394208Y165608D02*
X393700Y165100D01*
X390144Y163576D02*
X351536Y124968D01*
X390144Y163576D02*
X393700Y165100D01*
X348488Y127000D02*
X90170Y127000D01*
X348488Y127000D02*
X351536Y124968D01*
X896112Y154432D02*
X902208Y154432D01*
X925576Y177800D01*
X925830Y177800D01*
X926592Y180848D02*
X926592Y203200D01*
X925830Y203200D01*
X926592Y180848D02*
X925830Y177800D01*
X822960Y139192D02*
X622808Y139192D01*
X622300Y139700D01*
X605536Y124968D02*
X463296Y124968D01*
X605536Y124968D02*
X618744Y138176D01*
X622300Y139700D01*
D14*
X351536Y124968D03*
X896112Y154432D03*
X822960Y139192D03*
X463296Y124968D03*
D15*
X180848Y200152D02*
X112776Y200152D01*
X90424Y177800D01*
X90170Y177800D01*
D14*
X180848Y200152D03*
D15*
X406400Y171704D02*
X406400Y162560D01*
X418592Y150368D01*
X423672Y150368D01*
X433832Y140208D01*
X433832Y79248D01*
X440944Y72136D01*
X453136Y72136D01*
X469900Y88900D01*
D14*
X406400Y171704D03*
D15*
X445008Y139192D02*
X445008Y89408D01*
X444500Y88900D01*
X445008Y139192D02*
X444500Y139700D01*
X419608Y139192D02*
X419608Y89408D01*
X419100Y88900D01*
X419608Y139192D02*
X419100Y139700D01*
X502920Y147320D02*
X506984Y147320D01*
X502920Y147320D02*
X495808Y154432D01*
X465328Y154432D01*
X455168Y164592D01*
X455168Y169672D01*
X449072Y175768D01*
X429768Y175768D01*
X419100Y165100D01*
X419608Y186944D02*
X419608Y215392D01*
X419608Y186944D02*
X429768Y176784D01*
X419608Y215392D02*
X419100Y215900D01*
X429768Y176784D02*
X429768Y175768D01*
D14*
X506984Y147320D03*
D15*
X471424Y106680D02*
X762000Y106680D01*
X471424Y106680D02*
X455168Y122936D01*
X455168Y154432D01*
X444500Y165100D01*
D14*
X762000Y106680D03*
M02*
