G04 EAGLE Gerber RS-274X export*
G75*
%MOMM*%
%FSLAX34Y34*%
%LPD*%
%INSilkscreen Top*%
%IPPOS*%
%AMOC8*
5,1,8,0,0,1.08239X$1,22.5*%
G01*
%ADD10C,0.120000*%
%ADD11C,0.050800*%
%ADD12C,0.152400*%
%ADD13C,0.127000*%
%ADD14C,0.200000*%
%ADD15C,0.076200*%
%ADD16C,0.203200*%


D10*
X311600Y115650D02*
X311600Y112950D01*
X298000Y112950D02*
X298000Y115650D01*
D11*
X323342Y125375D02*
X323342Y126617D01*
X323342Y125375D02*
X323340Y125305D01*
X323334Y125236D01*
X323324Y125167D01*
X323311Y125099D01*
X323293Y125031D01*
X323272Y124965D01*
X323247Y124900D01*
X323219Y124836D01*
X323187Y124774D01*
X323152Y124714D01*
X323113Y124656D01*
X323071Y124601D01*
X323026Y124547D01*
X322978Y124497D01*
X322928Y124449D01*
X322874Y124404D01*
X322819Y124362D01*
X322761Y124323D01*
X322701Y124288D01*
X322639Y124256D01*
X322575Y124228D01*
X322510Y124203D01*
X322444Y124182D01*
X322376Y124164D01*
X322308Y124151D01*
X322239Y124141D01*
X322170Y124135D01*
X322100Y124133D01*
X318996Y124133D01*
X318926Y124135D01*
X318857Y124141D01*
X318788Y124151D01*
X318720Y124164D01*
X318652Y124182D01*
X318586Y124203D01*
X318521Y124228D01*
X318457Y124256D01*
X318395Y124288D01*
X318335Y124323D01*
X318277Y124362D01*
X318222Y124404D01*
X318168Y124449D01*
X318118Y124497D01*
X318070Y124547D01*
X318025Y124601D01*
X317983Y124656D01*
X317944Y124714D01*
X317909Y124774D01*
X317877Y124836D01*
X317849Y124900D01*
X317824Y124965D01*
X317803Y125031D01*
X317785Y125099D01*
X317772Y125167D01*
X317762Y125236D01*
X317756Y125305D01*
X317754Y125375D01*
X317754Y126617D01*
X318996Y128722D02*
X317754Y130274D01*
X323342Y130274D01*
X323342Y128722D02*
X323342Y131826D01*
D10*
X870400Y115650D02*
X870400Y112950D01*
X856800Y112950D02*
X856800Y115650D01*
D11*
X882142Y125375D02*
X882142Y126617D01*
X882142Y125375D02*
X882140Y125305D01*
X882134Y125236D01*
X882124Y125167D01*
X882111Y125099D01*
X882093Y125031D01*
X882072Y124965D01*
X882047Y124900D01*
X882019Y124836D01*
X881987Y124774D01*
X881952Y124714D01*
X881913Y124656D01*
X881871Y124601D01*
X881826Y124547D01*
X881778Y124497D01*
X881728Y124449D01*
X881674Y124404D01*
X881619Y124362D01*
X881561Y124323D01*
X881501Y124288D01*
X881439Y124256D01*
X881375Y124228D01*
X881310Y124203D01*
X881244Y124182D01*
X881176Y124164D01*
X881108Y124151D01*
X881039Y124141D01*
X880970Y124135D01*
X880900Y124133D01*
X877796Y124133D01*
X877726Y124135D01*
X877657Y124141D01*
X877588Y124151D01*
X877520Y124164D01*
X877452Y124182D01*
X877386Y124203D01*
X877321Y124228D01*
X877257Y124256D01*
X877195Y124288D01*
X877135Y124323D01*
X877077Y124362D01*
X877022Y124404D01*
X876968Y124449D01*
X876918Y124497D01*
X876870Y124547D01*
X876825Y124601D01*
X876783Y124656D01*
X876744Y124714D01*
X876709Y124774D01*
X876677Y124836D01*
X876649Y124900D01*
X876624Y124965D01*
X876603Y125031D01*
X876585Y125099D01*
X876572Y125167D01*
X876562Y125236D01*
X876556Y125305D01*
X876554Y125375D01*
X876554Y126617D01*
X876554Y130429D02*
X876556Y130502D01*
X876562Y130575D01*
X876571Y130648D01*
X876585Y130719D01*
X876602Y130791D01*
X876622Y130861D01*
X876647Y130930D01*
X876675Y130997D01*
X876706Y131063D01*
X876741Y131128D01*
X876779Y131190D01*
X876821Y131250D01*
X876865Y131308D01*
X876913Y131364D01*
X876963Y131417D01*
X877016Y131467D01*
X877072Y131515D01*
X877130Y131559D01*
X877190Y131601D01*
X877253Y131639D01*
X877317Y131674D01*
X877383Y131705D01*
X877450Y131733D01*
X877519Y131758D01*
X877589Y131778D01*
X877661Y131795D01*
X877732Y131809D01*
X877805Y131818D01*
X877878Y131824D01*
X877951Y131826D01*
X876554Y130429D02*
X876556Y130345D01*
X876562Y130262D01*
X876571Y130179D01*
X876585Y130096D01*
X876602Y130015D01*
X876624Y129934D01*
X876649Y129854D01*
X876677Y129776D01*
X876709Y129698D01*
X876745Y129623D01*
X876784Y129549D01*
X876827Y129477D01*
X876873Y129407D01*
X876922Y129340D01*
X876975Y129274D01*
X877030Y129212D01*
X877088Y129152D01*
X877149Y129094D01*
X877212Y129040D01*
X877278Y128988D01*
X877346Y128940D01*
X877417Y128895D01*
X877489Y128853D01*
X877564Y128815D01*
X877640Y128780D01*
X877717Y128749D01*
X877796Y128721D01*
X879037Y131360D02*
X878984Y131414D01*
X878927Y131465D01*
X878868Y131513D01*
X878807Y131558D01*
X878744Y131599D01*
X878678Y131638D01*
X878611Y131673D01*
X878542Y131705D01*
X878471Y131733D01*
X878400Y131757D01*
X878327Y131778D01*
X878253Y131795D01*
X878178Y131809D01*
X878103Y131818D01*
X878027Y131824D01*
X877951Y131826D01*
X879038Y131360D02*
X882142Y128722D01*
X882142Y131826D01*
D12*
X181610Y171958D02*
X181488Y171956D01*
X181366Y171950D01*
X181244Y171940D01*
X181123Y171927D01*
X181002Y171909D01*
X180882Y171888D01*
X180762Y171862D01*
X180644Y171833D01*
X180526Y171801D01*
X180409Y171764D01*
X180294Y171724D01*
X180180Y171680D01*
X180068Y171632D01*
X179957Y171581D01*
X179848Y171526D01*
X179740Y171468D01*
X179635Y171406D01*
X179532Y171341D01*
X179430Y171273D01*
X179331Y171201D01*
X179235Y171127D01*
X179140Y171049D01*
X179049Y170968D01*
X178959Y170885D01*
X178873Y170799D01*
X178790Y170709D01*
X178709Y170618D01*
X178631Y170523D01*
X178557Y170427D01*
X178485Y170328D01*
X178417Y170226D01*
X178352Y170123D01*
X178290Y170018D01*
X178232Y169910D01*
X178177Y169801D01*
X178126Y169690D01*
X178078Y169578D01*
X178034Y169464D01*
X177994Y169349D01*
X177957Y169232D01*
X177925Y169114D01*
X177896Y168996D01*
X177870Y168876D01*
X177849Y168756D01*
X177831Y168635D01*
X177818Y168514D01*
X177808Y168392D01*
X177802Y168270D01*
X177800Y168148D01*
X275590Y132842D02*
X275712Y132844D01*
X275834Y132850D01*
X275956Y132860D01*
X276077Y132873D01*
X276198Y132891D01*
X276318Y132912D01*
X276438Y132938D01*
X276556Y132967D01*
X276674Y132999D01*
X276791Y133036D01*
X276906Y133076D01*
X277020Y133120D01*
X277132Y133168D01*
X277243Y133219D01*
X277352Y133274D01*
X277460Y133332D01*
X277565Y133394D01*
X277668Y133459D01*
X277770Y133527D01*
X277869Y133599D01*
X277965Y133673D01*
X278060Y133751D01*
X278151Y133832D01*
X278241Y133915D01*
X278327Y134001D01*
X278410Y134091D01*
X278491Y134182D01*
X278569Y134277D01*
X278643Y134373D01*
X278715Y134472D01*
X278783Y134574D01*
X278848Y134677D01*
X278910Y134782D01*
X278968Y134890D01*
X279023Y134999D01*
X279074Y135110D01*
X279122Y135222D01*
X279166Y135336D01*
X279206Y135451D01*
X279243Y135568D01*
X279275Y135686D01*
X279304Y135804D01*
X279330Y135924D01*
X279351Y136044D01*
X279369Y136165D01*
X279382Y136286D01*
X279392Y136408D01*
X279398Y136530D01*
X279400Y136652D01*
X181610Y132842D02*
X181488Y132844D01*
X181366Y132850D01*
X181244Y132860D01*
X181123Y132873D01*
X181002Y132891D01*
X180882Y132912D01*
X180762Y132938D01*
X180644Y132967D01*
X180526Y132999D01*
X180409Y133036D01*
X180294Y133076D01*
X180180Y133120D01*
X180068Y133168D01*
X179957Y133219D01*
X179848Y133274D01*
X179740Y133332D01*
X179635Y133394D01*
X179532Y133459D01*
X179430Y133527D01*
X179331Y133599D01*
X179235Y133673D01*
X179140Y133751D01*
X179049Y133832D01*
X178959Y133915D01*
X178873Y134001D01*
X178790Y134091D01*
X178709Y134182D01*
X178631Y134277D01*
X178557Y134373D01*
X178485Y134472D01*
X178417Y134574D01*
X178352Y134677D01*
X178290Y134782D01*
X178232Y134890D01*
X178177Y134999D01*
X178126Y135110D01*
X178078Y135222D01*
X178034Y135336D01*
X177994Y135451D01*
X177957Y135568D01*
X177925Y135686D01*
X177896Y135804D01*
X177870Y135924D01*
X177849Y136044D01*
X177831Y136165D01*
X177818Y136286D01*
X177808Y136408D01*
X177802Y136530D01*
X177800Y136652D01*
X275590Y171958D02*
X275712Y171956D01*
X275834Y171950D01*
X275956Y171940D01*
X276077Y171927D01*
X276198Y171909D01*
X276318Y171888D01*
X276438Y171862D01*
X276556Y171833D01*
X276674Y171801D01*
X276791Y171764D01*
X276906Y171724D01*
X277020Y171680D01*
X277132Y171632D01*
X277243Y171581D01*
X277352Y171526D01*
X277460Y171468D01*
X277565Y171406D01*
X277668Y171341D01*
X277770Y171273D01*
X277869Y171201D01*
X277965Y171127D01*
X278060Y171049D01*
X278151Y170968D01*
X278241Y170885D01*
X278327Y170799D01*
X278410Y170709D01*
X278491Y170618D01*
X278569Y170523D01*
X278643Y170427D01*
X278715Y170328D01*
X278783Y170226D01*
X278848Y170123D01*
X278910Y170018D01*
X278968Y169910D01*
X279023Y169801D01*
X279074Y169690D01*
X279122Y169578D01*
X279166Y169464D01*
X279206Y169349D01*
X279243Y169232D01*
X279275Y169114D01*
X279304Y168996D01*
X279330Y168876D01*
X279351Y168756D01*
X279369Y168635D01*
X279382Y168514D01*
X279392Y168392D01*
X279398Y168270D01*
X279400Y168148D01*
X177800Y168148D02*
X177800Y136652D01*
X279400Y136652D02*
X279400Y147320D01*
X279400Y157480D01*
X279400Y168148D01*
X279400Y157480D02*
X279259Y157478D01*
X279118Y157472D01*
X278977Y157462D01*
X278836Y157449D01*
X278696Y157431D01*
X278557Y157409D01*
X278418Y157384D01*
X278279Y157355D01*
X278142Y157322D01*
X278006Y157285D01*
X277871Y157244D01*
X277736Y157200D01*
X277604Y157152D01*
X277472Y157100D01*
X277342Y157045D01*
X277214Y156986D01*
X277087Y156923D01*
X276963Y156857D01*
X276840Y156788D01*
X276719Y156715D01*
X276600Y156639D01*
X276483Y156559D01*
X276369Y156476D01*
X276256Y156391D01*
X276147Y156302D01*
X276039Y156210D01*
X275935Y156115D01*
X275833Y156017D01*
X275734Y155916D01*
X275637Y155813D01*
X275544Y155707D01*
X275454Y155599D01*
X275366Y155488D01*
X275282Y155375D01*
X275201Y155259D01*
X275123Y155141D01*
X275048Y155021D01*
X274977Y154899D01*
X274909Y154775D01*
X274845Y154649D01*
X274784Y154522D01*
X274727Y154393D01*
X274674Y154262D01*
X274624Y154130D01*
X274577Y153997D01*
X274535Y153862D01*
X274496Y153726D01*
X274461Y153589D01*
X274430Y153452D01*
X274403Y153313D01*
X274379Y153174D01*
X274360Y153034D01*
X274344Y152894D01*
X274332Y152753D01*
X274324Y152612D01*
X274320Y152471D01*
X274320Y152329D01*
X274324Y152188D01*
X274332Y152047D01*
X274344Y151906D01*
X274360Y151766D01*
X274379Y151626D01*
X274403Y151487D01*
X274430Y151348D01*
X274461Y151211D01*
X274496Y151074D01*
X274535Y150938D01*
X274577Y150803D01*
X274624Y150670D01*
X274674Y150538D01*
X274727Y150407D01*
X274784Y150278D01*
X274845Y150151D01*
X274909Y150025D01*
X274977Y149901D01*
X275048Y149779D01*
X275123Y149659D01*
X275201Y149541D01*
X275282Y149425D01*
X275366Y149312D01*
X275454Y149201D01*
X275544Y149093D01*
X275637Y148987D01*
X275734Y148884D01*
X275833Y148783D01*
X275935Y148685D01*
X276039Y148590D01*
X276147Y148498D01*
X276256Y148409D01*
X276369Y148324D01*
X276483Y148241D01*
X276600Y148161D01*
X276719Y148085D01*
X276840Y148012D01*
X276963Y147943D01*
X277087Y147877D01*
X277214Y147814D01*
X277342Y147755D01*
X277472Y147700D01*
X277604Y147648D01*
X277736Y147600D01*
X277871Y147556D01*
X278006Y147515D01*
X278142Y147478D01*
X278279Y147445D01*
X278418Y147416D01*
X278557Y147391D01*
X278696Y147369D01*
X278836Y147351D01*
X278977Y147338D01*
X279118Y147328D01*
X279259Y147322D01*
X279400Y147320D01*
D11*
X279400Y168402D02*
X177800Y168402D01*
D13*
X283845Y148971D02*
X295275Y148971D01*
X295275Y147701D02*
X295275Y150241D01*
X283845Y150241D02*
X283845Y147701D01*
X295275Y157443D02*
X295275Y159983D01*
X295275Y157443D02*
X295273Y157343D01*
X295267Y157244D01*
X295257Y157144D01*
X295244Y157046D01*
X295226Y156947D01*
X295205Y156850D01*
X295180Y156754D01*
X295151Y156658D01*
X295118Y156564D01*
X295082Y156471D01*
X295042Y156380D01*
X294998Y156290D01*
X294951Y156202D01*
X294901Y156116D01*
X294847Y156032D01*
X294790Y155950D01*
X294730Y155871D01*
X294666Y155793D01*
X294600Y155719D01*
X294531Y155647D01*
X294459Y155578D01*
X294385Y155512D01*
X294307Y155448D01*
X294228Y155388D01*
X294146Y155331D01*
X294062Y155277D01*
X293976Y155227D01*
X293888Y155180D01*
X293798Y155136D01*
X293707Y155096D01*
X293614Y155060D01*
X293520Y155027D01*
X293424Y154998D01*
X293328Y154973D01*
X293231Y154952D01*
X293132Y154934D01*
X293034Y154921D01*
X292934Y154911D01*
X292835Y154905D01*
X292735Y154903D01*
X286385Y154903D01*
X286285Y154905D01*
X286186Y154911D01*
X286086Y154921D01*
X285988Y154934D01*
X285889Y154952D01*
X285792Y154973D01*
X285696Y154998D01*
X285600Y155027D01*
X285506Y155060D01*
X285413Y155096D01*
X285322Y155136D01*
X285232Y155180D01*
X285144Y155227D01*
X285058Y155277D01*
X284974Y155331D01*
X284892Y155388D01*
X284813Y155448D01*
X284735Y155512D01*
X284661Y155578D01*
X284589Y155647D01*
X284520Y155719D01*
X284454Y155793D01*
X284390Y155871D01*
X284330Y155950D01*
X284273Y156032D01*
X284219Y156116D01*
X284169Y156202D01*
X284122Y156290D01*
X284078Y156380D01*
X284038Y156471D01*
X284002Y156564D01*
X283969Y156658D01*
X283940Y156754D01*
X283915Y156850D01*
X283894Y156947D01*
X283876Y157046D01*
X283863Y157144D01*
X283853Y157244D01*
X283847Y157343D01*
X283845Y157443D01*
X283845Y159983D01*
X286385Y164465D02*
X283845Y167640D01*
X295275Y167640D01*
X295275Y164465D02*
X295275Y170815D01*
D12*
X736600Y168148D02*
X736602Y168270D01*
X736608Y168392D01*
X736618Y168514D01*
X736631Y168635D01*
X736649Y168756D01*
X736670Y168876D01*
X736696Y168996D01*
X736725Y169114D01*
X736757Y169232D01*
X736794Y169349D01*
X736834Y169464D01*
X736878Y169578D01*
X736926Y169690D01*
X736977Y169801D01*
X737032Y169910D01*
X737090Y170018D01*
X737152Y170123D01*
X737217Y170226D01*
X737285Y170328D01*
X737357Y170427D01*
X737431Y170523D01*
X737509Y170618D01*
X737590Y170709D01*
X737673Y170799D01*
X737759Y170885D01*
X737849Y170968D01*
X737940Y171049D01*
X738035Y171127D01*
X738131Y171201D01*
X738230Y171273D01*
X738332Y171341D01*
X738435Y171406D01*
X738540Y171468D01*
X738648Y171526D01*
X738757Y171581D01*
X738868Y171632D01*
X738980Y171680D01*
X739094Y171724D01*
X739209Y171764D01*
X739326Y171801D01*
X739444Y171833D01*
X739562Y171862D01*
X739682Y171888D01*
X739802Y171909D01*
X739923Y171927D01*
X740044Y171940D01*
X740166Y171950D01*
X740288Y171956D01*
X740410Y171958D01*
X834390Y132842D02*
X834512Y132844D01*
X834634Y132850D01*
X834756Y132860D01*
X834877Y132873D01*
X834998Y132891D01*
X835118Y132912D01*
X835238Y132938D01*
X835356Y132967D01*
X835474Y132999D01*
X835591Y133036D01*
X835706Y133076D01*
X835820Y133120D01*
X835932Y133168D01*
X836043Y133219D01*
X836152Y133274D01*
X836260Y133332D01*
X836365Y133394D01*
X836468Y133459D01*
X836570Y133527D01*
X836669Y133599D01*
X836765Y133673D01*
X836860Y133751D01*
X836951Y133832D01*
X837041Y133915D01*
X837127Y134001D01*
X837210Y134091D01*
X837291Y134182D01*
X837369Y134277D01*
X837443Y134373D01*
X837515Y134472D01*
X837583Y134574D01*
X837648Y134677D01*
X837710Y134782D01*
X837768Y134890D01*
X837823Y134999D01*
X837874Y135110D01*
X837922Y135222D01*
X837966Y135336D01*
X838006Y135451D01*
X838043Y135568D01*
X838075Y135686D01*
X838104Y135804D01*
X838130Y135924D01*
X838151Y136044D01*
X838169Y136165D01*
X838182Y136286D01*
X838192Y136408D01*
X838198Y136530D01*
X838200Y136652D01*
X740410Y132842D02*
X740288Y132844D01*
X740166Y132850D01*
X740044Y132860D01*
X739923Y132873D01*
X739802Y132891D01*
X739682Y132912D01*
X739562Y132938D01*
X739444Y132967D01*
X739326Y132999D01*
X739209Y133036D01*
X739094Y133076D01*
X738980Y133120D01*
X738868Y133168D01*
X738757Y133219D01*
X738648Y133274D01*
X738540Y133332D01*
X738435Y133394D01*
X738332Y133459D01*
X738230Y133527D01*
X738131Y133599D01*
X738035Y133673D01*
X737940Y133751D01*
X737849Y133832D01*
X737759Y133915D01*
X737673Y134001D01*
X737590Y134091D01*
X737509Y134182D01*
X737431Y134277D01*
X737357Y134373D01*
X737285Y134472D01*
X737217Y134574D01*
X737152Y134677D01*
X737090Y134782D01*
X737032Y134890D01*
X736977Y134999D01*
X736926Y135110D01*
X736878Y135222D01*
X736834Y135336D01*
X736794Y135451D01*
X736757Y135568D01*
X736725Y135686D01*
X736696Y135804D01*
X736670Y135924D01*
X736649Y136044D01*
X736631Y136165D01*
X736618Y136286D01*
X736608Y136408D01*
X736602Y136530D01*
X736600Y136652D01*
X834390Y171958D02*
X834512Y171956D01*
X834634Y171950D01*
X834756Y171940D01*
X834877Y171927D01*
X834998Y171909D01*
X835118Y171888D01*
X835238Y171862D01*
X835356Y171833D01*
X835474Y171801D01*
X835591Y171764D01*
X835706Y171724D01*
X835820Y171680D01*
X835932Y171632D01*
X836043Y171581D01*
X836152Y171526D01*
X836260Y171468D01*
X836365Y171406D01*
X836468Y171341D01*
X836570Y171273D01*
X836669Y171201D01*
X836765Y171127D01*
X836860Y171049D01*
X836951Y170968D01*
X837041Y170885D01*
X837127Y170799D01*
X837210Y170709D01*
X837291Y170618D01*
X837369Y170523D01*
X837443Y170427D01*
X837515Y170328D01*
X837583Y170226D01*
X837648Y170123D01*
X837710Y170018D01*
X837768Y169910D01*
X837823Y169801D01*
X837874Y169690D01*
X837922Y169578D01*
X837966Y169464D01*
X838006Y169349D01*
X838043Y169232D01*
X838075Y169114D01*
X838104Y168996D01*
X838130Y168876D01*
X838151Y168756D01*
X838169Y168635D01*
X838182Y168514D01*
X838192Y168392D01*
X838198Y168270D01*
X838200Y168148D01*
X736600Y168148D02*
X736600Y136652D01*
X838200Y136652D02*
X838200Y147320D01*
X838200Y157480D01*
X838200Y168148D01*
X838200Y157480D02*
X838059Y157478D01*
X837918Y157472D01*
X837777Y157462D01*
X837636Y157449D01*
X837496Y157431D01*
X837357Y157409D01*
X837218Y157384D01*
X837079Y157355D01*
X836942Y157322D01*
X836806Y157285D01*
X836671Y157244D01*
X836536Y157200D01*
X836404Y157152D01*
X836272Y157100D01*
X836142Y157045D01*
X836014Y156986D01*
X835887Y156923D01*
X835763Y156857D01*
X835640Y156788D01*
X835519Y156715D01*
X835400Y156639D01*
X835283Y156559D01*
X835169Y156476D01*
X835056Y156391D01*
X834947Y156302D01*
X834839Y156210D01*
X834735Y156115D01*
X834633Y156017D01*
X834534Y155916D01*
X834437Y155813D01*
X834344Y155707D01*
X834254Y155599D01*
X834166Y155488D01*
X834082Y155375D01*
X834001Y155259D01*
X833923Y155141D01*
X833848Y155021D01*
X833777Y154899D01*
X833709Y154775D01*
X833645Y154649D01*
X833584Y154522D01*
X833527Y154393D01*
X833474Y154262D01*
X833424Y154130D01*
X833377Y153997D01*
X833335Y153862D01*
X833296Y153726D01*
X833261Y153589D01*
X833230Y153452D01*
X833203Y153313D01*
X833179Y153174D01*
X833160Y153034D01*
X833144Y152894D01*
X833132Y152753D01*
X833124Y152612D01*
X833120Y152471D01*
X833120Y152329D01*
X833124Y152188D01*
X833132Y152047D01*
X833144Y151906D01*
X833160Y151766D01*
X833179Y151626D01*
X833203Y151487D01*
X833230Y151348D01*
X833261Y151211D01*
X833296Y151074D01*
X833335Y150938D01*
X833377Y150803D01*
X833424Y150670D01*
X833474Y150538D01*
X833527Y150407D01*
X833584Y150278D01*
X833645Y150151D01*
X833709Y150025D01*
X833777Y149901D01*
X833848Y149779D01*
X833923Y149659D01*
X834001Y149541D01*
X834082Y149425D01*
X834166Y149312D01*
X834254Y149201D01*
X834344Y149093D01*
X834437Y148987D01*
X834534Y148884D01*
X834633Y148783D01*
X834735Y148685D01*
X834839Y148590D01*
X834947Y148498D01*
X835056Y148409D01*
X835169Y148324D01*
X835283Y148241D01*
X835400Y148161D01*
X835519Y148085D01*
X835640Y148012D01*
X835763Y147943D01*
X835887Y147877D01*
X836014Y147814D01*
X836142Y147755D01*
X836272Y147700D01*
X836404Y147648D01*
X836536Y147600D01*
X836671Y147556D01*
X836806Y147515D01*
X836942Y147478D01*
X837079Y147445D01*
X837218Y147416D01*
X837357Y147391D01*
X837496Y147369D01*
X837636Y147351D01*
X837777Y147338D01*
X837918Y147328D01*
X838059Y147322D01*
X838200Y147320D01*
D11*
X838200Y168402D02*
X736600Y168402D01*
D13*
X842645Y148971D02*
X854075Y148971D01*
X854075Y147701D02*
X854075Y150241D01*
X842645Y150241D02*
X842645Y147701D01*
X854075Y157443D02*
X854075Y159983D01*
X854075Y157443D02*
X854073Y157343D01*
X854067Y157244D01*
X854057Y157144D01*
X854044Y157046D01*
X854026Y156947D01*
X854005Y156850D01*
X853980Y156754D01*
X853951Y156658D01*
X853918Y156564D01*
X853882Y156471D01*
X853842Y156380D01*
X853798Y156290D01*
X853751Y156202D01*
X853701Y156116D01*
X853647Y156032D01*
X853590Y155950D01*
X853530Y155871D01*
X853466Y155793D01*
X853400Y155719D01*
X853331Y155647D01*
X853259Y155578D01*
X853185Y155512D01*
X853107Y155448D01*
X853028Y155388D01*
X852946Y155331D01*
X852862Y155277D01*
X852776Y155227D01*
X852688Y155180D01*
X852598Y155136D01*
X852507Y155096D01*
X852414Y155060D01*
X852320Y155027D01*
X852224Y154998D01*
X852128Y154973D01*
X852031Y154952D01*
X851932Y154934D01*
X851834Y154921D01*
X851734Y154911D01*
X851635Y154905D01*
X851535Y154903D01*
X845185Y154903D01*
X845085Y154905D01*
X844986Y154911D01*
X844886Y154921D01*
X844788Y154934D01*
X844689Y154952D01*
X844592Y154973D01*
X844496Y154998D01*
X844400Y155027D01*
X844306Y155060D01*
X844213Y155096D01*
X844122Y155136D01*
X844032Y155180D01*
X843944Y155227D01*
X843858Y155277D01*
X843774Y155331D01*
X843692Y155388D01*
X843613Y155448D01*
X843535Y155512D01*
X843461Y155578D01*
X843389Y155647D01*
X843320Y155719D01*
X843254Y155793D01*
X843190Y155871D01*
X843130Y155950D01*
X843073Y156032D01*
X843019Y156116D01*
X842969Y156202D01*
X842922Y156290D01*
X842878Y156380D01*
X842838Y156471D01*
X842802Y156564D01*
X842769Y156658D01*
X842740Y156754D01*
X842715Y156850D01*
X842694Y156947D01*
X842676Y157046D01*
X842663Y157144D01*
X842653Y157244D01*
X842647Y157343D01*
X842645Y157443D01*
X842645Y159983D01*
X842645Y167958D02*
X842647Y168062D01*
X842653Y168167D01*
X842662Y168271D01*
X842675Y168374D01*
X842693Y168477D01*
X842713Y168579D01*
X842738Y168681D01*
X842766Y168781D01*
X842798Y168881D01*
X842834Y168979D01*
X842873Y169076D01*
X842915Y169171D01*
X842961Y169265D01*
X843011Y169357D01*
X843063Y169447D01*
X843119Y169535D01*
X843179Y169621D01*
X843241Y169705D01*
X843306Y169786D01*
X843374Y169865D01*
X843446Y169942D01*
X843519Y170015D01*
X843596Y170087D01*
X843675Y170155D01*
X843756Y170220D01*
X843840Y170282D01*
X843926Y170342D01*
X844014Y170398D01*
X844104Y170450D01*
X844196Y170500D01*
X844290Y170546D01*
X844385Y170588D01*
X844482Y170627D01*
X844580Y170663D01*
X844680Y170695D01*
X844780Y170723D01*
X844882Y170748D01*
X844984Y170768D01*
X845087Y170786D01*
X845190Y170799D01*
X845294Y170808D01*
X845399Y170814D01*
X845503Y170816D01*
X842645Y167958D02*
X842647Y167840D01*
X842653Y167721D01*
X842662Y167603D01*
X842675Y167486D01*
X842693Y167369D01*
X842713Y167252D01*
X842738Y167136D01*
X842766Y167021D01*
X842799Y166908D01*
X842834Y166795D01*
X842874Y166683D01*
X842916Y166573D01*
X842963Y166464D01*
X843013Y166356D01*
X843066Y166251D01*
X843123Y166147D01*
X843183Y166045D01*
X843246Y165945D01*
X843313Y165847D01*
X843382Y165751D01*
X843455Y165658D01*
X843531Y165567D01*
X843609Y165478D01*
X843691Y165392D01*
X843775Y165309D01*
X843861Y165228D01*
X843951Y165151D01*
X844042Y165076D01*
X844136Y165004D01*
X844233Y164935D01*
X844331Y164870D01*
X844432Y164807D01*
X844535Y164748D01*
X844639Y164692D01*
X844745Y164640D01*
X844853Y164591D01*
X844962Y164546D01*
X845073Y164504D01*
X845185Y164466D01*
X847725Y169863D02*
X847650Y169939D01*
X847571Y170014D01*
X847490Y170085D01*
X847406Y170154D01*
X847320Y170219D01*
X847232Y170281D01*
X847142Y170341D01*
X847050Y170397D01*
X846955Y170450D01*
X846859Y170499D01*
X846761Y170545D01*
X846662Y170588D01*
X846561Y170627D01*
X846459Y170662D01*
X846356Y170694D01*
X846252Y170722D01*
X846147Y170747D01*
X846040Y170768D01*
X845934Y170785D01*
X845827Y170798D01*
X845719Y170807D01*
X845611Y170813D01*
X845503Y170815D01*
X847725Y169863D02*
X854075Y164465D01*
X854075Y170815D01*
D14*
X663250Y183400D02*
X352750Y183400D01*
X663250Y183400D02*
X663250Y121400D01*
X352750Y121400D01*
X352750Y183400D01*
X379300Y135100D02*
X379302Y135163D01*
X379308Y135225D01*
X379318Y135287D01*
X379331Y135349D01*
X379349Y135409D01*
X379370Y135468D01*
X379395Y135526D01*
X379424Y135582D01*
X379456Y135636D01*
X379491Y135688D01*
X379529Y135737D01*
X379571Y135785D01*
X379615Y135829D01*
X379663Y135871D01*
X379712Y135909D01*
X379764Y135944D01*
X379818Y135976D01*
X379874Y136005D01*
X379932Y136030D01*
X379991Y136051D01*
X380051Y136069D01*
X380113Y136082D01*
X380175Y136092D01*
X380237Y136098D01*
X380300Y136100D01*
X380363Y136098D01*
X380425Y136092D01*
X380487Y136082D01*
X380549Y136069D01*
X380609Y136051D01*
X380668Y136030D01*
X380726Y136005D01*
X380782Y135976D01*
X380836Y135944D01*
X380888Y135909D01*
X380937Y135871D01*
X380985Y135829D01*
X381029Y135785D01*
X381071Y135737D01*
X381109Y135688D01*
X381144Y135636D01*
X381176Y135582D01*
X381205Y135526D01*
X381230Y135468D01*
X381251Y135409D01*
X381269Y135349D01*
X381282Y135287D01*
X381292Y135225D01*
X381298Y135163D01*
X381300Y135100D01*
X381298Y135037D01*
X381292Y134975D01*
X381282Y134913D01*
X381269Y134851D01*
X381251Y134791D01*
X381230Y134732D01*
X381205Y134674D01*
X381176Y134618D01*
X381144Y134564D01*
X381109Y134512D01*
X381071Y134463D01*
X381029Y134415D01*
X380985Y134371D01*
X380937Y134329D01*
X380888Y134291D01*
X380836Y134256D01*
X380782Y134224D01*
X380726Y134195D01*
X380668Y134170D01*
X380609Y134149D01*
X380549Y134131D01*
X380487Y134118D01*
X380425Y134108D01*
X380363Y134102D01*
X380300Y134100D01*
X380237Y134102D01*
X380175Y134108D01*
X380113Y134118D01*
X380051Y134131D01*
X379991Y134149D01*
X379932Y134170D01*
X379874Y134195D01*
X379818Y134224D01*
X379764Y134256D01*
X379712Y134291D01*
X379663Y134329D01*
X379615Y134371D01*
X379571Y134415D01*
X379529Y134463D01*
X379491Y134512D01*
X379456Y134564D01*
X379424Y134618D01*
X379395Y134674D01*
X379370Y134732D01*
X379349Y134791D01*
X379331Y134851D01*
X379318Y134913D01*
X379308Y134975D01*
X379302Y135037D01*
X379300Y135100D01*
D15*
X334356Y162969D02*
X334356Y170279D01*
X334356Y162969D02*
X334354Y162880D01*
X334348Y162792D01*
X334339Y162704D01*
X334326Y162616D01*
X334309Y162529D01*
X334289Y162443D01*
X334264Y162358D01*
X334237Y162273D01*
X334205Y162190D01*
X334171Y162109D01*
X334132Y162029D01*
X334091Y161951D01*
X334046Y161874D01*
X333998Y161800D01*
X333947Y161727D01*
X333893Y161657D01*
X333835Y161590D01*
X333775Y161524D01*
X333713Y161462D01*
X333647Y161402D01*
X333580Y161344D01*
X333510Y161290D01*
X333437Y161239D01*
X333363Y161191D01*
X333286Y161146D01*
X333208Y161105D01*
X333128Y161066D01*
X333047Y161032D01*
X332964Y161000D01*
X332879Y160973D01*
X332794Y160948D01*
X332708Y160928D01*
X332621Y160911D01*
X332533Y160898D01*
X332445Y160889D01*
X332357Y160883D01*
X332268Y160881D01*
X331224Y160881D01*
X338548Y168191D02*
X341158Y170279D01*
X341158Y160881D01*
X338548Y160881D02*
X343769Y160881D01*
D16*
X48450Y196850D02*
X48450Y209550D01*
X121200Y253400D02*
X121200Y51400D01*
X31200Y51400D02*
X31200Y130400D01*
X31200Y174400D01*
X31200Y253400D01*
X120200Y253400D01*
X121200Y51400D02*
X31200Y51400D01*
X31200Y174400D02*
X46200Y174400D01*
X46200Y130400D01*
X31200Y130400D01*
D13*
X36534Y259517D02*
X36534Y263271D01*
X36533Y259517D02*
X36531Y259452D01*
X36525Y259388D01*
X36515Y259324D01*
X36502Y259260D01*
X36484Y259198D01*
X36463Y259137D01*
X36439Y259077D01*
X36410Y259019D01*
X36378Y258962D01*
X36343Y258908D01*
X36305Y258856D01*
X36263Y258806D01*
X36219Y258759D01*
X36172Y258715D01*
X36122Y258673D01*
X36070Y258635D01*
X36016Y258600D01*
X35959Y258568D01*
X35901Y258539D01*
X35841Y258515D01*
X35780Y258494D01*
X35718Y258476D01*
X35654Y258463D01*
X35590Y258453D01*
X35526Y258447D01*
X35461Y258445D01*
X34925Y258445D01*
X39482Y262199D02*
X40822Y263271D01*
X40822Y258445D01*
X39482Y258445D02*
X42163Y258445D01*
X45066Y260322D02*
X48283Y260322D01*
X51429Y258445D02*
X51429Y263271D01*
X50893Y258445D02*
X51965Y258445D01*
X51965Y263271D02*
X50893Y263271D01*
X54661Y263271D02*
X54661Y258445D01*
X57342Y258445D02*
X54661Y263271D01*
X57342Y263271D02*
X57342Y258445D01*
X60659Y258445D02*
X60659Y263271D01*
X62000Y263271D01*
X62071Y263269D01*
X62143Y263263D01*
X62213Y263254D01*
X62283Y263241D01*
X62353Y263224D01*
X62421Y263203D01*
X62488Y263179D01*
X62554Y263151D01*
X62618Y263120D01*
X62681Y263085D01*
X62741Y263047D01*
X62800Y263006D01*
X62856Y262962D01*
X62910Y262915D01*
X62961Y262866D01*
X63009Y262813D01*
X63055Y262758D01*
X63097Y262701D01*
X63137Y262641D01*
X63173Y262580D01*
X63206Y262516D01*
X63235Y262451D01*
X63261Y262385D01*
X63284Y262317D01*
X63303Y262248D01*
X63318Y262178D01*
X63329Y262108D01*
X63337Y262037D01*
X63341Y261966D01*
X63341Y261894D01*
X63337Y261823D01*
X63329Y261752D01*
X63318Y261682D01*
X63303Y261612D01*
X63284Y261543D01*
X63261Y261475D01*
X63235Y261409D01*
X63206Y261344D01*
X63173Y261280D01*
X63137Y261219D01*
X63097Y261159D01*
X63055Y261102D01*
X63009Y261047D01*
X62961Y260994D01*
X62910Y260945D01*
X62856Y260898D01*
X62800Y260854D01*
X62741Y260813D01*
X62681Y260775D01*
X62618Y260740D01*
X62554Y260709D01*
X62488Y260681D01*
X62421Y260657D01*
X62353Y260636D01*
X62283Y260619D01*
X62213Y260606D01*
X62143Y260597D01*
X62071Y260591D01*
X62000Y260589D01*
X62000Y260590D02*
X60659Y260590D01*
X65999Y259786D02*
X65999Y263271D01*
X65999Y259786D02*
X66001Y259715D01*
X66007Y259643D01*
X66016Y259573D01*
X66029Y259503D01*
X66046Y259433D01*
X66067Y259365D01*
X66091Y259298D01*
X66119Y259232D01*
X66150Y259168D01*
X66185Y259105D01*
X66223Y259045D01*
X66264Y258986D01*
X66308Y258930D01*
X66355Y258876D01*
X66404Y258825D01*
X66457Y258777D01*
X66512Y258731D01*
X66569Y258689D01*
X66629Y258649D01*
X66690Y258613D01*
X66754Y258580D01*
X66819Y258551D01*
X66885Y258525D01*
X66953Y258502D01*
X67022Y258483D01*
X67092Y258468D01*
X67162Y258457D01*
X67233Y258449D01*
X67304Y258445D01*
X67376Y258445D01*
X67447Y258449D01*
X67518Y258457D01*
X67588Y258468D01*
X67658Y258483D01*
X67727Y258502D01*
X67795Y258525D01*
X67861Y258551D01*
X67926Y258580D01*
X67990Y258613D01*
X68051Y258649D01*
X68111Y258689D01*
X68168Y258731D01*
X68223Y258777D01*
X68276Y258825D01*
X68325Y258876D01*
X68372Y258930D01*
X68416Y258986D01*
X68457Y259045D01*
X68495Y259105D01*
X68530Y259168D01*
X68561Y259232D01*
X68589Y259298D01*
X68613Y259365D01*
X68634Y259433D01*
X68651Y259503D01*
X68664Y259573D01*
X68673Y259643D01*
X68679Y259715D01*
X68681Y259786D01*
X68680Y259786D02*
X68680Y263271D01*
X72643Y263271D02*
X72643Y258445D01*
X71303Y263271D02*
X73984Y263271D01*
D16*
X967550Y107950D02*
X967550Y95250D01*
X894800Y51400D02*
X894800Y253400D01*
X984800Y253400D02*
X984800Y174400D01*
X984800Y130400D01*
X984800Y51400D01*
X895800Y51400D01*
X894800Y253400D02*
X984800Y253400D01*
X984800Y130400D02*
X969800Y130400D01*
X969800Y174400D01*
X984800Y174400D01*
D13*
X936676Y46355D02*
X936676Y42601D01*
X936675Y42601D02*
X936673Y42536D01*
X936667Y42472D01*
X936657Y42408D01*
X936644Y42344D01*
X936626Y42282D01*
X936605Y42221D01*
X936581Y42161D01*
X936552Y42103D01*
X936520Y42046D01*
X936485Y41992D01*
X936447Y41940D01*
X936405Y41890D01*
X936361Y41843D01*
X936314Y41799D01*
X936264Y41757D01*
X936212Y41719D01*
X936158Y41684D01*
X936101Y41652D01*
X936043Y41623D01*
X935983Y41599D01*
X935922Y41578D01*
X935860Y41560D01*
X935796Y41547D01*
X935732Y41537D01*
X935668Y41531D01*
X935603Y41529D01*
X935067Y41529D01*
X941098Y46355D02*
X941166Y46353D01*
X941233Y46347D01*
X941300Y46338D01*
X941367Y46325D01*
X941432Y46308D01*
X941497Y46287D01*
X941560Y46263D01*
X941622Y46235D01*
X941682Y46204D01*
X941740Y46170D01*
X941796Y46132D01*
X941851Y46092D01*
X941902Y46048D01*
X941951Y46001D01*
X941998Y45952D01*
X942042Y45901D01*
X942082Y45846D01*
X942120Y45790D01*
X942154Y45732D01*
X942185Y45672D01*
X942213Y45610D01*
X942237Y45547D01*
X942258Y45482D01*
X942275Y45417D01*
X942288Y45350D01*
X942297Y45283D01*
X942303Y45216D01*
X942305Y45148D01*
X941098Y46355D02*
X941020Y46353D01*
X940942Y46347D01*
X940865Y46337D01*
X940788Y46324D01*
X940712Y46306D01*
X940637Y46285D01*
X940563Y46260D01*
X940491Y46231D01*
X940420Y46199D01*
X940351Y46163D01*
X940283Y46124D01*
X940218Y46081D01*
X940155Y46035D01*
X940094Y45986D01*
X940036Y45934D01*
X939981Y45879D01*
X939928Y45822D01*
X939879Y45762D01*
X939832Y45699D01*
X939789Y45635D01*
X939749Y45568D01*
X939712Y45499D01*
X939679Y45428D01*
X939649Y45356D01*
X939623Y45283D01*
X941903Y44210D02*
X941952Y44259D01*
X941999Y44311D01*
X942042Y44366D01*
X942083Y44423D01*
X942121Y44482D01*
X942155Y44543D01*
X942186Y44606D01*
X942214Y44670D01*
X942238Y44736D01*
X942258Y44802D01*
X942275Y44870D01*
X942288Y44939D01*
X942297Y45008D01*
X942303Y45078D01*
X942305Y45148D01*
X941903Y44210D02*
X939624Y41529D01*
X942305Y41529D01*
X945208Y43406D02*
X948425Y43406D01*
X951328Y42870D02*
X951328Y45014D01*
X951327Y45014D02*
X951329Y45085D01*
X951335Y45157D01*
X951344Y45227D01*
X951357Y45297D01*
X951374Y45367D01*
X951395Y45435D01*
X951419Y45502D01*
X951447Y45568D01*
X951478Y45632D01*
X951513Y45695D01*
X951551Y45755D01*
X951592Y45814D01*
X951636Y45870D01*
X951683Y45924D01*
X951732Y45975D01*
X951785Y46023D01*
X951840Y46069D01*
X951897Y46111D01*
X951957Y46151D01*
X952018Y46187D01*
X952082Y46220D01*
X952147Y46249D01*
X952213Y46275D01*
X952281Y46298D01*
X952350Y46317D01*
X952420Y46332D01*
X952490Y46343D01*
X952561Y46351D01*
X952632Y46355D01*
X952704Y46355D01*
X952775Y46351D01*
X952846Y46343D01*
X952916Y46332D01*
X952986Y46317D01*
X953055Y46298D01*
X953123Y46275D01*
X953189Y46249D01*
X953254Y46220D01*
X953318Y46187D01*
X953379Y46151D01*
X953439Y46111D01*
X953496Y46069D01*
X953551Y46023D01*
X953604Y45975D01*
X953653Y45924D01*
X953700Y45870D01*
X953744Y45814D01*
X953785Y45755D01*
X953823Y45695D01*
X953858Y45632D01*
X953889Y45568D01*
X953917Y45502D01*
X953941Y45435D01*
X953962Y45367D01*
X953979Y45297D01*
X953992Y45227D01*
X954001Y45157D01*
X954007Y45085D01*
X954009Y45014D01*
X954009Y42870D01*
X954007Y42799D01*
X954001Y42727D01*
X953992Y42657D01*
X953979Y42587D01*
X953962Y42517D01*
X953941Y42449D01*
X953917Y42382D01*
X953889Y42316D01*
X953858Y42252D01*
X953823Y42189D01*
X953785Y42129D01*
X953744Y42070D01*
X953700Y42014D01*
X953653Y41960D01*
X953604Y41909D01*
X953551Y41861D01*
X953496Y41815D01*
X953439Y41773D01*
X953379Y41733D01*
X953318Y41697D01*
X953254Y41664D01*
X953189Y41635D01*
X953123Y41609D01*
X953055Y41586D01*
X952986Y41567D01*
X952916Y41552D01*
X952846Y41541D01*
X952775Y41533D01*
X952704Y41529D01*
X952632Y41529D01*
X952561Y41533D01*
X952490Y41541D01*
X952420Y41552D01*
X952350Y41567D01*
X952281Y41586D01*
X952213Y41609D01*
X952147Y41635D01*
X952082Y41664D01*
X952018Y41697D01*
X951957Y41733D01*
X951897Y41773D01*
X951840Y41815D01*
X951785Y41861D01*
X951732Y41909D01*
X951683Y41960D01*
X951636Y42014D01*
X951592Y42070D01*
X951551Y42129D01*
X951513Y42189D01*
X951478Y42252D01*
X951447Y42316D01*
X951419Y42382D01*
X951395Y42449D01*
X951374Y42517D01*
X951357Y42587D01*
X951344Y42657D01*
X951335Y42727D01*
X951329Y42799D01*
X951327Y42870D01*
X956997Y42870D02*
X956997Y46355D01*
X956997Y42870D02*
X956999Y42799D01*
X957005Y42727D01*
X957014Y42657D01*
X957027Y42587D01*
X957044Y42517D01*
X957065Y42449D01*
X957089Y42382D01*
X957117Y42316D01*
X957148Y42252D01*
X957183Y42189D01*
X957221Y42129D01*
X957262Y42070D01*
X957306Y42014D01*
X957353Y41960D01*
X957402Y41909D01*
X957455Y41861D01*
X957510Y41815D01*
X957567Y41773D01*
X957627Y41733D01*
X957688Y41697D01*
X957752Y41664D01*
X957817Y41635D01*
X957883Y41609D01*
X957951Y41586D01*
X958020Y41567D01*
X958090Y41552D01*
X958160Y41541D01*
X958231Y41533D01*
X958302Y41529D01*
X958374Y41529D01*
X958445Y41533D01*
X958516Y41541D01*
X958586Y41552D01*
X958656Y41567D01*
X958725Y41586D01*
X958793Y41609D01*
X958859Y41635D01*
X958924Y41664D01*
X958988Y41697D01*
X959049Y41733D01*
X959109Y41773D01*
X959166Y41815D01*
X959221Y41861D01*
X959274Y41909D01*
X959323Y41960D01*
X959370Y42014D01*
X959414Y42070D01*
X959455Y42129D01*
X959493Y42189D01*
X959528Y42252D01*
X959559Y42316D01*
X959587Y42382D01*
X959611Y42449D01*
X959632Y42517D01*
X959649Y42587D01*
X959662Y42657D01*
X959671Y42727D01*
X959677Y42799D01*
X959679Y42870D01*
X959678Y42870D02*
X959678Y46355D01*
X963641Y46355D02*
X963641Y41529D01*
X962301Y46355D02*
X964982Y46355D01*
X967751Y46355D02*
X967751Y41529D01*
X967751Y46355D02*
X969091Y46355D01*
X969162Y46353D01*
X969234Y46347D01*
X969304Y46338D01*
X969374Y46325D01*
X969444Y46308D01*
X969512Y46287D01*
X969579Y46263D01*
X969645Y46235D01*
X969709Y46204D01*
X969772Y46169D01*
X969832Y46131D01*
X969891Y46090D01*
X969947Y46046D01*
X970001Y45999D01*
X970052Y45950D01*
X970100Y45897D01*
X970146Y45842D01*
X970188Y45785D01*
X970228Y45725D01*
X970264Y45664D01*
X970297Y45600D01*
X970326Y45535D01*
X970352Y45469D01*
X970375Y45401D01*
X970394Y45332D01*
X970409Y45262D01*
X970420Y45192D01*
X970428Y45121D01*
X970432Y45050D01*
X970432Y44978D01*
X970428Y44907D01*
X970420Y44836D01*
X970409Y44766D01*
X970394Y44696D01*
X970375Y44627D01*
X970352Y44559D01*
X970326Y44493D01*
X970297Y44428D01*
X970264Y44364D01*
X970228Y44303D01*
X970188Y44243D01*
X970146Y44186D01*
X970100Y44131D01*
X970052Y44078D01*
X970001Y44029D01*
X969947Y43982D01*
X969891Y43938D01*
X969832Y43897D01*
X969772Y43859D01*
X969709Y43824D01*
X969645Y43793D01*
X969579Y43765D01*
X969512Y43741D01*
X969444Y43720D01*
X969374Y43703D01*
X969304Y43690D01*
X969234Y43681D01*
X969162Y43675D01*
X969091Y43673D01*
X969091Y43674D02*
X967751Y43674D01*
X973090Y42870D02*
X973090Y46355D01*
X973090Y42870D02*
X973092Y42799D01*
X973098Y42727D01*
X973107Y42657D01*
X973120Y42587D01*
X973137Y42517D01*
X973158Y42449D01*
X973182Y42382D01*
X973210Y42316D01*
X973241Y42252D01*
X973276Y42189D01*
X973314Y42129D01*
X973355Y42070D01*
X973399Y42014D01*
X973446Y41960D01*
X973495Y41909D01*
X973548Y41861D01*
X973603Y41815D01*
X973660Y41773D01*
X973720Y41733D01*
X973781Y41697D01*
X973845Y41664D01*
X973910Y41635D01*
X973976Y41609D01*
X974044Y41586D01*
X974113Y41567D01*
X974183Y41552D01*
X974253Y41541D01*
X974324Y41533D01*
X974395Y41529D01*
X974467Y41529D01*
X974538Y41533D01*
X974609Y41541D01*
X974679Y41552D01*
X974749Y41567D01*
X974818Y41586D01*
X974886Y41609D01*
X974952Y41635D01*
X975017Y41664D01*
X975081Y41697D01*
X975142Y41733D01*
X975202Y41773D01*
X975259Y41815D01*
X975314Y41861D01*
X975367Y41909D01*
X975416Y41960D01*
X975463Y42014D01*
X975507Y42070D01*
X975548Y42129D01*
X975586Y42189D01*
X975621Y42252D01*
X975652Y42316D01*
X975680Y42382D01*
X975704Y42449D01*
X975725Y42517D01*
X975742Y42587D01*
X975755Y42657D01*
X975764Y42727D01*
X975770Y42799D01*
X975772Y42870D01*
X975772Y46355D01*
X979734Y46355D02*
X979734Y41529D01*
X978394Y46355D02*
X981075Y46355D01*
D12*
X609600Y203200D02*
X609600Y228600D01*
X381000Y228600D02*
X381000Y203200D01*
X387350Y209550D01*
X387350Y222250D02*
X381000Y228600D01*
X400050Y222250D02*
X406400Y228600D01*
X609600Y228600D01*
X406400Y203200D02*
X400050Y209550D01*
X406400Y203200D02*
X381000Y203200D01*
X406400Y203200D02*
X406400Y228600D01*
X381000Y228600D01*
X406400Y203200D02*
X609600Y203200D01*
D13*
X407035Y235585D02*
X407035Y247015D01*
X410210Y247015D01*
X410321Y247013D01*
X410431Y247007D01*
X410542Y246998D01*
X410652Y246984D01*
X410761Y246967D01*
X410870Y246946D01*
X410978Y246921D01*
X411085Y246892D01*
X411191Y246860D01*
X411296Y246824D01*
X411399Y246784D01*
X411501Y246741D01*
X411602Y246694D01*
X411701Y246643D01*
X411798Y246590D01*
X411892Y246533D01*
X411985Y246472D01*
X412076Y246409D01*
X412165Y246342D01*
X412251Y246272D01*
X412334Y246199D01*
X412416Y246124D01*
X412494Y246046D01*
X412569Y245964D01*
X412642Y245881D01*
X412712Y245795D01*
X412779Y245706D01*
X412842Y245615D01*
X412903Y245522D01*
X412960Y245427D01*
X413013Y245331D01*
X413064Y245232D01*
X413111Y245131D01*
X413154Y245029D01*
X413194Y244926D01*
X413230Y244821D01*
X413262Y244715D01*
X413291Y244608D01*
X413316Y244500D01*
X413337Y244391D01*
X413354Y244282D01*
X413368Y244172D01*
X413377Y244061D01*
X413383Y243951D01*
X413385Y243840D01*
X413383Y243729D01*
X413377Y243619D01*
X413368Y243508D01*
X413354Y243398D01*
X413337Y243289D01*
X413316Y243180D01*
X413291Y243072D01*
X413262Y242965D01*
X413230Y242859D01*
X413194Y242754D01*
X413154Y242651D01*
X413111Y242549D01*
X413064Y242448D01*
X413013Y242349D01*
X412960Y242252D01*
X412903Y242158D01*
X412842Y242065D01*
X412779Y241974D01*
X412712Y241885D01*
X412642Y241799D01*
X412569Y241716D01*
X412494Y241634D01*
X412416Y241556D01*
X412334Y241481D01*
X412251Y241408D01*
X412165Y241338D01*
X412076Y241271D01*
X411985Y241208D01*
X411892Y241147D01*
X411798Y241090D01*
X411701Y241037D01*
X411602Y240986D01*
X411501Y240939D01*
X411399Y240896D01*
X411296Y240856D01*
X411191Y240820D01*
X411085Y240788D01*
X410978Y240759D01*
X410870Y240734D01*
X410761Y240713D01*
X410652Y240696D01*
X410542Y240682D01*
X410431Y240673D01*
X410321Y240667D01*
X410210Y240665D01*
X407035Y240665D01*
X410845Y240665D02*
X413385Y235585D01*
X418763Y235585D02*
X418763Y247015D01*
X425113Y235585D01*
X425113Y247015D01*
X430574Y244475D02*
X433749Y247015D01*
X433749Y235585D01*
X430574Y235585D02*
X436924Y235585D01*
D12*
X406400Y101600D02*
X406400Y76200D01*
X635000Y76200D02*
X635000Y101600D01*
X628650Y95250D01*
X628650Y82550D02*
X635000Y76200D01*
X615950Y82550D02*
X609600Y76200D01*
X406400Y76200D01*
X609600Y101600D02*
X615950Y95250D01*
X609600Y101600D02*
X635000Y101600D01*
X609600Y101600D02*
X609600Y76200D01*
X635000Y76200D01*
X609600Y101600D02*
X406400Y101600D01*
D13*
X579076Y69215D02*
X579076Y57785D01*
X579076Y69215D02*
X582251Y69215D01*
X582362Y69213D01*
X582472Y69207D01*
X582583Y69198D01*
X582693Y69184D01*
X582802Y69167D01*
X582911Y69146D01*
X583019Y69121D01*
X583126Y69092D01*
X583232Y69060D01*
X583337Y69024D01*
X583440Y68984D01*
X583542Y68941D01*
X583643Y68894D01*
X583742Y68843D01*
X583839Y68790D01*
X583933Y68733D01*
X584026Y68672D01*
X584117Y68609D01*
X584206Y68542D01*
X584292Y68472D01*
X584375Y68399D01*
X584457Y68324D01*
X584535Y68246D01*
X584610Y68164D01*
X584683Y68081D01*
X584753Y67995D01*
X584820Y67906D01*
X584883Y67815D01*
X584944Y67722D01*
X585001Y67627D01*
X585054Y67531D01*
X585105Y67432D01*
X585152Y67331D01*
X585195Y67229D01*
X585235Y67126D01*
X585271Y67021D01*
X585303Y66915D01*
X585332Y66808D01*
X585357Y66700D01*
X585378Y66591D01*
X585395Y66482D01*
X585409Y66372D01*
X585418Y66261D01*
X585424Y66151D01*
X585426Y66040D01*
X585424Y65929D01*
X585418Y65819D01*
X585409Y65708D01*
X585395Y65598D01*
X585378Y65489D01*
X585357Y65380D01*
X585332Y65272D01*
X585303Y65165D01*
X585271Y65059D01*
X585235Y64954D01*
X585195Y64851D01*
X585152Y64749D01*
X585105Y64648D01*
X585054Y64549D01*
X585001Y64452D01*
X584944Y64358D01*
X584883Y64265D01*
X584820Y64174D01*
X584753Y64085D01*
X584683Y63999D01*
X584610Y63916D01*
X584535Y63834D01*
X584457Y63756D01*
X584375Y63681D01*
X584292Y63608D01*
X584206Y63538D01*
X584117Y63471D01*
X584026Y63408D01*
X583933Y63347D01*
X583839Y63290D01*
X583742Y63237D01*
X583643Y63186D01*
X583542Y63139D01*
X583440Y63096D01*
X583337Y63056D01*
X583232Y63020D01*
X583126Y62988D01*
X583019Y62959D01*
X582911Y62934D01*
X582802Y62913D01*
X582693Y62896D01*
X582583Y62882D01*
X582472Y62873D01*
X582362Y62867D01*
X582251Y62865D01*
X579076Y62865D01*
X582886Y62865D02*
X585426Y57785D01*
X590804Y57785D02*
X590804Y69215D01*
X597154Y57785D01*
X597154Y69215D01*
X606108Y69216D02*
X606212Y69214D01*
X606317Y69208D01*
X606421Y69199D01*
X606524Y69186D01*
X606627Y69168D01*
X606729Y69148D01*
X606831Y69123D01*
X606931Y69095D01*
X607031Y69063D01*
X607129Y69027D01*
X607226Y68988D01*
X607321Y68946D01*
X607415Y68900D01*
X607507Y68850D01*
X607597Y68798D01*
X607685Y68742D01*
X607771Y68682D01*
X607855Y68620D01*
X607936Y68555D01*
X608015Y68487D01*
X608092Y68415D01*
X608165Y68342D01*
X608237Y68265D01*
X608305Y68186D01*
X608370Y68105D01*
X608432Y68021D01*
X608492Y67935D01*
X608548Y67847D01*
X608600Y67757D01*
X608650Y67665D01*
X608696Y67571D01*
X608738Y67476D01*
X608777Y67379D01*
X608813Y67281D01*
X608845Y67181D01*
X608873Y67081D01*
X608898Y66979D01*
X608918Y66877D01*
X608936Y66774D01*
X608949Y66671D01*
X608958Y66567D01*
X608964Y66462D01*
X608966Y66358D01*
X606108Y69215D02*
X605990Y69213D01*
X605871Y69207D01*
X605753Y69198D01*
X605636Y69185D01*
X605519Y69167D01*
X605402Y69147D01*
X605286Y69122D01*
X605171Y69094D01*
X605058Y69061D01*
X604945Y69026D01*
X604833Y68986D01*
X604723Y68944D01*
X604614Y68897D01*
X604506Y68847D01*
X604401Y68794D01*
X604297Y68737D01*
X604195Y68677D01*
X604095Y68614D01*
X603997Y68547D01*
X603901Y68478D01*
X603808Y68405D01*
X603717Y68329D01*
X603628Y68251D01*
X603542Y68169D01*
X603459Y68085D01*
X603378Y67999D01*
X603301Y67909D01*
X603226Y67818D01*
X603154Y67724D01*
X603085Y67627D01*
X603020Y67529D01*
X602957Y67428D01*
X602898Y67325D01*
X602842Y67221D01*
X602790Y67115D01*
X602741Y67007D01*
X602696Y66898D01*
X602654Y66787D01*
X602616Y66675D01*
X608013Y64136D02*
X608089Y64211D01*
X608164Y64290D01*
X608235Y64371D01*
X608304Y64455D01*
X608369Y64541D01*
X608431Y64629D01*
X608491Y64719D01*
X608547Y64811D01*
X608600Y64906D01*
X608649Y65002D01*
X608695Y65100D01*
X608738Y65199D01*
X608777Y65300D01*
X608812Y65402D01*
X608844Y65505D01*
X608872Y65609D01*
X608897Y65714D01*
X608918Y65821D01*
X608935Y65927D01*
X608948Y66034D01*
X608957Y66142D01*
X608963Y66250D01*
X608965Y66358D01*
X608013Y64135D02*
X602615Y57785D01*
X608965Y57785D01*
X160925Y59055D02*
X160925Y63881D01*
X160925Y61736D02*
X163606Y61736D01*
X163606Y63881D02*
X163606Y59055D01*
X166594Y62809D02*
X167935Y63881D01*
X167935Y59055D01*
X169275Y59055D02*
X166594Y59055D01*
X160925Y287655D02*
X160925Y292481D01*
X160925Y290336D02*
X163606Y290336D01*
X163606Y292481D02*
X163606Y287655D01*
X168069Y292481D02*
X168137Y292479D01*
X168204Y292473D01*
X168271Y292464D01*
X168338Y292451D01*
X168403Y292434D01*
X168468Y292413D01*
X168531Y292389D01*
X168593Y292361D01*
X168653Y292330D01*
X168711Y292296D01*
X168767Y292258D01*
X168822Y292218D01*
X168873Y292174D01*
X168922Y292127D01*
X168969Y292078D01*
X169013Y292027D01*
X169053Y291972D01*
X169091Y291916D01*
X169125Y291858D01*
X169156Y291798D01*
X169184Y291736D01*
X169208Y291673D01*
X169229Y291608D01*
X169246Y291543D01*
X169259Y291476D01*
X169268Y291409D01*
X169274Y291342D01*
X169276Y291274D01*
X168069Y292481D02*
X167991Y292479D01*
X167913Y292473D01*
X167836Y292463D01*
X167759Y292450D01*
X167683Y292432D01*
X167608Y292411D01*
X167534Y292386D01*
X167462Y292357D01*
X167391Y292325D01*
X167322Y292289D01*
X167254Y292250D01*
X167189Y292207D01*
X167126Y292161D01*
X167065Y292112D01*
X167007Y292060D01*
X166952Y292005D01*
X166899Y291948D01*
X166850Y291888D01*
X166803Y291825D01*
X166760Y291761D01*
X166720Y291694D01*
X166683Y291625D01*
X166650Y291554D01*
X166620Y291482D01*
X166594Y291409D01*
X168873Y290336D02*
X168922Y290385D01*
X168969Y290437D01*
X169012Y290492D01*
X169053Y290549D01*
X169091Y290608D01*
X169125Y290669D01*
X169156Y290732D01*
X169184Y290796D01*
X169208Y290862D01*
X169228Y290928D01*
X169245Y290996D01*
X169258Y291065D01*
X169267Y291134D01*
X169273Y291204D01*
X169275Y291274D01*
X168873Y290336D02*
X166594Y287655D01*
X169275Y287655D01*
X834025Y287655D02*
X834025Y292481D01*
X834025Y290336D02*
X836706Y290336D01*
X836706Y292481D02*
X836706Y287655D01*
X839694Y287655D02*
X841035Y287655D01*
X841106Y287657D01*
X841178Y287663D01*
X841248Y287672D01*
X841318Y287685D01*
X841388Y287702D01*
X841456Y287723D01*
X841523Y287747D01*
X841589Y287775D01*
X841653Y287806D01*
X841716Y287841D01*
X841776Y287879D01*
X841835Y287920D01*
X841891Y287964D01*
X841945Y288011D01*
X841996Y288060D01*
X842044Y288113D01*
X842090Y288168D01*
X842132Y288225D01*
X842172Y288285D01*
X842208Y288346D01*
X842241Y288410D01*
X842270Y288475D01*
X842296Y288541D01*
X842319Y288609D01*
X842338Y288678D01*
X842353Y288748D01*
X842364Y288818D01*
X842372Y288889D01*
X842376Y288960D01*
X842376Y289032D01*
X842372Y289103D01*
X842364Y289174D01*
X842353Y289244D01*
X842338Y289314D01*
X842319Y289383D01*
X842296Y289451D01*
X842270Y289517D01*
X842241Y289582D01*
X842208Y289646D01*
X842172Y289707D01*
X842132Y289767D01*
X842090Y289824D01*
X842044Y289879D01*
X841996Y289932D01*
X841945Y289981D01*
X841891Y290028D01*
X841835Y290072D01*
X841776Y290113D01*
X841716Y290151D01*
X841653Y290186D01*
X841589Y290217D01*
X841523Y290245D01*
X841456Y290269D01*
X841388Y290290D01*
X841318Y290307D01*
X841248Y290320D01*
X841178Y290329D01*
X841106Y290335D01*
X841035Y290337D01*
X841303Y292481D02*
X839694Y292481D01*
X841303Y292481D02*
X841368Y292479D01*
X841432Y292473D01*
X841496Y292463D01*
X841560Y292450D01*
X841622Y292432D01*
X841683Y292411D01*
X841743Y292387D01*
X841801Y292358D01*
X841858Y292326D01*
X841912Y292291D01*
X841964Y292253D01*
X842014Y292211D01*
X842061Y292167D01*
X842105Y292120D01*
X842147Y292070D01*
X842185Y292018D01*
X842220Y291964D01*
X842252Y291907D01*
X842281Y291849D01*
X842305Y291789D01*
X842326Y291728D01*
X842344Y291666D01*
X842357Y291602D01*
X842367Y291538D01*
X842373Y291474D01*
X842375Y291409D01*
X842373Y291344D01*
X842367Y291280D01*
X842357Y291216D01*
X842344Y291152D01*
X842326Y291090D01*
X842305Y291029D01*
X842281Y290969D01*
X842252Y290911D01*
X842220Y290854D01*
X842185Y290800D01*
X842147Y290748D01*
X842105Y290698D01*
X842061Y290651D01*
X842014Y290607D01*
X841964Y290565D01*
X841912Y290527D01*
X841858Y290492D01*
X841801Y290460D01*
X841743Y290431D01*
X841683Y290407D01*
X841622Y290386D01*
X841560Y290368D01*
X841496Y290355D01*
X841432Y290345D01*
X841368Y290339D01*
X841303Y290337D01*
X841303Y290336D02*
X840230Y290336D01*
X834025Y63881D02*
X834025Y59055D01*
X834025Y61736D02*
X836706Y61736D01*
X836706Y63881D02*
X836706Y59055D01*
X839694Y60127D02*
X840767Y63881D01*
X839694Y60127D02*
X842375Y60127D01*
X841571Y61200D02*
X841571Y59055D01*
M02*
