G04 EAGLE Gerber RS-274X export*
G75*
%MOMM*%
%FSLAX34Y34*%
%LPD*%
%INSoldermask Bottom*%
%IPPOS*%
%AMOC8*
5,1,8,0,0,1.08239X$1,22.5*%
G01*
%ADD10C,1.733200*%
%ADD11C,2.082800*%
%ADD12C,1.524000*%
%ADD13C,3.505200*%
%ADD14C,0.959600*%


D10*
X393700Y139700D03*
X393700Y165100D03*
X419100Y139700D03*
X419100Y165100D03*
X444500Y139700D03*
X444500Y165100D03*
X469900Y139700D03*
X469900Y165100D03*
X495300Y139700D03*
X495300Y165100D03*
X520700Y139700D03*
X520700Y165100D03*
X546100Y139700D03*
X546100Y165100D03*
X571500Y139700D03*
X571500Y165100D03*
X596900Y139700D03*
X596900Y165100D03*
X622300Y139700D03*
X622300Y165100D03*
D11*
X62230Y203200D03*
X90170Y203200D03*
X62230Y177800D03*
X90170Y177800D03*
X62230Y152400D03*
X90170Y152400D03*
X62230Y127000D03*
X90170Y127000D03*
X62230Y101600D03*
X90170Y101600D03*
X953770Y101600D03*
X925830Y101600D03*
X953770Y127000D03*
X925830Y127000D03*
X953770Y152400D03*
X925830Y152400D03*
X953770Y177800D03*
X925830Y177800D03*
X953770Y203200D03*
X925830Y203200D03*
D12*
X393700Y209296D02*
X393700Y222504D01*
X419100Y222504D02*
X419100Y209296D01*
X444500Y209296D02*
X444500Y222504D01*
X469900Y222504D02*
X469900Y209296D01*
X495300Y209296D02*
X495300Y222504D01*
X520700Y222504D02*
X520700Y209296D01*
X546100Y209296D02*
X546100Y222504D01*
X571500Y222504D02*
X571500Y209296D01*
X596900Y209296D02*
X596900Y222504D01*
X622300Y95504D02*
X622300Y82296D01*
X596900Y82296D02*
X596900Y95504D01*
X571500Y95504D02*
X571500Y82296D01*
X546100Y82296D02*
X546100Y95504D01*
X520700Y95504D02*
X520700Y82296D01*
X495300Y82296D02*
X495300Y95504D01*
X469900Y95504D02*
X469900Y82296D01*
X444500Y82296D02*
X444500Y95504D01*
X419100Y95504D02*
X419100Y82296D01*
D13*
X165100Y38100D03*
X165100Y266700D03*
X838200Y266700D03*
X838200Y38100D03*
D14*
X361696Y107696D03*
X149352Y218440D03*
X902208Y103632D03*
X351536Y124968D03*
X896112Y154432D03*
X822960Y139192D03*
X463296Y124968D03*
X180848Y200152D03*
X406400Y171704D03*
X506984Y147320D03*
X762000Y106680D03*
M02*
