G04 EAGLE Gerber RS-274X export*
G75*
%MOMM*%
%FSLAX34Y34*%
%LPD*%
%INSoldermask Top*%
%IPPOS*%
%AMOC8*
5,1,8,0,0,1.08239X$1,22.5*%
G01*
%ADD10C,0.701791*%
%ADD11R,0.863600X2.235200*%
%ADD12C,1.733200*%
%ADD13C,2.082800*%
%ADD14C,1.524000*%
%ADD15C,3.505200*%
%ADD16C,0.959600*%

G36*
X309591Y117432D02*
X309591Y117432D01*
X309598Y117437D01*
X309602Y117433D01*
X309984Y117524D01*
X309988Y117529D01*
X309992Y117527D01*
X310354Y117677D01*
X310357Y117682D01*
X310361Y117680D01*
X310695Y117885D01*
X310697Y117890D01*
X310701Y117890D01*
X311000Y118145D01*
X311001Y118150D01*
X311005Y118150D01*
X311260Y118449D01*
X311261Y118455D01*
X311265Y118455D01*
X311470Y118789D01*
X311469Y118795D01*
X311474Y118796D01*
X311624Y119158D01*
X311623Y119160D01*
X311624Y119160D01*
X311622Y119163D01*
X311622Y119164D01*
X311626Y119166D01*
X311717Y119548D01*
X311715Y119553D01*
X311717Y119554D01*
X311718Y119555D01*
X311749Y119946D01*
X311747Y119949D01*
X311749Y119950D01*
X311749Y125450D01*
X311747Y125452D01*
X311749Y125454D01*
X311718Y125845D01*
X311714Y125849D01*
X311717Y125852D01*
X311626Y126234D01*
X311621Y126238D01*
X311624Y126242D01*
X311474Y126604D01*
X311468Y126607D01*
X311470Y126611D01*
X311265Y126945D01*
X311260Y126947D01*
X311260Y126951D01*
X311005Y127250D01*
X311000Y127251D01*
X311000Y127255D01*
X310701Y127510D01*
X310695Y127511D01*
X310695Y127515D01*
X310361Y127720D01*
X310355Y127719D01*
X310354Y127724D01*
X309992Y127874D01*
X309986Y127872D01*
X309984Y127876D01*
X309602Y127967D01*
X309597Y127965D01*
X309595Y127968D01*
X309204Y127999D01*
X309201Y127997D01*
X309200Y127999D01*
X300009Y127968D01*
X300002Y127963D01*
X299998Y127967D01*
X299616Y127876D01*
X299612Y127871D01*
X299608Y127874D01*
X299246Y127724D01*
X299243Y127718D01*
X299239Y127720D01*
X298905Y127515D01*
X298903Y127510D01*
X298899Y127510D01*
X298600Y127255D01*
X298599Y127250D01*
X298595Y127250D01*
X298340Y126951D01*
X298339Y126945D01*
X298335Y126945D01*
X298130Y126611D01*
X298131Y126605D01*
X298127Y126604D01*
X297977Y126242D01*
X297978Y126236D01*
X297974Y126234D01*
X297883Y125852D01*
X297885Y125847D01*
X297882Y125845D01*
X297851Y125454D01*
X297853Y125451D01*
X297851Y125450D01*
X297851Y119950D01*
X297853Y119948D01*
X297851Y119946D01*
X297882Y119555D01*
X297886Y119551D01*
X297883Y119548D01*
X297974Y119166D01*
X297979Y119162D01*
X297977Y119158D01*
X298127Y118796D01*
X298132Y118793D01*
X298130Y118789D01*
X298335Y118455D01*
X298340Y118453D01*
X298340Y118449D01*
X298595Y118150D01*
X298600Y118149D01*
X298600Y118145D01*
X298899Y117890D01*
X298905Y117889D01*
X298905Y117885D01*
X299239Y117680D01*
X299245Y117681D01*
X299246Y117677D01*
X299608Y117527D01*
X299614Y117528D01*
X299616Y117524D01*
X299998Y117433D01*
X300003Y117435D01*
X300005Y117432D01*
X300396Y117401D01*
X300399Y117403D01*
X300400Y117401D01*
X309591Y117432D01*
G37*
G36*
X868391Y117432D02*
X868391Y117432D01*
X868398Y117437D01*
X868402Y117433D01*
X868784Y117524D01*
X868788Y117529D01*
X868792Y117527D01*
X869154Y117677D01*
X869157Y117682D01*
X869161Y117680D01*
X869495Y117885D01*
X869497Y117890D01*
X869501Y117890D01*
X869800Y118145D01*
X869801Y118150D01*
X869805Y118150D01*
X870060Y118449D01*
X870061Y118455D01*
X870065Y118455D01*
X870270Y118789D01*
X870269Y118795D01*
X870274Y118796D01*
X870424Y119158D01*
X870423Y119160D01*
X870424Y119160D01*
X870422Y119163D01*
X870422Y119164D01*
X870426Y119166D01*
X870517Y119548D01*
X870515Y119553D01*
X870517Y119554D01*
X870518Y119555D01*
X870549Y119946D01*
X870547Y119949D01*
X870549Y119950D01*
X870549Y125450D01*
X870547Y125452D01*
X870549Y125454D01*
X870518Y125845D01*
X870514Y125849D01*
X870517Y125852D01*
X870426Y126234D01*
X870421Y126238D01*
X870424Y126242D01*
X870274Y126604D01*
X870268Y126607D01*
X870270Y126611D01*
X870065Y126945D01*
X870060Y126947D01*
X870060Y126951D01*
X869805Y127250D01*
X869800Y127251D01*
X869800Y127255D01*
X869501Y127510D01*
X869495Y127511D01*
X869495Y127515D01*
X869161Y127720D01*
X869155Y127719D01*
X869154Y127724D01*
X868792Y127874D01*
X868786Y127872D01*
X868784Y127876D01*
X868402Y127967D01*
X868397Y127965D01*
X868395Y127968D01*
X868004Y127999D01*
X868001Y127997D01*
X868000Y127999D01*
X858809Y127968D01*
X858802Y127963D01*
X858798Y127967D01*
X858416Y127876D01*
X858412Y127871D01*
X858408Y127874D01*
X858046Y127724D01*
X858043Y127718D01*
X858039Y127720D01*
X857705Y127515D01*
X857703Y127510D01*
X857699Y127510D01*
X857400Y127255D01*
X857399Y127250D01*
X857395Y127250D01*
X857140Y126951D01*
X857139Y126945D01*
X857135Y126945D01*
X856930Y126611D01*
X856931Y126605D01*
X856927Y126604D01*
X856777Y126242D01*
X856778Y126236D01*
X856774Y126234D01*
X856683Y125852D01*
X856685Y125847D01*
X856682Y125845D01*
X856651Y125454D01*
X856653Y125451D01*
X856651Y125450D01*
X856651Y119950D01*
X856653Y119948D01*
X856651Y119946D01*
X856682Y119555D01*
X856686Y119551D01*
X856683Y119548D01*
X856774Y119166D01*
X856779Y119162D01*
X856777Y119158D01*
X856927Y118796D01*
X856932Y118793D01*
X856930Y118789D01*
X857135Y118455D01*
X857140Y118453D01*
X857140Y118449D01*
X857395Y118150D01*
X857400Y118149D01*
X857400Y118145D01*
X857699Y117890D01*
X857705Y117889D01*
X857705Y117885D01*
X858039Y117680D01*
X858045Y117681D01*
X858046Y117677D01*
X858408Y117527D01*
X858414Y117528D01*
X858416Y117524D01*
X858798Y117433D01*
X858803Y117435D01*
X858805Y117432D01*
X859196Y117401D01*
X859199Y117403D01*
X859200Y117401D01*
X868391Y117432D01*
G37*
G36*
X868391Y100632D02*
X868391Y100632D01*
X868398Y100637D01*
X868402Y100633D01*
X868784Y100724D01*
X868788Y100729D01*
X868792Y100727D01*
X869154Y100877D01*
X869157Y100882D01*
X869161Y100880D01*
X869495Y101085D01*
X869497Y101090D01*
X869501Y101090D01*
X869800Y101345D01*
X869801Y101350D01*
X869805Y101350D01*
X870060Y101649D01*
X870061Y101655D01*
X870065Y101655D01*
X870270Y101989D01*
X870269Y101995D01*
X870274Y101996D01*
X870424Y102358D01*
X870423Y102360D01*
X870424Y102360D01*
X870422Y102363D01*
X870422Y102364D01*
X870426Y102366D01*
X870517Y102748D01*
X870515Y102753D01*
X870517Y102754D01*
X870518Y102755D01*
X870549Y103146D01*
X870547Y103149D01*
X870549Y103150D01*
X870549Y108650D01*
X870547Y108652D01*
X870549Y108654D01*
X870518Y109045D01*
X870514Y109049D01*
X870517Y109052D01*
X870426Y109434D01*
X870421Y109438D01*
X870424Y109442D01*
X870274Y109804D01*
X870268Y109807D01*
X870270Y109811D01*
X870065Y110145D01*
X870060Y110147D01*
X870060Y110151D01*
X869805Y110450D01*
X869800Y110451D01*
X869800Y110455D01*
X869501Y110710D01*
X869495Y110711D01*
X869495Y110715D01*
X869161Y110920D01*
X869155Y110919D01*
X869154Y110924D01*
X868792Y111074D01*
X868786Y111072D01*
X868784Y111076D01*
X868402Y111167D01*
X868397Y111165D01*
X868395Y111168D01*
X868004Y111199D01*
X868001Y111197D01*
X868000Y111199D01*
X858809Y111168D01*
X858802Y111163D01*
X858798Y111167D01*
X858416Y111076D01*
X858412Y111071D01*
X858408Y111074D01*
X858046Y110924D01*
X858043Y110918D01*
X858039Y110920D01*
X857705Y110715D01*
X857703Y110710D01*
X857699Y110710D01*
X857400Y110455D01*
X857399Y110450D01*
X857395Y110450D01*
X857140Y110151D01*
X857139Y110145D01*
X857135Y110145D01*
X856930Y109811D01*
X856931Y109805D01*
X856927Y109804D01*
X856777Y109442D01*
X856778Y109436D01*
X856774Y109434D01*
X856683Y109052D01*
X856685Y109047D01*
X856682Y109045D01*
X856651Y108654D01*
X856653Y108651D01*
X856651Y108650D01*
X856651Y103150D01*
X856653Y103148D01*
X856651Y103146D01*
X856682Y102755D01*
X856686Y102751D01*
X856683Y102748D01*
X856774Y102366D01*
X856779Y102362D01*
X856777Y102358D01*
X856927Y101996D01*
X856932Y101993D01*
X856930Y101989D01*
X857135Y101655D01*
X857140Y101653D01*
X857140Y101649D01*
X857395Y101350D01*
X857400Y101349D01*
X857400Y101345D01*
X857699Y101090D01*
X857705Y101089D01*
X857705Y101085D01*
X858039Y100880D01*
X858045Y100881D01*
X858046Y100877D01*
X858408Y100727D01*
X858414Y100728D01*
X858416Y100724D01*
X858798Y100633D01*
X858803Y100635D01*
X858805Y100632D01*
X859196Y100601D01*
X859199Y100603D01*
X859200Y100601D01*
X868391Y100632D01*
G37*
G36*
X309591Y100632D02*
X309591Y100632D01*
X309598Y100637D01*
X309602Y100633D01*
X309984Y100724D01*
X309988Y100729D01*
X309992Y100727D01*
X310354Y100877D01*
X310357Y100882D01*
X310361Y100880D01*
X310695Y101085D01*
X310697Y101090D01*
X310701Y101090D01*
X311000Y101345D01*
X311001Y101350D01*
X311005Y101350D01*
X311260Y101649D01*
X311261Y101655D01*
X311265Y101655D01*
X311470Y101989D01*
X311469Y101995D01*
X311474Y101996D01*
X311624Y102358D01*
X311623Y102360D01*
X311624Y102360D01*
X311622Y102363D01*
X311622Y102364D01*
X311626Y102366D01*
X311717Y102748D01*
X311715Y102753D01*
X311717Y102754D01*
X311718Y102755D01*
X311749Y103146D01*
X311747Y103149D01*
X311749Y103150D01*
X311749Y108650D01*
X311747Y108652D01*
X311749Y108654D01*
X311718Y109045D01*
X311714Y109049D01*
X311717Y109052D01*
X311626Y109434D01*
X311621Y109438D01*
X311624Y109442D01*
X311474Y109804D01*
X311468Y109807D01*
X311470Y109811D01*
X311265Y110145D01*
X311260Y110147D01*
X311260Y110151D01*
X311005Y110450D01*
X311000Y110451D01*
X311000Y110455D01*
X310701Y110710D01*
X310695Y110711D01*
X310695Y110715D01*
X310361Y110920D01*
X310355Y110919D01*
X310354Y110924D01*
X309992Y111074D01*
X309986Y111072D01*
X309984Y111076D01*
X309602Y111167D01*
X309597Y111165D01*
X309595Y111168D01*
X309204Y111199D01*
X309201Y111197D01*
X309200Y111199D01*
X300009Y111168D01*
X300002Y111163D01*
X299998Y111167D01*
X299616Y111076D01*
X299612Y111071D01*
X299608Y111074D01*
X299246Y110924D01*
X299243Y110918D01*
X299239Y110920D01*
X298905Y110715D01*
X298903Y110710D01*
X298899Y110710D01*
X298600Y110455D01*
X298599Y110450D01*
X298595Y110450D01*
X298340Y110151D01*
X298339Y110145D01*
X298335Y110145D01*
X298130Y109811D01*
X298131Y109805D01*
X298127Y109804D01*
X297977Y109442D01*
X297978Y109436D01*
X297974Y109434D01*
X297883Y109052D01*
X297885Y109047D01*
X297882Y109045D01*
X297851Y108654D01*
X297853Y108651D01*
X297851Y108650D01*
X297851Y103150D01*
X297853Y103148D01*
X297851Y103146D01*
X297882Y102755D01*
X297886Y102751D01*
X297883Y102748D01*
X297974Y102366D01*
X297979Y102362D01*
X297977Y102358D01*
X298127Y101996D01*
X298132Y101993D01*
X298130Y101989D01*
X298335Y101655D01*
X298340Y101653D01*
X298340Y101649D01*
X298595Y101350D01*
X298600Y101349D01*
X298600Y101345D01*
X298899Y101090D01*
X298905Y101089D01*
X298905Y101085D01*
X299239Y100880D01*
X299245Y100881D01*
X299246Y100877D01*
X299608Y100727D01*
X299614Y100728D01*
X299616Y100724D01*
X299998Y100633D01*
X300003Y100635D01*
X300005Y100632D01*
X300396Y100601D01*
X300399Y100603D01*
X300400Y100601D01*
X309591Y100632D01*
G37*
D10*
X309207Y125457D02*
X309207Y119943D01*
X300393Y119943D01*
X300393Y125457D01*
X309207Y125457D01*
X300393Y108657D02*
X300393Y103143D01*
X300393Y108657D02*
X309207Y108657D01*
X309207Y103143D01*
X300393Y103143D01*
X868007Y119943D02*
X868007Y125457D01*
X868007Y119943D02*
X859193Y119943D01*
X859193Y125457D01*
X868007Y125457D01*
X859193Y108657D02*
X859193Y103143D01*
X859193Y108657D02*
X868007Y108657D01*
X868007Y103143D01*
X859193Y103143D01*
D11*
X273050Y183134D03*
X273050Y121666D03*
X260350Y183134D03*
X247650Y183134D03*
X260350Y121666D03*
X247650Y121666D03*
X234950Y183134D03*
X234950Y121666D03*
X222250Y183134D03*
X222250Y121666D03*
X209550Y183134D03*
X196850Y183134D03*
X209550Y121666D03*
X196850Y121666D03*
X184150Y183134D03*
X184150Y121666D03*
X831850Y183134D03*
X831850Y121666D03*
X819150Y183134D03*
X806450Y183134D03*
X819150Y121666D03*
X806450Y121666D03*
X793750Y183134D03*
X793750Y121666D03*
X781050Y183134D03*
X781050Y121666D03*
X768350Y183134D03*
X755650Y183134D03*
X768350Y121666D03*
X755650Y121666D03*
X742950Y183134D03*
X742950Y121666D03*
D12*
X393700Y139700D03*
X393700Y165100D03*
X419100Y139700D03*
X419100Y165100D03*
X444500Y139700D03*
X444500Y165100D03*
X469900Y139700D03*
X469900Y165100D03*
X495300Y139700D03*
X495300Y165100D03*
X520700Y139700D03*
X520700Y165100D03*
X546100Y139700D03*
X546100Y165100D03*
X571500Y139700D03*
X571500Y165100D03*
X596900Y139700D03*
X596900Y165100D03*
X622300Y139700D03*
X622300Y165100D03*
D13*
X62230Y203200D03*
X90170Y203200D03*
X62230Y177800D03*
X90170Y177800D03*
X62230Y152400D03*
X90170Y152400D03*
X62230Y127000D03*
X90170Y127000D03*
X62230Y101600D03*
X90170Y101600D03*
X953770Y101600D03*
X925830Y101600D03*
X953770Y127000D03*
X925830Y127000D03*
X953770Y152400D03*
X925830Y152400D03*
X953770Y177800D03*
X925830Y177800D03*
X953770Y203200D03*
X925830Y203200D03*
D14*
X393700Y209296D02*
X393700Y222504D01*
X419100Y222504D02*
X419100Y209296D01*
X444500Y209296D02*
X444500Y222504D01*
X469900Y222504D02*
X469900Y209296D01*
X495300Y209296D02*
X495300Y222504D01*
X520700Y222504D02*
X520700Y209296D01*
X546100Y209296D02*
X546100Y222504D01*
X571500Y222504D02*
X571500Y209296D01*
X596900Y209296D02*
X596900Y222504D01*
X622300Y95504D02*
X622300Y82296D01*
X596900Y82296D02*
X596900Y95504D01*
X571500Y95504D02*
X571500Y82296D01*
X546100Y82296D02*
X546100Y95504D01*
X520700Y95504D02*
X520700Y82296D01*
X495300Y82296D02*
X495300Y95504D01*
X469900Y95504D02*
X469900Y82296D01*
X444500Y82296D02*
X444500Y95504D01*
X419100Y95504D02*
X419100Y82296D01*
D15*
X165100Y38100D03*
X165100Y266700D03*
X838200Y266700D03*
X838200Y38100D03*
D16*
X361696Y107696D03*
X149352Y218440D03*
X902208Y103632D03*
X351536Y124968D03*
X896112Y154432D03*
X822960Y139192D03*
X463296Y124968D03*
X180848Y200152D03*
X406400Y171704D03*
X506984Y147320D03*
X762000Y106680D03*
M02*
