G04 EAGLE Gerber RS-274X export*
G75*
%MOMM*%
%FSLAX34Y34*%
%LPD*%
%IN*%
%IPPOS*%
%AMOC8*
5,1,8,0,0,1.08239X$1,22.5*%
G01*
%ADD10C,0.254000*%


D10*
X190500Y114300D02*
X669800Y114300D01*
X669800Y749200D01*
X190500Y749200D01*
X190500Y114300D01*
X257810Y697960D02*
X257739Y696881D01*
X257598Y695809D01*
X257387Y694749D01*
X257108Y693705D01*
X256760Y692681D01*
X256346Y691683D01*
X255868Y690713D01*
X255328Y689777D01*
X254727Y688878D01*
X254069Y688021D01*
X253357Y687208D01*
X252592Y686444D01*
X251779Y685731D01*
X250922Y685073D01*
X250023Y684472D01*
X249087Y683932D01*
X248117Y683454D01*
X247119Y683040D01*
X246095Y682692D01*
X245051Y682413D01*
X243991Y682202D01*
X242919Y682061D01*
X241840Y681990D01*
X240760Y681990D01*
X239681Y682061D01*
X238609Y682202D01*
X237549Y682413D01*
X236505Y682692D01*
X235481Y683040D01*
X234483Y683454D01*
X233513Y683932D01*
X232577Y684472D01*
X231678Y685073D01*
X230821Y685731D01*
X230008Y686444D01*
X229244Y687208D01*
X228531Y688021D01*
X227873Y688878D01*
X227272Y689777D01*
X226732Y690713D01*
X226254Y691683D01*
X225840Y692681D01*
X225492Y693705D01*
X225213Y694749D01*
X225002Y695809D01*
X224861Y696881D01*
X224790Y697960D01*
X224790Y699040D01*
X224861Y700119D01*
X225002Y701191D01*
X225213Y702251D01*
X225492Y703295D01*
X225840Y704319D01*
X226254Y705317D01*
X226732Y706287D01*
X227272Y707223D01*
X227873Y708122D01*
X228531Y708979D01*
X229244Y709792D01*
X230008Y710557D01*
X230821Y711269D01*
X231678Y711927D01*
X232577Y712528D01*
X233513Y713068D01*
X234483Y713546D01*
X235481Y713960D01*
X236505Y714308D01*
X237549Y714587D01*
X238609Y714798D01*
X239681Y714939D01*
X240760Y715010D01*
X241840Y715010D01*
X242919Y714939D01*
X243991Y714798D01*
X245051Y714587D01*
X246095Y714308D01*
X247119Y713960D01*
X248117Y713546D01*
X249087Y713068D01*
X250023Y712528D01*
X250922Y711927D01*
X251779Y711269D01*
X252592Y710557D01*
X253357Y709792D01*
X254069Y708979D01*
X254727Y708122D01*
X255328Y707223D01*
X255868Y706287D01*
X256346Y705317D01*
X256760Y704319D01*
X257108Y703295D01*
X257387Y702251D01*
X257598Y701191D01*
X257739Y700119D01*
X257810Y699040D01*
X257810Y697960D01*
X626110Y697960D02*
X626039Y696881D01*
X625898Y695809D01*
X625687Y694749D01*
X625408Y693705D01*
X625060Y692681D01*
X624646Y691683D01*
X624168Y690713D01*
X623628Y689777D01*
X623027Y688878D01*
X622369Y688021D01*
X621657Y687208D01*
X620892Y686444D01*
X620079Y685731D01*
X619222Y685073D01*
X618323Y684472D01*
X617387Y683932D01*
X616417Y683454D01*
X615419Y683040D01*
X614395Y682692D01*
X613351Y682413D01*
X612291Y682202D01*
X611219Y682061D01*
X610140Y681990D01*
X609060Y681990D01*
X607981Y682061D01*
X606909Y682202D01*
X605849Y682413D01*
X604805Y682692D01*
X603781Y683040D01*
X602783Y683454D01*
X601813Y683932D01*
X600877Y684472D01*
X599978Y685073D01*
X599121Y685731D01*
X598308Y686444D01*
X597544Y687208D01*
X596831Y688021D01*
X596173Y688878D01*
X595572Y689777D01*
X595032Y690713D01*
X594554Y691683D01*
X594140Y692681D01*
X593792Y693705D01*
X593513Y694749D01*
X593302Y695809D01*
X593161Y696881D01*
X593090Y697960D01*
X593090Y699040D01*
X593161Y700119D01*
X593302Y701191D01*
X593513Y702251D01*
X593792Y703295D01*
X594140Y704319D01*
X594554Y705317D01*
X595032Y706287D01*
X595572Y707223D01*
X596173Y708122D01*
X596831Y708979D01*
X597544Y709792D01*
X598308Y710557D01*
X599121Y711269D01*
X599978Y711927D01*
X600877Y712528D01*
X601813Y713068D01*
X602783Y713546D01*
X603781Y713960D01*
X604805Y714308D01*
X605849Y714587D01*
X606909Y714798D01*
X607981Y714939D01*
X609060Y715010D01*
X610140Y715010D01*
X611219Y714939D01*
X612291Y714798D01*
X613351Y714587D01*
X614395Y714308D01*
X615419Y713960D01*
X616417Y713546D01*
X617387Y713068D01*
X618323Y712528D01*
X619222Y711927D01*
X620079Y711269D01*
X620892Y710557D01*
X621657Y709792D01*
X622369Y708979D01*
X623027Y708122D01*
X623628Y707223D01*
X624168Y706287D01*
X624646Y705317D01*
X625060Y704319D01*
X625408Y703295D01*
X625687Y702251D01*
X625898Y701191D01*
X626039Y700119D01*
X626110Y699040D01*
X626110Y697960D01*
X257810Y177260D02*
X257739Y176181D01*
X257598Y175109D01*
X257387Y174049D01*
X257108Y173005D01*
X256760Y171981D01*
X256346Y170983D01*
X255868Y170013D01*
X255328Y169077D01*
X254727Y168178D01*
X254069Y167321D01*
X253357Y166508D01*
X252592Y165744D01*
X251779Y165031D01*
X250922Y164373D01*
X250023Y163772D01*
X249087Y163232D01*
X248117Y162754D01*
X247119Y162340D01*
X246095Y161992D01*
X245051Y161713D01*
X243991Y161502D01*
X242919Y161361D01*
X241840Y161290D01*
X240760Y161290D01*
X239681Y161361D01*
X238609Y161502D01*
X237549Y161713D01*
X236505Y161992D01*
X235481Y162340D01*
X234483Y162754D01*
X233513Y163232D01*
X232577Y163772D01*
X231678Y164373D01*
X230821Y165031D01*
X230008Y165744D01*
X229244Y166508D01*
X228531Y167321D01*
X227873Y168178D01*
X227272Y169077D01*
X226732Y170013D01*
X226254Y170983D01*
X225840Y171981D01*
X225492Y173005D01*
X225213Y174049D01*
X225002Y175109D01*
X224861Y176181D01*
X224790Y177260D01*
X224790Y178340D01*
X224861Y179419D01*
X225002Y180491D01*
X225213Y181551D01*
X225492Y182595D01*
X225840Y183619D01*
X226254Y184617D01*
X226732Y185587D01*
X227272Y186523D01*
X227873Y187422D01*
X228531Y188279D01*
X229244Y189092D01*
X230008Y189857D01*
X230821Y190569D01*
X231678Y191227D01*
X232577Y191828D01*
X233513Y192368D01*
X234483Y192846D01*
X235481Y193260D01*
X236505Y193608D01*
X237549Y193887D01*
X238609Y194098D01*
X239681Y194239D01*
X240760Y194310D01*
X241840Y194310D01*
X242919Y194239D01*
X243991Y194098D01*
X245051Y193887D01*
X246095Y193608D01*
X247119Y193260D01*
X248117Y192846D01*
X249087Y192368D01*
X250023Y191828D01*
X250922Y191227D01*
X251779Y190569D01*
X252592Y189857D01*
X253357Y189092D01*
X254069Y188279D01*
X254727Y187422D01*
X255328Y186523D01*
X255868Y185587D01*
X256346Y184617D01*
X256760Y183619D01*
X257108Y182595D01*
X257387Y181551D01*
X257598Y180491D01*
X257739Y179419D01*
X257810Y178340D01*
X257810Y177260D01*
X626110Y177260D02*
X626039Y176181D01*
X625898Y175109D01*
X625687Y174049D01*
X625408Y173005D01*
X625060Y171981D01*
X624646Y170983D01*
X624168Y170013D01*
X623628Y169077D01*
X623027Y168178D01*
X622369Y167321D01*
X621657Y166508D01*
X620892Y165744D01*
X620079Y165031D01*
X619222Y164373D01*
X618323Y163772D01*
X617387Y163232D01*
X616417Y162754D01*
X615419Y162340D01*
X614395Y161992D01*
X613351Y161713D01*
X612291Y161502D01*
X611219Y161361D01*
X610140Y161290D01*
X609060Y161290D01*
X607981Y161361D01*
X606909Y161502D01*
X605849Y161713D01*
X604805Y161992D01*
X603781Y162340D01*
X602783Y162754D01*
X601813Y163232D01*
X600877Y163772D01*
X599978Y164373D01*
X599121Y165031D01*
X598308Y165744D01*
X597544Y166508D01*
X596831Y167321D01*
X596173Y168178D01*
X595572Y169077D01*
X595032Y170013D01*
X594554Y170983D01*
X594140Y171981D01*
X593792Y173005D01*
X593513Y174049D01*
X593302Y175109D01*
X593161Y176181D01*
X593090Y177260D01*
X593090Y178340D01*
X593161Y179419D01*
X593302Y180491D01*
X593513Y181551D01*
X593792Y182595D01*
X594140Y183619D01*
X594554Y184617D01*
X595032Y185587D01*
X595572Y186523D01*
X596173Y187422D01*
X596831Y188279D01*
X597544Y189092D01*
X598308Y189857D01*
X599121Y190569D01*
X599978Y191227D01*
X600877Y191828D01*
X601813Y192368D01*
X602783Y192846D01*
X603781Y193260D01*
X604805Y193608D01*
X605849Y193887D01*
X606909Y194098D01*
X607981Y194239D01*
X609060Y194310D01*
X610140Y194310D01*
X611219Y194239D01*
X612291Y194098D01*
X613351Y193887D01*
X614395Y193608D01*
X615419Y193260D01*
X616417Y192846D01*
X617387Y192368D01*
X618323Y191828D01*
X619222Y191227D01*
X620079Y190569D01*
X620892Y189857D01*
X621657Y189092D01*
X622369Y188279D01*
X623027Y187422D01*
X623628Y186523D01*
X624168Y185587D01*
X624646Y184617D01*
X625060Y183619D01*
X625408Y182595D01*
X625687Y181551D01*
X625898Y180491D01*
X626039Y179419D01*
X626110Y178340D01*
X626110Y177260D01*
M02*
