G04 EAGLE Gerber RS-274X export*
G75*
%MOMM*%
%FSLAX34Y34*%
%LPD*%
%INSilkscreen Bottom*%
%IPPOS*%
%AMOC8*
5,1,8,0,0,1.08239X$1,22.5*%
G01*
%ADD10C,0.152400*%
%ADD11C,0.127000*%
%ADD12R,0.200000X1.400000*%
%ADD13C,0.025400*%


D10*
X551100Y584200D02*
X541100Y588200D01*
X541100Y580200D01*
X551100Y584200D01*
D11*
X559600Y592450D02*
X532600Y592450D01*
X532600Y575950D01*
X559600Y575950D01*
X559600Y592450D01*
D12*
X552100Y584200D03*
D13*
X556973Y594327D02*
X556973Y598137D01*
X555915Y598137D01*
X555851Y598135D01*
X555787Y598129D01*
X555724Y598120D01*
X555662Y598106D01*
X555600Y598089D01*
X555540Y598068D01*
X555481Y598044D01*
X555423Y598016D01*
X555368Y597984D01*
X555314Y597950D01*
X555263Y597912D01*
X555213Y597871D01*
X555167Y597827D01*
X555123Y597781D01*
X555082Y597732D01*
X555044Y597680D01*
X555010Y597626D01*
X554978Y597571D01*
X554950Y597513D01*
X554926Y597454D01*
X554905Y597394D01*
X554888Y597332D01*
X554874Y597270D01*
X554865Y597207D01*
X554859Y597143D01*
X554857Y597079D01*
X554856Y597079D02*
X554856Y595385D01*
X554857Y595385D02*
X554859Y595321D01*
X554865Y595257D01*
X554874Y595194D01*
X554888Y595132D01*
X554905Y595070D01*
X554926Y595010D01*
X554950Y594951D01*
X554978Y594893D01*
X555010Y594838D01*
X555044Y594784D01*
X555082Y594733D01*
X555123Y594683D01*
X555167Y594637D01*
X555213Y594593D01*
X555263Y594552D01*
X555314Y594514D01*
X555368Y594480D01*
X555423Y594448D01*
X555481Y594420D01*
X555540Y594396D01*
X555600Y594375D01*
X555662Y594358D01*
X555724Y594344D01*
X555788Y594335D01*
X555851Y594329D01*
X555915Y594327D01*
X556973Y594327D01*
X552347Y596020D02*
X551077Y596020D01*
X552347Y596020D02*
X552402Y596022D01*
X552458Y596027D01*
X552512Y596036D01*
X552566Y596049D01*
X552619Y596065D01*
X552671Y596084D01*
X552722Y596107D01*
X552771Y596133D01*
X552818Y596163D01*
X552863Y596195D01*
X552905Y596230D01*
X552946Y596268D01*
X552984Y596309D01*
X553019Y596351D01*
X553051Y596396D01*
X553081Y596444D01*
X553107Y596492D01*
X553130Y596543D01*
X553149Y596595D01*
X553165Y596648D01*
X553178Y596702D01*
X553187Y596756D01*
X553192Y596812D01*
X553194Y596867D01*
X553194Y597079D01*
X553193Y597079D02*
X553191Y597143D01*
X553185Y597207D01*
X553176Y597270D01*
X553162Y597332D01*
X553145Y597394D01*
X553124Y597454D01*
X553100Y597513D01*
X553072Y597571D01*
X553040Y597626D01*
X553006Y597680D01*
X552968Y597731D01*
X552927Y597781D01*
X552883Y597827D01*
X552837Y597871D01*
X552787Y597912D01*
X552736Y597950D01*
X552682Y597984D01*
X552627Y598016D01*
X552569Y598044D01*
X552510Y598068D01*
X552450Y598089D01*
X552388Y598106D01*
X552326Y598120D01*
X552263Y598129D01*
X552199Y598135D01*
X552135Y598137D01*
X552071Y598135D01*
X552007Y598129D01*
X551944Y598120D01*
X551882Y598106D01*
X551820Y598089D01*
X551760Y598068D01*
X551701Y598044D01*
X551643Y598016D01*
X551588Y597984D01*
X551534Y597950D01*
X551483Y597912D01*
X551433Y597871D01*
X551387Y597827D01*
X551343Y597781D01*
X551302Y597731D01*
X551264Y597680D01*
X551230Y597626D01*
X551198Y597571D01*
X551170Y597513D01*
X551146Y597454D01*
X551125Y597394D01*
X551108Y597332D01*
X551094Y597270D01*
X551085Y597207D01*
X551079Y597143D01*
X551077Y597079D01*
X551077Y596020D01*
X551079Y595939D01*
X551085Y595859D01*
X551094Y595779D01*
X551108Y595700D01*
X551125Y595621D01*
X551146Y595543D01*
X551170Y595466D01*
X551198Y595391D01*
X551230Y595317D01*
X551265Y595244D01*
X551304Y595173D01*
X551346Y595105D01*
X551391Y595038D01*
X551439Y594973D01*
X551491Y594911D01*
X551545Y594852D01*
X551602Y594795D01*
X551661Y594741D01*
X551723Y594689D01*
X551788Y594641D01*
X551855Y594596D01*
X551924Y594554D01*
X551994Y594515D01*
X552067Y594480D01*
X552141Y594448D01*
X552216Y594420D01*
X552293Y594396D01*
X552371Y594375D01*
X552450Y594358D01*
X552529Y594344D01*
X552609Y594335D01*
X552689Y594329D01*
X552770Y594327D01*
D10*
X541100Y562800D02*
X551100Y558800D01*
X541100Y562800D02*
X541100Y554800D01*
X551100Y558800D01*
D11*
X559600Y567050D02*
X532600Y567050D01*
X532600Y550550D01*
X559600Y550550D01*
X559600Y567050D01*
D12*
X552100Y558800D03*
D13*
X556973Y568927D02*
X556973Y572737D01*
X555915Y572737D01*
X555851Y572735D01*
X555787Y572729D01*
X555724Y572720D01*
X555662Y572706D01*
X555600Y572689D01*
X555540Y572668D01*
X555481Y572644D01*
X555423Y572616D01*
X555368Y572584D01*
X555314Y572550D01*
X555263Y572512D01*
X555213Y572471D01*
X555167Y572427D01*
X555123Y572381D01*
X555082Y572332D01*
X555044Y572280D01*
X555010Y572226D01*
X554978Y572171D01*
X554950Y572113D01*
X554926Y572054D01*
X554905Y571994D01*
X554888Y571932D01*
X554874Y571870D01*
X554865Y571807D01*
X554859Y571743D01*
X554857Y571679D01*
X554856Y571679D02*
X554856Y569985D01*
X554857Y569985D02*
X554859Y569921D01*
X554865Y569857D01*
X554874Y569794D01*
X554888Y569732D01*
X554905Y569670D01*
X554926Y569610D01*
X554950Y569551D01*
X554978Y569493D01*
X555010Y569438D01*
X555044Y569384D01*
X555082Y569333D01*
X555123Y569283D01*
X555167Y569237D01*
X555213Y569193D01*
X555263Y569152D01*
X555314Y569114D01*
X555368Y569080D01*
X555423Y569048D01*
X555481Y569020D01*
X555540Y568996D01*
X555600Y568975D01*
X555662Y568958D01*
X555724Y568944D01*
X555788Y568935D01*
X555851Y568929D01*
X555915Y568927D01*
X556973Y568927D01*
X553194Y571890D02*
X552135Y572737D01*
X552135Y568927D01*
X551077Y568927D02*
X553194Y568927D01*
X549536Y570832D02*
X549534Y570942D01*
X549528Y571051D01*
X549519Y571160D01*
X549505Y571269D01*
X549488Y571377D01*
X549467Y571485D01*
X549443Y571591D01*
X549414Y571697D01*
X549382Y571802D01*
X549347Y571906D01*
X549308Y572008D01*
X549265Y572109D01*
X549218Y572208D01*
X549219Y572208D02*
X549199Y572258D01*
X549177Y572307D01*
X549151Y572355D01*
X549122Y572400D01*
X549089Y572443D01*
X549054Y572484D01*
X549016Y572523D01*
X548976Y572558D01*
X548933Y572591D01*
X548888Y572621D01*
X548841Y572648D01*
X548793Y572671D01*
X548743Y572691D01*
X548691Y572707D01*
X548639Y572720D01*
X548586Y572730D01*
X548532Y572735D01*
X548478Y572737D01*
X548424Y572735D01*
X548370Y572730D01*
X548317Y572720D01*
X548265Y572707D01*
X548213Y572691D01*
X548163Y572671D01*
X548115Y572648D01*
X548068Y572621D01*
X548023Y572591D01*
X547980Y572558D01*
X547940Y572523D01*
X547902Y572484D01*
X547867Y572443D01*
X547834Y572400D01*
X547805Y572355D01*
X547779Y572307D01*
X547757Y572258D01*
X547737Y572208D01*
X547690Y572109D01*
X547647Y572008D01*
X547608Y571906D01*
X547573Y571802D01*
X547541Y571697D01*
X547512Y571591D01*
X547488Y571485D01*
X547467Y571377D01*
X547450Y571269D01*
X547436Y571160D01*
X547427Y571051D01*
X547421Y570942D01*
X547419Y570832D01*
X549536Y570832D02*
X549534Y570722D01*
X549528Y570613D01*
X549519Y570504D01*
X549505Y570395D01*
X549488Y570287D01*
X549467Y570179D01*
X549443Y570073D01*
X549414Y569967D01*
X549382Y569862D01*
X549347Y569759D01*
X549308Y569656D01*
X549265Y569555D01*
X549218Y569456D01*
X549219Y569456D02*
X549199Y569406D01*
X549177Y569357D01*
X549151Y569309D01*
X549122Y569264D01*
X549089Y569221D01*
X549054Y569180D01*
X549016Y569141D01*
X548976Y569106D01*
X548933Y569073D01*
X548888Y569043D01*
X548841Y569016D01*
X548793Y568993D01*
X548743Y568973D01*
X548691Y568957D01*
X548639Y568944D01*
X548586Y568934D01*
X548532Y568929D01*
X548478Y568927D01*
X547737Y569456D02*
X547690Y569555D01*
X547647Y569656D01*
X547608Y569759D01*
X547573Y569862D01*
X547541Y569967D01*
X547512Y570073D01*
X547488Y570179D01*
X547467Y570287D01*
X547450Y570395D01*
X547436Y570504D01*
X547427Y570613D01*
X547421Y570722D01*
X547419Y570832D01*
X547737Y569456D02*
X547757Y569406D01*
X547779Y569357D01*
X547805Y569309D01*
X547834Y569264D01*
X547867Y569221D01*
X547902Y569180D01*
X547940Y569141D01*
X547980Y569106D01*
X548023Y569073D01*
X548068Y569043D01*
X548115Y569016D01*
X548163Y568993D01*
X548214Y568973D01*
X548265Y568957D01*
X548317Y568944D01*
X548370Y568934D01*
X548424Y568929D01*
X548478Y568927D01*
X549324Y569774D02*
X547631Y571890D01*
D10*
X541100Y512000D02*
X551100Y508000D01*
X541100Y512000D02*
X541100Y504000D01*
X551100Y508000D01*
D11*
X559600Y516250D02*
X532600Y516250D01*
X532600Y499750D01*
X559600Y499750D01*
X559600Y516250D01*
D12*
X552100Y508000D03*
D13*
X556973Y518127D02*
X556973Y521937D01*
X555915Y521937D01*
X555851Y521935D01*
X555787Y521929D01*
X555724Y521920D01*
X555662Y521906D01*
X555600Y521889D01*
X555540Y521868D01*
X555481Y521844D01*
X555423Y521816D01*
X555368Y521784D01*
X555314Y521750D01*
X555263Y521712D01*
X555213Y521671D01*
X555167Y521627D01*
X555123Y521581D01*
X555082Y521532D01*
X555044Y521480D01*
X555010Y521426D01*
X554978Y521371D01*
X554950Y521313D01*
X554926Y521254D01*
X554905Y521194D01*
X554888Y521132D01*
X554874Y521070D01*
X554865Y521007D01*
X554859Y520943D01*
X554857Y520879D01*
X554856Y520879D02*
X554856Y519185D01*
X554857Y519185D02*
X554859Y519121D01*
X554865Y519057D01*
X554874Y518994D01*
X554888Y518932D01*
X554905Y518870D01*
X554926Y518810D01*
X554950Y518751D01*
X554978Y518693D01*
X555010Y518638D01*
X555044Y518584D01*
X555082Y518533D01*
X555123Y518483D01*
X555167Y518437D01*
X555213Y518393D01*
X555263Y518352D01*
X555314Y518314D01*
X555368Y518280D01*
X555423Y518248D01*
X555481Y518220D01*
X555540Y518196D01*
X555600Y518175D01*
X555662Y518158D01*
X555724Y518144D01*
X555788Y518135D01*
X555851Y518129D01*
X555915Y518127D01*
X556973Y518127D01*
X553194Y521090D02*
X552135Y521937D01*
X552135Y518127D01*
X551077Y518127D02*
X553194Y518127D01*
X549536Y521090D02*
X548478Y521937D01*
X548478Y518127D01*
X549536Y518127D02*
X547419Y518127D01*
D10*
X541100Y486600D02*
X551100Y482600D01*
X541100Y486600D02*
X541100Y478600D01*
X551100Y482600D01*
D11*
X559600Y490850D02*
X532600Y490850D01*
X532600Y474350D01*
X559600Y474350D01*
X559600Y490850D01*
D12*
X552100Y482600D03*
D13*
X556973Y492727D02*
X556973Y496537D01*
X555915Y496537D01*
X555851Y496535D01*
X555787Y496529D01*
X555724Y496520D01*
X555662Y496506D01*
X555600Y496489D01*
X555540Y496468D01*
X555481Y496444D01*
X555423Y496416D01*
X555368Y496384D01*
X555314Y496350D01*
X555263Y496312D01*
X555213Y496271D01*
X555167Y496227D01*
X555123Y496181D01*
X555082Y496132D01*
X555044Y496080D01*
X555010Y496026D01*
X554978Y495971D01*
X554950Y495913D01*
X554926Y495854D01*
X554905Y495794D01*
X554888Y495732D01*
X554874Y495670D01*
X554865Y495607D01*
X554859Y495543D01*
X554857Y495479D01*
X554856Y495479D02*
X554856Y493785D01*
X554857Y493785D02*
X554859Y493721D01*
X554865Y493657D01*
X554874Y493594D01*
X554888Y493532D01*
X554905Y493470D01*
X554926Y493410D01*
X554950Y493351D01*
X554978Y493293D01*
X555010Y493238D01*
X555044Y493184D01*
X555082Y493133D01*
X555123Y493083D01*
X555167Y493037D01*
X555213Y492993D01*
X555263Y492952D01*
X555314Y492914D01*
X555368Y492880D01*
X555423Y492848D01*
X555481Y492820D01*
X555540Y492796D01*
X555600Y492775D01*
X555662Y492758D01*
X555724Y492744D01*
X555788Y492735D01*
X555851Y492729D01*
X555915Y492727D01*
X556973Y492727D01*
X553194Y495690D02*
X552135Y496537D01*
X552135Y492727D01*
X551077Y492727D02*
X553194Y492727D01*
X548372Y496538D02*
X548312Y496536D01*
X548253Y496530D01*
X548193Y496521D01*
X548135Y496508D01*
X548078Y496491D01*
X548021Y496471D01*
X547966Y496447D01*
X547913Y496420D01*
X547861Y496390D01*
X547812Y496356D01*
X547765Y496319D01*
X547720Y496280D01*
X547677Y496237D01*
X547638Y496192D01*
X547601Y496145D01*
X547567Y496096D01*
X547537Y496044D01*
X547510Y495991D01*
X547486Y495936D01*
X547466Y495879D01*
X547449Y495822D01*
X547436Y495764D01*
X547427Y495704D01*
X547421Y495645D01*
X547419Y495585D01*
X548372Y496537D02*
X548439Y496535D01*
X548506Y496530D01*
X548572Y496521D01*
X548638Y496508D01*
X548702Y496492D01*
X548766Y496472D01*
X548829Y496448D01*
X548891Y496422D01*
X548950Y496392D01*
X549008Y496359D01*
X549065Y496322D01*
X549119Y496283D01*
X549171Y496241D01*
X549220Y496196D01*
X549267Y496148D01*
X549311Y496098D01*
X549353Y496045D01*
X549391Y495990D01*
X549427Y495934D01*
X549459Y495875D01*
X549488Y495815D01*
X549514Y495753D01*
X549536Y495690D01*
X547736Y494844D02*
X547695Y494886D01*
X547656Y494931D01*
X547619Y494977D01*
X547585Y495026D01*
X547554Y495076D01*
X547527Y495128D01*
X547502Y495182D01*
X547480Y495237D01*
X547461Y495293D01*
X547446Y495350D01*
X547434Y495408D01*
X547426Y495467D01*
X547421Y495526D01*
X547419Y495585D01*
X547737Y494844D02*
X549536Y492727D01*
X547419Y492727D01*
D10*
X541100Y435800D02*
X551100Y431800D01*
X541100Y435800D02*
X541100Y427800D01*
X551100Y431800D01*
D11*
X559600Y440050D02*
X532600Y440050D01*
X532600Y423550D01*
X559600Y423550D01*
X559600Y440050D01*
D12*
X552100Y431800D03*
D13*
X556973Y441927D02*
X556973Y445737D01*
X555915Y445737D01*
X555851Y445735D01*
X555787Y445729D01*
X555724Y445720D01*
X555662Y445706D01*
X555600Y445689D01*
X555540Y445668D01*
X555481Y445644D01*
X555423Y445616D01*
X555368Y445584D01*
X555314Y445550D01*
X555263Y445512D01*
X555213Y445471D01*
X555167Y445427D01*
X555123Y445381D01*
X555082Y445332D01*
X555044Y445280D01*
X555010Y445226D01*
X554978Y445171D01*
X554950Y445113D01*
X554926Y445054D01*
X554905Y444994D01*
X554888Y444932D01*
X554874Y444870D01*
X554865Y444807D01*
X554859Y444743D01*
X554857Y444679D01*
X554856Y444679D02*
X554856Y442985D01*
X554857Y442985D02*
X554859Y442921D01*
X554865Y442857D01*
X554874Y442794D01*
X554888Y442732D01*
X554905Y442670D01*
X554926Y442610D01*
X554950Y442551D01*
X554978Y442493D01*
X555010Y442438D01*
X555044Y442384D01*
X555082Y442333D01*
X555123Y442283D01*
X555167Y442237D01*
X555213Y442193D01*
X555263Y442152D01*
X555314Y442114D01*
X555368Y442080D01*
X555423Y442048D01*
X555481Y442020D01*
X555540Y441996D01*
X555600Y441975D01*
X555662Y441958D01*
X555724Y441944D01*
X555788Y441935D01*
X555851Y441929D01*
X555915Y441927D01*
X556973Y441927D01*
X553194Y444890D02*
X552135Y445737D01*
X552135Y441927D01*
X551077Y441927D02*
X553194Y441927D01*
X549536Y441927D02*
X548478Y441927D01*
X548414Y441929D01*
X548350Y441935D01*
X548287Y441944D01*
X548225Y441958D01*
X548163Y441975D01*
X548103Y441996D01*
X548044Y442020D01*
X547986Y442048D01*
X547931Y442080D01*
X547877Y442114D01*
X547826Y442152D01*
X547776Y442193D01*
X547730Y442237D01*
X547686Y442283D01*
X547645Y442333D01*
X547607Y442384D01*
X547573Y442438D01*
X547541Y442493D01*
X547513Y442551D01*
X547489Y442610D01*
X547468Y442670D01*
X547451Y442732D01*
X547437Y442794D01*
X547428Y442857D01*
X547422Y442921D01*
X547420Y442985D01*
X547422Y443049D01*
X547428Y443113D01*
X547437Y443176D01*
X547451Y443238D01*
X547468Y443300D01*
X547489Y443360D01*
X547513Y443419D01*
X547541Y443477D01*
X547573Y443532D01*
X547607Y443586D01*
X547645Y443637D01*
X547686Y443687D01*
X547730Y443733D01*
X547776Y443777D01*
X547826Y443818D01*
X547877Y443856D01*
X547931Y443890D01*
X547986Y443922D01*
X548044Y443950D01*
X548103Y443974D01*
X548163Y443995D01*
X548225Y444012D01*
X548287Y444026D01*
X548350Y444035D01*
X548414Y444041D01*
X548478Y444043D01*
X548266Y445737D02*
X549536Y445737D01*
X548266Y445737D02*
X548209Y445735D01*
X548153Y445729D01*
X548097Y445720D01*
X548042Y445707D01*
X547988Y445690D01*
X547935Y445670D01*
X547884Y445646D01*
X547834Y445619D01*
X547787Y445588D01*
X547741Y445555D01*
X547698Y445518D01*
X547657Y445479D01*
X547619Y445437D01*
X547584Y445392D01*
X547552Y445346D01*
X547523Y445297D01*
X547498Y445247D01*
X547476Y445194D01*
X547457Y445141D01*
X547442Y445086D01*
X547431Y445031D01*
X547423Y444975D01*
X547419Y444918D01*
X547419Y444862D01*
X547423Y444805D01*
X547431Y444749D01*
X547442Y444694D01*
X547457Y444639D01*
X547476Y444586D01*
X547498Y444533D01*
X547523Y444483D01*
X547552Y444434D01*
X547584Y444388D01*
X547619Y444343D01*
X547657Y444301D01*
X547698Y444262D01*
X547741Y444225D01*
X547787Y444192D01*
X547834Y444161D01*
X547884Y444134D01*
X547935Y444110D01*
X547988Y444090D01*
X548042Y444073D01*
X548097Y444060D01*
X548153Y444051D01*
X548209Y444045D01*
X548266Y444043D01*
X548266Y444044D02*
X549113Y444044D01*
D10*
X541100Y410400D02*
X551100Y406400D01*
X541100Y410400D02*
X541100Y402400D01*
X551100Y406400D01*
D11*
X559600Y414650D02*
X532600Y414650D01*
X532600Y398150D01*
X559600Y398150D01*
X559600Y414650D01*
D12*
X552100Y406400D03*
D13*
X556973Y416527D02*
X556973Y420337D01*
X555915Y420337D01*
X555851Y420335D01*
X555787Y420329D01*
X555724Y420320D01*
X555662Y420306D01*
X555600Y420289D01*
X555540Y420268D01*
X555481Y420244D01*
X555423Y420216D01*
X555368Y420184D01*
X555314Y420150D01*
X555263Y420112D01*
X555213Y420071D01*
X555167Y420027D01*
X555123Y419981D01*
X555082Y419932D01*
X555044Y419880D01*
X555010Y419826D01*
X554978Y419771D01*
X554950Y419713D01*
X554926Y419654D01*
X554905Y419594D01*
X554888Y419532D01*
X554874Y419470D01*
X554865Y419407D01*
X554859Y419343D01*
X554857Y419279D01*
X554856Y419279D02*
X554856Y417585D01*
X554857Y417585D02*
X554859Y417521D01*
X554865Y417457D01*
X554874Y417394D01*
X554888Y417332D01*
X554905Y417270D01*
X554926Y417210D01*
X554950Y417151D01*
X554978Y417093D01*
X555010Y417038D01*
X555044Y416984D01*
X555082Y416933D01*
X555123Y416883D01*
X555167Y416837D01*
X555213Y416793D01*
X555263Y416752D01*
X555314Y416714D01*
X555368Y416680D01*
X555423Y416648D01*
X555481Y416620D01*
X555540Y416596D01*
X555600Y416575D01*
X555662Y416558D01*
X555724Y416544D01*
X555788Y416535D01*
X555851Y416529D01*
X555915Y416527D01*
X556973Y416527D01*
X553194Y419490D02*
X552135Y420337D01*
X552135Y416527D01*
X551077Y416527D02*
X553194Y416527D01*
X549536Y417374D02*
X548689Y420337D01*
X549536Y417374D02*
X547419Y417374D01*
X548054Y418220D02*
X548054Y416527D01*
D10*
X541100Y359600D02*
X551100Y355600D01*
X541100Y359600D02*
X541100Y351600D01*
X551100Y355600D01*
D11*
X559600Y363850D02*
X532600Y363850D01*
X532600Y347350D01*
X559600Y347350D01*
X559600Y363850D01*
D12*
X552100Y355600D03*
D13*
X556973Y365727D02*
X556973Y369537D01*
X555915Y369537D01*
X555851Y369535D01*
X555787Y369529D01*
X555724Y369520D01*
X555662Y369506D01*
X555600Y369489D01*
X555540Y369468D01*
X555481Y369444D01*
X555423Y369416D01*
X555368Y369384D01*
X555314Y369350D01*
X555263Y369312D01*
X555213Y369271D01*
X555167Y369227D01*
X555123Y369181D01*
X555082Y369132D01*
X555044Y369080D01*
X555010Y369026D01*
X554978Y368971D01*
X554950Y368913D01*
X554926Y368854D01*
X554905Y368794D01*
X554888Y368732D01*
X554874Y368670D01*
X554865Y368607D01*
X554859Y368543D01*
X554857Y368479D01*
X554856Y368479D02*
X554856Y366785D01*
X554857Y366785D02*
X554859Y366721D01*
X554865Y366657D01*
X554874Y366594D01*
X554888Y366532D01*
X554905Y366470D01*
X554926Y366410D01*
X554950Y366351D01*
X554978Y366293D01*
X555010Y366238D01*
X555044Y366184D01*
X555082Y366133D01*
X555123Y366083D01*
X555167Y366037D01*
X555213Y365993D01*
X555263Y365952D01*
X555314Y365914D01*
X555368Y365880D01*
X555423Y365848D01*
X555481Y365820D01*
X555540Y365796D01*
X555600Y365775D01*
X555662Y365758D01*
X555724Y365744D01*
X555788Y365735D01*
X555851Y365729D01*
X555915Y365727D01*
X556973Y365727D01*
X553194Y368690D02*
X552135Y369537D01*
X552135Y365727D01*
X551077Y365727D02*
X553194Y365727D01*
X549536Y365727D02*
X548266Y365727D01*
X548211Y365729D01*
X548155Y365734D01*
X548101Y365743D01*
X548047Y365756D01*
X547994Y365772D01*
X547942Y365791D01*
X547891Y365814D01*
X547843Y365840D01*
X547795Y365870D01*
X547750Y365902D01*
X547708Y365937D01*
X547667Y365975D01*
X547629Y366016D01*
X547594Y366058D01*
X547562Y366103D01*
X547532Y366151D01*
X547506Y366199D01*
X547483Y366250D01*
X547464Y366302D01*
X547448Y366355D01*
X547435Y366409D01*
X547426Y366463D01*
X547421Y366519D01*
X547419Y366574D01*
X547419Y366997D01*
X547421Y367052D01*
X547426Y367108D01*
X547435Y367162D01*
X547448Y367216D01*
X547464Y367269D01*
X547483Y367321D01*
X547506Y367372D01*
X547532Y367421D01*
X547562Y367468D01*
X547594Y367513D01*
X547629Y367555D01*
X547667Y367596D01*
X547708Y367634D01*
X547750Y367669D01*
X547795Y367701D01*
X547843Y367731D01*
X547891Y367757D01*
X547942Y367780D01*
X547994Y367799D01*
X548047Y367815D01*
X548101Y367828D01*
X548155Y367837D01*
X548211Y367842D01*
X548266Y367844D01*
X549536Y367844D01*
X549536Y369537D01*
X547419Y369537D01*
D10*
X541100Y334200D02*
X551100Y330200D01*
X541100Y334200D02*
X541100Y326200D01*
X551100Y330200D01*
D11*
X559600Y338450D02*
X532600Y338450D01*
X532600Y321950D01*
X559600Y321950D01*
X559600Y338450D01*
D12*
X552100Y330200D03*
D13*
X556973Y340327D02*
X556973Y344137D01*
X555915Y344137D01*
X555851Y344135D01*
X555787Y344129D01*
X555724Y344120D01*
X555662Y344106D01*
X555600Y344089D01*
X555540Y344068D01*
X555481Y344044D01*
X555423Y344016D01*
X555368Y343984D01*
X555314Y343950D01*
X555263Y343912D01*
X555213Y343871D01*
X555167Y343827D01*
X555123Y343781D01*
X555082Y343732D01*
X555044Y343680D01*
X555010Y343626D01*
X554978Y343571D01*
X554950Y343513D01*
X554926Y343454D01*
X554905Y343394D01*
X554888Y343332D01*
X554874Y343270D01*
X554865Y343207D01*
X554859Y343143D01*
X554857Y343079D01*
X554856Y343079D02*
X554856Y341385D01*
X554857Y341385D02*
X554859Y341321D01*
X554865Y341257D01*
X554874Y341194D01*
X554888Y341132D01*
X554905Y341070D01*
X554926Y341010D01*
X554950Y340951D01*
X554978Y340893D01*
X555010Y340838D01*
X555044Y340784D01*
X555082Y340733D01*
X555123Y340683D01*
X555167Y340637D01*
X555213Y340593D01*
X555263Y340552D01*
X555314Y340514D01*
X555368Y340480D01*
X555423Y340448D01*
X555481Y340420D01*
X555540Y340396D01*
X555600Y340375D01*
X555662Y340358D01*
X555724Y340344D01*
X555788Y340335D01*
X555851Y340329D01*
X555915Y340327D01*
X556973Y340327D01*
X553194Y343290D02*
X552135Y344137D01*
X552135Y340327D01*
X551077Y340327D02*
X553194Y340327D01*
X549536Y342444D02*
X548266Y342444D01*
X548208Y342442D01*
X548151Y342436D01*
X548094Y342426D01*
X548037Y342413D01*
X547982Y342395D01*
X547929Y342374D01*
X547876Y342349D01*
X547826Y342321D01*
X547778Y342289D01*
X547731Y342254D01*
X547688Y342216D01*
X547647Y342175D01*
X547609Y342132D01*
X547574Y342085D01*
X547542Y342037D01*
X547514Y341987D01*
X547489Y341934D01*
X547468Y341881D01*
X547450Y341826D01*
X547437Y341769D01*
X547427Y341712D01*
X547421Y341655D01*
X547419Y341597D01*
X547419Y341385D01*
X547420Y341385D02*
X547422Y341321D01*
X547428Y341257D01*
X547437Y341194D01*
X547451Y341132D01*
X547468Y341070D01*
X547489Y341010D01*
X547513Y340951D01*
X547541Y340893D01*
X547573Y340838D01*
X547607Y340784D01*
X547645Y340733D01*
X547686Y340683D01*
X547730Y340637D01*
X547776Y340593D01*
X547826Y340552D01*
X547877Y340514D01*
X547931Y340480D01*
X547986Y340448D01*
X548044Y340420D01*
X548103Y340396D01*
X548163Y340375D01*
X548225Y340358D01*
X548287Y340344D01*
X548350Y340335D01*
X548414Y340329D01*
X548478Y340327D01*
X548542Y340329D01*
X548606Y340335D01*
X548669Y340344D01*
X548731Y340358D01*
X548793Y340375D01*
X548853Y340396D01*
X548912Y340420D01*
X548970Y340448D01*
X549025Y340480D01*
X549079Y340514D01*
X549130Y340552D01*
X549180Y340593D01*
X549226Y340637D01*
X549270Y340683D01*
X549311Y340733D01*
X549349Y340784D01*
X549383Y340838D01*
X549415Y340893D01*
X549443Y340951D01*
X549467Y341010D01*
X549488Y341070D01*
X549505Y341132D01*
X549519Y341194D01*
X549528Y341257D01*
X549534Y341321D01*
X549536Y341385D01*
X549536Y342444D01*
X549534Y342525D01*
X549528Y342605D01*
X549519Y342685D01*
X549505Y342764D01*
X549488Y342843D01*
X549467Y342921D01*
X549443Y342998D01*
X549415Y343073D01*
X549383Y343147D01*
X549348Y343220D01*
X549309Y343291D01*
X549267Y343359D01*
X549222Y343426D01*
X549174Y343491D01*
X549122Y343553D01*
X549068Y343612D01*
X549011Y343669D01*
X548952Y343723D01*
X548890Y343775D01*
X548825Y343823D01*
X548758Y343868D01*
X548690Y343910D01*
X548619Y343949D01*
X548546Y343984D01*
X548472Y344016D01*
X548397Y344044D01*
X548320Y344068D01*
X548242Y344089D01*
X548163Y344106D01*
X548084Y344120D01*
X548004Y344129D01*
X547924Y344135D01*
X547843Y344137D01*
M02*
