G04 EAGLE Gerber RS-274X export*
G75*
%MOMM*%
%FSLAX34Y34*%
%LPD*%
%INSoldermask Top*%
%IPPOS*%
%AMOC8*
5,1,8,0,0,1.08239X$1,22.5*%
G01*
%ADD10C,3.505200*%
%ADD11R,2.235200X0.863600*%
%ADD12C,2.082800*%
%ADD13R,1.603200X1.203200*%
%ADD14R,1.503200X1.703200*%
%ADD15C,2.003200*%
%ADD16R,0.815000X1.115000*%
%ADD17C,0.959600*%


D10*
X241300Y698500D03*
X609600Y698500D03*
X241300Y177800D03*
X609600Y177800D03*
D11*
X228346Y495300D03*
X289814Y495300D03*
X228346Y482600D03*
X228346Y469900D03*
X289814Y482600D03*
X289814Y469900D03*
X228346Y457200D03*
X289814Y457200D03*
X228346Y444500D03*
X289814Y444500D03*
X228346Y431800D03*
X228346Y419100D03*
X289814Y431800D03*
X289814Y419100D03*
X228346Y406400D03*
X289814Y406400D03*
D12*
X381000Y212598D02*
X381000Y193802D01*
X406400Y193802D02*
X406400Y212598D01*
X431800Y212598D02*
X431800Y193802D01*
X457200Y193802D02*
X457200Y212598D01*
X482600Y212598D02*
X482600Y193802D01*
X508000Y193802D02*
X508000Y212598D01*
X533400Y212598D02*
X533400Y193802D01*
X381000Y663702D02*
X381000Y682498D01*
X406400Y682498D02*
X406400Y663702D01*
X431800Y663702D02*
X431800Y682498D01*
X457200Y682498D02*
X457200Y663702D01*
X482600Y663702D02*
X482600Y682498D01*
X508000Y682498D02*
X508000Y663702D01*
X533400Y663702D02*
X533400Y682498D01*
D13*
X544400Y596900D03*
X522400Y587400D03*
X522400Y606400D03*
X544400Y558800D03*
X522400Y549300D03*
X522400Y568300D03*
X544400Y508000D03*
X522400Y498500D03*
X522400Y517500D03*
X544400Y469900D03*
X522400Y460400D03*
X522400Y479400D03*
X544400Y431800D03*
X522400Y422300D03*
X522400Y441300D03*
X544400Y393700D03*
X522400Y384200D03*
X522400Y403200D03*
X544400Y355600D03*
X522400Y346100D03*
X522400Y365100D03*
X544400Y317500D03*
X522400Y308000D03*
X522400Y327000D03*
D14*
X473100Y596900D03*
X492100Y596900D03*
X371500Y558800D03*
X390500Y558800D03*
X371500Y520700D03*
X390500Y520700D03*
X371500Y482600D03*
X390500Y482600D03*
X371500Y444500D03*
X390500Y444500D03*
X371500Y406400D03*
X390500Y406400D03*
X371500Y368300D03*
X390500Y368300D03*
X371500Y330200D03*
X390500Y330200D03*
X473100Y558800D03*
X492100Y558800D03*
X473100Y520700D03*
X492100Y520700D03*
X473100Y482600D03*
X492100Y482600D03*
X473100Y444500D03*
X492100Y444500D03*
X473100Y406400D03*
X492100Y406400D03*
X473100Y368300D03*
X492100Y368300D03*
X473100Y330200D03*
X492100Y330200D03*
X371500Y596900D03*
X390500Y596900D03*
D15*
X587900Y584200D02*
X605900Y584200D01*
X605900Y558800D02*
X587900Y558800D01*
X587900Y508000D02*
X605900Y508000D01*
X605900Y482600D02*
X587900Y482600D01*
X587900Y431800D02*
X605900Y431800D01*
X605900Y406400D02*
X587900Y406400D01*
X587900Y355600D02*
X605900Y355600D01*
X605900Y330200D02*
X587900Y330200D01*
X587900Y241300D02*
X605900Y241300D01*
X605900Y266700D02*
X587900Y266700D01*
D16*
X424300Y596900D03*
X439300Y596900D03*
X424300Y558800D03*
X439300Y558800D03*
X424300Y520700D03*
X439300Y520700D03*
X424300Y482600D03*
X439300Y482600D03*
X424300Y444500D03*
X439300Y444500D03*
X424300Y406400D03*
X439300Y406400D03*
X424300Y368300D03*
X439300Y368300D03*
X424300Y330200D03*
X439300Y330200D03*
D17*
X342900Y596900D03*
X342900Y558800D03*
X342900Y520700D03*
X342900Y482600D03*
X342900Y444500D03*
X342900Y406400D03*
X342900Y368300D03*
X342900Y330200D03*
X228600Y381000D03*
X406400Y508000D03*
X406400Y419100D03*
X457200Y419100D03*
X482600Y304800D03*
X508000Y584200D03*
X508000Y546100D03*
X508000Y495300D03*
X508000Y457200D03*
X508000Y419100D03*
X508000Y381000D03*
X508000Y342900D03*
X508000Y304800D03*
M02*
