G04 EAGLE Gerber RS-274X export*
G75*
%MOMM*%
%FSLAX34Y34*%
%LPD*%
%INSoldermask Bottom*%
%IPPOS*%
%AMOC8*
5,1,8,0,0,1.08239X$1,22.5*%
G01*
%ADD10C,3.505200*%
%ADD11C,2.082800*%
%ADD12C,2.003200*%
%ADD13R,1.113200X1.423200*%
%ADD14C,0.959600*%


D10*
X241300Y698500D03*
X609600Y698500D03*
X241300Y177800D03*
X609600Y177800D03*
D11*
X381000Y193802D02*
X381000Y212598D01*
X406400Y212598D02*
X406400Y193802D01*
X431800Y193802D02*
X431800Y212598D01*
X457200Y212598D02*
X457200Y193802D01*
X482600Y193802D02*
X482600Y212598D01*
X508000Y212598D02*
X508000Y193802D01*
X533400Y193802D02*
X533400Y212598D01*
X381000Y663702D02*
X381000Y682498D01*
X406400Y682498D02*
X406400Y663702D01*
X431800Y663702D02*
X431800Y682498D01*
X457200Y682498D02*
X457200Y663702D01*
X482600Y663702D02*
X482600Y682498D01*
X508000Y682498D02*
X508000Y663702D01*
X533400Y663702D02*
X533400Y682498D01*
D12*
X587900Y584200D02*
X605900Y584200D01*
X605900Y558800D02*
X587900Y558800D01*
X587900Y508000D02*
X605900Y508000D01*
X605900Y482600D02*
X587900Y482600D01*
X587900Y431800D02*
X605900Y431800D01*
X605900Y406400D02*
X587900Y406400D01*
X587900Y355600D02*
X605900Y355600D01*
X605900Y330200D02*
X587900Y330200D01*
X587900Y241300D02*
X605900Y241300D01*
X605900Y266700D02*
X587900Y266700D01*
D13*
X562475Y584200D03*
X529725Y584200D03*
X562475Y558800D03*
X529725Y558800D03*
X562475Y508000D03*
X529725Y508000D03*
X562475Y482600D03*
X529725Y482600D03*
X562475Y431800D03*
X529725Y431800D03*
X562475Y406400D03*
X529725Y406400D03*
X562475Y355600D03*
X529725Y355600D03*
X562475Y330200D03*
X529725Y330200D03*
D14*
X342900Y596900D03*
X342900Y558800D03*
X342900Y520700D03*
X342900Y482600D03*
X342900Y444500D03*
X342900Y406400D03*
X342900Y368300D03*
X342900Y330200D03*
X228600Y381000D03*
X406400Y508000D03*
X406400Y419100D03*
X457200Y419100D03*
X482600Y304800D03*
X508000Y584200D03*
X508000Y546100D03*
X508000Y495300D03*
X508000Y457200D03*
X508000Y419100D03*
X508000Y381000D03*
X508000Y342900D03*
X508000Y304800D03*
M02*
