M48
;GenerationSoftware,Autodesk,EAGLE,9.6.2*%
;CreationDate,2021-06-03T03:37:41Z*%
FMAT,2
ICI,OFF
METRIC,TZ,000.000
T6C0.350
T5C0.813
T4C1.016
T3C1.020
T2C3.302
%
G90
M71
T2
X16510Y3810
X16510Y26670
X83820Y26670
X83820Y3810
T3
X52070Y13970
X49530Y16510
X49530Y13970
X46990Y16510
X46990Y13970
X44450Y16510
X44450Y13970
X41910Y16510
X41910Y13970
X39370Y16510
X39370Y13970
X52070Y16510
X54610Y13970
X54610Y16510
X57150Y13970
X57150Y16510
X59690Y13970
X59690Y16510
X62230Y13970
X62230Y16510
T4
X95377Y12700
X9017Y20320
X6223Y17780
X9017Y17780
X6223Y15240
X9017Y15240
X6223Y12700
X9017Y12700
X6223Y10160
X9017Y10160
X95377Y10160
X92583Y10160
X6223Y20320
X92583Y12700
X95377Y15240
X92583Y15240
X95377Y17780
X92583Y17780
X95377Y20320
X92583Y20320
T5
X54610Y21590
X52070Y21590
X41910Y8890
X49530Y21590
X57150Y21590
X59690Y21590
X62230Y8890
X59690Y8890
X57150Y8890
X54610Y8890
X52070Y8890
X49530Y8890
X46990Y8890
X44450Y8890
X46990Y21590
X44450Y21590
X41910Y21590
X39370Y21590
T6
X76200Y10668
X50698Y14732
X40640Y17170
X18085Y20015
X46330Y12497
X82296Y13919
X89611Y15443
X35154Y12497
X90221Y10363
X14935Y21844
X36170Y10770
M30