M48
;GenerationSoftware,Autodesk,EAGLE,9.6.2*%
;CreationDate,2022-07-24T20:12:25Z*%
FMAT,2
ICI,OFF
METRIC,TZ,000.000
T5C0.350
T4C1.118
T3C1.200
T2C3.000
%
G90
M71
T2
X7239Y28956
T3
X15748Y27432
X6350Y53340
X6350Y50800
X6350Y48260
X6350Y45720
X6350Y43180
X6350Y40640
X6350Y38100
X6350Y35560
X13208Y27432
T4
X50800Y29210
X50800Y31750
X50800Y34290
X50800Y36830
X50800Y39370
X50800Y41910
X50800Y49530
X50800Y44450
X50800Y46990
T5
X46101Y43434
X20320Y44450
X22860Y41910
X20320Y39370
X22860Y36830
X20320Y34290
X22860Y31750
X20320Y29210
X46101Y50800
X46101Y38100
X45974Y31877
X33401Y27305
X33528Y31623
X33655Y39116
X33528Y45085
X33528Y34036
X22860Y46990
M30