G04 EAGLE Gerber RS-274X export*
G75*
%MOMM*%
%FSLAX34Y34*%
%LPD*%
%IN*%
%IPPOS*%
%AMOC8*
5,1,8,0,0,1.08239X$1,22.5*%
G01*
%ADD10C,0.254000*%


D10*
X25400Y241300D02*
X546100Y241300D01*
X546100Y558800D01*
X25400Y558800D01*
X25400Y241300D01*
X87390Y289024D02*
X87314Y287956D01*
X87161Y286895D01*
X86933Y285848D01*
X86631Y284820D01*
X86257Y283816D01*
X85812Y282841D01*
X85298Y281901D01*
X84719Y281000D01*
X84077Y280142D01*
X83375Y279332D01*
X82618Y278575D01*
X81808Y277873D01*
X80950Y277231D01*
X80049Y276652D01*
X79109Y276138D01*
X78134Y275693D01*
X77130Y275319D01*
X76102Y275017D01*
X75055Y274789D01*
X73994Y274636D01*
X72926Y274560D01*
X71854Y274560D01*
X70786Y274636D01*
X69725Y274789D01*
X68678Y275017D01*
X67650Y275319D01*
X66646Y275693D01*
X65671Y276138D01*
X64731Y276652D01*
X63830Y277231D01*
X62972Y277873D01*
X62162Y278575D01*
X61405Y279332D01*
X60703Y280142D01*
X60061Y281000D01*
X59482Y281901D01*
X58968Y282841D01*
X58523Y283816D01*
X58149Y284820D01*
X57847Y285848D01*
X57619Y286895D01*
X57466Y287956D01*
X57390Y289024D01*
X57390Y290096D01*
X57466Y291164D01*
X57619Y292225D01*
X57847Y293272D01*
X58149Y294300D01*
X58523Y295304D01*
X58968Y296279D01*
X59482Y297219D01*
X60061Y298120D01*
X60703Y298978D01*
X61405Y299788D01*
X62162Y300545D01*
X62972Y301247D01*
X63830Y301889D01*
X64731Y302468D01*
X65671Y302982D01*
X66646Y303427D01*
X67650Y303801D01*
X68678Y304103D01*
X69725Y304331D01*
X70786Y304484D01*
X71854Y304560D01*
X72926Y304560D01*
X73994Y304484D01*
X75055Y304331D01*
X76102Y304103D01*
X77130Y303801D01*
X78134Y303427D01*
X79109Y302982D01*
X80049Y302468D01*
X80950Y301889D01*
X81808Y301247D01*
X82618Y300545D01*
X83375Y299788D01*
X84077Y298978D01*
X84719Y298120D01*
X85298Y297219D01*
X85812Y296279D01*
X86257Y295304D01*
X86631Y294300D01*
X86933Y293272D01*
X87161Y292225D01*
X87314Y291164D01*
X87390Y290096D01*
X87390Y289024D01*
M02*
