G04 EAGLE Gerber RS-274X export*
G75*
%MOMM*%
%FSLAX34Y34*%
%LPD*%
%INSilkscreen Top*%
%IPPOS*%
%AMOC8*
5,1,8,0,0,1.08239X$1,22.5*%
G01*
%ADD10C,0.120000*%
%ADD11C,0.050800*%
%ADD12C,0.127000*%
%ADD13C,0.025400*%
%ADD14C,0.076200*%
%ADD15C,0.203200*%
%ADD16C,0.101600*%
%ADD17C,0.254000*%
%ADD18C,0.152400*%


D10*
X324300Y293450D02*
X324300Y290750D01*
X310700Y290750D02*
X310700Y293450D01*
D11*
X315186Y311404D02*
X316428Y311404D01*
X315186Y311404D02*
X315116Y311406D01*
X315047Y311412D01*
X314978Y311422D01*
X314910Y311435D01*
X314842Y311453D01*
X314776Y311474D01*
X314711Y311499D01*
X314647Y311527D01*
X314585Y311559D01*
X314525Y311594D01*
X314467Y311633D01*
X314412Y311675D01*
X314358Y311720D01*
X314308Y311768D01*
X314260Y311818D01*
X314215Y311872D01*
X314173Y311927D01*
X314134Y311985D01*
X314099Y312045D01*
X314067Y312107D01*
X314039Y312171D01*
X314014Y312236D01*
X313993Y312302D01*
X313975Y312370D01*
X313962Y312438D01*
X313952Y312507D01*
X313946Y312576D01*
X313944Y312646D01*
X313944Y315750D01*
X313946Y315820D01*
X313952Y315889D01*
X313962Y315958D01*
X313975Y316026D01*
X313993Y316094D01*
X314014Y316160D01*
X314039Y316225D01*
X314067Y316289D01*
X314099Y316351D01*
X314134Y316411D01*
X314173Y316469D01*
X314215Y316524D01*
X314260Y316578D01*
X314308Y316628D01*
X314358Y316676D01*
X314412Y316721D01*
X314467Y316763D01*
X314525Y316802D01*
X314585Y316837D01*
X314647Y316869D01*
X314711Y316897D01*
X314776Y316922D01*
X314842Y316943D01*
X314910Y316961D01*
X314978Y316974D01*
X315047Y316984D01*
X315116Y316990D01*
X315186Y316992D01*
X316428Y316992D01*
X318532Y315750D02*
X320084Y316992D01*
X320084Y311404D01*
X318532Y311404D02*
X321637Y311404D01*
D10*
X413200Y328850D02*
X413200Y331550D01*
X399600Y331550D02*
X399600Y328850D01*
D11*
X402816Y349504D02*
X404058Y349504D01*
X402816Y349504D02*
X402746Y349506D01*
X402677Y349512D01*
X402608Y349522D01*
X402540Y349535D01*
X402472Y349553D01*
X402406Y349574D01*
X402341Y349599D01*
X402277Y349627D01*
X402215Y349659D01*
X402155Y349694D01*
X402097Y349733D01*
X402042Y349775D01*
X401988Y349820D01*
X401938Y349868D01*
X401890Y349918D01*
X401845Y349972D01*
X401803Y350027D01*
X401764Y350085D01*
X401729Y350145D01*
X401697Y350207D01*
X401669Y350271D01*
X401644Y350336D01*
X401623Y350402D01*
X401605Y350470D01*
X401592Y350538D01*
X401582Y350607D01*
X401576Y350676D01*
X401574Y350746D01*
X401574Y353850D01*
X401576Y353920D01*
X401582Y353989D01*
X401592Y354058D01*
X401605Y354126D01*
X401623Y354194D01*
X401644Y354260D01*
X401669Y354325D01*
X401697Y354389D01*
X401729Y354451D01*
X401764Y354511D01*
X401803Y354569D01*
X401845Y354624D01*
X401890Y354678D01*
X401938Y354728D01*
X401988Y354776D01*
X402042Y354821D01*
X402097Y354863D01*
X402155Y354902D01*
X402215Y354937D01*
X402277Y354969D01*
X402341Y354997D01*
X402406Y355022D01*
X402472Y355043D01*
X402540Y355061D01*
X402608Y355074D01*
X402677Y355084D01*
X402746Y355090D01*
X402816Y355092D01*
X404058Y355092D01*
X407870Y355092D02*
X407943Y355090D01*
X408016Y355084D01*
X408089Y355075D01*
X408160Y355061D01*
X408232Y355044D01*
X408302Y355024D01*
X408371Y354999D01*
X408438Y354971D01*
X408504Y354940D01*
X408569Y354905D01*
X408631Y354867D01*
X408691Y354825D01*
X408749Y354781D01*
X408805Y354733D01*
X408858Y354683D01*
X408908Y354630D01*
X408956Y354574D01*
X409000Y354516D01*
X409042Y354456D01*
X409080Y354394D01*
X409115Y354329D01*
X409146Y354263D01*
X409174Y354196D01*
X409199Y354127D01*
X409219Y354057D01*
X409236Y353985D01*
X409250Y353914D01*
X409259Y353841D01*
X409265Y353768D01*
X409267Y353695D01*
X407870Y355092D02*
X407786Y355090D01*
X407703Y355084D01*
X407620Y355075D01*
X407538Y355061D01*
X407456Y355044D01*
X407375Y355022D01*
X407295Y354997D01*
X407217Y354969D01*
X407139Y354937D01*
X407064Y354901D01*
X406990Y354862D01*
X406918Y354819D01*
X406848Y354773D01*
X406781Y354724D01*
X406715Y354671D01*
X406653Y354616D01*
X406593Y354558D01*
X406535Y354497D01*
X406481Y354434D01*
X406429Y354368D01*
X406381Y354300D01*
X406336Y354229D01*
X406294Y354157D01*
X406256Y354082D01*
X406221Y354006D01*
X406190Y353929D01*
X406162Y353850D01*
X408800Y352609D02*
X408854Y352662D01*
X408905Y352719D01*
X408953Y352778D01*
X408998Y352839D01*
X409039Y352902D01*
X409078Y352968D01*
X409113Y353035D01*
X409145Y353104D01*
X409173Y353175D01*
X409197Y353246D01*
X409218Y353319D01*
X409235Y353393D01*
X409249Y353468D01*
X409258Y353543D01*
X409264Y353619D01*
X409266Y353695D01*
X408801Y352608D02*
X406162Y349504D01*
X409267Y349504D01*
D10*
X324300Y354250D02*
X324300Y356950D01*
X310700Y356950D02*
X310700Y354250D01*
D11*
X313916Y373634D02*
X315158Y373634D01*
X313916Y373634D02*
X313846Y373636D01*
X313777Y373642D01*
X313708Y373652D01*
X313640Y373665D01*
X313572Y373683D01*
X313506Y373704D01*
X313441Y373729D01*
X313377Y373757D01*
X313315Y373789D01*
X313255Y373824D01*
X313197Y373863D01*
X313142Y373905D01*
X313088Y373950D01*
X313038Y373998D01*
X312990Y374048D01*
X312945Y374102D01*
X312903Y374157D01*
X312864Y374215D01*
X312829Y374275D01*
X312797Y374337D01*
X312769Y374401D01*
X312744Y374466D01*
X312723Y374532D01*
X312705Y374600D01*
X312692Y374668D01*
X312682Y374737D01*
X312676Y374806D01*
X312674Y374876D01*
X312674Y377980D01*
X312676Y378050D01*
X312682Y378119D01*
X312692Y378188D01*
X312705Y378256D01*
X312723Y378324D01*
X312744Y378390D01*
X312769Y378455D01*
X312797Y378519D01*
X312829Y378581D01*
X312864Y378641D01*
X312903Y378699D01*
X312945Y378754D01*
X312990Y378808D01*
X313038Y378858D01*
X313088Y378906D01*
X313142Y378951D01*
X313197Y378993D01*
X313255Y379032D01*
X313315Y379067D01*
X313377Y379099D01*
X313441Y379127D01*
X313506Y379152D01*
X313572Y379173D01*
X313640Y379191D01*
X313708Y379204D01*
X313777Y379214D01*
X313846Y379220D01*
X313916Y379222D01*
X315158Y379222D01*
X317262Y373634D02*
X318814Y373634D01*
X318891Y373636D01*
X318969Y373642D01*
X319045Y373651D01*
X319122Y373665D01*
X319197Y373682D01*
X319271Y373703D01*
X319345Y373728D01*
X319417Y373756D01*
X319487Y373788D01*
X319556Y373823D01*
X319623Y373862D01*
X319688Y373904D01*
X319751Y373949D01*
X319812Y373997D01*
X319870Y374048D01*
X319925Y374102D01*
X319978Y374159D01*
X320027Y374218D01*
X320074Y374280D01*
X320118Y374344D01*
X320158Y374410D01*
X320195Y374478D01*
X320229Y374548D01*
X320259Y374619D01*
X320285Y374692D01*
X320308Y374766D01*
X320327Y374841D01*
X320342Y374916D01*
X320354Y374993D01*
X320362Y375070D01*
X320366Y375147D01*
X320366Y375225D01*
X320362Y375302D01*
X320354Y375379D01*
X320342Y375456D01*
X320327Y375531D01*
X320308Y375606D01*
X320285Y375680D01*
X320259Y375753D01*
X320229Y375824D01*
X320195Y375894D01*
X320158Y375962D01*
X320118Y376028D01*
X320074Y376092D01*
X320027Y376154D01*
X319978Y376213D01*
X319925Y376270D01*
X319870Y376324D01*
X319812Y376375D01*
X319751Y376423D01*
X319688Y376468D01*
X319623Y376510D01*
X319556Y376549D01*
X319487Y376584D01*
X319417Y376616D01*
X319345Y376644D01*
X319271Y376669D01*
X319197Y376690D01*
X319122Y376707D01*
X319045Y376721D01*
X318969Y376730D01*
X318891Y376736D01*
X318814Y376738D01*
X319125Y379222D02*
X317262Y379222D01*
X319125Y379222D02*
X319195Y379220D01*
X319264Y379214D01*
X319333Y379204D01*
X319401Y379191D01*
X319469Y379173D01*
X319535Y379152D01*
X319600Y379127D01*
X319664Y379099D01*
X319726Y379067D01*
X319786Y379032D01*
X319844Y378993D01*
X319899Y378951D01*
X319953Y378906D01*
X320003Y378858D01*
X320051Y378808D01*
X320096Y378754D01*
X320138Y378699D01*
X320177Y378641D01*
X320212Y378581D01*
X320244Y378519D01*
X320272Y378455D01*
X320297Y378390D01*
X320318Y378324D01*
X320336Y378256D01*
X320349Y378188D01*
X320359Y378119D01*
X320365Y378050D01*
X320367Y377980D01*
X320365Y377910D01*
X320359Y377841D01*
X320349Y377772D01*
X320336Y377704D01*
X320318Y377636D01*
X320297Y377570D01*
X320272Y377505D01*
X320244Y377441D01*
X320212Y377379D01*
X320177Y377319D01*
X320138Y377261D01*
X320096Y377206D01*
X320051Y377152D01*
X320003Y377102D01*
X319953Y377054D01*
X319899Y377009D01*
X319844Y376967D01*
X319786Y376928D01*
X319726Y376893D01*
X319664Y376861D01*
X319600Y376833D01*
X319535Y376808D01*
X319469Y376787D01*
X319401Y376769D01*
X319333Y376756D01*
X319264Y376746D01*
X319195Y376740D01*
X319125Y376738D01*
X317883Y376738D01*
D10*
X413200Y392350D02*
X413200Y395050D01*
X399600Y395050D02*
X399600Y392350D01*
D11*
X402816Y413004D02*
X404058Y413004D01*
X402816Y413004D02*
X402746Y413006D01*
X402677Y413012D01*
X402608Y413022D01*
X402540Y413035D01*
X402472Y413053D01*
X402406Y413074D01*
X402341Y413099D01*
X402277Y413127D01*
X402215Y413159D01*
X402155Y413194D01*
X402097Y413233D01*
X402042Y413275D01*
X401988Y413320D01*
X401938Y413368D01*
X401890Y413418D01*
X401845Y413472D01*
X401803Y413527D01*
X401764Y413585D01*
X401729Y413645D01*
X401697Y413707D01*
X401669Y413771D01*
X401644Y413836D01*
X401623Y413902D01*
X401605Y413970D01*
X401592Y414038D01*
X401582Y414107D01*
X401576Y414176D01*
X401574Y414246D01*
X401574Y417350D01*
X401576Y417420D01*
X401582Y417489D01*
X401592Y417558D01*
X401605Y417626D01*
X401623Y417694D01*
X401644Y417760D01*
X401669Y417825D01*
X401697Y417889D01*
X401729Y417951D01*
X401764Y418011D01*
X401803Y418069D01*
X401845Y418124D01*
X401890Y418178D01*
X401938Y418228D01*
X401988Y418276D01*
X402042Y418321D01*
X402097Y418363D01*
X402155Y418402D01*
X402215Y418437D01*
X402277Y418469D01*
X402341Y418497D01*
X402406Y418522D01*
X402472Y418543D01*
X402540Y418561D01*
X402608Y418574D01*
X402677Y418584D01*
X402746Y418590D01*
X402816Y418592D01*
X404058Y418592D01*
X407404Y418592D02*
X406162Y414246D01*
X409267Y414246D01*
X408335Y415488D02*
X408335Y413004D01*
D10*
X324300Y407750D02*
X324300Y405050D01*
X310700Y405050D02*
X310700Y407750D01*
D11*
X315186Y424434D02*
X316428Y424434D01*
X315186Y424434D02*
X315116Y424436D01*
X315047Y424442D01*
X314978Y424452D01*
X314910Y424465D01*
X314842Y424483D01*
X314776Y424504D01*
X314711Y424529D01*
X314647Y424557D01*
X314585Y424589D01*
X314525Y424624D01*
X314467Y424663D01*
X314412Y424705D01*
X314358Y424750D01*
X314308Y424798D01*
X314260Y424848D01*
X314215Y424902D01*
X314173Y424957D01*
X314134Y425015D01*
X314099Y425075D01*
X314067Y425137D01*
X314039Y425201D01*
X314014Y425266D01*
X313993Y425332D01*
X313975Y425400D01*
X313962Y425468D01*
X313952Y425537D01*
X313946Y425606D01*
X313944Y425676D01*
X313944Y428780D01*
X313946Y428850D01*
X313952Y428919D01*
X313962Y428988D01*
X313975Y429056D01*
X313993Y429124D01*
X314014Y429190D01*
X314039Y429255D01*
X314067Y429319D01*
X314099Y429381D01*
X314134Y429441D01*
X314173Y429499D01*
X314215Y429554D01*
X314260Y429608D01*
X314308Y429658D01*
X314358Y429706D01*
X314412Y429751D01*
X314467Y429793D01*
X314525Y429832D01*
X314585Y429867D01*
X314647Y429899D01*
X314711Y429927D01*
X314776Y429952D01*
X314842Y429973D01*
X314910Y429991D01*
X314978Y430004D01*
X315047Y430014D01*
X315116Y430020D01*
X315186Y430022D01*
X316428Y430022D01*
X318532Y424434D02*
X320395Y424434D01*
X320465Y424436D01*
X320534Y424442D01*
X320603Y424452D01*
X320671Y424465D01*
X320739Y424483D01*
X320805Y424504D01*
X320870Y424529D01*
X320934Y424557D01*
X320996Y424589D01*
X321056Y424624D01*
X321114Y424663D01*
X321169Y424705D01*
X321223Y424750D01*
X321273Y424798D01*
X321321Y424848D01*
X321366Y424902D01*
X321408Y424957D01*
X321447Y425015D01*
X321482Y425075D01*
X321514Y425137D01*
X321542Y425201D01*
X321567Y425266D01*
X321588Y425332D01*
X321606Y425400D01*
X321619Y425468D01*
X321629Y425537D01*
X321635Y425606D01*
X321637Y425676D01*
X321637Y426297D01*
X321635Y426367D01*
X321629Y426436D01*
X321619Y426505D01*
X321606Y426573D01*
X321588Y426641D01*
X321567Y426707D01*
X321542Y426772D01*
X321514Y426836D01*
X321482Y426898D01*
X321447Y426958D01*
X321408Y427016D01*
X321366Y427071D01*
X321321Y427125D01*
X321273Y427175D01*
X321223Y427223D01*
X321169Y427268D01*
X321114Y427310D01*
X321056Y427349D01*
X320996Y427384D01*
X320934Y427416D01*
X320870Y427444D01*
X320805Y427469D01*
X320739Y427490D01*
X320671Y427508D01*
X320603Y427521D01*
X320534Y427531D01*
X320465Y427537D01*
X320395Y427539D01*
X320395Y427538D02*
X318532Y427538D01*
X318532Y430022D01*
X321637Y430022D01*
D10*
X413200Y443150D02*
X413200Y445850D01*
X399600Y445850D02*
X399600Y443150D01*
D11*
X404086Y463804D02*
X405328Y463804D01*
X404086Y463804D02*
X404016Y463806D01*
X403947Y463812D01*
X403878Y463822D01*
X403810Y463835D01*
X403742Y463853D01*
X403676Y463874D01*
X403611Y463899D01*
X403547Y463927D01*
X403485Y463959D01*
X403425Y463994D01*
X403367Y464033D01*
X403312Y464075D01*
X403258Y464120D01*
X403208Y464168D01*
X403160Y464218D01*
X403115Y464272D01*
X403073Y464327D01*
X403034Y464385D01*
X402999Y464445D01*
X402967Y464507D01*
X402939Y464571D01*
X402914Y464636D01*
X402893Y464702D01*
X402875Y464770D01*
X402862Y464838D01*
X402852Y464907D01*
X402846Y464976D01*
X402844Y465046D01*
X402844Y468150D01*
X402846Y468220D01*
X402852Y468289D01*
X402862Y468358D01*
X402875Y468426D01*
X402893Y468494D01*
X402914Y468560D01*
X402939Y468625D01*
X402967Y468689D01*
X402999Y468751D01*
X403034Y468811D01*
X403073Y468869D01*
X403115Y468924D01*
X403160Y468978D01*
X403208Y469028D01*
X403258Y469076D01*
X403312Y469121D01*
X403367Y469163D01*
X403425Y469202D01*
X403485Y469237D01*
X403547Y469269D01*
X403611Y469297D01*
X403676Y469322D01*
X403742Y469343D01*
X403810Y469361D01*
X403878Y469374D01*
X403947Y469384D01*
X404016Y469390D01*
X404086Y469392D01*
X405328Y469392D01*
X407432Y466908D02*
X409295Y466908D01*
X409295Y466909D02*
X409365Y466907D01*
X409434Y466901D01*
X409503Y466891D01*
X409571Y466878D01*
X409639Y466860D01*
X409705Y466839D01*
X409770Y466814D01*
X409834Y466786D01*
X409896Y466754D01*
X409956Y466719D01*
X410014Y466680D01*
X410069Y466638D01*
X410123Y466593D01*
X410173Y466545D01*
X410221Y466495D01*
X410266Y466441D01*
X410308Y466386D01*
X410347Y466328D01*
X410382Y466268D01*
X410414Y466206D01*
X410442Y466142D01*
X410467Y466077D01*
X410488Y466011D01*
X410506Y465943D01*
X410519Y465875D01*
X410529Y465806D01*
X410535Y465737D01*
X410537Y465667D01*
X410537Y465356D01*
X410536Y465356D02*
X410534Y465279D01*
X410528Y465201D01*
X410519Y465125D01*
X410505Y465048D01*
X410488Y464973D01*
X410467Y464899D01*
X410442Y464825D01*
X410414Y464753D01*
X410382Y464683D01*
X410347Y464614D01*
X410308Y464547D01*
X410266Y464482D01*
X410221Y464419D01*
X410173Y464358D01*
X410122Y464300D01*
X410068Y464245D01*
X410011Y464192D01*
X409952Y464143D01*
X409890Y464096D01*
X409826Y464052D01*
X409760Y464012D01*
X409692Y463975D01*
X409622Y463941D01*
X409551Y463911D01*
X409478Y463885D01*
X409404Y463862D01*
X409329Y463843D01*
X409254Y463828D01*
X409177Y463816D01*
X409100Y463808D01*
X409023Y463804D01*
X408945Y463804D01*
X408868Y463808D01*
X408791Y463816D01*
X408714Y463828D01*
X408639Y463843D01*
X408564Y463862D01*
X408490Y463885D01*
X408417Y463911D01*
X408346Y463941D01*
X408276Y463975D01*
X408208Y464012D01*
X408142Y464052D01*
X408078Y464096D01*
X408016Y464143D01*
X407957Y464192D01*
X407900Y464245D01*
X407846Y464300D01*
X407795Y464358D01*
X407747Y464419D01*
X407702Y464482D01*
X407660Y464547D01*
X407621Y464614D01*
X407586Y464683D01*
X407554Y464753D01*
X407526Y464825D01*
X407501Y464899D01*
X407480Y464973D01*
X407463Y465048D01*
X407449Y465125D01*
X407440Y465201D01*
X407434Y465279D01*
X407432Y465356D01*
X407432Y466908D01*
X407434Y467006D01*
X407440Y467103D01*
X407449Y467200D01*
X407463Y467297D01*
X407480Y467393D01*
X407501Y467488D01*
X407525Y467582D01*
X407554Y467676D01*
X407586Y467768D01*
X407621Y467859D01*
X407660Y467948D01*
X407703Y468036D01*
X407749Y468122D01*
X407798Y468206D01*
X407851Y468288D01*
X407906Y468368D01*
X407965Y468446D01*
X408027Y468521D01*
X408092Y468594D01*
X408160Y468664D01*
X408230Y468732D01*
X408303Y468797D01*
X408378Y468859D01*
X408456Y468918D01*
X408536Y468973D01*
X408618Y469026D01*
X408702Y469075D01*
X408788Y469121D01*
X408876Y469164D01*
X408965Y469203D01*
X409056Y469238D01*
X409148Y469270D01*
X409242Y469299D01*
X409336Y469323D01*
X409431Y469344D01*
X409527Y469361D01*
X409624Y469375D01*
X409721Y469384D01*
X409818Y469390D01*
X409916Y469392D01*
D10*
X324300Y468550D02*
X324300Y471250D01*
X310700Y471250D02*
X310700Y468550D01*
D11*
X315186Y487934D02*
X316428Y487934D01*
X315186Y487934D02*
X315116Y487936D01*
X315047Y487942D01*
X314978Y487952D01*
X314910Y487965D01*
X314842Y487983D01*
X314776Y488004D01*
X314711Y488029D01*
X314647Y488057D01*
X314585Y488089D01*
X314525Y488124D01*
X314467Y488163D01*
X314412Y488205D01*
X314358Y488250D01*
X314308Y488298D01*
X314260Y488348D01*
X314215Y488402D01*
X314173Y488457D01*
X314134Y488515D01*
X314099Y488575D01*
X314067Y488637D01*
X314039Y488701D01*
X314014Y488766D01*
X313993Y488832D01*
X313975Y488900D01*
X313962Y488968D01*
X313952Y489037D01*
X313946Y489106D01*
X313944Y489176D01*
X313944Y492280D01*
X313946Y492350D01*
X313952Y492419D01*
X313962Y492488D01*
X313975Y492556D01*
X313993Y492624D01*
X314014Y492690D01*
X314039Y492755D01*
X314067Y492819D01*
X314099Y492881D01*
X314134Y492941D01*
X314173Y492999D01*
X314215Y493054D01*
X314260Y493108D01*
X314308Y493158D01*
X314358Y493206D01*
X314412Y493251D01*
X314467Y493293D01*
X314525Y493332D01*
X314585Y493367D01*
X314647Y493399D01*
X314711Y493427D01*
X314776Y493452D01*
X314842Y493473D01*
X314910Y493491D01*
X314978Y493504D01*
X315047Y493514D01*
X315116Y493520D01*
X315186Y493522D01*
X316428Y493522D01*
X318532Y493522D02*
X318532Y492901D01*
X318532Y493522D02*
X321637Y493522D01*
X320084Y487934D01*
D10*
X413200Y519350D02*
X413200Y522050D01*
X399600Y522050D02*
X399600Y519350D01*
D11*
X402816Y540004D02*
X404058Y540004D01*
X402816Y540004D02*
X402746Y540006D01*
X402677Y540012D01*
X402608Y540022D01*
X402540Y540035D01*
X402472Y540053D01*
X402406Y540074D01*
X402341Y540099D01*
X402277Y540127D01*
X402215Y540159D01*
X402155Y540194D01*
X402097Y540233D01*
X402042Y540275D01*
X401988Y540320D01*
X401938Y540368D01*
X401890Y540418D01*
X401845Y540472D01*
X401803Y540527D01*
X401764Y540585D01*
X401729Y540645D01*
X401697Y540707D01*
X401669Y540771D01*
X401644Y540836D01*
X401623Y540902D01*
X401605Y540970D01*
X401592Y541038D01*
X401582Y541107D01*
X401576Y541176D01*
X401574Y541246D01*
X401574Y544350D01*
X401576Y544420D01*
X401582Y544489D01*
X401592Y544558D01*
X401605Y544626D01*
X401623Y544694D01*
X401644Y544760D01*
X401669Y544825D01*
X401697Y544889D01*
X401729Y544951D01*
X401764Y545011D01*
X401803Y545069D01*
X401845Y545124D01*
X401890Y545178D01*
X401938Y545228D01*
X401988Y545276D01*
X402042Y545321D01*
X402097Y545363D01*
X402155Y545402D01*
X402215Y545437D01*
X402277Y545469D01*
X402341Y545497D01*
X402406Y545522D01*
X402472Y545543D01*
X402540Y545561D01*
X402608Y545574D01*
X402677Y545584D01*
X402746Y545590D01*
X402816Y545592D01*
X404058Y545592D01*
X406162Y541556D02*
X406164Y541633D01*
X406170Y541711D01*
X406179Y541787D01*
X406193Y541864D01*
X406210Y541939D01*
X406231Y542013D01*
X406256Y542087D01*
X406284Y542159D01*
X406316Y542229D01*
X406351Y542298D01*
X406390Y542365D01*
X406432Y542430D01*
X406477Y542493D01*
X406525Y542554D01*
X406576Y542612D01*
X406630Y542667D01*
X406687Y542720D01*
X406746Y542769D01*
X406808Y542816D01*
X406872Y542860D01*
X406938Y542900D01*
X407006Y542937D01*
X407076Y542971D01*
X407147Y543001D01*
X407220Y543027D01*
X407294Y543050D01*
X407369Y543069D01*
X407444Y543084D01*
X407521Y543096D01*
X407598Y543104D01*
X407675Y543108D01*
X407753Y543108D01*
X407830Y543104D01*
X407907Y543096D01*
X407984Y543084D01*
X408059Y543069D01*
X408134Y543050D01*
X408208Y543027D01*
X408281Y543001D01*
X408352Y542971D01*
X408422Y542937D01*
X408490Y542900D01*
X408556Y542860D01*
X408620Y542816D01*
X408682Y542769D01*
X408741Y542720D01*
X408798Y542667D01*
X408852Y542612D01*
X408903Y542554D01*
X408951Y542493D01*
X408996Y542430D01*
X409038Y542365D01*
X409077Y542298D01*
X409112Y542229D01*
X409144Y542159D01*
X409172Y542087D01*
X409197Y542013D01*
X409218Y541939D01*
X409235Y541864D01*
X409249Y541787D01*
X409258Y541711D01*
X409264Y541633D01*
X409266Y541556D01*
X409264Y541479D01*
X409258Y541401D01*
X409249Y541325D01*
X409235Y541248D01*
X409218Y541173D01*
X409197Y541099D01*
X409172Y541025D01*
X409144Y540953D01*
X409112Y540883D01*
X409077Y540814D01*
X409038Y540747D01*
X408996Y540682D01*
X408951Y540619D01*
X408903Y540558D01*
X408852Y540500D01*
X408798Y540445D01*
X408741Y540392D01*
X408682Y540343D01*
X408620Y540296D01*
X408556Y540252D01*
X408490Y540212D01*
X408422Y540175D01*
X408352Y540141D01*
X408281Y540111D01*
X408208Y540085D01*
X408134Y540062D01*
X408059Y540043D01*
X407984Y540028D01*
X407907Y540016D01*
X407830Y540008D01*
X407753Y540004D01*
X407675Y540004D01*
X407598Y540008D01*
X407521Y540016D01*
X407444Y540028D01*
X407369Y540043D01*
X407294Y540062D01*
X407220Y540085D01*
X407147Y540111D01*
X407076Y540141D01*
X407006Y540175D01*
X406938Y540212D01*
X406872Y540252D01*
X406808Y540296D01*
X406746Y540343D01*
X406687Y540392D01*
X406630Y540445D01*
X406576Y540500D01*
X406525Y540558D01*
X406477Y540619D01*
X406432Y540682D01*
X406390Y540747D01*
X406351Y540814D01*
X406316Y540883D01*
X406284Y540953D01*
X406256Y541025D01*
X406231Y541099D01*
X406210Y541173D01*
X406193Y541248D01*
X406179Y541325D01*
X406170Y541401D01*
X406164Y541479D01*
X406162Y541556D01*
X406472Y544350D02*
X406474Y544420D01*
X406480Y544489D01*
X406490Y544558D01*
X406503Y544626D01*
X406521Y544694D01*
X406542Y544760D01*
X406567Y544825D01*
X406595Y544889D01*
X406627Y544951D01*
X406662Y545011D01*
X406701Y545069D01*
X406743Y545124D01*
X406788Y545178D01*
X406836Y545228D01*
X406886Y545276D01*
X406940Y545321D01*
X406995Y545363D01*
X407053Y545402D01*
X407113Y545437D01*
X407175Y545469D01*
X407239Y545497D01*
X407304Y545522D01*
X407370Y545543D01*
X407438Y545561D01*
X407506Y545574D01*
X407575Y545584D01*
X407644Y545590D01*
X407714Y545592D01*
X407784Y545590D01*
X407853Y545584D01*
X407922Y545574D01*
X407990Y545561D01*
X408058Y545543D01*
X408124Y545522D01*
X408189Y545497D01*
X408253Y545469D01*
X408315Y545437D01*
X408375Y545402D01*
X408433Y545363D01*
X408488Y545321D01*
X408542Y545276D01*
X408592Y545228D01*
X408640Y545178D01*
X408685Y545124D01*
X408727Y545069D01*
X408766Y545011D01*
X408801Y544951D01*
X408833Y544889D01*
X408861Y544825D01*
X408886Y544760D01*
X408907Y544694D01*
X408925Y544626D01*
X408938Y544558D01*
X408948Y544489D01*
X408954Y544420D01*
X408956Y544350D01*
X408954Y544280D01*
X408948Y544211D01*
X408938Y544142D01*
X408925Y544074D01*
X408907Y544006D01*
X408886Y543940D01*
X408861Y543875D01*
X408833Y543811D01*
X408801Y543749D01*
X408766Y543689D01*
X408727Y543631D01*
X408685Y543576D01*
X408640Y543522D01*
X408592Y543472D01*
X408542Y543424D01*
X408488Y543379D01*
X408433Y543337D01*
X408375Y543298D01*
X408315Y543263D01*
X408253Y543231D01*
X408189Y543203D01*
X408124Y543178D01*
X408058Y543157D01*
X407990Y543139D01*
X407922Y543126D01*
X407853Y543116D01*
X407784Y543110D01*
X407714Y543108D01*
X407644Y543110D01*
X407575Y543116D01*
X407506Y543126D01*
X407438Y543139D01*
X407370Y543157D01*
X407304Y543178D01*
X407239Y543203D01*
X407175Y543231D01*
X407113Y543263D01*
X407053Y543298D01*
X406995Y543337D01*
X406940Y543379D01*
X406886Y543424D01*
X406836Y543472D01*
X406788Y543522D01*
X406743Y543576D01*
X406701Y543631D01*
X406662Y543689D01*
X406627Y543749D01*
X406595Y543811D01*
X406567Y543875D01*
X406542Y543940D01*
X406521Y544006D01*
X406503Y544074D01*
X406490Y544142D01*
X406480Y544211D01*
X406474Y544280D01*
X406472Y544350D01*
D12*
X299720Y297180D02*
X299720Y261620D01*
X284480Y261620D01*
X284480Y297180D01*
X299720Y297180D01*
D13*
X302227Y284377D02*
X306037Y284377D01*
X302227Y284377D02*
X302227Y285435D01*
X302229Y285499D01*
X302235Y285563D01*
X302244Y285626D01*
X302258Y285688D01*
X302275Y285750D01*
X302296Y285810D01*
X302320Y285869D01*
X302348Y285927D01*
X302380Y285982D01*
X302414Y286036D01*
X302452Y286087D01*
X302493Y286137D01*
X302537Y286183D01*
X302583Y286227D01*
X302633Y286268D01*
X302684Y286306D01*
X302738Y286340D01*
X302793Y286372D01*
X302851Y286400D01*
X302910Y286424D01*
X302970Y286445D01*
X303032Y286462D01*
X303094Y286476D01*
X303158Y286485D01*
X303221Y286491D01*
X303285Y286493D01*
X303285Y286494D02*
X304979Y286494D01*
X304979Y286493D02*
X305043Y286491D01*
X305107Y286485D01*
X305170Y286476D01*
X305232Y286462D01*
X305294Y286445D01*
X305354Y286424D01*
X305413Y286400D01*
X305471Y286372D01*
X305526Y286340D01*
X305580Y286306D01*
X305631Y286268D01*
X305681Y286227D01*
X305727Y286183D01*
X305771Y286137D01*
X305812Y286087D01*
X305850Y286036D01*
X305884Y285982D01*
X305916Y285927D01*
X305944Y285869D01*
X305968Y285810D01*
X305989Y285750D01*
X306006Y285688D01*
X306020Y285626D01*
X306029Y285563D01*
X306035Y285499D01*
X306037Y285435D01*
X306037Y284377D01*
X303074Y288156D02*
X302227Y289215D01*
X306037Y289215D01*
X306037Y290273D02*
X306037Y288156D01*
D12*
X184000Y397900D02*
X184000Y414900D01*
X197000Y414900D01*
X197000Y397900D01*
X184000Y397900D01*
X184500Y410400D02*
X196500Y410400D01*
X196500Y409400D01*
X184500Y409400D01*
D14*
X181119Y388781D02*
X173753Y388781D01*
X173753Y390827D01*
X173755Y390916D01*
X173761Y391005D01*
X173771Y391094D01*
X173784Y391182D01*
X173801Y391270D01*
X173823Y391357D01*
X173848Y391442D01*
X173876Y391527D01*
X173909Y391610D01*
X173945Y391692D01*
X173984Y391772D01*
X174027Y391850D01*
X174073Y391926D01*
X174123Y392001D01*
X174176Y392073D01*
X174232Y392142D01*
X174291Y392209D01*
X174352Y392274D01*
X174417Y392335D01*
X174484Y392394D01*
X174553Y392450D01*
X174625Y392503D01*
X174700Y392553D01*
X174776Y392599D01*
X174854Y392642D01*
X174934Y392681D01*
X175016Y392717D01*
X175099Y392750D01*
X175184Y392778D01*
X175269Y392803D01*
X175356Y392825D01*
X175444Y392842D01*
X175532Y392855D01*
X175621Y392865D01*
X175710Y392871D01*
X175799Y392873D01*
X179073Y392873D01*
X179162Y392871D01*
X179251Y392865D01*
X179340Y392855D01*
X179428Y392842D01*
X179516Y392825D01*
X179603Y392803D01*
X179688Y392778D01*
X179773Y392750D01*
X179856Y392717D01*
X179938Y392681D01*
X180018Y392642D01*
X180096Y392599D01*
X180172Y392553D01*
X180247Y392503D01*
X180319Y392450D01*
X180388Y392394D01*
X180455Y392335D01*
X180520Y392274D01*
X180581Y392209D01*
X180640Y392142D01*
X180696Y392073D01*
X180749Y392001D01*
X180799Y391926D01*
X180845Y391850D01*
X180888Y391772D01*
X180927Y391692D01*
X180963Y391610D01*
X180996Y391527D01*
X181024Y391442D01*
X181049Y391357D01*
X181071Y391270D01*
X181088Y391182D01*
X181101Y391094D01*
X181111Y391005D01*
X181117Y390916D01*
X181119Y390827D01*
X181119Y388781D01*
X175390Y396340D02*
X173753Y398386D01*
X181119Y398386D01*
X181119Y396340D02*
X181119Y400432D01*
X177436Y403656D02*
X177283Y403658D01*
X177130Y403664D01*
X176978Y403673D01*
X176825Y403687D01*
X176673Y403704D01*
X176522Y403725D01*
X176371Y403750D01*
X176221Y403779D01*
X176071Y403811D01*
X175923Y403848D01*
X175775Y403888D01*
X175628Y403931D01*
X175483Y403979D01*
X175339Y404030D01*
X175196Y404084D01*
X175054Y404143D01*
X174915Y404204D01*
X174776Y404270D01*
X174776Y404269D02*
X174706Y404295D01*
X174636Y404325D01*
X174569Y404358D01*
X174503Y404394D01*
X174439Y404433D01*
X174377Y404476D01*
X174318Y404522D01*
X174260Y404570D01*
X174206Y404621D01*
X174153Y404675D01*
X174104Y404732D01*
X174057Y404791D01*
X174014Y404852D01*
X173973Y404915D01*
X173936Y404980D01*
X173901Y405047D01*
X173871Y405116D01*
X173843Y405186D01*
X173820Y405257D01*
X173799Y405329D01*
X173783Y405402D01*
X173770Y405476D01*
X173760Y405551D01*
X173755Y405626D01*
X173753Y405701D01*
X173755Y405776D01*
X173760Y405851D01*
X173770Y405926D01*
X173783Y406000D01*
X173799Y406073D01*
X173820Y406145D01*
X173843Y406216D01*
X173871Y406286D01*
X173901Y406355D01*
X173936Y406422D01*
X173973Y406487D01*
X174014Y406550D01*
X174057Y406611D01*
X174104Y406670D01*
X174153Y406727D01*
X174206Y406781D01*
X174260Y406832D01*
X174318Y406881D01*
X174377Y406926D01*
X174439Y406969D01*
X174503Y407008D01*
X174569Y407045D01*
X174637Y407077D01*
X174706Y407107D01*
X174776Y407133D01*
X174914Y407198D01*
X175054Y407260D01*
X175196Y407318D01*
X175339Y407373D01*
X175483Y407424D01*
X175628Y407472D01*
X175775Y407515D01*
X175922Y407555D01*
X176071Y407592D01*
X176221Y407624D01*
X176371Y407653D01*
X176522Y407678D01*
X176673Y407699D01*
X176825Y407716D01*
X176978Y407730D01*
X177130Y407739D01*
X177283Y407745D01*
X177436Y407747D01*
X177436Y403656D02*
X177589Y403658D01*
X177742Y403664D01*
X177894Y403673D01*
X178047Y403687D01*
X178199Y403704D01*
X178350Y403725D01*
X178501Y403750D01*
X178651Y403779D01*
X178801Y403811D01*
X178949Y403848D01*
X179097Y403888D01*
X179244Y403931D01*
X179389Y403979D01*
X179533Y404030D01*
X179676Y404084D01*
X179818Y404143D01*
X179957Y404204D01*
X180096Y404270D01*
X180096Y404269D02*
X180167Y404295D01*
X180236Y404325D01*
X180303Y404358D01*
X180369Y404394D01*
X180433Y404433D01*
X180495Y404476D01*
X180554Y404522D01*
X180612Y404570D01*
X180666Y404621D01*
X180719Y404675D01*
X180768Y404732D01*
X180815Y404791D01*
X180858Y404852D01*
X180899Y404915D01*
X180936Y404980D01*
X180971Y405047D01*
X181001Y405116D01*
X181029Y405186D01*
X181052Y405257D01*
X181073Y405329D01*
X181089Y405402D01*
X181102Y405476D01*
X181112Y405551D01*
X181117Y405626D01*
X181119Y405701D01*
X180096Y407133D02*
X179958Y407198D01*
X179818Y407260D01*
X179676Y407318D01*
X179533Y407373D01*
X179389Y407424D01*
X179244Y407472D01*
X179097Y407515D01*
X178950Y407555D01*
X178801Y407592D01*
X178651Y407624D01*
X178501Y407653D01*
X178350Y407678D01*
X178199Y407699D01*
X178047Y407716D01*
X177894Y407730D01*
X177742Y407739D01*
X177589Y407745D01*
X177436Y407747D01*
X180096Y407133D02*
X180166Y407107D01*
X180236Y407077D01*
X180303Y407044D01*
X180369Y407008D01*
X180433Y406969D01*
X180495Y406926D01*
X180554Y406880D01*
X180612Y406832D01*
X180666Y406781D01*
X180719Y406727D01*
X180768Y406670D01*
X180815Y406611D01*
X180858Y406550D01*
X180899Y406487D01*
X180936Y406422D01*
X180971Y406355D01*
X181001Y406286D01*
X181029Y406216D01*
X181052Y406145D01*
X181073Y406073D01*
X181089Y406000D01*
X181102Y405926D01*
X181112Y405851D01*
X181117Y405776D01*
X181119Y405701D01*
X179482Y404064D02*
X175390Y407338D01*
D12*
X388620Y426720D02*
X388620Y462280D01*
X388620Y426720D02*
X373380Y426720D01*
X373380Y462280D01*
X388620Y462280D01*
D13*
X391127Y445819D02*
X394937Y445819D01*
X391127Y445819D02*
X391127Y446878D01*
X391129Y446942D01*
X391135Y447006D01*
X391144Y447069D01*
X391158Y447131D01*
X391175Y447193D01*
X391196Y447253D01*
X391220Y447312D01*
X391248Y447370D01*
X391280Y447425D01*
X391314Y447479D01*
X391352Y447530D01*
X391393Y447580D01*
X391437Y447626D01*
X391483Y447670D01*
X391533Y447711D01*
X391584Y447749D01*
X391638Y447783D01*
X391693Y447815D01*
X391751Y447843D01*
X391810Y447867D01*
X391870Y447888D01*
X391932Y447905D01*
X391994Y447919D01*
X392058Y447928D01*
X392121Y447934D01*
X392185Y447936D01*
X393879Y447936D01*
X393943Y447934D01*
X394007Y447928D01*
X394070Y447919D01*
X394132Y447905D01*
X394194Y447888D01*
X394254Y447867D01*
X394313Y447843D01*
X394371Y447815D01*
X394426Y447783D01*
X394480Y447749D01*
X394531Y447711D01*
X394581Y447670D01*
X394627Y447626D01*
X394671Y447580D01*
X394712Y447530D01*
X394750Y447479D01*
X394784Y447425D01*
X394816Y447370D01*
X394844Y447312D01*
X394868Y447253D01*
X394889Y447193D01*
X394906Y447131D01*
X394920Y447069D01*
X394929Y447006D01*
X394935Y446942D01*
X394937Y446878D01*
X394937Y445819D01*
X391974Y449599D02*
X391127Y450657D01*
X394937Y450657D01*
X394937Y449599D02*
X394937Y451715D01*
X391974Y453256D02*
X391127Y454315D01*
X394937Y454315D01*
X394937Y455373D02*
X394937Y453256D01*
D12*
X209400Y440300D02*
X209400Y423300D01*
X209400Y440300D02*
X222400Y440300D01*
X222400Y423300D01*
X209400Y423300D01*
X209900Y435800D02*
X221900Y435800D01*
X221900Y434800D01*
X209900Y434800D01*
D14*
X206519Y414181D02*
X199153Y414181D01*
X199153Y416227D01*
X199155Y416316D01*
X199161Y416405D01*
X199171Y416494D01*
X199184Y416582D01*
X199201Y416670D01*
X199223Y416757D01*
X199248Y416842D01*
X199276Y416927D01*
X199309Y417010D01*
X199345Y417092D01*
X199384Y417172D01*
X199427Y417250D01*
X199473Y417326D01*
X199523Y417401D01*
X199576Y417473D01*
X199632Y417542D01*
X199691Y417609D01*
X199752Y417674D01*
X199817Y417735D01*
X199884Y417794D01*
X199953Y417850D01*
X200025Y417903D01*
X200100Y417953D01*
X200176Y417999D01*
X200254Y418042D01*
X200334Y418081D01*
X200416Y418117D01*
X200499Y418150D01*
X200584Y418178D01*
X200669Y418203D01*
X200756Y418225D01*
X200844Y418242D01*
X200932Y418255D01*
X201021Y418265D01*
X201110Y418271D01*
X201199Y418273D01*
X204473Y418273D01*
X204562Y418271D01*
X204651Y418265D01*
X204740Y418255D01*
X204828Y418242D01*
X204916Y418225D01*
X205003Y418203D01*
X205088Y418178D01*
X205173Y418150D01*
X205256Y418117D01*
X205338Y418081D01*
X205418Y418042D01*
X205496Y417999D01*
X205572Y417953D01*
X205647Y417903D01*
X205719Y417850D01*
X205788Y417794D01*
X205855Y417735D01*
X205920Y417674D01*
X205981Y417609D01*
X206040Y417542D01*
X206096Y417473D01*
X206149Y417401D01*
X206199Y417326D01*
X206245Y417250D01*
X206288Y417172D01*
X206327Y417092D01*
X206363Y417010D01*
X206396Y416927D01*
X206424Y416842D01*
X206449Y416757D01*
X206471Y416670D01*
X206488Y416582D01*
X206501Y416494D01*
X206511Y416405D01*
X206517Y416316D01*
X206519Y416227D01*
X206519Y414181D01*
X200790Y421740D02*
X199153Y423786D01*
X206519Y423786D01*
X206519Y421740D02*
X206519Y425832D01*
X200995Y433148D02*
X200910Y433146D01*
X200825Y433140D01*
X200741Y433130D01*
X200657Y433117D01*
X200573Y433099D01*
X200491Y433078D01*
X200410Y433053D01*
X200330Y433024D01*
X200251Y432991D01*
X200174Y432955D01*
X200099Y432915D01*
X200025Y432872D01*
X199954Y432826D01*
X199885Y432776D01*
X199818Y432723D01*
X199754Y432667D01*
X199693Y432608D01*
X199634Y432547D01*
X199578Y432483D01*
X199525Y432416D01*
X199475Y432347D01*
X199429Y432276D01*
X199386Y432202D01*
X199346Y432127D01*
X199310Y432050D01*
X199277Y431971D01*
X199248Y431891D01*
X199223Y431810D01*
X199202Y431728D01*
X199184Y431644D01*
X199171Y431560D01*
X199161Y431476D01*
X199155Y431391D01*
X199153Y431306D01*
X199155Y431210D01*
X199161Y431114D01*
X199171Y431019D01*
X199184Y430924D01*
X199202Y430829D01*
X199223Y430736D01*
X199248Y430643D01*
X199277Y430552D01*
X199309Y430461D01*
X199345Y430372D01*
X199385Y430285D01*
X199428Y430199D01*
X199474Y430115D01*
X199524Y430033D01*
X199578Y429953D01*
X199634Y429876D01*
X199694Y429801D01*
X199756Y429728D01*
X199822Y429658D01*
X199890Y429590D01*
X199961Y429525D01*
X200034Y429464D01*
X200110Y429405D01*
X200189Y429349D01*
X200269Y429297D01*
X200352Y429248D01*
X200436Y429202D01*
X200522Y429160D01*
X200610Y429122D01*
X200699Y429087D01*
X200790Y429055D01*
X202427Y432534D02*
X202368Y432594D01*
X202306Y432651D01*
X202242Y432706D01*
X202175Y432757D01*
X202106Y432806D01*
X202036Y432852D01*
X201963Y432895D01*
X201889Y432935D01*
X201813Y432971D01*
X201735Y433004D01*
X201656Y433034D01*
X201576Y433061D01*
X201495Y433084D01*
X201413Y433103D01*
X201331Y433119D01*
X201247Y433132D01*
X201163Y433141D01*
X201079Y433146D01*
X200995Y433148D01*
X202427Y432534D02*
X206519Y429055D01*
X206519Y433147D01*
D12*
X299720Y452120D02*
X299720Y487680D01*
X299720Y452120D02*
X284480Y452120D01*
X284480Y487680D01*
X299720Y487680D01*
D13*
X302227Y471219D02*
X306037Y471219D01*
X302227Y471219D02*
X302227Y472278D01*
X302229Y472342D01*
X302235Y472406D01*
X302244Y472469D01*
X302258Y472531D01*
X302275Y472593D01*
X302296Y472653D01*
X302320Y472712D01*
X302348Y472770D01*
X302380Y472825D01*
X302414Y472879D01*
X302452Y472930D01*
X302493Y472980D01*
X302537Y473026D01*
X302583Y473070D01*
X302633Y473111D01*
X302684Y473149D01*
X302738Y473183D01*
X302793Y473215D01*
X302851Y473243D01*
X302910Y473267D01*
X302970Y473288D01*
X303032Y473305D01*
X303094Y473319D01*
X303158Y473328D01*
X303221Y473334D01*
X303285Y473336D01*
X304979Y473336D01*
X305043Y473334D01*
X305107Y473328D01*
X305170Y473319D01*
X305232Y473305D01*
X305294Y473288D01*
X305354Y473267D01*
X305413Y473243D01*
X305471Y473215D01*
X305526Y473183D01*
X305580Y473149D01*
X305631Y473111D01*
X305681Y473070D01*
X305727Y473026D01*
X305771Y472980D01*
X305812Y472930D01*
X305850Y472879D01*
X305884Y472825D01*
X305916Y472770D01*
X305944Y472712D01*
X305968Y472653D01*
X305989Y472593D01*
X306006Y472531D01*
X306020Y472469D01*
X306029Y472406D01*
X306035Y472342D01*
X306037Y472278D01*
X306037Y471219D01*
X303074Y474999D02*
X302227Y476057D01*
X306037Y476057D01*
X306037Y474999D02*
X306037Y477115D01*
X306037Y478656D02*
X306037Y479715D01*
X306035Y479779D01*
X306029Y479843D01*
X306020Y479906D01*
X306006Y479968D01*
X305989Y480030D01*
X305968Y480090D01*
X305944Y480149D01*
X305916Y480207D01*
X305884Y480262D01*
X305850Y480316D01*
X305812Y480367D01*
X305771Y480417D01*
X305727Y480463D01*
X305681Y480507D01*
X305631Y480548D01*
X305580Y480586D01*
X305526Y480620D01*
X305471Y480652D01*
X305413Y480680D01*
X305354Y480704D01*
X305294Y480725D01*
X305232Y480742D01*
X305170Y480756D01*
X305107Y480765D01*
X305043Y480771D01*
X304979Y480773D01*
X304915Y480771D01*
X304851Y480765D01*
X304788Y480756D01*
X304726Y480742D01*
X304664Y480725D01*
X304604Y480704D01*
X304545Y480680D01*
X304487Y480652D01*
X304432Y480620D01*
X304378Y480586D01*
X304327Y480548D01*
X304277Y480507D01*
X304231Y480463D01*
X304187Y480417D01*
X304146Y480367D01*
X304108Y480316D01*
X304074Y480262D01*
X304042Y480207D01*
X304014Y480149D01*
X303990Y480090D01*
X303969Y480030D01*
X303952Y479968D01*
X303938Y479906D01*
X303929Y479843D01*
X303923Y479779D01*
X303921Y479715D01*
X302227Y479926D02*
X302227Y478656D01*
X302227Y479926D02*
X302229Y479983D01*
X302235Y480039D01*
X302244Y480095D01*
X302257Y480150D01*
X302274Y480204D01*
X302294Y480257D01*
X302318Y480308D01*
X302345Y480358D01*
X302376Y480405D01*
X302409Y480451D01*
X302446Y480494D01*
X302485Y480535D01*
X302527Y480573D01*
X302572Y480608D01*
X302618Y480640D01*
X302667Y480669D01*
X302717Y480694D01*
X302770Y480716D01*
X302823Y480735D01*
X302878Y480750D01*
X302933Y480761D01*
X302989Y480769D01*
X303046Y480773D01*
X303102Y480773D01*
X303159Y480769D01*
X303215Y480761D01*
X303270Y480750D01*
X303325Y480735D01*
X303378Y480716D01*
X303431Y480694D01*
X303481Y480669D01*
X303530Y480640D01*
X303576Y480608D01*
X303621Y480573D01*
X303663Y480535D01*
X303702Y480494D01*
X303739Y480451D01*
X303772Y480405D01*
X303803Y480358D01*
X303830Y480308D01*
X303854Y480257D01*
X303874Y480204D01*
X303891Y480150D01*
X303904Y480095D01*
X303913Y480039D01*
X303919Y479983D01*
X303921Y479926D01*
X303920Y479926D02*
X303920Y479080D01*
D12*
X184000Y465700D02*
X184000Y448700D01*
X184000Y465700D02*
X197000Y465700D01*
X197000Y448700D01*
X184000Y448700D01*
X184500Y461200D02*
X196500Y461200D01*
X196500Y460200D01*
X184500Y460200D01*
D14*
X181119Y439581D02*
X173753Y439581D01*
X173753Y441627D01*
X173755Y441716D01*
X173761Y441805D01*
X173771Y441894D01*
X173784Y441982D01*
X173801Y442070D01*
X173823Y442157D01*
X173848Y442242D01*
X173876Y442327D01*
X173909Y442410D01*
X173945Y442492D01*
X173984Y442572D01*
X174027Y442650D01*
X174073Y442726D01*
X174123Y442801D01*
X174176Y442873D01*
X174232Y442942D01*
X174291Y443009D01*
X174352Y443074D01*
X174417Y443135D01*
X174484Y443194D01*
X174553Y443250D01*
X174625Y443303D01*
X174700Y443353D01*
X174776Y443399D01*
X174854Y443442D01*
X174934Y443481D01*
X175016Y443517D01*
X175099Y443550D01*
X175184Y443578D01*
X175269Y443603D01*
X175356Y443625D01*
X175444Y443642D01*
X175532Y443655D01*
X175621Y443665D01*
X175710Y443671D01*
X175799Y443673D01*
X179073Y443673D01*
X179162Y443671D01*
X179251Y443665D01*
X179340Y443655D01*
X179428Y443642D01*
X179516Y443625D01*
X179603Y443603D01*
X179688Y443578D01*
X179773Y443550D01*
X179856Y443517D01*
X179938Y443481D01*
X180018Y443442D01*
X180096Y443399D01*
X180172Y443353D01*
X180247Y443303D01*
X180319Y443250D01*
X180388Y443194D01*
X180455Y443135D01*
X180520Y443074D01*
X180581Y443009D01*
X180640Y442942D01*
X180696Y442873D01*
X180749Y442801D01*
X180799Y442726D01*
X180845Y442650D01*
X180888Y442572D01*
X180927Y442492D01*
X180963Y442410D01*
X180996Y442327D01*
X181024Y442242D01*
X181049Y442157D01*
X181071Y442070D01*
X181088Y441982D01*
X181101Y441894D01*
X181111Y441805D01*
X181117Y441716D01*
X181119Y441627D01*
X181119Y439581D01*
X175390Y447140D02*
X173753Y449186D01*
X181119Y449186D01*
X181119Y447140D02*
X181119Y451232D01*
X179482Y454455D02*
X173753Y456092D01*
X179482Y454455D02*
X179482Y458547D01*
X177845Y457320D02*
X181119Y457320D01*
D12*
X388620Y490220D02*
X388620Y525780D01*
X388620Y490220D02*
X373380Y490220D01*
X373380Y525780D01*
X388620Y525780D01*
D13*
X391127Y509319D02*
X394937Y509319D01*
X391127Y509319D02*
X391127Y510378D01*
X391129Y510442D01*
X391135Y510506D01*
X391144Y510569D01*
X391158Y510631D01*
X391175Y510693D01*
X391196Y510753D01*
X391220Y510812D01*
X391248Y510870D01*
X391280Y510925D01*
X391314Y510979D01*
X391352Y511030D01*
X391393Y511080D01*
X391437Y511126D01*
X391483Y511170D01*
X391533Y511211D01*
X391584Y511249D01*
X391638Y511283D01*
X391693Y511315D01*
X391751Y511343D01*
X391810Y511367D01*
X391870Y511388D01*
X391932Y511405D01*
X391994Y511419D01*
X392058Y511428D01*
X392121Y511434D01*
X392185Y511436D01*
X393879Y511436D01*
X393943Y511434D01*
X394007Y511428D01*
X394070Y511419D01*
X394132Y511405D01*
X394194Y511388D01*
X394254Y511367D01*
X394313Y511343D01*
X394371Y511315D01*
X394426Y511283D01*
X394480Y511249D01*
X394531Y511211D01*
X394581Y511170D01*
X394627Y511126D01*
X394671Y511080D01*
X394712Y511030D01*
X394750Y510979D01*
X394784Y510925D01*
X394816Y510870D01*
X394844Y510812D01*
X394868Y510753D01*
X394889Y510693D01*
X394906Y510631D01*
X394920Y510569D01*
X394929Y510506D01*
X394935Y510442D01*
X394937Y510378D01*
X394937Y509319D01*
X391974Y513099D02*
X391127Y514157D01*
X394937Y514157D01*
X394937Y513099D02*
X394937Y515215D01*
X394937Y516756D02*
X394937Y518026D01*
X394935Y518081D01*
X394930Y518137D01*
X394921Y518191D01*
X394908Y518245D01*
X394892Y518298D01*
X394873Y518350D01*
X394850Y518401D01*
X394824Y518450D01*
X394794Y518497D01*
X394762Y518542D01*
X394727Y518584D01*
X394689Y518625D01*
X394648Y518663D01*
X394606Y518698D01*
X394561Y518730D01*
X394514Y518760D01*
X394465Y518786D01*
X394414Y518809D01*
X394362Y518828D01*
X394309Y518844D01*
X394255Y518857D01*
X394201Y518866D01*
X394145Y518871D01*
X394090Y518873D01*
X393667Y518873D01*
X393609Y518871D01*
X393552Y518865D01*
X393495Y518855D01*
X393438Y518842D01*
X393383Y518824D01*
X393330Y518803D01*
X393277Y518778D01*
X393227Y518750D01*
X393179Y518718D01*
X393132Y518683D01*
X393089Y518645D01*
X393048Y518604D01*
X393010Y518561D01*
X392975Y518514D01*
X392943Y518466D01*
X392915Y518416D01*
X392890Y518363D01*
X392869Y518310D01*
X392851Y518255D01*
X392838Y518198D01*
X392828Y518141D01*
X392822Y518084D01*
X392820Y518026D01*
X392820Y516756D01*
X391127Y516756D01*
X391127Y518873D01*
D12*
X209400Y491100D02*
X209400Y474100D01*
X209400Y491100D02*
X222400Y491100D01*
X222400Y474100D01*
X209400Y474100D01*
X209900Y486600D02*
X221900Y486600D01*
X221900Y485600D01*
X209900Y485600D01*
D14*
X206519Y464981D02*
X199153Y464981D01*
X199153Y467027D01*
X199155Y467116D01*
X199161Y467205D01*
X199171Y467294D01*
X199184Y467382D01*
X199201Y467470D01*
X199223Y467557D01*
X199248Y467642D01*
X199276Y467727D01*
X199309Y467810D01*
X199345Y467892D01*
X199384Y467972D01*
X199427Y468050D01*
X199473Y468126D01*
X199523Y468201D01*
X199576Y468273D01*
X199632Y468342D01*
X199691Y468409D01*
X199752Y468474D01*
X199817Y468535D01*
X199884Y468594D01*
X199953Y468650D01*
X200025Y468703D01*
X200100Y468753D01*
X200176Y468799D01*
X200254Y468842D01*
X200334Y468881D01*
X200416Y468917D01*
X200499Y468950D01*
X200584Y468978D01*
X200669Y469003D01*
X200756Y469025D01*
X200844Y469042D01*
X200932Y469055D01*
X201021Y469065D01*
X201110Y469071D01*
X201199Y469073D01*
X204473Y469073D01*
X204562Y469071D01*
X204651Y469065D01*
X204740Y469055D01*
X204828Y469042D01*
X204916Y469025D01*
X205003Y469003D01*
X205088Y468978D01*
X205173Y468950D01*
X205256Y468917D01*
X205338Y468881D01*
X205418Y468842D01*
X205496Y468799D01*
X205572Y468753D01*
X205647Y468703D01*
X205719Y468650D01*
X205788Y468594D01*
X205855Y468535D01*
X205920Y468474D01*
X205981Y468409D01*
X206040Y468342D01*
X206096Y468273D01*
X206149Y468201D01*
X206199Y468126D01*
X206245Y468050D01*
X206288Y467972D01*
X206327Y467892D01*
X206363Y467810D01*
X206396Y467727D01*
X206424Y467642D01*
X206449Y467557D01*
X206471Y467470D01*
X206488Y467382D01*
X206501Y467294D01*
X206511Y467205D01*
X206517Y467116D01*
X206519Y467027D01*
X206519Y464981D01*
X200790Y472540D02*
X199153Y474586D01*
X206519Y474586D01*
X206519Y472540D02*
X206519Y476632D01*
X202427Y479855D02*
X202427Y482311D01*
X202429Y482389D01*
X202434Y482467D01*
X202444Y482544D01*
X202457Y482621D01*
X202473Y482697D01*
X202493Y482772D01*
X202517Y482846D01*
X202544Y482919D01*
X202575Y482991D01*
X202609Y483061D01*
X202646Y483130D01*
X202687Y483196D01*
X202731Y483261D01*
X202777Y483323D01*
X202827Y483383D01*
X202879Y483441D01*
X202934Y483496D01*
X202992Y483548D01*
X203052Y483598D01*
X203114Y483644D01*
X203179Y483688D01*
X203246Y483729D01*
X203314Y483766D01*
X203384Y483800D01*
X203456Y483831D01*
X203529Y483858D01*
X203603Y483882D01*
X203678Y483902D01*
X203754Y483918D01*
X203831Y483931D01*
X203908Y483941D01*
X203986Y483946D01*
X204064Y483948D01*
X204064Y483947D02*
X204473Y483947D01*
X204562Y483945D01*
X204651Y483939D01*
X204740Y483929D01*
X204828Y483916D01*
X204916Y483899D01*
X205003Y483877D01*
X205088Y483852D01*
X205173Y483824D01*
X205256Y483791D01*
X205338Y483755D01*
X205418Y483716D01*
X205496Y483673D01*
X205572Y483627D01*
X205647Y483577D01*
X205719Y483524D01*
X205788Y483468D01*
X205855Y483409D01*
X205920Y483348D01*
X205981Y483283D01*
X206040Y483216D01*
X206096Y483147D01*
X206149Y483075D01*
X206199Y483000D01*
X206245Y482924D01*
X206288Y482846D01*
X206327Y482766D01*
X206363Y482684D01*
X206396Y482601D01*
X206424Y482516D01*
X206449Y482431D01*
X206471Y482344D01*
X206488Y482256D01*
X206501Y482168D01*
X206511Y482079D01*
X206517Y481990D01*
X206519Y481901D01*
X206517Y481812D01*
X206511Y481723D01*
X206501Y481634D01*
X206488Y481546D01*
X206471Y481458D01*
X206449Y481371D01*
X206424Y481286D01*
X206396Y481201D01*
X206363Y481118D01*
X206327Y481036D01*
X206288Y480956D01*
X206245Y480878D01*
X206199Y480802D01*
X206149Y480727D01*
X206096Y480655D01*
X206040Y480586D01*
X205981Y480519D01*
X205920Y480454D01*
X205855Y480393D01*
X205788Y480334D01*
X205719Y480278D01*
X205647Y480225D01*
X205572Y480175D01*
X205496Y480129D01*
X205418Y480086D01*
X205338Y480047D01*
X205256Y480011D01*
X205173Y479978D01*
X205088Y479950D01*
X205003Y479925D01*
X204916Y479903D01*
X204828Y479886D01*
X204740Y479873D01*
X204651Y479863D01*
X204562Y479857D01*
X204473Y479855D01*
X202427Y479855D01*
X202313Y479857D01*
X202199Y479863D01*
X202085Y479873D01*
X201971Y479887D01*
X201858Y479905D01*
X201746Y479927D01*
X201635Y479952D01*
X201525Y479982D01*
X201415Y480015D01*
X201307Y480052D01*
X201201Y480093D01*
X201095Y480138D01*
X200992Y480186D01*
X200890Y480238D01*
X200790Y480294D01*
X200692Y480352D01*
X200596Y480415D01*
X200503Y480480D01*
X200411Y480549D01*
X200323Y480621D01*
X200236Y480696D01*
X200153Y480774D01*
X200072Y480855D01*
X199994Y480938D01*
X199919Y481024D01*
X199847Y481113D01*
X199778Y481205D01*
X199713Y481298D01*
X199651Y481394D01*
X199592Y481492D01*
X199536Y481592D01*
X199484Y481694D01*
X199436Y481797D01*
X199391Y481902D01*
X199350Y482009D01*
X199313Y482117D01*
X199280Y482227D01*
X199250Y482337D01*
X199225Y482448D01*
X199203Y482560D01*
X199185Y482673D01*
X199171Y482787D01*
X199161Y482901D01*
X199155Y483015D01*
X199153Y483129D01*
D12*
X184000Y313300D02*
X184000Y296300D01*
X184000Y313300D02*
X197000Y313300D01*
X197000Y296300D01*
X184000Y296300D01*
X184500Y308800D02*
X196500Y308800D01*
X196500Y307800D01*
X184500Y307800D01*
D14*
X181119Y287181D02*
X173753Y287181D01*
X173753Y289227D01*
X173755Y289316D01*
X173761Y289405D01*
X173771Y289494D01*
X173784Y289582D01*
X173801Y289670D01*
X173823Y289757D01*
X173848Y289842D01*
X173876Y289927D01*
X173909Y290010D01*
X173945Y290092D01*
X173984Y290172D01*
X174027Y290250D01*
X174073Y290326D01*
X174123Y290401D01*
X174176Y290473D01*
X174232Y290542D01*
X174291Y290609D01*
X174352Y290674D01*
X174417Y290735D01*
X174484Y290794D01*
X174553Y290850D01*
X174625Y290903D01*
X174700Y290953D01*
X174776Y290999D01*
X174854Y291042D01*
X174934Y291081D01*
X175016Y291117D01*
X175099Y291150D01*
X175184Y291178D01*
X175269Y291203D01*
X175356Y291225D01*
X175444Y291242D01*
X175532Y291255D01*
X175621Y291265D01*
X175710Y291271D01*
X175799Y291273D01*
X179073Y291273D01*
X179162Y291271D01*
X179251Y291265D01*
X179340Y291255D01*
X179428Y291242D01*
X179516Y291225D01*
X179603Y291203D01*
X179688Y291178D01*
X179773Y291150D01*
X179856Y291117D01*
X179938Y291081D01*
X180018Y291042D01*
X180096Y290999D01*
X180172Y290953D01*
X180247Y290903D01*
X180319Y290850D01*
X180388Y290794D01*
X180455Y290735D01*
X180520Y290674D01*
X180581Y290609D01*
X180640Y290542D01*
X180696Y290473D01*
X180749Y290401D01*
X180799Y290326D01*
X180845Y290250D01*
X180888Y290172D01*
X180927Y290092D01*
X180963Y290010D01*
X180996Y289927D01*
X181024Y289842D01*
X181049Y289757D01*
X181071Y289670D01*
X181088Y289582D01*
X181101Y289494D01*
X181111Y289405D01*
X181117Y289316D01*
X181119Y289227D01*
X181119Y287181D01*
X173753Y296991D02*
X173755Y297076D01*
X173761Y297161D01*
X173771Y297245D01*
X173784Y297329D01*
X173802Y297413D01*
X173823Y297495D01*
X173848Y297576D01*
X173877Y297656D01*
X173910Y297735D01*
X173946Y297812D01*
X173986Y297887D01*
X174029Y297961D01*
X174075Y298032D01*
X174125Y298101D01*
X174178Y298168D01*
X174234Y298232D01*
X174293Y298293D01*
X174354Y298352D01*
X174418Y298408D01*
X174485Y298461D01*
X174554Y298511D01*
X174625Y298557D01*
X174699Y298600D01*
X174774Y298640D01*
X174851Y298676D01*
X174930Y298709D01*
X175010Y298738D01*
X175091Y298763D01*
X175173Y298784D01*
X175257Y298802D01*
X175341Y298815D01*
X175425Y298825D01*
X175510Y298831D01*
X175595Y298833D01*
X173753Y296991D02*
X173755Y296895D01*
X173761Y296799D01*
X173771Y296704D01*
X173784Y296609D01*
X173802Y296514D01*
X173823Y296421D01*
X173848Y296328D01*
X173877Y296237D01*
X173909Y296146D01*
X173945Y296057D01*
X173985Y295970D01*
X174028Y295884D01*
X174074Y295800D01*
X174124Y295718D01*
X174178Y295638D01*
X174234Y295561D01*
X174294Y295486D01*
X174356Y295413D01*
X174422Y295343D01*
X174490Y295275D01*
X174561Y295210D01*
X174634Y295149D01*
X174710Y295090D01*
X174789Y295034D01*
X174869Y294982D01*
X174952Y294933D01*
X175036Y294887D01*
X175122Y294845D01*
X175210Y294807D01*
X175299Y294772D01*
X175390Y294740D01*
X177027Y298218D02*
X176968Y298278D01*
X176906Y298335D01*
X176842Y298390D01*
X176775Y298441D01*
X176706Y298490D01*
X176636Y298536D01*
X176563Y298579D01*
X176489Y298619D01*
X176413Y298655D01*
X176335Y298688D01*
X176256Y298718D01*
X176176Y298745D01*
X176095Y298768D01*
X176013Y298787D01*
X175931Y298803D01*
X175847Y298816D01*
X175763Y298825D01*
X175679Y298830D01*
X175595Y298832D01*
X177027Y298218D02*
X181119Y294740D01*
X181119Y298832D01*
D12*
X388620Y299720D02*
X388620Y335280D01*
X388620Y299720D02*
X373380Y299720D01*
X373380Y335280D01*
X388620Y335280D01*
D13*
X391127Y322477D02*
X394937Y322477D01*
X391127Y322477D02*
X391127Y323535D01*
X391129Y323599D01*
X391135Y323663D01*
X391144Y323726D01*
X391158Y323788D01*
X391175Y323850D01*
X391196Y323910D01*
X391220Y323969D01*
X391248Y324027D01*
X391280Y324082D01*
X391314Y324136D01*
X391352Y324187D01*
X391393Y324237D01*
X391437Y324283D01*
X391483Y324327D01*
X391533Y324368D01*
X391584Y324406D01*
X391638Y324440D01*
X391693Y324472D01*
X391751Y324500D01*
X391810Y324524D01*
X391870Y324545D01*
X391932Y324562D01*
X391994Y324576D01*
X392058Y324585D01*
X392121Y324591D01*
X392185Y324593D01*
X392185Y324594D02*
X393879Y324594D01*
X393879Y324593D02*
X393943Y324591D01*
X394007Y324585D01*
X394070Y324576D01*
X394132Y324562D01*
X394194Y324545D01*
X394254Y324524D01*
X394313Y324500D01*
X394371Y324472D01*
X394426Y324440D01*
X394480Y324406D01*
X394531Y324368D01*
X394581Y324327D01*
X394627Y324283D01*
X394671Y324237D01*
X394712Y324187D01*
X394750Y324136D01*
X394784Y324082D01*
X394816Y324027D01*
X394844Y323969D01*
X394868Y323910D01*
X394889Y323850D01*
X394906Y323788D01*
X394920Y323726D01*
X394929Y323663D01*
X394935Y323599D01*
X394937Y323535D01*
X394937Y322477D01*
X394937Y326256D02*
X394937Y327315D01*
X394935Y327379D01*
X394929Y327443D01*
X394920Y327506D01*
X394906Y327568D01*
X394889Y327630D01*
X394868Y327690D01*
X394844Y327749D01*
X394816Y327807D01*
X394784Y327862D01*
X394750Y327916D01*
X394712Y327967D01*
X394671Y328017D01*
X394627Y328063D01*
X394581Y328107D01*
X394531Y328148D01*
X394480Y328186D01*
X394426Y328220D01*
X394371Y328252D01*
X394313Y328280D01*
X394254Y328304D01*
X394194Y328325D01*
X394132Y328342D01*
X394070Y328356D01*
X394007Y328365D01*
X393943Y328371D01*
X393879Y328373D01*
X393815Y328371D01*
X393751Y328365D01*
X393688Y328356D01*
X393626Y328342D01*
X393564Y328325D01*
X393504Y328304D01*
X393445Y328280D01*
X393387Y328252D01*
X393332Y328220D01*
X393278Y328186D01*
X393227Y328148D01*
X393177Y328107D01*
X393131Y328063D01*
X393087Y328017D01*
X393046Y327967D01*
X393008Y327916D01*
X392974Y327862D01*
X392942Y327807D01*
X392914Y327749D01*
X392890Y327690D01*
X392869Y327630D01*
X392852Y327568D01*
X392838Y327506D01*
X392829Y327443D01*
X392823Y327379D01*
X392821Y327315D01*
X391127Y327526D02*
X391127Y326256D01*
X391127Y327526D02*
X391129Y327583D01*
X391135Y327639D01*
X391144Y327695D01*
X391157Y327750D01*
X391174Y327804D01*
X391194Y327857D01*
X391218Y327908D01*
X391245Y327958D01*
X391276Y328005D01*
X391309Y328051D01*
X391346Y328094D01*
X391385Y328135D01*
X391427Y328173D01*
X391472Y328208D01*
X391518Y328240D01*
X391567Y328269D01*
X391617Y328294D01*
X391670Y328316D01*
X391723Y328335D01*
X391778Y328350D01*
X391833Y328361D01*
X391889Y328369D01*
X391946Y328373D01*
X392002Y328373D01*
X392059Y328369D01*
X392115Y328361D01*
X392170Y328350D01*
X392225Y328335D01*
X392278Y328316D01*
X392331Y328294D01*
X392381Y328269D01*
X392430Y328240D01*
X392476Y328208D01*
X392521Y328173D01*
X392563Y328135D01*
X392602Y328094D01*
X392639Y328051D01*
X392672Y328005D01*
X392703Y327958D01*
X392730Y327908D01*
X392754Y327857D01*
X392774Y327804D01*
X392791Y327750D01*
X392804Y327695D01*
X392813Y327639D01*
X392819Y327583D01*
X392821Y327526D01*
X392820Y327526D02*
X392820Y326680D01*
D12*
X209400Y321700D02*
X209400Y338700D01*
X222400Y338700D01*
X222400Y321700D01*
X209400Y321700D01*
X209900Y334200D02*
X221900Y334200D01*
X221900Y333200D01*
X209900Y333200D01*
D14*
X206519Y312581D02*
X199153Y312581D01*
X199153Y314627D01*
X199155Y314716D01*
X199161Y314805D01*
X199171Y314894D01*
X199184Y314982D01*
X199201Y315070D01*
X199223Y315157D01*
X199248Y315242D01*
X199276Y315327D01*
X199309Y315410D01*
X199345Y315492D01*
X199384Y315572D01*
X199427Y315650D01*
X199473Y315726D01*
X199523Y315801D01*
X199576Y315873D01*
X199632Y315942D01*
X199691Y316009D01*
X199752Y316074D01*
X199817Y316135D01*
X199884Y316194D01*
X199953Y316250D01*
X200025Y316303D01*
X200100Y316353D01*
X200176Y316399D01*
X200254Y316442D01*
X200334Y316481D01*
X200416Y316517D01*
X200499Y316550D01*
X200584Y316578D01*
X200669Y316603D01*
X200756Y316625D01*
X200844Y316642D01*
X200932Y316655D01*
X201021Y316665D01*
X201110Y316671D01*
X201199Y316673D01*
X204473Y316673D01*
X204562Y316671D01*
X204651Y316665D01*
X204740Y316655D01*
X204828Y316642D01*
X204916Y316625D01*
X205003Y316603D01*
X205088Y316578D01*
X205173Y316550D01*
X205256Y316517D01*
X205338Y316481D01*
X205418Y316442D01*
X205496Y316399D01*
X205572Y316353D01*
X205647Y316303D01*
X205719Y316250D01*
X205788Y316194D01*
X205855Y316135D01*
X205920Y316074D01*
X205981Y316009D01*
X206040Y315942D01*
X206096Y315873D01*
X206149Y315801D01*
X206199Y315726D01*
X206245Y315650D01*
X206288Y315572D01*
X206327Y315492D01*
X206363Y315410D01*
X206396Y315327D01*
X206424Y315242D01*
X206449Y315157D01*
X206471Y315070D01*
X206488Y314982D01*
X206501Y314894D01*
X206511Y314805D01*
X206517Y314716D01*
X206519Y314627D01*
X206519Y312581D01*
X204882Y320140D02*
X199153Y321777D01*
X204882Y320140D02*
X204882Y324232D01*
X203245Y323005D02*
X206519Y323005D01*
D12*
X299720Y325120D02*
X299720Y360680D01*
X299720Y325120D02*
X284480Y325120D01*
X284480Y360680D01*
X299720Y360680D01*
D13*
X302227Y347877D02*
X306037Y347877D01*
X302227Y347877D02*
X302227Y348935D01*
X302229Y348999D01*
X302235Y349063D01*
X302244Y349126D01*
X302258Y349188D01*
X302275Y349250D01*
X302296Y349310D01*
X302320Y349369D01*
X302348Y349427D01*
X302380Y349482D01*
X302414Y349536D01*
X302452Y349587D01*
X302493Y349637D01*
X302537Y349683D01*
X302583Y349727D01*
X302633Y349768D01*
X302684Y349806D01*
X302738Y349840D01*
X302793Y349872D01*
X302851Y349900D01*
X302910Y349924D01*
X302970Y349945D01*
X303032Y349962D01*
X303094Y349976D01*
X303158Y349985D01*
X303221Y349991D01*
X303285Y349993D01*
X303285Y349994D02*
X304979Y349994D01*
X304979Y349993D02*
X305043Y349991D01*
X305107Y349985D01*
X305170Y349976D01*
X305232Y349962D01*
X305294Y349945D01*
X305354Y349924D01*
X305413Y349900D01*
X305471Y349872D01*
X305526Y349840D01*
X305580Y349806D01*
X305631Y349768D01*
X305681Y349727D01*
X305727Y349683D01*
X305771Y349637D01*
X305812Y349587D01*
X305850Y349536D01*
X305884Y349482D01*
X305916Y349427D01*
X305944Y349369D01*
X305968Y349310D01*
X305989Y349250D01*
X306006Y349188D01*
X306020Y349126D01*
X306029Y349063D01*
X306035Y348999D01*
X306037Y348935D01*
X306037Y347877D01*
X306037Y351656D02*
X306037Y352926D01*
X306035Y352981D01*
X306030Y353037D01*
X306021Y353091D01*
X306008Y353145D01*
X305992Y353198D01*
X305973Y353250D01*
X305950Y353301D01*
X305924Y353350D01*
X305894Y353397D01*
X305862Y353442D01*
X305827Y353484D01*
X305789Y353525D01*
X305748Y353563D01*
X305706Y353598D01*
X305661Y353630D01*
X305614Y353660D01*
X305565Y353686D01*
X305514Y353709D01*
X305462Y353728D01*
X305409Y353744D01*
X305355Y353757D01*
X305301Y353766D01*
X305245Y353771D01*
X305190Y353773D01*
X304767Y353773D01*
X304709Y353771D01*
X304652Y353765D01*
X304595Y353755D01*
X304538Y353742D01*
X304483Y353724D01*
X304430Y353703D01*
X304377Y353678D01*
X304327Y353650D01*
X304279Y353618D01*
X304232Y353583D01*
X304189Y353545D01*
X304148Y353504D01*
X304110Y353461D01*
X304075Y353414D01*
X304043Y353366D01*
X304015Y353316D01*
X303990Y353263D01*
X303969Y353210D01*
X303951Y353155D01*
X303938Y353098D01*
X303928Y353041D01*
X303922Y352984D01*
X303920Y352926D01*
X303920Y351656D01*
X302227Y351656D01*
X302227Y353773D01*
D12*
X184000Y347100D02*
X184000Y364100D01*
X197000Y364100D01*
X197000Y347100D01*
X184000Y347100D01*
X184500Y359600D02*
X196500Y359600D01*
X196500Y358600D01*
X184500Y358600D01*
D14*
X181119Y337981D02*
X173753Y337981D01*
X173753Y340027D01*
X173755Y340116D01*
X173761Y340205D01*
X173771Y340294D01*
X173784Y340382D01*
X173801Y340470D01*
X173823Y340557D01*
X173848Y340642D01*
X173876Y340727D01*
X173909Y340810D01*
X173945Y340892D01*
X173984Y340972D01*
X174027Y341050D01*
X174073Y341126D01*
X174123Y341201D01*
X174176Y341273D01*
X174232Y341342D01*
X174291Y341409D01*
X174352Y341474D01*
X174417Y341535D01*
X174484Y341594D01*
X174553Y341650D01*
X174625Y341703D01*
X174700Y341753D01*
X174776Y341799D01*
X174854Y341842D01*
X174934Y341881D01*
X175016Y341917D01*
X175099Y341950D01*
X175184Y341978D01*
X175269Y342003D01*
X175356Y342025D01*
X175444Y342042D01*
X175532Y342055D01*
X175621Y342065D01*
X175710Y342071D01*
X175799Y342073D01*
X179073Y342073D01*
X179162Y342071D01*
X179251Y342065D01*
X179340Y342055D01*
X179428Y342042D01*
X179516Y342025D01*
X179603Y342003D01*
X179688Y341978D01*
X179773Y341950D01*
X179856Y341917D01*
X179938Y341881D01*
X180018Y341842D01*
X180096Y341799D01*
X180172Y341753D01*
X180247Y341703D01*
X180319Y341650D01*
X180388Y341594D01*
X180455Y341535D01*
X180520Y341474D01*
X180581Y341409D01*
X180640Y341342D01*
X180696Y341273D01*
X180749Y341201D01*
X180799Y341126D01*
X180845Y341050D01*
X180888Y340972D01*
X180927Y340892D01*
X180963Y340810D01*
X180996Y340727D01*
X181024Y340642D01*
X181049Y340557D01*
X181071Y340470D01*
X181088Y340382D01*
X181101Y340294D01*
X181111Y340205D01*
X181117Y340116D01*
X181119Y340027D01*
X181119Y337981D01*
X177027Y345540D02*
X177027Y347995D01*
X177029Y348073D01*
X177034Y348151D01*
X177044Y348228D01*
X177057Y348305D01*
X177073Y348381D01*
X177093Y348456D01*
X177117Y348530D01*
X177144Y348603D01*
X177175Y348675D01*
X177209Y348745D01*
X177246Y348814D01*
X177287Y348880D01*
X177331Y348945D01*
X177377Y349007D01*
X177427Y349067D01*
X177479Y349125D01*
X177534Y349180D01*
X177592Y349232D01*
X177652Y349282D01*
X177714Y349328D01*
X177779Y349372D01*
X177846Y349413D01*
X177914Y349450D01*
X177984Y349484D01*
X178056Y349515D01*
X178129Y349542D01*
X178203Y349566D01*
X178278Y349586D01*
X178354Y349602D01*
X178431Y349615D01*
X178508Y349625D01*
X178586Y349630D01*
X178664Y349632D01*
X179073Y349632D01*
X179162Y349630D01*
X179251Y349624D01*
X179340Y349614D01*
X179428Y349601D01*
X179516Y349584D01*
X179603Y349562D01*
X179688Y349537D01*
X179773Y349509D01*
X179856Y349476D01*
X179938Y349440D01*
X180018Y349401D01*
X180096Y349358D01*
X180172Y349312D01*
X180247Y349262D01*
X180319Y349209D01*
X180388Y349153D01*
X180455Y349094D01*
X180520Y349033D01*
X180581Y348968D01*
X180640Y348901D01*
X180696Y348832D01*
X180749Y348760D01*
X180799Y348685D01*
X180845Y348609D01*
X180888Y348531D01*
X180927Y348451D01*
X180963Y348369D01*
X180996Y348286D01*
X181024Y348201D01*
X181049Y348116D01*
X181071Y348029D01*
X181088Y347941D01*
X181101Y347853D01*
X181111Y347764D01*
X181117Y347675D01*
X181119Y347586D01*
X181117Y347497D01*
X181111Y347408D01*
X181101Y347319D01*
X181088Y347231D01*
X181071Y347143D01*
X181049Y347056D01*
X181024Y346971D01*
X180996Y346886D01*
X180963Y346803D01*
X180927Y346721D01*
X180888Y346641D01*
X180845Y346563D01*
X180799Y346487D01*
X180749Y346412D01*
X180696Y346340D01*
X180640Y346271D01*
X180581Y346204D01*
X180520Y346139D01*
X180455Y346078D01*
X180388Y346019D01*
X180319Y345963D01*
X180247Y345910D01*
X180172Y345860D01*
X180096Y345814D01*
X180018Y345771D01*
X179938Y345732D01*
X179856Y345696D01*
X179773Y345663D01*
X179688Y345635D01*
X179603Y345610D01*
X179516Y345588D01*
X179428Y345571D01*
X179340Y345558D01*
X179251Y345548D01*
X179162Y345542D01*
X179073Y345540D01*
X177027Y345540D01*
X176913Y345542D01*
X176799Y345548D01*
X176685Y345558D01*
X176571Y345572D01*
X176458Y345590D01*
X176346Y345612D01*
X176235Y345637D01*
X176125Y345667D01*
X176015Y345700D01*
X175907Y345737D01*
X175801Y345778D01*
X175695Y345823D01*
X175592Y345871D01*
X175490Y345923D01*
X175390Y345979D01*
X175292Y346037D01*
X175196Y346100D01*
X175103Y346165D01*
X175011Y346234D01*
X174923Y346306D01*
X174836Y346381D01*
X174753Y346459D01*
X174672Y346540D01*
X174594Y346623D01*
X174519Y346709D01*
X174447Y346798D01*
X174378Y346890D01*
X174313Y346983D01*
X174251Y347079D01*
X174192Y347177D01*
X174136Y347277D01*
X174084Y347379D01*
X174036Y347482D01*
X173991Y347587D01*
X173950Y347694D01*
X173913Y347802D01*
X173880Y347912D01*
X173850Y348022D01*
X173825Y348133D01*
X173803Y348245D01*
X173785Y348358D01*
X173771Y348472D01*
X173761Y348586D01*
X173755Y348700D01*
X173753Y348814D01*
D12*
X388620Y363220D02*
X388620Y398780D01*
X388620Y363220D02*
X373380Y363220D01*
X373380Y398780D01*
X388620Y398780D01*
D13*
X391127Y385977D02*
X394937Y385977D01*
X391127Y385977D02*
X391127Y387035D01*
X391129Y387099D01*
X391135Y387163D01*
X391144Y387226D01*
X391158Y387288D01*
X391175Y387350D01*
X391196Y387410D01*
X391220Y387469D01*
X391248Y387527D01*
X391280Y387582D01*
X391314Y387636D01*
X391352Y387687D01*
X391393Y387737D01*
X391437Y387783D01*
X391483Y387827D01*
X391533Y387868D01*
X391584Y387906D01*
X391638Y387940D01*
X391693Y387972D01*
X391751Y388000D01*
X391810Y388024D01*
X391870Y388045D01*
X391932Y388062D01*
X391994Y388076D01*
X392058Y388085D01*
X392121Y388091D01*
X392185Y388093D01*
X392185Y388094D02*
X393879Y388094D01*
X393879Y388093D02*
X393943Y388091D01*
X394007Y388085D01*
X394070Y388076D01*
X394132Y388062D01*
X394194Y388045D01*
X394254Y388024D01*
X394313Y388000D01*
X394371Y387972D01*
X394426Y387940D01*
X394480Y387906D01*
X394531Y387868D01*
X394581Y387827D01*
X394627Y387783D01*
X394671Y387737D01*
X394712Y387687D01*
X394750Y387636D01*
X394784Y387582D01*
X394816Y387527D01*
X394844Y387469D01*
X394868Y387410D01*
X394889Y387350D01*
X394906Y387288D01*
X394920Y387226D01*
X394929Y387163D01*
X394935Y387099D01*
X394937Y387035D01*
X394937Y385977D01*
X391550Y389756D02*
X391127Y389756D01*
X391127Y391873D01*
X394937Y390815D01*
D12*
X209400Y389500D02*
X209400Y372500D01*
X209400Y389500D02*
X222400Y389500D01*
X222400Y372500D01*
X209400Y372500D01*
X209900Y385000D02*
X221900Y385000D01*
X221900Y384000D01*
X209900Y384000D01*
D14*
X206519Y363381D02*
X199153Y363381D01*
X199153Y365427D01*
X199155Y365516D01*
X199161Y365605D01*
X199171Y365694D01*
X199184Y365782D01*
X199201Y365870D01*
X199223Y365957D01*
X199248Y366042D01*
X199276Y366127D01*
X199309Y366210D01*
X199345Y366292D01*
X199384Y366372D01*
X199427Y366450D01*
X199473Y366526D01*
X199523Y366601D01*
X199576Y366673D01*
X199632Y366742D01*
X199691Y366809D01*
X199752Y366874D01*
X199817Y366935D01*
X199884Y366994D01*
X199953Y367050D01*
X200025Y367103D01*
X200100Y367153D01*
X200176Y367199D01*
X200254Y367242D01*
X200334Y367281D01*
X200416Y367317D01*
X200499Y367350D01*
X200584Y367378D01*
X200669Y367403D01*
X200756Y367425D01*
X200844Y367442D01*
X200932Y367455D01*
X201021Y367465D01*
X201110Y367471D01*
X201199Y367473D01*
X204473Y367473D01*
X204562Y367471D01*
X204651Y367465D01*
X204740Y367455D01*
X204828Y367442D01*
X204916Y367425D01*
X205003Y367403D01*
X205088Y367378D01*
X205173Y367350D01*
X205256Y367317D01*
X205338Y367281D01*
X205418Y367242D01*
X205496Y367199D01*
X205572Y367153D01*
X205647Y367103D01*
X205719Y367050D01*
X205788Y366994D01*
X205855Y366935D01*
X205920Y366874D01*
X205981Y366809D01*
X206040Y366742D01*
X206096Y366673D01*
X206149Y366601D01*
X206199Y366526D01*
X206245Y366450D01*
X206288Y366372D01*
X206327Y366292D01*
X206363Y366210D01*
X206396Y366127D01*
X206424Y366042D01*
X206449Y365957D01*
X206471Y365870D01*
X206488Y365782D01*
X206501Y365694D01*
X206511Y365605D01*
X206517Y365516D01*
X206519Y365427D01*
X206519Y363381D01*
X204473Y370940D02*
X204384Y370942D01*
X204295Y370948D01*
X204206Y370958D01*
X204118Y370971D01*
X204030Y370988D01*
X203943Y371010D01*
X203858Y371035D01*
X203773Y371063D01*
X203690Y371096D01*
X203608Y371132D01*
X203528Y371171D01*
X203450Y371214D01*
X203374Y371260D01*
X203299Y371310D01*
X203227Y371363D01*
X203158Y371419D01*
X203091Y371478D01*
X203026Y371539D01*
X202965Y371604D01*
X202906Y371671D01*
X202850Y371740D01*
X202797Y371812D01*
X202747Y371887D01*
X202701Y371963D01*
X202658Y372041D01*
X202619Y372121D01*
X202583Y372203D01*
X202550Y372286D01*
X202522Y372371D01*
X202497Y372456D01*
X202475Y372543D01*
X202458Y372631D01*
X202445Y372719D01*
X202435Y372808D01*
X202429Y372897D01*
X202427Y372986D01*
X202429Y373075D01*
X202435Y373164D01*
X202445Y373253D01*
X202458Y373341D01*
X202475Y373429D01*
X202497Y373516D01*
X202522Y373601D01*
X202550Y373686D01*
X202583Y373769D01*
X202619Y373851D01*
X202658Y373931D01*
X202701Y374009D01*
X202747Y374085D01*
X202797Y374160D01*
X202850Y374232D01*
X202906Y374301D01*
X202965Y374368D01*
X203026Y374433D01*
X203091Y374494D01*
X203158Y374553D01*
X203227Y374609D01*
X203299Y374662D01*
X203374Y374712D01*
X203450Y374758D01*
X203528Y374801D01*
X203608Y374840D01*
X203690Y374876D01*
X203773Y374909D01*
X203858Y374937D01*
X203943Y374962D01*
X204030Y374984D01*
X204118Y375001D01*
X204206Y375014D01*
X204295Y375024D01*
X204384Y375030D01*
X204473Y375032D01*
X204562Y375030D01*
X204651Y375024D01*
X204740Y375014D01*
X204828Y375001D01*
X204916Y374984D01*
X205003Y374962D01*
X205088Y374937D01*
X205173Y374909D01*
X205256Y374876D01*
X205338Y374840D01*
X205418Y374801D01*
X205496Y374758D01*
X205572Y374712D01*
X205647Y374662D01*
X205719Y374609D01*
X205788Y374553D01*
X205855Y374494D01*
X205920Y374433D01*
X205981Y374368D01*
X206040Y374301D01*
X206096Y374232D01*
X206149Y374160D01*
X206199Y374085D01*
X206245Y374009D01*
X206288Y373931D01*
X206327Y373851D01*
X206363Y373769D01*
X206396Y373686D01*
X206424Y373601D01*
X206449Y373516D01*
X206471Y373429D01*
X206488Y373341D01*
X206501Y373253D01*
X206511Y373164D01*
X206517Y373075D01*
X206519Y372986D01*
X206517Y372897D01*
X206511Y372808D01*
X206501Y372719D01*
X206488Y372631D01*
X206471Y372543D01*
X206449Y372456D01*
X206424Y372371D01*
X206396Y372286D01*
X206363Y372203D01*
X206327Y372121D01*
X206288Y372041D01*
X206245Y371963D01*
X206199Y371887D01*
X206149Y371812D01*
X206096Y371740D01*
X206040Y371671D01*
X205981Y371604D01*
X205920Y371539D01*
X205855Y371478D01*
X205788Y371419D01*
X205719Y371363D01*
X205647Y371310D01*
X205572Y371260D01*
X205496Y371214D01*
X205418Y371171D01*
X205338Y371132D01*
X205256Y371096D01*
X205173Y371063D01*
X205088Y371035D01*
X205003Y371010D01*
X204916Y370988D01*
X204828Y370971D01*
X204740Y370958D01*
X204651Y370948D01*
X204562Y370942D01*
X204473Y370940D01*
X200790Y371349D02*
X200711Y371351D01*
X200632Y371357D01*
X200553Y371366D01*
X200475Y371379D01*
X200398Y371397D01*
X200322Y371417D01*
X200247Y371442D01*
X200173Y371470D01*
X200100Y371501D01*
X200029Y371537D01*
X199960Y371575D01*
X199893Y371617D01*
X199828Y371662D01*
X199765Y371710D01*
X199704Y371761D01*
X199647Y371815D01*
X199591Y371871D01*
X199539Y371930D01*
X199489Y371992D01*
X199443Y372056D01*
X199399Y372122D01*
X199359Y372190D01*
X199323Y372260D01*
X199289Y372332D01*
X199259Y372406D01*
X199233Y372480D01*
X199210Y372556D01*
X199192Y372633D01*
X199176Y372710D01*
X199165Y372789D01*
X199157Y372867D01*
X199153Y372946D01*
X199153Y373026D01*
X199157Y373105D01*
X199165Y373183D01*
X199176Y373262D01*
X199192Y373339D01*
X199210Y373416D01*
X199233Y373492D01*
X199259Y373566D01*
X199289Y373640D01*
X199323Y373712D01*
X199359Y373782D01*
X199399Y373850D01*
X199443Y373916D01*
X199489Y373980D01*
X199539Y374042D01*
X199591Y374101D01*
X199647Y374157D01*
X199704Y374211D01*
X199765Y374262D01*
X199828Y374310D01*
X199893Y374355D01*
X199960Y374397D01*
X200029Y374435D01*
X200100Y374471D01*
X200173Y374502D01*
X200247Y374530D01*
X200322Y374555D01*
X200398Y374575D01*
X200475Y374593D01*
X200553Y374606D01*
X200632Y374615D01*
X200711Y374621D01*
X200790Y374623D01*
X200869Y374621D01*
X200948Y374615D01*
X201027Y374606D01*
X201105Y374593D01*
X201182Y374575D01*
X201258Y374555D01*
X201333Y374530D01*
X201407Y374502D01*
X201480Y374471D01*
X201551Y374435D01*
X201620Y374397D01*
X201687Y374355D01*
X201752Y374310D01*
X201815Y374262D01*
X201876Y374211D01*
X201933Y374157D01*
X201989Y374101D01*
X202041Y374042D01*
X202091Y373980D01*
X202137Y373916D01*
X202181Y373850D01*
X202221Y373782D01*
X202257Y373712D01*
X202291Y373640D01*
X202321Y373566D01*
X202347Y373492D01*
X202370Y373416D01*
X202388Y373339D01*
X202404Y373262D01*
X202415Y373183D01*
X202423Y373105D01*
X202427Y373026D01*
X202427Y372946D01*
X202423Y372867D01*
X202415Y372789D01*
X202404Y372710D01*
X202388Y372633D01*
X202370Y372556D01*
X202347Y372480D01*
X202321Y372406D01*
X202291Y372332D01*
X202257Y372260D01*
X202221Y372190D01*
X202181Y372122D01*
X202137Y372056D01*
X202091Y371992D01*
X202041Y371930D01*
X201989Y371871D01*
X201933Y371815D01*
X201876Y371761D01*
X201815Y371710D01*
X201752Y371662D01*
X201687Y371617D01*
X201620Y371575D01*
X201551Y371537D01*
X201480Y371501D01*
X201407Y371470D01*
X201333Y371442D01*
X201258Y371417D01*
X201182Y371397D01*
X201105Y371379D01*
X201027Y371366D01*
X200948Y371357D01*
X200869Y371351D01*
X200790Y371349D01*
D12*
X299720Y388620D02*
X299720Y424180D01*
X299720Y388620D02*
X284480Y388620D01*
X284480Y424180D01*
X299720Y424180D01*
D13*
X302227Y411377D02*
X306037Y411377D01*
X302227Y411377D02*
X302227Y412435D01*
X302229Y412499D01*
X302235Y412563D01*
X302244Y412626D01*
X302258Y412688D01*
X302275Y412750D01*
X302296Y412810D01*
X302320Y412869D01*
X302348Y412927D01*
X302380Y412982D01*
X302414Y413036D01*
X302452Y413087D01*
X302493Y413137D01*
X302537Y413183D01*
X302583Y413227D01*
X302633Y413268D01*
X302684Y413306D01*
X302738Y413340D01*
X302793Y413372D01*
X302851Y413400D01*
X302910Y413424D01*
X302970Y413445D01*
X303032Y413462D01*
X303094Y413476D01*
X303158Y413485D01*
X303221Y413491D01*
X303285Y413493D01*
X303285Y413494D02*
X304979Y413494D01*
X304979Y413493D02*
X305043Y413491D01*
X305107Y413485D01*
X305170Y413476D01*
X305232Y413462D01*
X305294Y413445D01*
X305354Y413424D01*
X305413Y413400D01*
X305471Y413372D01*
X305526Y413340D01*
X305580Y413306D01*
X305631Y413268D01*
X305681Y413227D01*
X305727Y413183D01*
X305771Y413137D01*
X305812Y413087D01*
X305850Y413036D01*
X305884Y412982D01*
X305916Y412927D01*
X305944Y412869D01*
X305968Y412810D01*
X305989Y412750D01*
X306006Y412688D01*
X306020Y412626D01*
X306029Y412563D01*
X306035Y412499D01*
X306037Y412435D01*
X306037Y411377D01*
X304344Y416003D02*
X304344Y417273D01*
X304344Y416003D02*
X304342Y415948D01*
X304337Y415892D01*
X304328Y415838D01*
X304315Y415784D01*
X304299Y415731D01*
X304280Y415679D01*
X304257Y415628D01*
X304231Y415579D01*
X304201Y415532D01*
X304169Y415487D01*
X304134Y415445D01*
X304096Y415404D01*
X304055Y415366D01*
X304013Y415331D01*
X303968Y415299D01*
X303920Y415269D01*
X303872Y415243D01*
X303821Y415220D01*
X303769Y415201D01*
X303716Y415185D01*
X303662Y415172D01*
X303608Y415163D01*
X303552Y415158D01*
X303497Y415156D01*
X303285Y415156D01*
X303285Y415157D02*
X303221Y415159D01*
X303157Y415165D01*
X303094Y415174D01*
X303032Y415188D01*
X302970Y415205D01*
X302910Y415226D01*
X302851Y415250D01*
X302793Y415278D01*
X302738Y415310D01*
X302684Y415344D01*
X302633Y415382D01*
X302583Y415423D01*
X302537Y415467D01*
X302493Y415513D01*
X302452Y415563D01*
X302414Y415614D01*
X302380Y415668D01*
X302348Y415723D01*
X302320Y415781D01*
X302296Y415840D01*
X302275Y415900D01*
X302258Y415962D01*
X302244Y416024D01*
X302235Y416087D01*
X302229Y416151D01*
X302227Y416215D01*
X302229Y416279D01*
X302235Y416343D01*
X302244Y416406D01*
X302258Y416468D01*
X302275Y416530D01*
X302296Y416590D01*
X302320Y416649D01*
X302348Y416707D01*
X302380Y416762D01*
X302414Y416816D01*
X302452Y416867D01*
X302493Y416917D01*
X302537Y416963D01*
X302583Y417007D01*
X302633Y417048D01*
X302684Y417086D01*
X302738Y417120D01*
X302793Y417152D01*
X302851Y417180D01*
X302910Y417204D01*
X302970Y417225D01*
X303032Y417242D01*
X303094Y417256D01*
X303157Y417265D01*
X303221Y417271D01*
X303285Y417273D01*
X304344Y417273D01*
X304425Y417271D01*
X304505Y417265D01*
X304585Y417256D01*
X304664Y417242D01*
X304743Y417225D01*
X304821Y417204D01*
X304898Y417180D01*
X304973Y417152D01*
X305047Y417120D01*
X305120Y417085D01*
X305191Y417046D01*
X305259Y417004D01*
X305326Y416959D01*
X305391Y416911D01*
X305453Y416859D01*
X305512Y416805D01*
X305569Y416748D01*
X305623Y416689D01*
X305675Y416627D01*
X305723Y416562D01*
X305768Y416495D01*
X305810Y416427D01*
X305849Y416356D01*
X305884Y416283D01*
X305916Y416209D01*
X305944Y416134D01*
X305968Y416057D01*
X305989Y415979D01*
X306006Y415900D01*
X306020Y415821D01*
X306029Y415741D01*
X306035Y415661D01*
X306037Y415580D01*
D15*
X501650Y508000D02*
X514350Y508000D01*
X514350Y279400D02*
X501650Y279400D01*
D16*
X112268Y318008D02*
X112268Y329692D01*
X115514Y329692D01*
X115627Y329690D01*
X115740Y329684D01*
X115853Y329674D01*
X115966Y329660D01*
X116078Y329643D01*
X116189Y329621D01*
X116299Y329596D01*
X116409Y329566D01*
X116517Y329533D01*
X116624Y329496D01*
X116730Y329456D01*
X116834Y329411D01*
X116937Y329363D01*
X117038Y329312D01*
X117137Y329257D01*
X117234Y329199D01*
X117329Y329137D01*
X117422Y329072D01*
X117512Y329004D01*
X117600Y328933D01*
X117686Y328858D01*
X117769Y328781D01*
X117849Y328701D01*
X117926Y328618D01*
X118001Y328532D01*
X118072Y328444D01*
X118140Y328354D01*
X118205Y328261D01*
X118267Y328166D01*
X118325Y328069D01*
X118380Y327970D01*
X118431Y327869D01*
X118479Y327766D01*
X118524Y327662D01*
X118564Y327556D01*
X118601Y327449D01*
X118634Y327341D01*
X118664Y327231D01*
X118689Y327121D01*
X118711Y327010D01*
X118728Y326898D01*
X118742Y326785D01*
X118752Y326672D01*
X118758Y326559D01*
X118760Y326446D01*
X118758Y326333D01*
X118752Y326220D01*
X118742Y326107D01*
X118728Y325994D01*
X118711Y325882D01*
X118689Y325771D01*
X118664Y325661D01*
X118634Y325551D01*
X118601Y325443D01*
X118564Y325336D01*
X118524Y325230D01*
X118479Y325126D01*
X118431Y325023D01*
X118380Y324922D01*
X118325Y324823D01*
X118267Y324726D01*
X118205Y324631D01*
X118140Y324538D01*
X118072Y324448D01*
X118001Y324360D01*
X117926Y324274D01*
X117849Y324191D01*
X117769Y324111D01*
X117686Y324034D01*
X117600Y323959D01*
X117512Y323888D01*
X117422Y323820D01*
X117329Y323755D01*
X117234Y323693D01*
X117137Y323635D01*
X117038Y323580D01*
X116937Y323529D01*
X116834Y323481D01*
X116730Y323436D01*
X116624Y323396D01*
X116517Y323359D01*
X116409Y323326D01*
X116299Y323296D01*
X116189Y323271D01*
X116078Y323249D01*
X115966Y323232D01*
X115853Y323218D01*
X115740Y323208D01*
X115627Y323202D01*
X115514Y323200D01*
X115514Y323201D02*
X112268Y323201D01*
X116163Y323201D02*
X118759Y318008D01*
X123624Y327096D02*
X126870Y329692D01*
X126870Y318008D01*
X130115Y318008D02*
X123624Y318008D01*
X95758Y394208D02*
X95758Y405892D01*
X99004Y405892D01*
X99117Y405890D01*
X99230Y405884D01*
X99343Y405874D01*
X99456Y405860D01*
X99568Y405843D01*
X99679Y405821D01*
X99789Y405796D01*
X99899Y405766D01*
X100007Y405733D01*
X100114Y405696D01*
X100220Y405656D01*
X100324Y405611D01*
X100427Y405563D01*
X100528Y405512D01*
X100627Y405457D01*
X100724Y405399D01*
X100819Y405337D01*
X100912Y405272D01*
X101002Y405204D01*
X101090Y405133D01*
X101176Y405058D01*
X101259Y404981D01*
X101339Y404901D01*
X101416Y404818D01*
X101491Y404732D01*
X101562Y404644D01*
X101630Y404554D01*
X101695Y404461D01*
X101757Y404366D01*
X101815Y404269D01*
X101870Y404170D01*
X101921Y404069D01*
X101969Y403966D01*
X102014Y403862D01*
X102054Y403756D01*
X102091Y403649D01*
X102124Y403541D01*
X102154Y403431D01*
X102179Y403321D01*
X102201Y403210D01*
X102218Y403098D01*
X102232Y402985D01*
X102242Y402872D01*
X102248Y402759D01*
X102250Y402646D01*
X102248Y402533D01*
X102242Y402420D01*
X102232Y402307D01*
X102218Y402194D01*
X102201Y402082D01*
X102179Y401971D01*
X102154Y401861D01*
X102124Y401751D01*
X102091Y401643D01*
X102054Y401536D01*
X102014Y401430D01*
X101969Y401326D01*
X101921Y401223D01*
X101870Y401122D01*
X101815Y401023D01*
X101757Y400926D01*
X101695Y400831D01*
X101630Y400738D01*
X101562Y400648D01*
X101491Y400560D01*
X101416Y400474D01*
X101339Y400391D01*
X101259Y400311D01*
X101176Y400234D01*
X101090Y400159D01*
X101002Y400088D01*
X100912Y400020D01*
X100819Y399955D01*
X100724Y399893D01*
X100627Y399835D01*
X100528Y399780D01*
X100427Y399729D01*
X100324Y399681D01*
X100220Y399636D01*
X100114Y399596D01*
X100007Y399559D01*
X99899Y399526D01*
X99789Y399496D01*
X99679Y399471D01*
X99568Y399449D01*
X99456Y399432D01*
X99343Y399418D01*
X99230Y399408D01*
X99117Y399402D01*
X99004Y399400D01*
X99004Y399401D02*
X95758Y399401D01*
X99653Y399401D02*
X102249Y394208D01*
X107114Y403296D02*
X110360Y405892D01*
X110360Y394208D01*
X113605Y394208D02*
X107114Y394208D01*
X118545Y400050D02*
X118548Y400280D01*
X118556Y400510D01*
X118570Y400739D01*
X118589Y400968D01*
X118614Y401197D01*
X118644Y401424D01*
X118679Y401652D01*
X118720Y401878D01*
X118766Y402103D01*
X118818Y402327D01*
X118875Y402549D01*
X118937Y402771D01*
X119005Y402990D01*
X119078Y403208D01*
X119156Y403425D01*
X119239Y403639D01*
X119327Y403851D01*
X119420Y404061D01*
X119519Y404269D01*
X119518Y404269D02*
X119551Y404359D01*
X119587Y404448D01*
X119627Y404536D01*
X119671Y404621D01*
X119718Y404705D01*
X119768Y404787D01*
X119822Y404867D01*
X119878Y404944D01*
X119938Y405020D01*
X120001Y405093D01*
X120066Y405163D01*
X120135Y405231D01*
X120206Y405295D01*
X120279Y405357D01*
X120355Y405416D01*
X120433Y405472D01*
X120514Y405525D01*
X120596Y405574D01*
X120680Y405620D01*
X120767Y405663D01*
X120854Y405702D01*
X120944Y405738D01*
X121034Y405770D01*
X121126Y405798D01*
X121219Y405823D01*
X121313Y405844D01*
X121407Y405861D01*
X121502Y405875D01*
X121598Y405884D01*
X121694Y405890D01*
X121790Y405892D01*
X121886Y405890D01*
X121982Y405884D01*
X122078Y405875D01*
X122173Y405861D01*
X122267Y405844D01*
X122361Y405823D01*
X122454Y405798D01*
X122546Y405770D01*
X122636Y405738D01*
X122726Y405702D01*
X122813Y405663D01*
X122900Y405620D01*
X122984Y405574D01*
X123066Y405525D01*
X123147Y405472D01*
X123225Y405416D01*
X123301Y405357D01*
X123374Y405295D01*
X123445Y405231D01*
X123514Y405163D01*
X123579Y405093D01*
X123642Y405020D01*
X123702Y404944D01*
X123758Y404867D01*
X123812Y404787D01*
X123862Y404705D01*
X123909Y404621D01*
X123953Y404536D01*
X123993Y404448D01*
X124029Y404359D01*
X124062Y404269D01*
X124161Y404062D01*
X124254Y403852D01*
X124342Y403639D01*
X124425Y403425D01*
X124503Y403209D01*
X124576Y402991D01*
X124644Y402771D01*
X124706Y402550D01*
X124763Y402327D01*
X124815Y402103D01*
X124861Y401878D01*
X124902Y401652D01*
X124937Y401425D01*
X124967Y401197D01*
X124992Y400968D01*
X125011Y400739D01*
X125025Y400510D01*
X125033Y400280D01*
X125036Y400050D01*
X118544Y400050D02*
X118547Y399820D01*
X118555Y399590D01*
X118569Y399361D01*
X118588Y399132D01*
X118613Y398903D01*
X118643Y398675D01*
X118678Y398448D01*
X118719Y398222D01*
X118765Y397997D01*
X118817Y397773D01*
X118874Y397550D01*
X118936Y397329D01*
X119004Y397109D01*
X119077Y396891D01*
X119155Y396675D01*
X119238Y396461D01*
X119326Y396249D01*
X119419Y396038D01*
X119518Y395831D01*
X119551Y395741D01*
X119587Y395652D01*
X119628Y395564D01*
X119671Y395479D01*
X119718Y395395D01*
X119768Y395313D01*
X119822Y395233D01*
X119878Y395156D01*
X119938Y395080D01*
X120001Y395007D01*
X120066Y394937D01*
X120135Y394869D01*
X120206Y394805D01*
X120279Y394743D01*
X120355Y394684D01*
X120433Y394628D01*
X120514Y394575D01*
X120596Y394526D01*
X120680Y394480D01*
X120767Y394437D01*
X120854Y394398D01*
X120944Y394362D01*
X121034Y394330D01*
X121126Y394302D01*
X121219Y394277D01*
X121313Y394256D01*
X121407Y394239D01*
X121502Y394225D01*
X121598Y394216D01*
X121694Y394210D01*
X121790Y394208D01*
X124062Y395831D02*
X124161Y396038D01*
X124254Y396249D01*
X124342Y396461D01*
X124425Y396675D01*
X124503Y396891D01*
X124576Y397109D01*
X124644Y397329D01*
X124706Y397550D01*
X124763Y397773D01*
X124815Y397997D01*
X124861Y398222D01*
X124902Y398448D01*
X124937Y398675D01*
X124967Y398903D01*
X124992Y399132D01*
X125011Y399361D01*
X125025Y399590D01*
X125033Y399820D01*
X125036Y400050D01*
X124062Y395831D02*
X124029Y395741D01*
X123993Y395652D01*
X123953Y395564D01*
X123909Y395479D01*
X123862Y395395D01*
X123812Y395313D01*
X123758Y395233D01*
X123702Y395156D01*
X123642Y395080D01*
X123579Y395007D01*
X123514Y394937D01*
X123445Y394869D01*
X123374Y394805D01*
X123301Y394743D01*
X123225Y394684D01*
X123147Y394628D01*
X123066Y394575D01*
X122984Y394526D01*
X122900Y394480D01*
X122813Y394437D01*
X122726Y394398D01*
X122636Y394362D01*
X122546Y394330D01*
X122454Y394302D01*
X122361Y394277D01*
X122267Y394256D01*
X122173Y394239D01*
X122078Y394225D01*
X121982Y394216D01*
X121886Y394210D01*
X121790Y394208D01*
X119193Y396804D02*
X124386Y403296D01*
D11*
X273304Y384485D02*
X278892Y384485D01*
X273304Y384485D02*
X273304Y386037D01*
X273306Y386114D01*
X273312Y386192D01*
X273321Y386268D01*
X273335Y386345D01*
X273352Y386420D01*
X273373Y386494D01*
X273398Y386568D01*
X273426Y386640D01*
X273458Y386710D01*
X273493Y386779D01*
X273532Y386846D01*
X273574Y386911D01*
X273619Y386974D01*
X273667Y387035D01*
X273718Y387093D01*
X273772Y387148D01*
X273829Y387201D01*
X273888Y387250D01*
X273950Y387297D01*
X274014Y387341D01*
X274080Y387381D01*
X274148Y387418D01*
X274218Y387452D01*
X274289Y387482D01*
X274362Y387508D01*
X274436Y387531D01*
X274511Y387550D01*
X274586Y387565D01*
X274663Y387577D01*
X274740Y387585D01*
X274817Y387589D01*
X274895Y387589D01*
X274972Y387585D01*
X275049Y387577D01*
X275126Y387565D01*
X275201Y387550D01*
X275276Y387531D01*
X275350Y387508D01*
X275423Y387482D01*
X275494Y387452D01*
X275564Y387418D01*
X275632Y387381D01*
X275698Y387341D01*
X275762Y387297D01*
X275824Y387250D01*
X275883Y387201D01*
X275940Y387148D01*
X275994Y387093D01*
X276045Y387035D01*
X276093Y386974D01*
X276138Y386911D01*
X276180Y386846D01*
X276219Y386779D01*
X276254Y386710D01*
X276286Y386640D01*
X276314Y386568D01*
X276339Y386494D01*
X276360Y386420D01*
X276377Y386345D01*
X276391Y386268D01*
X276400Y386192D01*
X276406Y386114D01*
X276408Y386037D01*
X276408Y384485D01*
X276408Y386348D02*
X278892Y387589D01*
X274546Y389935D02*
X273304Y391487D01*
X278892Y391487D01*
X278892Y389935D02*
X278892Y393040D01*
X274546Y395422D02*
X273304Y396974D01*
X278892Y396974D01*
X278892Y395422D02*
X278892Y398526D01*
D16*
X419608Y387858D02*
X431292Y387858D01*
X419608Y387858D02*
X419608Y391104D01*
X419610Y391217D01*
X419616Y391330D01*
X419626Y391443D01*
X419640Y391556D01*
X419657Y391668D01*
X419679Y391779D01*
X419704Y391889D01*
X419734Y391999D01*
X419767Y392107D01*
X419804Y392214D01*
X419844Y392320D01*
X419889Y392424D01*
X419937Y392527D01*
X419988Y392628D01*
X420043Y392727D01*
X420101Y392824D01*
X420163Y392919D01*
X420228Y393012D01*
X420296Y393102D01*
X420367Y393190D01*
X420442Y393276D01*
X420519Y393359D01*
X420599Y393439D01*
X420682Y393516D01*
X420768Y393591D01*
X420856Y393662D01*
X420946Y393730D01*
X421039Y393795D01*
X421134Y393857D01*
X421231Y393915D01*
X421330Y393970D01*
X421431Y394021D01*
X421534Y394069D01*
X421638Y394114D01*
X421744Y394154D01*
X421851Y394191D01*
X421959Y394224D01*
X422069Y394254D01*
X422179Y394279D01*
X422290Y394301D01*
X422402Y394318D01*
X422515Y394332D01*
X422628Y394342D01*
X422741Y394348D01*
X422854Y394350D01*
X422967Y394348D01*
X423080Y394342D01*
X423193Y394332D01*
X423306Y394318D01*
X423418Y394301D01*
X423529Y394279D01*
X423639Y394254D01*
X423749Y394224D01*
X423857Y394191D01*
X423964Y394154D01*
X424070Y394114D01*
X424174Y394069D01*
X424277Y394021D01*
X424378Y393970D01*
X424477Y393915D01*
X424574Y393857D01*
X424669Y393795D01*
X424762Y393730D01*
X424852Y393662D01*
X424940Y393591D01*
X425026Y393516D01*
X425109Y393439D01*
X425189Y393359D01*
X425266Y393276D01*
X425341Y393190D01*
X425412Y393102D01*
X425480Y393012D01*
X425545Y392919D01*
X425607Y392824D01*
X425665Y392727D01*
X425720Y392628D01*
X425771Y392527D01*
X425819Y392424D01*
X425864Y392320D01*
X425904Y392214D01*
X425941Y392107D01*
X425974Y391999D01*
X426004Y391889D01*
X426029Y391779D01*
X426051Y391668D01*
X426068Y391556D01*
X426082Y391443D01*
X426092Y391330D01*
X426098Y391217D01*
X426100Y391104D01*
X426099Y391104D02*
X426099Y387858D01*
X426099Y391753D02*
X431292Y394349D01*
X422204Y399214D02*
X419608Y402460D01*
X431292Y402460D01*
X431292Y405705D02*
X431292Y399214D01*
X419608Y414214D02*
X419610Y414321D01*
X419616Y414427D01*
X419626Y414533D01*
X419639Y414639D01*
X419657Y414745D01*
X419678Y414849D01*
X419703Y414953D01*
X419732Y415056D01*
X419764Y415157D01*
X419801Y415257D01*
X419841Y415356D01*
X419884Y415454D01*
X419931Y415550D01*
X419982Y415644D01*
X420036Y415736D01*
X420093Y415826D01*
X420153Y415914D01*
X420217Y415999D01*
X420284Y416082D01*
X420354Y416163D01*
X420426Y416241D01*
X420502Y416317D01*
X420580Y416389D01*
X420661Y416459D01*
X420744Y416526D01*
X420829Y416590D01*
X420917Y416650D01*
X421007Y416707D01*
X421099Y416761D01*
X421193Y416812D01*
X421289Y416859D01*
X421387Y416902D01*
X421486Y416942D01*
X421586Y416979D01*
X421687Y417011D01*
X421790Y417040D01*
X421894Y417065D01*
X421998Y417086D01*
X422104Y417104D01*
X422210Y417117D01*
X422316Y417127D01*
X422422Y417133D01*
X422529Y417135D01*
X419608Y414214D02*
X419610Y414093D01*
X419616Y413972D01*
X419626Y413852D01*
X419639Y413731D01*
X419657Y413612D01*
X419678Y413492D01*
X419703Y413374D01*
X419732Y413257D01*
X419765Y413140D01*
X419801Y413025D01*
X419842Y412911D01*
X419885Y412798D01*
X419933Y412686D01*
X419984Y412577D01*
X420039Y412469D01*
X420097Y412362D01*
X420158Y412258D01*
X420223Y412156D01*
X420291Y412056D01*
X420362Y411958D01*
X420436Y411862D01*
X420513Y411769D01*
X420594Y411679D01*
X420677Y411591D01*
X420763Y411506D01*
X420852Y411423D01*
X420943Y411344D01*
X421037Y411267D01*
X421133Y411194D01*
X421231Y411124D01*
X421332Y411057D01*
X421435Y410993D01*
X421540Y410933D01*
X421647Y410875D01*
X421755Y410822D01*
X421865Y410772D01*
X421977Y410726D01*
X422090Y410683D01*
X422205Y410644D01*
X424801Y416161D02*
X424723Y416240D01*
X424643Y416316D01*
X424560Y416389D01*
X424474Y416459D01*
X424387Y416526D01*
X424296Y416590D01*
X424204Y416650D01*
X424110Y416708D01*
X424013Y416762D01*
X423915Y416812D01*
X423815Y416859D01*
X423714Y416903D01*
X423611Y416943D01*
X423506Y416979D01*
X423401Y417011D01*
X423294Y417040D01*
X423187Y417065D01*
X423078Y417087D01*
X422969Y417104D01*
X422860Y417118D01*
X422750Y417127D01*
X422639Y417133D01*
X422529Y417135D01*
X424801Y416162D02*
X431292Y410644D01*
X431292Y417135D01*
X95758Y419608D02*
X95758Y431292D01*
X99004Y431292D01*
X99117Y431290D01*
X99230Y431284D01*
X99343Y431274D01*
X99456Y431260D01*
X99568Y431243D01*
X99679Y431221D01*
X99789Y431196D01*
X99899Y431166D01*
X100007Y431133D01*
X100114Y431096D01*
X100220Y431056D01*
X100324Y431011D01*
X100427Y430963D01*
X100528Y430912D01*
X100627Y430857D01*
X100724Y430799D01*
X100819Y430737D01*
X100912Y430672D01*
X101002Y430604D01*
X101090Y430533D01*
X101176Y430458D01*
X101259Y430381D01*
X101339Y430301D01*
X101416Y430218D01*
X101491Y430132D01*
X101562Y430044D01*
X101630Y429954D01*
X101695Y429861D01*
X101757Y429766D01*
X101815Y429669D01*
X101870Y429570D01*
X101921Y429469D01*
X101969Y429366D01*
X102014Y429262D01*
X102054Y429156D01*
X102091Y429049D01*
X102124Y428941D01*
X102154Y428831D01*
X102179Y428721D01*
X102201Y428610D01*
X102218Y428498D01*
X102232Y428385D01*
X102242Y428272D01*
X102248Y428159D01*
X102250Y428046D01*
X102248Y427933D01*
X102242Y427820D01*
X102232Y427707D01*
X102218Y427594D01*
X102201Y427482D01*
X102179Y427371D01*
X102154Y427261D01*
X102124Y427151D01*
X102091Y427043D01*
X102054Y426936D01*
X102014Y426830D01*
X101969Y426726D01*
X101921Y426623D01*
X101870Y426522D01*
X101815Y426423D01*
X101757Y426326D01*
X101695Y426231D01*
X101630Y426138D01*
X101562Y426048D01*
X101491Y425960D01*
X101416Y425874D01*
X101339Y425791D01*
X101259Y425711D01*
X101176Y425634D01*
X101090Y425559D01*
X101002Y425488D01*
X100912Y425420D01*
X100819Y425355D01*
X100724Y425293D01*
X100627Y425235D01*
X100528Y425180D01*
X100427Y425129D01*
X100324Y425081D01*
X100220Y425036D01*
X100114Y424996D01*
X100007Y424959D01*
X99899Y424926D01*
X99789Y424896D01*
X99679Y424871D01*
X99568Y424849D01*
X99456Y424832D01*
X99343Y424818D01*
X99230Y424808D01*
X99117Y424802D01*
X99004Y424800D01*
X99004Y424801D02*
X95758Y424801D01*
X99653Y424801D02*
X102249Y419608D01*
X107114Y428696D02*
X110360Y431292D01*
X110360Y419608D01*
X113605Y419608D02*
X107114Y419608D01*
X118544Y419608D02*
X121790Y419608D01*
X121903Y419610D01*
X122016Y419616D01*
X122129Y419626D01*
X122242Y419640D01*
X122354Y419657D01*
X122465Y419679D01*
X122575Y419704D01*
X122685Y419734D01*
X122793Y419767D01*
X122900Y419804D01*
X123006Y419844D01*
X123110Y419889D01*
X123213Y419937D01*
X123314Y419988D01*
X123413Y420043D01*
X123510Y420101D01*
X123605Y420163D01*
X123698Y420228D01*
X123788Y420296D01*
X123876Y420367D01*
X123962Y420442D01*
X124045Y420519D01*
X124125Y420599D01*
X124202Y420682D01*
X124277Y420768D01*
X124348Y420856D01*
X124416Y420946D01*
X124481Y421039D01*
X124543Y421134D01*
X124601Y421231D01*
X124656Y421330D01*
X124707Y421431D01*
X124755Y421534D01*
X124800Y421638D01*
X124840Y421744D01*
X124877Y421851D01*
X124910Y421959D01*
X124940Y422069D01*
X124965Y422179D01*
X124987Y422290D01*
X125004Y422402D01*
X125018Y422515D01*
X125028Y422628D01*
X125034Y422741D01*
X125036Y422854D01*
X125034Y422967D01*
X125028Y423080D01*
X125018Y423193D01*
X125004Y423306D01*
X124987Y423418D01*
X124965Y423529D01*
X124940Y423639D01*
X124910Y423749D01*
X124877Y423857D01*
X124840Y423964D01*
X124800Y424070D01*
X124755Y424174D01*
X124707Y424277D01*
X124656Y424378D01*
X124601Y424477D01*
X124543Y424574D01*
X124481Y424669D01*
X124416Y424762D01*
X124348Y424852D01*
X124277Y424940D01*
X124202Y425026D01*
X124125Y425109D01*
X124045Y425189D01*
X123962Y425266D01*
X123876Y425341D01*
X123788Y425412D01*
X123698Y425480D01*
X123605Y425545D01*
X123510Y425607D01*
X123413Y425665D01*
X123314Y425720D01*
X123213Y425771D01*
X123110Y425819D01*
X123006Y425864D01*
X122900Y425904D01*
X122793Y425941D01*
X122685Y425974D01*
X122575Y426004D01*
X122465Y426029D01*
X122354Y426051D01*
X122242Y426068D01*
X122129Y426082D01*
X122016Y426092D01*
X121903Y426098D01*
X121790Y426100D01*
X122439Y431292D02*
X118544Y431292D01*
X122439Y431292D02*
X122540Y431290D01*
X122640Y431284D01*
X122740Y431274D01*
X122840Y431261D01*
X122939Y431243D01*
X123038Y431222D01*
X123135Y431197D01*
X123232Y431168D01*
X123327Y431135D01*
X123421Y431099D01*
X123513Y431059D01*
X123604Y431016D01*
X123693Y430969D01*
X123780Y430919D01*
X123866Y430865D01*
X123949Y430808D01*
X124029Y430748D01*
X124108Y430685D01*
X124184Y430618D01*
X124257Y430549D01*
X124327Y430477D01*
X124395Y430403D01*
X124460Y430326D01*
X124521Y430246D01*
X124580Y430164D01*
X124635Y430080D01*
X124687Y429994D01*
X124736Y429906D01*
X124781Y429816D01*
X124823Y429724D01*
X124861Y429631D01*
X124895Y429536D01*
X124926Y429441D01*
X124953Y429344D01*
X124976Y429246D01*
X124996Y429147D01*
X125011Y429047D01*
X125023Y428947D01*
X125031Y428847D01*
X125035Y428746D01*
X125035Y428646D01*
X125031Y428545D01*
X125023Y428445D01*
X125011Y428345D01*
X124996Y428245D01*
X124976Y428146D01*
X124953Y428048D01*
X124926Y427951D01*
X124895Y427856D01*
X124861Y427761D01*
X124823Y427668D01*
X124781Y427576D01*
X124736Y427486D01*
X124687Y427398D01*
X124635Y427312D01*
X124580Y427228D01*
X124521Y427146D01*
X124460Y427066D01*
X124395Y426989D01*
X124327Y426915D01*
X124257Y426843D01*
X124184Y426774D01*
X124108Y426707D01*
X124029Y426644D01*
X123949Y426584D01*
X123866Y426527D01*
X123780Y426473D01*
X123693Y426423D01*
X123604Y426376D01*
X123513Y426333D01*
X123421Y426293D01*
X123327Y426257D01*
X123232Y426224D01*
X123135Y426195D01*
X123038Y426170D01*
X122939Y426149D01*
X122840Y426131D01*
X122740Y426118D01*
X122640Y426108D01*
X122540Y426102D01*
X122439Y426100D01*
X122439Y426099D02*
X119843Y426099D01*
D11*
X273304Y411155D02*
X278892Y411155D01*
X273304Y411155D02*
X273304Y412707D01*
X273306Y412784D01*
X273312Y412862D01*
X273321Y412938D01*
X273335Y413015D01*
X273352Y413090D01*
X273373Y413164D01*
X273398Y413238D01*
X273426Y413310D01*
X273458Y413380D01*
X273493Y413449D01*
X273532Y413516D01*
X273574Y413581D01*
X273619Y413644D01*
X273667Y413705D01*
X273718Y413763D01*
X273772Y413818D01*
X273829Y413871D01*
X273888Y413920D01*
X273950Y413967D01*
X274014Y414011D01*
X274080Y414051D01*
X274148Y414088D01*
X274218Y414122D01*
X274289Y414152D01*
X274362Y414178D01*
X274436Y414201D01*
X274511Y414220D01*
X274586Y414235D01*
X274663Y414247D01*
X274740Y414255D01*
X274817Y414259D01*
X274895Y414259D01*
X274972Y414255D01*
X275049Y414247D01*
X275126Y414235D01*
X275201Y414220D01*
X275276Y414201D01*
X275350Y414178D01*
X275423Y414152D01*
X275494Y414122D01*
X275564Y414088D01*
X275632Y414051D01*
X275698Y414011D01*
X275762Y413967D01*
X275824Y413920D01*
X275883Y413871D01*
X275940Y413818D01*
X275994Y413763D01*
X276045Y413705D01*
X276093Y413644D01*
X276138Y413581D01*
X276180Y413516D01*
X276219Y413449D01*
X276254Y413380D01*
X276286Y413310D01*
X276314Y413238D01*
X276339Y413164D01*
X276360Y413090D01*
X276377Y413015D01*
X276391Y412938D01*
X276400Y412862D01*
X276406Y412784D01*
X276408Y412707D01*
X276408Y411155D01*
X276408Y413018D02*
X278892Y414259D01*
X274546Y416605D02*
X273304Y418157D01*
X278892Y418157D01*
X278892Y416605D02*
X278892Y419710D01*
X277650Y422092D02*
X273304Y423333D01*
X277650Y422092D02*
X277650Y425196D01*
X276408Y424265D02*
X278892Y424265D01*
D16*
X330708Y400558D02*
X342392Y400558D01*
X330708Y400558D02*
X330708Y403804D01*
X330710Y403917D01*
X330716Y404030D01*
X330726Y404143D01*
X330740Y404256D01*
X330757Y404368D01*
X330779Y404479D01*
X330804Y404589D01*
X330834Y404699D01*
X330867Y404807D01*
X330904Y404914D01*
X330944Y405020D01*
X330989Y405124D01*
X331037Y405227D01*
X331088Y405328D01*
X331143Y405427D01*
X331201Y405524D01*
X331263Y405619D01*
X331328Y405712D01*
X331396Y405802D01*
X331467Y405890D01*
X331542Y405976D01*
X331619Y406059D01*
X331699Y406139D01*
X331782Y406216D01*
X331868Y406291D01*
X331956Y406362D01*
X332046Y406430D01*
X332139Y406495D01*
X332234Y406557D01*
X332331Y406615D01*
X332430Y406670D01*
X332531Y406721D01*
X332634Y406769D01*
X332738Y406814D01*
X332844Y406854D01*
X332951Y406891D01*
X333059Y406924D01*
X333169Y406954D01*
X333279Y406979D01*
X333390Y407001D01*
X333502Y407018D01*
X333615Y407032D01*
X333728Y407042D01*
X333841Y407048D01*
X333954Y407050D01*
X334067Y407048D01*
X334180Y407042D01*
X334293Y407032D01*
X334406Y407018D01*
X334518Y407001D01*
X334629Y406979D01*
X334739Y406954D01*
X334849Y406924D01*
X334957Y406891D01*
X335064Y406854D01*
X335170Y406814D01*
X335274Y406769D01*
X335377Y406721D01*
X335478Y406670D01*
X335577Y406615D01*
X335674Y406557D01*
X335769Y406495D01*
X335862Y406430D01*
X335952Y406362D01*
X336040Y406291D01*
X336126Y406216D01*
X336209Y406139D01*
X336289Y406059D01*
X336366Y405976D01*
X336441Y405890D01*
X336512Y405802D01*
X336580Y405712D01*
X336645Y405619D01*
X336707Y405524D01*
X336765Y405427D01*
X336820Y405328D01*
X336871Y405227D01*
X336919Y405124D01*
X336964Y405020D01*
X337004Y404914D01*
X337041Y404807D01*
X337074Y404699D01*
X337104Y404589D01*
X337129Y404479D01*
X337151Y404368D01*
X337168Y404256D01*
X337182Y404143D01*
X337192Y404030D01*
X337198Y403917D01*
X337200Y403804D01*
X337199Y403804D02*
X337199Y400558D01*
X337199Y404453D02*
X342392Y407049D01*
X333304Y411914D02*
X330708Y415160D01*
X342392Y415160D01*
X342392Y418405D02*
X342392Y411914D01*
X342392Y423344D02*
X342392Y427239D01*
X342390Y427338D01*
X342384Y427438D01*
X342375Y427537D01*
X342362Y427635D01*
X342345Y427733D01*
X342324Y427831D01*
X342299Y427927D01*
X342271Y428022D01*
X342239Y428116D01*
X342204Y428209D01*
X342165Y428301D01*
X342122Y428391D01*
X342077Y428479D01*
X342027Y428566D01*
X341975Y428650D01*
X341919Y428733D01*
X341861Y428813D01*
X341799Y428891D01*
X341734Y428966D01*
X341666Y429039D01*
X341596Y429109D01*
X341523Y429177D01*
X341448Y429242D01*
X341370Y429304D01*
X341290Y429362D01*
X341207Y429418D01*
X341123Y429470D01*
X341036Y429520D01*
X340948Y429565D01*
X340858Y429608D01*
X340766Y429647D01*
X340673Y429682D01*
X340579Y429714D01*
X340484Y429742D01*
X340388Y429767D01*
X340290Y429788D01*
X340192Y429805D01*
X340094Y429818D01*
X339995Y429827D01*
X339895Y429833D01*
X339796Y429835D01*
X338497Y429835D01*
X338398Y429833D01*
X338298Y429827D01*
X338199Y429818D01*
X338101Y429805D01*
X338003Y429788D01*
X337905Y429767D01*
X337809Y429742D01*
X337714Y429714D01*
X337620Y429682D01*
X337527Y429647D01*
X337435Y429608D01*
X337345Y429565D01*
X337257Y429520D01*
X337170Y429470D01*
X337086Y429418D01*
X337003Y429362D01*
X336923Y429304D01*
X336845Y429242D01*
X336770Y429177D01*
X336697Y429109D01*
X336627Y429039D01*
X336559Y428966D01*
X336494Y428891D01*
X336432Y428813D01*
X336374Y428733D01*
X336318Y428650D01*
X336266Y428566D01*
X336216Y428479D01*
X336171Y428391D01*
X336128Y428301D01*
X336089Y428209D01*
X336054Y428116D01*
X336022Y428022D01*
X335994Y427927D01*
X335969Y427831D01*
X335948Y427733D01*
X335931Y427635D01*
X335918Y427537D01*
X335909Y427438D01*
X335903Y427338D01*
X335901Y427239D01*
X335901Y423344D01*
X330708Y423344D01*
X330708Y429835D01*
X95758Y445008D02*
X95758Y456692D01*
X99004Y456692D01*
X99117Y456690D01*
X99230Y456684D01*
X99343Y456674D01*
X99456Y456660D01*
X99568Y456643D01*
X99679Y456621D01*
X99789Y456596D01*
X99899Y456566D01*
X100007Y456533D01*
X100114Y456496D01*
X100220Y456456D01*
X100324Y456411D01*
X100427Y456363D01*
X100528Y456312D01*
X100627Y456257D01*
X100724Y456199D01*
X100819Y456137D01*
X100912Y456072D01*
X101002Y456004D01*
X101090Y455933D01*
X101176Y455858D01*
X101259Y455781D01*
X101339Y455701D01*
X101416Y455618D01*
X101491Y455532D01*
X101562Y455444D01*
X101630Y455354D01*
X101695Y455261D01*
X101757Y455166D01*
X101815Y455069D01*
X101870Y454970D01*
X101921Y454869D01*
X101969Y454766D01*
X102014Y454662D01*
X102054Y454556D01*
X102091Y454449D01*
X102124Y454341D01*
X102154Y454231D01*
X102179Y454121D01*
X102201Y454010D01*
X102218Y453898D01*
X102232Y453785D01*
X102242Y453672D01*
X102248Y453559D01*
X102250Y453446D01*
X102248Y453333D01*
X102242Y453220D01*
X102232Y453107D01*
X102218Y452994D01*
X102201Y452882D01*
X102179Y452771D01*
X102154Y452661D01*
X102124Y452551D01*
X102091Y452443D01*
X102054Y452336D01*
X102014Y452230D01*
X101969Y452126D01*
X101921Y452023D01*
X101870Y451922D01*
X101815Y451823D01*
X101757Y451726D01*
X101695Y451631D01*
X101630Y451538D01*
X101562Y451448D01*
X101491Y451360D01*
X101416Y451274D01*
X101339Y451191D01*
X101259Y451111D01*
X101176Y451034D01*
X101090Y450959D01*
X101002Y450888D01*
X100912Y450820D01*
X100819Y450755D01*
X100724Y450693D01*
X100627Y450635D01*
X100528Y450580D01*
X100427Y450529D01*
X100324Y450481D01*
X100220Y450436D01*
X100114Y450396D01*
X100007Y450359D01*
X99899Y450326D01*
X99789Y450296D01*
X99679Y450271D01*
X99568Y450249D01*
X99456Y450232D01*
X99343Y450218D01*
X99230Y450208D01*
X99117Y450202D01*
X99004Y450200D01*
X99004Y450201D02*
X95758Y450201D01*
X99653Y450201D02*
X102249Y445008D01*
X107114Y454096D02*
X110360Y456692D01*
X110360Y445008D01*
X113605Y445008D02*
X107114Y445008D01*
X118544Y451499D02*
X122439Y451499D01*
X122538Y451497D01*
X122638Y451491D01*
X122737Y451482D01*
X122835Y451469D01*
X122933Y451452D01*
X123031Y451431D01*
X123127Y451406D01*
X123222Y451378D01*
X123316Y451346D01*
X123409Y451311D01*
X123501Y451272D01*
X123591Y451229D01*
X123679Y451184D01*
X123766Y451134D01*
X123850Y451082D01*
X123933Y451026D01*
X124013Y450968D01*
X124091Y450906D01*
X124166Y450841D01*
X124239Y450773D01*
X124309Y450703D01*
X124377Y450630D01*
X124442Y450555D01*
X124504Y450477D01*
X124562Y450397D01*
X124618Y450314D01*
X124670Y450230D01*
X124720Y450143D01*
X124765Y450055D01*
X124808Y449965D01*
X124847Y449873D01*
X124882Y449780D01*
X124914Y449686D01*
X124942Y449591D01*
X124967Y449495D01*
X124988Y449397D01*
X125005Y449299D01*
X125018Y449201D01*
X125027Y449102D01*
X125033Y449002D01*
X125035Y448903D01*
X125035Y448254D01*
X125036Y448254D02*
X125034Y448141D01*
X125028Y448028D01*
X125018Y447915D01*
X125004Y447802D01*
X124987Y447690D01*
X124965Y447579D01*
X124940Y447469D01*
X124910Y447359D01*
X124877Y447251D01*
X124840Y447144D01*
X124800Y447038D01*
X124755Y446934D01*
X124707Y446831D01*
X124656Y446730D01*
X124601Y446631D01*
X124543Y446534D01*
X124481Y446439D01*
X124416Y446346D01*
X124348Y446256D01*
X124277Y446168D01*
X124202Y446082D01*
X124125Y445999D01*
X124045Y445919D01*
X123962Y445842D01*
X123876Y445767D01*
X123788Y445696D01*
X123698Y445628D01*
X123605Y445563D01*
X123510Y445501D01*
X123413Y445443D01*
X123314Y445388D01*
X123213Y445337D01*
X123110Y445289D01*
X123006Y445244D01*
X122900Y445204D01*
X122793Y445167D01*
X122685Y445134D01*
X122575Y445104D01*
X122465Y445079D01*
X122354Y445057D01*
X122242Y445040D01*
X122129Y445026D01*
X122016Y445016D01*
X121903Y445010D01*
X121790Y445008D01*
X121677Y445010D01*
X121564Y445016D01*
X121451Y445026D01*
X121338Y445040D01*
X121226Y445057D01*
X121115Y445079D01*
X121005Y445104D01*
X120895Y445134D01*
X120787Y445167D01*
X120680Y445204D01*
X120574Y445244D01*
X120470Y445289D01*
X120367Y445337D01*
X120266Y445388D01*
X120167Y445443D01*
X120070Y445501D01*
X119975Y445563D01*
X119882Y445628D01*
X119792Y445696D01*
X119704Y445767D01*
X119618Y445842D01*
X119535Y445919D01*
X119455Y445999D01*
X119378Y446082D01*
X119303Y446168D01*
X119232Y446256D01*
X119164Y446346D01*
X119099Y446439D01*
X119037Y446534D01*
X118979Y446631D01*
X118924Y446730D01*
X118873Y446831D01*
X118825Y446934D01*
X118780Y447038D01*
X118740Y447144D01*
X118703Y447251D01*
X118670Y447359D01*
X118640Y447469D01*
X118615Y447579D01*
X118593Y447690D01*
X118576Y447802D01*
X118562Y447915D01*
X118552Y448028D01*
X118546Y448141D01*
X118544Y448254D01*
X118544Y451499D01*
X118546Y451642D01*
X118552Y451785D01*
X118562Y451928D01*
X118576Y452070D01*
X118593Y452212D01*
X118615Y452354D01*
X118640Y452495D01*
X118670Y452635D01*
X118703Y452774D01*
X118740Y452912D01*
X118781Y453049D01*
X118825Y453185D01*
X118874Y453320D01*
X118926Y453453D01*
X118981Y453585D01*
X119041Y453715D01*
X119104Y453844D01*
X119170Y453971D01*
X119240Y454095D01*
X119313Y454218D01*
X119390Y454339D01*
X119470Y454458D01*
X119553Y454574D01*
X119639Y454689D01*
X119728Y454800D01*
X119821Y454910D01*
X119916Y455016D01*
X120015Y455120D01*
X120116Y455221D01*
X120220Y455320D01*
X120326Y455415D01*
X120436Y455508D01*
X120547Y455597D01*
X120662Y455683D01*
X120778Y455766D01*
X120897Y455846D01*
X121018Y455923D01*
X121140Y455996D01*
X121265Y456066D01*
X121392Y456132D01*
X121521Y456195D01*
X121651Y456255D01*
X121783Y456310D01*
X121916Y456362D01*
X122051Y456411D01*
X122187Y456455D01*
X122324Y456496D01*
X122462Y456533D01*
X122601Y456566D01*
X122741Y456596D01*
X122882Y456621D01*
X123024Y456643D01*
X123166Y456660D01*
X123308Y456674D01*
X123451Y456684D01*
X123594Y456690D01*
X123737Y456692D01*
D11*
X274574Y436555D02*
X280162Y436555D01*
X274574Y436555D02*
X274574Y438107D01*
X274576Y438184D01*
X274582Y438262D01*
X274591Y438338D01*
X274605Y438415D01*
X274622Y438490D01*
X274643Y438564D01*
X274668Y438638D01*
X274696Y438710D01*
X274728Y438780D01*
X274763Y438849D01*
X274802Y438916D01*
X274844Y438981D01*
X274889Y439044D01*
X274937Y439105D01*
X274988Y439163D01*
X275042Y439218D01*
X275099Y439271D01*
X275158Y439320D01*
X275220Y439367D01*
X275284Y439411D01*
X275350Y439451D01*
X275418Y439488D01*
X275488Y439522D01*
X275559Y439552D01*
X275632Y439578D01*
X275706Y439601D01*
X275781Y439620D01*
X275856Y439635D01*
X275933Y439647D01*
X276010Y439655D01*
X276087Y439659D01*
X276165Y439659D01*
X276242Y439655D01*
X276319Y439647D01*
X276396Y439635D01*
X276471Y439620D01*
X276546Y439601D01*
X276620Y439578D01*
X276693Y439552D01*
X276764Y439522D01*
X276834Y439488D01*
X276902Y439451D01*
X276968Y439411D01*
X277032Y439367D01*
X277094Y439320D01*
X277153Y439271D01*
X277210Y439218D01*
X277264Y439163D01*
X277315Y439105D01*
X277363Y439044D01*
X277408Y438981D01*
X277450Y438916D01*
X277489Y438849D01*
X277524Y438780D01*
X277556Y438710D01*
X277584Y438638D01*
X277609Y438564D01*
X277630Y438490D01*
X277647Y438415D01*
X277661Y438338D01*
X277670Y438262D01*
X277676Y438184D01*
X277678Y438107D01*
X277678Y436555D01*
X277678Y438418D02*
X280162Y439659D01*
X275816Y442005D02*
X274574Y443557D01*
X280162Y443557D01*
X280162Y442005D02*
X280162Y445110D01*
X275195Y447492D02*
X274574Y447492D01*
X274574Y450596D01*
X280162Y449044D01*
D16*
X419608Y438658D02*
X431292Y438658D01*
X419608Y438658D02*
X419608Y441904D01*
X419610Y442017D01*
X419616Y442130D01*
X419626Y442243D01*
X419640Y442356D01*
X419657Y442468D01*
X419679Y442579D01*
X419704Y442689D01*
X419734Y442799D01*
X419767Y442907D01*
X419804Y443014D01*
X419844Y443120D01*
X419889Y443224D01*
X419937Y443327D01*
X419988Y443428D01*
X420043Y443527D01*
X420101Y443624D01*
X420163Y443719D01*
X420228Y443812D01*
X420296Y443902D01*
X420367Y443990D01*
X420442Y444076D01*
X420519Y444159D01*
X420599Y444239D01*
X420682Y444316D01*
X420768Y444391D01*
X420856Y444462D01*
X420946Y444530D01*
X421039Y444595D01*
X421134Y444657D01*
X421231Y444715D01*
X421330Y444770D01*
X421431Y444821D01*
X421534Y444869D01*
X421638Y444914D01*
X421744Y444954D01*
X421851Y444991D01*
X421959Y445024D01*
X422069Y445054D01*
X422179Y445079D01*
X422290Y445101D01*
X422402Y445118D01*
X422515Y445132D01*
X422628Y445142D01*
X422741Y445148D01*
X422854Y445150D01*
X422967Y445148D01*
X423080Y445142D01*
X423193Y445132D01*
X423306Y445118D01*
X423418Y445101D01*
X423529Y445079D01*
X423639Y445054D01*
X423749Y445024D01*
X423857Y444991D01*
X423964Y444954D01*
X424070Y444914D01*
X424174Y444869D01*
X424277Y444821D01*
X424378Y444770D01*
X424477Y444715D01*
X424574Y444657D01*
X424669Y444595D01*
X424762Y444530D01*
X424852Y444462D01*
X424940Y444391D01*
X425026Y444316D01*
X425109Y444239D01*
X425189Y444159D01*
X425266Y444076D01*
X425341Y443990D01*
X425412Y443902D01*
X425480Y443812D01*
X425545Y443719D01*
X425607Y443624D01*
X425665Y443527D01*
X425720Y443428D01*
X425771Y443327D01*
X425819Y443224D01*
X425864Y443120D01*
X425904Y443014D01*
X425941Y442907D01*
X425974Y442799D01*
X426004Y442689D01*
X426029Y442579D01*
X426051Y442468D01*
X426068Y442356D01*
X426082Y442243D01*
X426092Y442130D01*
X426098Y442017D01*
X426100Y441904D01*
X426099Y441904D02*
X426099Y438658D01*
X426099Y442553D02*
X431292Y445149D01*
X422204Y450014D02*
X419608Y453260D01*
X431292Y453260D01*
X431292Y456505D02*
X431292Y450014D01*
X428046Y461444D02*
X427933Y461446D01*
X427820Y461452D01*
X427707Y461462D01*
X427594Y461476D01*
X427482Y461493D01*
X427371Y461515D01*
X427261Y461540D01*
X427151Y461570D01*
X427043Y461603D01*
X426936Y461640D01*
X426830Y461680D01*
X426726Y461725D01*
X426623Y461773D01*
X426522Y461824D01*
X426423Y461879D01*
X426326Y461937D01*
X426231Y461999D01*
X426138Y462064D01*
X426048Y462132D01*
X425960Y462203D01*
X425874Y462278D01*
X425791Y462355D01*
X425711Y462435D01*
X425634Y462518D01*
X425559Y462604D01*
X425488Y462692D01*
X425420Y462782D01*
X425355Y462875D01*
X425293Y462970D01*
X425235Y463067D01*
X425180Y463166D01*
X425129Y463267D01*
X425081Y463370D01*
X425036Y463474D01*
X424996Y463580D01*
X424959Y463687D01*
X424926Y463795D01*
X424896Y463905D01*
X424871Y464015D01*
X424849Y464126D01*
X424832Y464238D01*
X424818Y464351D01*
X424808Y464464D01*
X424802Y464577D01*
X424800Y464690D01*
X424802Y464803D01*
X424808Y464916D01*
X424818Y465029D01*
X424832Y465142D01*
X424849Y465254D01*
X424871Y465365D01*
X424896Y465475D01*
X424926Y465585D01*
X424959Y465693D01*
X424996Y465800D01*
X425036Y465906D01*
X425081Y466010D01*
X425129Y466113D01*
X425180Y466214D01*
X425235Y466313D01*
X425293Y466410D01*
X425355Y466505D01*
X425420Y466598D01*
X425488Y466688D01*
X425559Y466776D01*
X425634Y466862D01*
X425711Y466945D01*
X425791Y467025D01*
X425874Y467102D01*
X425960Y467177D01*
X426048Y467248D01*
X426138Y467316D01*
X426231Y467381D01*
X426326Y467443D01*
X426423Y467501D01*
X426522Y467556D01*
X426623Y467607D01*
X426726Y467655D01*
X426830Y467700D01*
X426936Y467740D01*
X427043Y467777D01*
X427151Y467810D01*
X427261Y467840D01*
X427371Y467865D01*
X427482Y467887D01*
X427594Y467904D01*
X427707Y467918D01*
X427820Y467928D01*
X427933Y467934D01*
X428046Y467936D01*
X428159Y467934D01*
X428272Y467928D01*
X428385Y467918D01*
X428498Y467904D01*
X428610Y467887D01*
X428721Y467865D01*
X428831Y467840D01*
X428941Y467810D01*
X429049Y467777D01*
X429156Y467740D01*
X429262Y467700D01*
X429366Y467655D01*
X429469Y467607D01*
X429570Y467556D01*
X429669Y467501D01*
X429766Y467443D01*
X429861Y467381D01*
X429954Y467316D01*
X430044Y467248D01*
X430132Y467177D01*
X430218Y467102D01*
X430301Y467025D01*
X430381Y466945D01*
X430458Y466862D01*
X430533Y466776D01*
X430604Y466688D01*
X430672Y466598D01*
X430737Y466505D01*
X430799Y466410D01*
X430857Y466313D01*
X430912Y466214D01*
X430963Y466113D01*
X431011Y466010D01*
X431056Y465906D01*
X431096Y465800D01*
X431133Y465693D01*
X431166Y465585D01*
X431196Y465475D01*
X431221Y465365D01*
X431243Y465254D01*
X431260Y465142D01*
X431274Y465029D01*
X431284Y464916D01*
X431290Y464803D01*
X431292Y464690D01*
X431290Y464577D01*
X431284Y464464D01*
X431274Y464351D01*
X431260Y464238D01*
X431243Y464126D01*
X431221Y464015D01*
X431196Y463905D01*
X431166Y463795D01*
X431133Y463687D01*
X431096Y463580D01*
X431056Y463474D01*
X431011Y463370D01*
X430963Y463267D01*
X430912Y463166D01*
X430857Y463067D01*
X430799Y462970D01*
X430737Y462875D01*
X430672Y462782D01*
X430604Y462692D01*
X430533Y462604D01*
X430458Y462518D01*
X430381Y462435D01*
X430301Y462355D01*
X430218Y462278D01*
X430132Y462203D01*
X430044Y462132D01*
X429954Y462064D01*
X429861Y461999D01*
X429766Y461937D01*
X429669Y461879D01*
X429570Y461824D01*
X429469Y461773D01*
X429366Y461725D01*
X429262Y461680D01*
X429156Y461640D01*
X429049Y461603D01*
X428941Y461570D01*
X428831Y461540D01*
X428721Y461515D01*
X428610Y461493D01*
X428498Y461476D01*
X428385Y461462D01*
X428272Y461452D01*
X428159Y461446D01*
X428046Y461444D01*
X422204Y462094D02*
X422103Y462096D01*
X422003Y462102D01*
X421903Y462112D01*
X421803Y462125D01*
X421704Y462143D01*
X421605Y462164D01*
X421508Y462189D01*
X421411Y462218D01*
X421316Y462251D01*
X421222Y462287D01*
X421130Y462327D01*
X421039Y462370D01*
X420950Y462417D01*
X420863Y462467D01*
X420777Y462521D01*
X420694Y462578D01*
X420614Y462638D01*
X420535Y462701D01*
X420459Y462768D01*
X420386Y462837D01*
X420316Y462909D01*
X420248Y462983D01*
X420183Y463060D01*
X420122Y463140D01*
X420063Y463222D01*
X420008Y463306D01*
X419956Y463392D01*
X419907Y463480D01*
X419862Y463570D01*
X419820Y463662D01*
X419782Y463755D01*
X419748Y463850D01*
X419717Y463945D01*
X419690Y464042D01*
X419667Y464140D01*
X419647Y464239D01*
X419632Y464339D01*
X419620Y464439D01*
X419612Y464539D01*
X419608Y464640D01*
X419608Y464740D01*
X419612Y464841D01*
X419620Y464941D01*
X419632Y465041D01*
X419647Y465141D01*
X419667Y465240D01*
X419690Y465338D01*
X419717Y465435D01*
X419748Y465530D01*
X419782Y465625D01*
X419820Y465718D01*
X419862Y465810D01*
X419907Y465900D01*
X419956Y465988D01*
X420008Y466074D01*
X420063Y466158D01*
X420122Y466240D01*
X420183Y466320D01*
X420248Y466397D01*
X420316Y466471D01*
X420386Y466543D01*
X420459Y466612D01*
X420535Y466679D01*
X420614Y466742D01*
X420694Y466802D01*
X420777Y466859D01*
X420863Y466913D01*
X420950Y466963D01*
X421039Y467010D01*
X421130Y467053D01*
X421222Y467093D01*
X421316Y467129D01*
X421411Y467162D01*
X421508Y467191D01*
X421605Y467216D01*
X421704Y467237D01*
X421803Y467255D01*
X421903Y467268D01*
X422003Y467278D01*
X422103Y467284D01*
X422204Y467286D01*
X422305Y467284D01*
X422405Y467278D01*
X422505Y467268D01*
X422605Y467255D01*
X422704Y467237D01*
X422803Y467216D01*
X422900Y467191D01*
X422997Y467162D01*
X423092Y467129D01*
X423186Y467093D01*
X423278Y467053D01*
X423369Y467010D01*
X423458Y466963D01*
X423545Y466913D01*
X423631Y466859D01*
X423714Y466802D01*
X423794Y466742D01*
X423873Y466679D01*
X423949Y466612D01*
X424022Y466543D01*
X424092Y466471D01*
X424160Y466397D01*
X424225Y466320D01*
X424286Y466240D01*
X424345Y466158D01*
X424400Y466074D01*
X424452Y465988D01*
X424501Y465900D01*
X424546Y465810D01*
X424588Y465718D01*
X424626Y465625D01*
X424660Y465530D01*
X424691Y465435D01*
X424718Y465338D01*
X424741Y465240D01*
X424761Y465141D01*
X424776Y465041D01*
X424788Y464941D01*
X424796Y464841D01*
X424800Y464740D01*
X424800Y464640D01*
X424796Y464539D01*
X424788Y464439D01*
X424776Y464339D01*
X424761Y464239D01*
X424741Y464140D01*
X424718Y464042D01*
X424691Y463945D01*
X424660Y463850D01*
X424626Y463755D01*
X424588Y463662D01*
X424546Y463570D01*
X424501Y463480D01*
X424452Y463392D01*
X424400Y463306D01*
X424345Y463222D01*
X424286Y463140D01*
X424225Y463060D01*
X424160Y462983D01*
X424092Y462909D01*
X424022Y462837D01*
X423949Y462768D01*
X423873Y462701D01*
X423794Y462638D01*
X423714Y462578D01*
X423631Y462521D01*
X423545Y462467D01*
X423458Y462417D01*
X423369Y462370D01*
X423278Y462327D01*
X423186Y462287D01*
X423092Y462251D01*
X422997Y462218D01*
X422900Y462189D01*
X422803Y462164D01*
X422704Y462143D01*
X422605Y462125D01*
X422505Y462112D01*
X422405Y462102D01*
X422305Y462096D01*
X422204Y462094D01*
X95758Y470408D02*
X95758Y482092D01*
X99004Y482092D01*
X99117Y482090D01*
X99230Y482084D01*
X99343Y482074D01*
X99456Y482060D01*
X99568Y482043D01*
X99679Y482021D01*
X99789Y481996D01*
X99899Y481966D01*
X100007Y481933D01*
X100114Y481896D01*
X100220Y481856D01*
X100324Y481811D01*
X100427Y481763D01*
X100528Y481712D01*
X100627Y481657D01*
X100724Y481599D01*
X100819Y481537D01*
X100912Y481472D01*
X101002Y481404D01*
X101090Y481333D01*
X101176Y481258D01*
X101259Y481181D01*
X101339Y481101D01*
X101416Y481018D01*
X101491Y480932D01*
X101562Y480844D01*
X101630Y480754D01*
X101695Y480661D01*
X101757Y480566D01*
X101815Y480469D01*
X101870Y480370D01*
X101921Y480269D01*
X101969Y480166D01*
X102014Y480062D01*
X102054Y479956D01*
X102091Y479849D01*
X102124Y479741D01*
X102154Y479631D01*
X102179Y479521D01*
X102201Y479410D01*
X102218Y479298D01*
X102232Y479185D01*
X102242Y479072D01*
X102248Y478959D01*
X102250Y478846D01*
X102248Y478733D01*
X102242Y478620D01*
X102232Y478507D01*
X102218Y478394D01*
X102201Y478282D01*
X102179Y478171D01*
X102154Y478061D01*
X102124Y477951D01*
X102091Y477843D01*
X102054Y477736D01*
X102014Y477630D01*
X101969Y477526D01*
X101921Y477423D01*
X101870Y477322D01*
X101815Y477223D01*
X101757Y477126D01*
X101695Y477031D01*
X101630Y476938D01*
X101562Y476848D01*
X101491Y476760D01*
X101416Y476674D01*
X101339Y476591D01*
X101259Y476511D01*
X101176Y476434D01*
X101090Y476359D01*
X101002Y476288D01*
X100912Y476220D01*
X100819Y476155D01*
X100724Y476093D01*
X100627Y476035D01*
X100528Y475980D01*
X100427Y475929D01*
X100324Y475881D01*
X100220Y475836D01*
X100114Y475796D01*
X100007Y475759D01*
X99899Y475726D01*
X99789Y475696D01*
X99679Y475671D01*
X99568Y475649D01*
X99456Y475632D01*
X99343Y475618D01*
X99230Y475608D01*
X99117Y475602D01*
X99004Y475600D01*
X99004Y475601D02*
X95758Y475601D01*
X99653Y475601D02*
X102249Y470408D01*
X107114Y479496D02*
X110360Y482092D01*
X110360Y470408D01*
X113605Y470408D02*
X107114Y470408D01*
X121141Y475601D02*
X125035Y475601D01*
X121141Y475601D02*
X121042Y475603D01*
X120942Y475609D01*
X120843Y475618D01*
X120745Y475631D01*
X120647Y475648D01*
X120549Y475669D01*
X120453Y475694D01*
X120358Y475722D01*
X120264Y475754D01*
X120171Y475789D01*
X120079Y475828D01*
X119989Y475871D01*
X119901Y475916D01*
X119814Y475966D01*
X119730Y476018D01*
X119647Y476074D01*
X119567Y476132D01*
X119489Y476194D01*
X119414Y476259D01*
X119341Y476327D01*
X119271Y476397D01*
X119203Y476470D01*
X119138Y476545D01*
X119076Y476623D01*
X119018Y476703D01*
X118962Y476786D01*
X118910Y476870D01*
X118860Y476957D01*
X118815Y477045D01*
X118772Y477135D01*
X118733Y477227D01*
X118698Y477320D01*
X118666Y477414D01*
X118638Y477509D01*
X118613Y477605D01*
X118592Y477703D01*
X118575Y477801D01*
X118562Y477899D01*
X118553Y477998D01*
X118547Y478098D01*
X118545Y478197D01*
X118544Y478197D02*
X118544Y478846D01*
X118546Y478959D01*
X118552Y479072D01*
X118562Y479185D01*
X118576Y479298D01*
X118593Y479410D01*
X118615Y479521D01*
X118640Y479631D01*
X118670Y479741D01*
X118703Y479849D01*
X118740Y479956D01*
X118780Y480062D01*
X118825Y480166D01*
X118873Y480269D01*
X118924Y480370D01*
X118979Y480469D01*
X119037Y480566D01*
X119099Y480661D01*
X119164Y480754D01*
X119232Y480844D01*
X119303Y480932D01*
X119378Y481018D01*
X119455Y481101D01*
X119535Y481181D01*
X119618Y481258D01*
X119704Y481333D01*
X119792Y481404D01*
X119882Y481472D01*
X119975Y481537D01*
X120070Y481599D01*
X120167Y481657D01*
X120266Y481712D01*
X120367Y481763D01*
X120470Y481811D01*
X120574Y481856D01*
X120680Y481896D01*
X120787Y481933D01*
X120895Y481966D01*
X121005Y481996D01*
X121115Y482021D01*
X121226Y482043D01*
X121338Y482060D01*
X121451Y482074D01*
X121564Y482084D01*
X121677Y482090D01*
X121790Y482092D01*
X121903Y482090D01*
X122016Y482084D01*
X122129Y482074D01*
X122242Y482060D01*
X122354Y482043D01*
X122465Y482021D01*
X122575Y481996D01*
X122685Y481966D01*
X122793Y481933D01*
X122900Y481896D01*
X123006Y481856D01*
X123110Y481811D01*
X123213Y481763D01*
X123314Y481712D01*
X123413Y481657D01*
X123510Y481599D01*
X123605Y481537D01*
X123698Y481472D01*
X123788Y481404D01*
X123876Y481333D01*
X123962Y481258D01*
X124045Y481181D01*
X124125Y481101D01*
X124202Y481018D01*
X124277Y480932D01*
X124348Y480844D01*
X124416Y480754D01*
X124481Y480661D01*
X124543Y480566D01*
X124601Y480469D01*
X124656Y480370D01*
X124707Y480269D01*
X124755Y480166D01*
X124800Y480062D01*
X124840Y479956D01*
X124877Y479849D01*
X124910Y479741D01*
X124940Y479631D01*
X124965Y479521D01*
X124987Y479410D01*
X125004Y479298D01*
X125018Y479185D01*
X125028Y479072D01*
X125034Y478959D01*
X125036Y478846D01*
X125035Y478846D02*
X125035Y475601D01*
X125036Y475601D02*
X125034Y475458D01*
X125028Y475315D01*
X125018Y475172D01*
X125004Y475030D01*
X124987Y474888D01*
X124965Y474746D01*
X124940Y474605D01*
X124910Y474465D01*
X124877Y474326D01*
X124840Y474188D01*
X124799Y474051D01*
X124755Y473915D01*
X124706Y473780D01*
X124654Y473647D01*
X124599Y473515D01*
X124539Y473385D01*
X124476Y473256D01*
X124410Y473129D01*
X124340Y473004D01*
X124267Y472882D01*
X124190Y472761D01*
X124110Y472642D01*
X124027Y472526D01*
X123941Y472411D01*
X123852Y472300D01*
X123759Y472190D01*
X123664Y472084D01*
X123565Y471980D01*
X123464Y471879D01*
X123360Y471780D01*
X123254Y471685D01*
X123144Y471592D01*
X123033Y471503D01*
X122918Y471417D01*
X122802Y471334D01*
X122683Y471254D01*
X122562Y471177D01*
X122439Y471104D01*
X122315Y471034D01*
X122188Y470968D01*
X122059Y470905D01*
X121929Y470845D01*
X121797Y470790D01*
X121664Y470738D01*
X121529Y470689D01*
X121393Y470645D01*
X121256Y470604D01*
X121118Y470567D01*
X120979Y470534D01*
X120839Y470504D01*
X120698Y470479D01*
X120556Y470457D01*
X120414Y470440D01*
X120272Y470426D01*
X120129Y470416D01*
X119986Y470410D01*
X119843Y470408D01*
D11*
X273304Y316311D02*
X278892Y316311D01*
X273304Y316311D02*
X273304Y317864D01*
X273306Y317941D01*
X273312Y318019D01*
X273321Y318095D01*
X273335Y318172D01*
X273352Y318247D01*
X273373Y318321D01*
X273398Y318395D01*
X273426Y318467D01*
X273458Y318537D01*
X273493Y318606D01*
X273532Y318673D01*
X273574Y318738D01*
X273619Y318801D01*
X273667Y318862D01*
X273718Y318920D01*
X273772Y318975D01*
X273829Y319028D01*
X273888Y319077D01*
X273950Y319124D01*
X274014Y319168D01*
X274080Y319208D01*
X274148Y319245D01*
X274218Y319279D01*
X274289Y319309D01*
X274362Y319335D01*
X274436Y319358D01*
X274511Y319377D01*
X274586Y319392D01*
X274663Y319404D01*
X274740Y319412D01*
X274817Y319416D01*
X274895Y319416D01*
X274972Y319412D01*
X275049Y319404D01*
X275126Y319392D01*
X275201Y319377D01*
X275276Y319358D01*
X275350Y319335D01*
X275423Y319309D01*
X275494Y319279D01*
X275564Y319245D01*
X275632Y319208D01*
X275698Y319168D01*
X275762Y319124D01*
X275824Y319077D01*
X275883Y319028D01*
X275940Y318975D01*
X275994Y318920D01*
X276045Y318862D01*
X276093Y318801D01*
X276138Y318738D01*
X276180Y318673D01*
X276219Y318606D01*
X276254Y318537D01*
X276286Y318467D01*
X276314Y318395D01*
X276339Y318321D01*
X276360Y318247D01*
X276377Y318172D01*
X276391Y318095D01*
X276400Y318019D01*
X276406Y317941D01*
X276408Y317864D01*
X276408Y316311D01*
X276408Y318174D02*
X278892Y319416D01*
X274701Y324866D02*
X274628Y324864D01*
X274555Y324858D01*
X274482Y324849D01*
X274411Y324835D01*
X274339Y324818D01*
X274269Y324798D01*
X274200Y324773D01*
X274133Y324745D01*
X274067Y324714D01*
X274003Y324679D01*
X273940Y324641D01*
X273880Y324599D01*
X273822Y324555D01*
X273766Y324507D01*
X273713Y324457D01*
X273663Y324404D01*
X273615Y324348D01*
X273571Y324290D01*
X273529Y324230D01*
X273491Y324168D01*
X273456Y324103D01*
X273425Y324037D01*
X273397Y323970D01*
X273372Y323901D01*
X273352Y323831D01*
X273335Y323759D01*
X273321Y323688D01*
X273312Y323615D01*
X273306Y323542D01*
X273304Y323469D01*
X273306Y323385D01*
X273312Y323302D01*
X273321Y323219D01*
X273335Y323136D01*
X273352Y323055D01*
X273374Y322974D01*
X273399Y322894D01*
X273427Y322816D01*
X273459Y322738D01*
X273495Y322663D01*
X273534Y322589D01*
X273577Y322517D01*
X273623Y322447D01*
X273672Y322380D01*
X273725Y322314D01*
X273780Y322252D01*
X273838Y322192D01*
X273899Y322134D01*
X273962Y322080D01*
X274028Y322028D01*
X274096Y321980D01*
X274167Y321935D01*
X274239Y321893D01*
X274314Y321855D01*
X274390Y321820D01*
X274467Y321789D01*
X274546Y321761D01*
X275787Y324400D02*
X275734Y324454D01*
X275677Y324505D01*
X275618Y324553D01*
X275557Y324598D01*
X275494Y324639D01*
X275428Y324678D01*
X275361Y324713D01*
X275292Y324745D01*
X275221Y324773D01*
X275150Y324797D01*
X275077Y324818D01*
X275003Y324835D01*
X274928Y324849D01*
X274853Y324858D01*
X274777Y324864D01*
X274701Y324866D01*
X275788Y324400D02*
X278892Y321762D01*
X278892Y324866D01*
X278892Y460685D02*
X273304Y460685D01*
X273304Y462237D01*
X273306Y462314D01*
X273312Y462392D01*
X273321Y462468D01*
X273335Y462545D01*
X273352Y462620D01*
X273373Y462694D01*
X273398Y462768D01*
X273426Y462840D01*
X273458Y462910D01*
X273493Y462979D01*
X273532Y463046D01*
X273574Y463111D01*
X273619Y463174D01*
X273667Y463235D01*
X273718Y463293D01*
X273772Y463348D01*
X273829Y463401D01*
X273888Y463450D01*
X273950Y463497D01*
X274014Y463541D01*
X274080Y463581D01*
X274148Y463618D01*
X274218Y463652D01*
X274289Y463682D01*
X274362Y463708D01*
X274436Y463731D01*
X274511Y463750D01*
X274586Y463765D01*
X274663Y463777D01*
X274740Y463785D01*
X274817Y463789D01*
X274895Y463789D01*
X274972Y463785D01*
X275049Y463777D01*
X275126Y463765D01*
X275201Y463750D01*
X275276Y463731D01*
X275350Y463708D01*
X275423Y463682D01*
X275494Y463652D01*
X275564Y463618D01*
X275632Y463581D01*
X275698Y463541D01*
X275762Y463497D01*
X275824Y463450D01*
X275883Y463401D01*
X275940Y463348D01*
X275994Y463293D01*
X276045Y463235D01*
X276093Y463174D01*
X276138Y463111D01*
X276180Y463046D01*
X276219Y462979D01*
X276254Y462910D01*
X276286Y462840D01*
X276314Y462768D01*
X276339Y462694D01*
X276360Y462620D01*
X276377Y462545D01*
X276391Y462468D01*
X276400Y462392D01*
X276406Y462314D01*
X276408Y462237D01*
X276408Y460685D01*
X276408Y462548D02*
X278892Y463789D01*
X274701Y469240D02*
X274628Y469238D01*
X274555Y469232D01*
X274482Y469223D01*
X274411Y469209D01*
X274339Y469192D01*
X274269Y469172D01*
X274200Y469147D01*
X274133Y469119D01*
X274067Y469088D01*
X274003Y469053D01*
X273940Y469015D01*
X273880Y468973D01*
X273822Y468929D01*
X273766Y468881D01*
X273713Y468831D01*
X273663Y468778D01*
X273615Y468722D01*
X273571Y468664D01*
X273529Y468604D01*
X273491Y468542D01*
X273456Y468477D01*
X273425Y468411D01*
X273397Y468344D01*
X273372Y468275D01*
X273352Y468205D01*
X273335Y468133D01*
X273321Y468062D01*
X273312Y467989D01*
X273306Y467916D01*
X273304Y467843D01*
X273306Y467759D01*
X273312Y467676D01*
X273321Y467593D01*
X273335Y467510D01*
X273352Y467429D01*
X273374Y467348D01*
X273399Y467268D01*
X273427Y467190D01*
X273459Y467112D01*
X273495Y467037D01*
X273534Y466963D01*
X273577Y466891D01*
X273623Y466821D01*
X273672Y466754D01*
X273725Y466688D01*
X273780Y466626D01*
X273838Y466566D01*
X273899Y466508D01*
X273962Y466454D01*
X274028Y466402D01*
X274096Y466354D01*
X274167Y466309D01*
X274239Y466267D01*
X274314Y466229D01*
X274390Y466194D01*
X274467Y466163D01*
X274546Y466135D01*
X275787Y468773D02*
X275734Y468827D01*
X275677Y468878D01*
X275618Y468926D01*
X275557Y468971D01*
X275494Y469012D01*
X275428Y469051D01*
X275361Y469086D01*
X275292Y469118D01*
X275221Y469146D01*
X275150Y469170D01*
X275077Y469191D01*
X275003Y469208D01*
X274928Y469222D01*
X274853Y469231D01*
X274777Y469237D01*
X274701Y469239D01*
X275788Y468774D02*
X278892Y466135D01*
X278892Y469240D01*
X276098Y471622D02*
X275967Y471624D01*
X275837Y471629D01*
X275707Y471639D01*
X275577Y471652D01*
X275447Y471668D01*
X275318Y471688D01*
X275190Y471712D01*
X275063Y471740D01*
X274936Y471771D01*
X274810Y471806D01*
X274685Y471844D01*
X274561Y471886D01*
X274439Y471931D01*
X274318Y471980D01*
X274198Y472032D01*
X274080Y472088D01*
X274080Y472087D02*
X274020Y472110D01*
X273960Y472136D01*
X273903Y472165D01*
X273847Y472198D01*
X273793Y472234D01*
X273741Y472272D01*
X273691Y472314D01*
X273644Y472358D01*
X273599Y472405D01*
X273557Y472455D01*
X273518Y472506D01*
X273482Y472560D01*
X273449Y472616D01*
X273419Y472673D01*
X273392Y472732D01*
X273369Y472793D01*
X273349Y472854D01*
X273333Y472917D01*
X273320Y472981D01*
X273311Y473045D01*
X273306Y473109D01*
X273304Y473174D01*
X273306Y473239D01*
X273311Y473303D01*
X273320Y473367D01*
X273333Y473431D01*
X273349Y473494D01*
X273369Y473555D01*
X273392Y473616D01*
X273419Y473675D01*
X273449Y473732D01*
X273482Y473788D01*
X273518Y473842D01*
X273557Y473893D01*
X273599Y473943D01*
X273644Y473990D01*
X273691Y474034D01*
X273741Y474076D01*
X273793Y474114D01*
X273847Y474150D01*
X273903Y474183D01*
X273960Y474212D01*
X274020Y474238D01*
X274080Y474261D01*
X274080Y474260D02*
X274198Y474316D01*
X274318Y474368D01*
X274439Y474417D01*
X274561Y474462D01*
X274685Y474504D01*
X274810Y474542D01*
X274936Y474577D01*
X275062Y474608D01*
X275190Y474636D01*
X275318Y474660D01*
X275447Y474680D01*
X275577Y474696D01*
X275707Y474709D01*
X275837Y474719D01*
X275967Y474724D01*
X276098Y474726D01*
X276098Y471622D02*
X276229Y471624D01*
X276359Y471629D01*
X276489Y471639D01*
X276619Y471652D01*
X276749Y471668D01*
X276878Y471688D01*
X277006Y471712D01*
X277133Y471740D01*
X277260Y471771D01*
X277386Y471806D01*
X277511Y471844D01*
X277635Y471886D01*
X277757Y471931D01*
X277878Y471980D01*
X277998Y472032D01*
X278116Y472088D01*
X278116Y472087D02*
X278176Y472110D01*
X278236Y472136D01*
X278293Y472165D01*
X278349Y472198D01*
X278403Y472234D01*
X278455Y472272D01*
X278505Y472314D01*
X278552Y472358D01*
X278597Y472405D01*
X278639Y472455D01*
X278678Y472506D01*
X278714Y472560D01*
X278747Y472616D01*
X278777Y472673D01*
X278804Y472732D01*
X278827Y472793D01*
X278847Y472854D01*
X278863Y472917D01*
X278876Y472981D01*
X278885Y473045D01*
X278890Y473109D01*
X278892Y473174D01*
X278116Y474260D02*
X277998Y474316D01*
X277878Y474368D01*
X277757Y474417D01*
X277635Y474462D01*
X277511Y474504D01*
X277386Y474542D01*
X277260Y474577D01*
X277134Y474608D01*
X277006Y474636D01*
X276878Y474660D01*
X276749Y474680D01*
X276619Y474696D01*
X276489Y474709D01*
X276359Y474719D01*
X276229Y474724D01*
X276098Y474726D01*
X278116Y474261D02*
X278176Y474238D01*
X278236Y474212D01*
X278293Y474183D01*
X278349Y474150D01*
X278403Y474114D01*
X278455Y474076D01*
X278505Y474034D01*
X278552Y473990D01*
X278597Y473943D01*
X278639Y473893D01*
X278678Y473842D01*
X278714Y473788D01*
X278747Y473732D01*
X278777Y473675D01*
X278804Y473616D01*
X278827Y473555D01*
X278847Y473494D01*
X278863Y473431D01*
X278876Y473367D01*
X278885Y473303D01*
X278890Y473239D01*
X278892Y473174D01*
X277650Y471932D02*
X274546Y474416D01*
D16*
X330708Y464058D02*
X342392Y464058D01*
X330708Y464058D02*
X330708Y467304D01*
X330710Y467417D01*
X330716Y467530D01*
X330726Y467643D01*
X330740Y467756D01*
X330757Y467868D01*
X330779Y467979D01*
X330804Y468089D01*
X330834Y468199D01*
X330867Y468307D01*
X330904Y468414D01*
X330944Y468520D01*
X330989Y468624D01*
X331037Y468727D01*
X331088Y468828D01*
X331143Y468927D01*
X331201Y469024D01*
X331263Y469119D01*
X331328Y469212D01*
X331396Y469302D01*
X331467Y469390D01*
X331542Y469476D01*
X331619Y469559D01*
X331699Y469639D01*
X331782Y469716D01*
X331868Y469791D01*
X331956Y469862D01*
X332046Y469930D01*
X332139Y469995D01*
X332234Y470057D01*
X332331Y470115D01*
X332430Y470170D01*
X332531Y470221D01*
X332634Y470269D01*
X332738Y470314D01*
X332844Y470354D01*
X332951Y470391D01*
X333059Y470424D01*
X333169Y470454D01*
X333279Y470479D01*
X333390Y470501D01*
X333502Y470518D01*
X333615Y470532D01*
X333728Y470542D01*
X333841Y470548D01*
X333954Y470550D01*
X334067Y470548D01*
X334180Y470542D01*
X334293Y470532D01*
X334406Y470518D01*
X334518Y470501D01*
X334629Y470479D01*
X334739Y470454D01*
X334849Y470424D01*
X334957Y470391D01*
X335064Y470354D01*
X335170Y470314D01*
X335274Y470269D01*
X335377Y470221D01*
X335478Y470170D01*
X335577Y470115D01*
X335674Y470057D01*
X335769Y469995D01*
X335862Y469930D01*
X335952Y469862D01*
X336040Y469791D01*
X336126Y469716D01*
X336209Y469639D01*
X336289Y469559D01*
X336366Y469476D01*
X336441Y469390D01*
X336512Y469302D01*
X336580Y469212D01*
X336645Y469119D01*
X336707Y469024D01*
X336765Y468927D01*
X336820Y468828D01*
X336871Y468727D01*
X336919Y468624D01*
X336964Y468520D01*
X337004Y468414D01*
X337041Y468307D01*
X337074Y468199D01*
X337104Y468089D01*
X337129Y467979D01*
X337151Y467868D01*
X337168Y467756D01*
X337182Y467643D01*
X337192Y467530D01*
X337198Y467417D01*
X337200Y467304D01*
X337199Y467304D02*
X337199Y464058D01*
X337199Y467953D02*
X342392Y470549D01*
X333629Y481905D02*
X333522Y481903D01*
X333416Y481897D01*
X333310Y481887D01*
X333204Y481874D01*
X333098Y481856D01*
X332994Y481835D01*
X332890Y481810D01*
X332787Y481781D01*
X332686Y481749D01*
X332586Y481712D01*
X332487Y481672D01*
X332389Y481629D01*
X332293Y481582D01*
X332199Y481531D01*
X332107Y481477D01*
X332017Y481420D01*
X331929Y481360D01*
X331844Y481296D01*
X331761Y481229D01*
X331680Y481159D01*
X331602Y481087D01*
X331526Y481011D01*
X331454Y480933D01*
X331384Y480852D01*
X331317Y480769D01*
X331253Y480684D01*
X331193Y480596D01*
X331136Y480506D01*
X331082Y480414D01*
X331031Y480320D01*
X330984Y480224D01*
X330941Y480126D01*
X330901Y480027D01*
X330864Y479927D01*
X330832Y479826D01*
X330803Y479723D01*
X330778Y479619D01*
X330757Y479515D01*
X330739Y479409D01*
X330726Y479303D01*
X330716Y479197D01*
X330710Y479091D01*
X330708Y478984D01*
X330710Y478863D01*
X330716Y478742D01*
X330726Y478622D01*
X330739Y478501D01*
X330757Y478382D01*
X330778Y478262D01*
X330803Y478144D01*
X330832Y478027D01*
X330865Y477910D01*
X330901Y477795D01*
X330942Y477681D01*
X330985Y477568D01*
X331033Y477456D01*
X331084Y477347D01*
X331139Y477239D01*
X331197Y477132D01*
X331258Y477028D01*
X331323Y476926D01*
X331391Y476826D01*
X331462Y476728D01*
X331536Y476632D01*
X331613Y476539D01*
X331694Y476449D01*
X331777Y476361D01*
X331863Y476276D01*
X331952Y476193D01*
X332043Y476114D01*
X332137Y476037D01*
X332233Y475964D01*
X332331Y475894D01*
X332432Y475827D01*
X332535Y475763D01*
X332640Y475703D01*
X332747Y475645D01*
X332855Y475592D01*
X332965Y475542D01*
X333077Y475496D01*
X333190Y475453D01*
X333305Y475414D01*
X335901Y480931D02*
X335823Y481010D01*
X335743Y481086D01*
X335660Y481159D01*
X335574Y481229D01*
X335487Y481296D01*
X335396Y481360D01*
X335304Y481420D01*
X335210Y481478D01*
X335113Y481532D01*
X335015Y481582D01*
X334915Y481629D01*
X334814Y481673D01*
X334711Y481713D01*
X334606Y481749D01*
X334501Y481781D01*
X334394Y481810D01*
X334287Y481835D01*
X334178Y481857D01*
X334069Y481874D01*
X333960Y481888D01*
X333850Y481897D01*
X333739Y481903D01*
X333629Y481905D01*
X335901Y480932D02*
X342392Y475414D01*
X342392Y481905D01*
X333304Y486844D02*
X330708Y490090D01*
X342392Y490090D01*
X342392Y493335D02*
X342392Y486844D01*
X95758Y495808D02*
X95758Y507492D01*
X99004Y507492D01*
X99117Y507490D01*
X99230Y507484D01*
X99343Y507474D01*
X99456Y507460D01*
X99568Y507443D01*
X99679Y507421D01*
X99789Y507396D01*
X99899Y507366D01*
X100007Y507333D01*
X100114Y507296D01*
X100220Y507256D01*
X100324Y507211D01*
X100427Y507163D01*
X100528Y507112D01*
X100627Y507057D01*
X100724Y506999D01*
X100819Y506937D01*
X100912Y506872D01*
X101002Y506804D01*
X101090Y506733D01*
X101176Y506658D01*
X101259Y506581D01*
X101339Y506501D01*
X101416Y506418D01*
X101491Y506332D01*
X101562Y506244D01*
X101630Y506154D01*
X101695Y506061D01*
X101757Y505966D01*
X101815Y505869D01*
X101870Y505770D01*
X101921Y505669D01*
X101969Y505566D01*
X102014Y505462D01*
X102054Y505356D01*
X102091Y505249D01*
X102124Y505141D01*
X102154Y505031D01*
X102179Y504921D01*
X102201Y504810D01*
X102218Y504698D01*
X102232Y504585D01*
X102242Y504472D01*
X102248Y504359D01*
X102250Y504246D01*
X102248Y504133D01*
X102242Y504020D01*
X102232Y503907D01*
X102218Y503794D01*
X102201Y503682D01*
X102179Y503571D01*
X102154Y503461D01*
X102124Y503351D01*
X102091Y503243D01*
X102054Y503136D01*
X102014Y503030D01*
X101969Y502926D01*
X101921Y502823D01*
X101870Y502722D01*
X101815Y502623D01*
X101757Y502526D01*
X101695Y502431D01*
X101630Y502338D01*
X101562Y502248D01*
X101491Y502160D01*
X101416Y502074D01*
X101339Y501991D01*
X101259Y501911D01*
X101176Y501834D01*
X101090Y501759D01*
X101002Y501688D01*
X100912Y501620D01*
X100819Y501555D01*
X100724Y501493D01*
X100627Y501435D01*
X100528Y501380D01*
X100427Y501329D01*
X100324Y501281D01*
X100220Y501236D01*
X100114Y501196D01*
X100007Y501159D01*
X99899Y501126D01*
X99789Y501096D01*
X99679Y501071D01*
X99568Y501049D01*
X99456Y501032D01*
X99343Y501018D01*
X99230Y501008D01*
X99117Y501002D01*
X99004Y501000D01*
X99004Y501001D02*
X95758Y501001D01*
X99653Y501001D02*
X102249Y495808D01*
X113605Y504571D02*
X113603Y504678D01*
X113597Y504784D01*
X113587Y504890D01*
X113574Y504996D01*
X113556Y505102D01*
X113535Y505206D01*
X113510Y505310D01*
X113481Y505413D01*
X113449Y505514D01*
X113412Y505614D01*
X113372Y505713D01*
X113329Y505811D01*
X113282Y505907D01*
X113231Y506001D01*
X113177Y506093D01*
X113120Y506183D01*
X113060Y506271D01*
X112996Y506356D01*
X112929Y506439D01*
X112859Y506520D01*
X112787Y506598D01*
X112711Y506674D01*
X112633Y506746D01*
X112552Y506816D01*
X112469Y506883D01*
X112384Y506947D01*
X112296Y507007D01*
X112206Y507064D01*
X112114Y507118D01*
X112020Y507169D01*
X111924Y507216D01*
X111826Y507259D01*
X111727Y507299D01*
X111627Y507336D01*
X111526Y507368D01*
X111423Y507397D01*
X111319Y507422D01*
X111215Y507443D01*
X111109Y507461D01*
X111003Y507474D01*
X110897Y507484D01*
X110791Y507490D01*
X110684Y507492D01*
X110563Y507490D01*
X110442Y507484D01*
X110322Y507474D01*
X110201Y507461D01*
X110082Y507443D01*
X109962Y507422D01*
X109844Y507397D01*
X109727Y507368D01*
X109610Y507335D01*
X109495Y507299D01*
X109381Y507258D01*
X109268Y507215D01*
X109156Y507167D01*
X109047Y507116D01*
X108939Y507061D01*
X108832Y507003D01*
X108728Y506942D01*
X108626Y506877D01*
X108526Y506809D01*
X108428Y506738D01*
X108332Y506664D01*
X108239Y506587D01*
X108149Y506506D01*
X108061Y506423D01*
X107976Y506337D01*
X107893Y506248D01*
X107814Y506157D01*
X107737Y506063D01*
X107664Y505967D01*
X107594Y505869D01*
X107527Y505768D01*
X107463Y505665D01*
X107403Y505560D01*
X107346Y505453D01*
X107292Y505345D01*
X107242Y505235D01*
X107196Y505123D01*
X107153Y505010D01*
X107114Y504895D01*
X112632Y502299D02*
X112711Y502376D01*
X112787Y502457D01*
X112860Y502540D01*
X112930Y502625D01*
X112997Y502713D01*
X113061Y502803D01*
X113121Y502895D01*
X113178Y502990D01*
X113232Y503086D01*
X113283Y503184D01*
X113330Y503284D01*
X113374Y503386D01*
X113414Y503489D01*
X113450Y503593D01*
X113482Y503699D01*
X113511Y503805D01*
X113536Y503913D01*
X113558Y504021D01*
X113575Y504131D01*
X113589Y504240D01*
X113598Y504350D01*
X113604Y504461D01*
X113606Y504571D01*
X112632Y502299D02*
X107114Y495808D01*
X113605Y495808D01*
X125035Y504571D02*
X125033Y504678D01*
X125027Y504784D01*
X125017Y504890D01*
X125004Y504996D01*
X124986Y505102D01*
X124965Y505206D01*
X124940Y505310D01*
X124911Y505413D01*
X124879Y505514D01*
X124842Y505614D01*
X124802Y505713D01*
X124759Y505811D01*
X124712Y505907D01*
X124661Y506001D01*
X124607Y506093D01*
X124550Y506183D01*
X124490Y506271D01*
X124426Y506356D01*
X124359Y506439D01*
X124289Y506520D01*
X124217Y506598D01*
X124141Y506674D01*
X124063Y506746D01*
X123982Y506816D01*
X123899Y506883D01*
X123814Y506947D01*
X123726Y507007D01*
X123636Y507064D01*
X123544Y507118D01*
X123450Y507169D01*
X123354Y507216D01*
X123256Y507259D01*
X123157Y507299D01*
X123057Y507336D01*
X122956Y507368D01*
X122853Y507397D01*
X122749Y507422D01*
X122645Y507443D01*
X122539Y507461D01*
X122433Y507474D01*
X122327Y507484D01*
X122221Y507490D01*
X122114Y507492D01*
X121993Y507490D01*
X121872Y507484D01*
X121752Y507474D01*
X121631Y507461D01*
X121512Y507443D01*
X121392Y507422D01*
X121274Y507397D01*
X121157Y507368D01*
X121040Y507335D01*
X120925Y507299D01*
X120811Y507258D01*
X120698Y507215D01*
X120586Y507167D01*
X120477Y507116D01*
X120369Y507061D01*
X120262Y507003D01*
X120158Y506942D01*
X120056Y506877D01*
X119956Y506809D01*
X119858Y506738D01*
X119762Y506664D01*
X119669Y506587D01*
X119579Y506506D01*
X119491Y506423D01*
X119406Y506337D01*
X119323Y506248D01*
X119244Y506157D01*
X119167Y506063D01*
X119094Y505967D01*
X119024Y505869D01*
X118957Y505768D01*
X118893Y505665D01*
X118833Y505560D01*
X118776Y505453D01*
X118722Y505345D01*
X118672Y505235D01*
X118626Y505123D01*
X118583Y505010D01*
X118544Y504895D01*
X124062Y502299D02*
X124141Y502376D01*
X124217Y502457D01*
X124290Y502540D01*
X124360Y502625D01*
X124427Y502713D01*
X124491Y502803D01*
X124551Y502895D01*
X124608Y502990D01*
X124662Y503086D01*
X124713Y503184D01*
X124760Y503284D01*
X124804Y503386D01*
X124844Y503489D01*
X124880Y503593D01*
X124912Y503699D01*
X124941Y503805D01*
X124966Y503913D01*
X124988Y504021D01*
X125005Y504131D01*
X125019Y504240D01*
X125028Y504350D01*
X125034Y504461D01*
X125036Y504571D01*
X124062Y502299D02*
X118544Y495808D01*
X125035Y495808D01*
D11*
X273304Y486085D02*
X278892Y486085D01*
X273304Y486085D02*
X273304Y487637D01*
X273306Y487714D01*
X273312Y487792D01*
X273321Y487868D01*
X273335Y487945D01*
X273352Y488020D01*
X273373Y488094D01*
X273398Y488168D01*
X273426Y488240D01*
X273458Y488310D01*
X273493Y488379D01*
X273532Y488446D01*
X273574Y488511D01*
X273619Y488574D01*
X273667Y488635D01*
X273718Y488693D01*
X273772Y488748D01*
X273829Y488801D01*
X273888Y488850D01*
X273950Y488897D01*
X274014Y488941D01*
X274080Y488981D01*
X274148Y489018D01*
X274218Y489052D01*
X274289Y489082D01*
X274362Y489108D01*
X274436Y489131D01*
X274511Y489150D01*
X274586Y489165D01*
X274663Y489177D01*
X274740Y489185D01*
X274817Y489189D01*
X274895Y489189D01*
X274972Y489185D01*
X275049Y489177D01*
X275126Y489165D01*
X275201Y489150D01*
X275276Y489131D01*
X275350Y489108D01*
X275423Y489082D01*
X275494Y489052D01*
X275564Y489018D01*
X275632Y488981D01*
X275698Y488941D01*
X275762Y488897D01*
X275824Y488850D01*
X275883Y488801D01*
X275940Y488748D01*
X275994Y488693D01*
X276045Y488635D01*
X276093Y488574D01*
X276138Y488511D01*
X276180Y488446D01*
X276219Y488379D01*
X276254Y488310D01*
X276286Y488240D01*
X276314Y488168D01*
X276339Y488094D01*
X276360Y488020D01*
X276377Y487945D01*
X276391Y487868D01*
X276400Y487792D01*
X276406Y487714D01*
X276408Y487637D01*
X276408Y486085D01*
X276408Y487948D02*
X278892Y489189D01*
X274701Y494640D02*
X274628Y494638D01*
X274555Y494632D01*
X274482Y494623D01*
X274411Y494609D01*
X274339Y494592D01*
X274269Y494572D01*
X274200Y494547D01*
X274133Y494519D01*
X274067Y494488D01*
X274003Y494453D01*
X273940Y494415D01*
X273880Y494373D01*
X273822Y494329D01*
X273766Y494281D01*
X273713Y494231D01*
X273663Y494178D01*
X273615Y494122D01*
X273571Y494064D01*
X273529Y494004D01*
X273491Y493942D01*
X273456Y493877D01*
X273425Y493811D01*
X273397Y493744D01*
X273372Y493675D01*
X273352Y493605D01*
X273335Y493533D01*
X273321Y493462D01*
X273312Y493389D01*
X273306Y493316D01*
X273304Y493243D01*
X273306Y493159D01*
X273312Y493076D01*
X273321Y492993D01*
X273335Y492910D01*
X273352Y492829D01*
X273374Y492748D01*
X273399Y492668D01*
X273427Y492590D01*
X273459Y492512D01*
X273495Y492437D01*
X273534Y492363D01*
X273577Y492291D01*
X273623Y492221D01*
X273672Y492154D01*
X273725Y492088D01*
X273780Y492026D01*
X273838Y491966D01*
X273899Y491908D01*
X273962Y491854D01*
X274028Y491802D01*
X274096Y491754D01*
X274167Y491709D01*
X274239Y491667D01*
X274314Y491629D01*
X274390Y491594D01*
X274467Y491563D01*
X274546Y491535D01*
X275787Y494173D02*
X275734Y494227D01*
X275677Y494278D01*
X275618Y494326D01*
X275557Y494371D01*
X275494Y494412D01*
X275428Y494451D01*
X275361Y494486D01*
X275292Y494518D01*
X275221Y494546D01*
X275150Y494570D01*
X275077Y494591D01*
X275003Y494608D01*
X274928Y494622D01*
X274853Y494631D01*
X274777Y494637D01*
X274701Y494639D01*
X275788Y494174D02*
X278892Y491535D01*
X278892Y494640D01*
X278892Y497022D02*
X278892Y498574D01*
X278890Y498651D01*
X278884Y498729D01*
X278875Y498805D01*
X278861Y498882D01*
X278844Y498957D01*
X278823Y499031D01*
X278798Y499105D01*
X278770Y499177D01*
X278738Y499247D01*
X278703Y499316D01*
X278664Y499383D01*
X278622Y499448D01*
X278577Y499511D01*
X278529Y499572D01*
X278478Y499630D01*
X278424Y499685D01*
X278367Y499738D01*
X278308Y499787D01*
X278246Y499834D01*
X278182Y499878D01*
X278116Y499918D01*
X278048Y499955D01*
X277978Y499989D01*
X277907Y500019D01*
X277834Y500045D01*
X277760Y500068D01*
X277685Y500087D01*
X277610Y500102D01*
X277533Y500114D01*
X277456Y500122D01*
X277379Y500126D01*
X277301Y500126D01*
X277224Y500122D01*
X277147Y500114D01*
X277070Y500102D01*
X276995Y500087D01*
X276920Y500068D01*
X276846Y500045D01*
X276773Y500019D01*
X276702Y499989D01*
X276632Y499955D01*
X276564Y499918D01*
X276498Y499878D01*
X276434Y499834D01*
X276372Y499787D01*
X276313Y499738D01*
X276256Y499685D01*
X276202Y499630D01*
X276151Y499572D01*
X276103Y499511D01*
X276058Y499448D01*
X276016Y499383D01*
X275977Y499316D01*
X275942Y499247D01*
X275910Y499177D01*
X275882Y499105D01*
X275857Y499031D01*
X275836Y498957D01*
X275819Y498882D01*
X275805Y498805D01*
X275796Y498729D01*
X275790Y498651D01*
X275788Y498574D01*
X273304Y498884D02*
X273304Y497022D01*
X273304Y498884D02*
X273306Y498954D01*
X273312Y499023D01*
X273322Y499092D01*
X273335Y499160D01*
X273353Y499228D01*
X273374Y499294D01*
X273399Y499359D01*
X273427Y499423D01*
X273459Y499485D01*
X273494Y499545D01*
X273533Y499603D01*
X273575Y499658D01*
X273620Y499712D01*
X273668Y499762D01*
X273718Y499810D01*
X273772Y499855D01*
X273827Y499897D01*
X273885Y499936D01*
X273945Y499971D01*
X274007Y500003D01*
X274071Y500031D01*
X274136Y500056D01*
X274202Y500077D01*
X274270Y500095D01*
X274338Y500108D01*
X274407Y500118D01*
X274476Y500124D01*
X274546Y500126D01*
X274616Y500124D01*
X274685Y500118D01*
X274754Y500108D01*
X274822Y500095D01*
X274890Y500077D01*
X274956Y500056D01*
X275021Y500031D01*
X275085Y500003D01*
X275147Y499971D01*
X275207Y499936D01*
X275265Y499897D01*
X275320Y499855D01*
X275374Y499810D01*
X275424Y499762D01*
X275472Y499712D01*
X275517Y499658D01*
X275559Y499603D01*
X275598Y499545D01*
X275633Y499485D01*
X275665Y499423D01*
X275693Y499359D01*
X275718Y499294D01*
X275739Y499228D01*
X275757Y499160D01*
X275770Y499092D01*
X275780Y499023D01*
X275786Y498954D01*
X275788Y498884D01*
X275788Y497642D01*
D16*
X419608Y514858D02*
X431292Y514858D01*
X419608Y514858D02*
X419608Y518104D01*
X419610Y518217D01*
X419616Y518330D01*
X419626Y518443D01*
X419640Y518556D01*
X419657Y518668D01*
X419679Y518779D01*
X419704Y518889D01*
X419734Y518999D01*
X419767Y519107D01*
X419804Y519214D01*
X419844Y519320D01*
X419889Y519424D01*
X419937Y519527D01*
X419988Y519628D01*
X420043Y519727D01*
X420101Y519824D01*
X420163Y519919D01*
X420228Y520012D01*
X420296Y520102D01*
X420367Y520190D01*
X420442Y520276D01*
X420519Y520359D01*
X420599Y520439D01*
X420682Y520516D01*
X420768Y520591D01*
X420856Y520662D01*
X420946Y520730D01*
X421039Y520795D01*
X421134Y520857D01*
X421231Y520915D01*
X421330Y520970D01*
X421431Y521021D01*
X421534Y521069D01*
X421638Y521114D01*
X421744Y521154D01*
X421851Y521191D01*
X421959Y521224D01*
X422069Y521254D01*
X422179Y521279D01*
X422290Y521301D01*
X422402Y521318D01*
X422515Y521332D01*
X422628Y521342D01*
X422741Y521348D01*
X422854Y521350D01*
X422967Y521348D01*
X423080Y521342D01*
X423193Y521332D01*
X423306Y521318D01*
X423418Y521301D01*
X423529Y521279D01*
X423639Y521254D01*
X423749Y521224D01*
X423857Y521191D01*
X423964Y521154D01*
X424070Y521114D01*
X424174Y521069D01*
X424277Y521021D01*
X424378Y520970D01*
X424477Y520915D01*
X424574Y520857D01*
X424669Y520795D01*
X424762Y520730D01*
X424852Y520662D01*
X424940Y520591D01*
X425026Y520516D01*
X425109Y520439D01*
X425189Y520359D01*
X425266Y520276D01*
X425341Y520190D01*
X425412Y520102D01*
X425480Y520012D01*
X425545Y519919D01*
X425607Y519824D01*
X425665Y519727D01*
X425720Y519628D01*
X425771Y519527D01*
X425819Y519424D01*
X425864Y519320D01*
X425904Y519214D01*
X425941Y519107D01*
X425974Y518999D01*
X426004Y518889D01*
X426029Y518779D01*
X426051Y518668D01*
X426068Y518556D01*
X426082Y518443D01*
X426092Y518330D01*
X426098Y518217D01*
X426100Y518104D01*
X426099Y518104D02*
X426099Y514858D01*
X426099Y518753D02*
X431292Y521349D01*
X422529Y532705D02*
X422422Y532703D01*
X422316Y532697D01*
X422210Y532687D01*
X422104Y532674D01*
X421998Y532656D01*
X421894Y532635D01*
X421790Y532610D01*
X421687Y532581D01*
X421586Y532549D01*
X421486Y532512D01*
X421387Y532472D01*
X421289Y532429D01*
X421193Y532382D01*
X421099Y532331D01*
X421007Y532277D01*
X420917Y532220D01*
X420829Y532160D01*
X420744Y532096D01*
X420661Y532029D01*
X420580Y531959D01*
X420502Y531887D01*
X420426Y531811D01*
X420354Y531733D01*
X420284Y531652D01*
X420217Y531569D01*
X420153Y531484D01*
X420093Y531396D01*
X420036Y531306D01*
X419982Y531214D01*
X419931Y531120D01*
X419884Y531024D01*
X419841Y530926D01*
X419801Y530827D01*
X419764Y530727D01*
X419732Y530626D01*
X419703Y530523D01*
X419678Y530419D01*
X419657Y530315D01*
X419639Y530209D01*
X419626Y530103D01*
X419616Y529997D01*
X419610Y529891D01*
X419608Y529784D01*
X419610Y529663D01*
X419616Y529542D01*
X419626Y529422D01*
X419639Y529301D01*
X419657Y529182D01*
X419678Y529062D01*
X419703Y528944D01*
X419732Y528827D01*
X419765Y528710D01*
X419801Y528595D01*
X419842Y528481D01*
X419885Y528368D01*
X419933Y528256D01*
X419984Y528147D01*
X420039Y528039D01*
X420097Y527932D01*
X420158Y527828D01*
X420223Y527726D01*
X420291Y527626D01*
X420362Y527528D01*
X420436Y527432D01*
X420513Y527339D01*
X420594Y527249D01*
X420677Y527161D01*
X420763Y527076D01*
X420852Y526993D01*
X420943Y526914D01*
X421037Y526837D01*
X421133Y526764D01*
X421231Y526694D01*
X421332Y526627D01*
X421435Y526563D01*
X421540Y526503D01*
X421647Y526445D01*
X421755Y526392D01*
X421865Y526342D01*
X421977Y526296D01*
X422090Y526253D01*
X422205Y526214D01*
X424801Y531731D02*
X424723Y531810D01*
X424643Y531886D01*
X424560Y531959D01*
X424474Y532029D01*
X424387Y532096D01*
X424296Y532160D01*
X424204Y532220D01*
X424110Y532278D01*
X424013Y532332D01*
X423915Y532382D01*
X423815Y532429D01*
X423714Y532473D01*
X423611Y532513D01*
X423506Y532549D01*
X423401Y532581D01*
X423294Y532610D01*
X423187Y532635D01*
X423078Y532657D01*
X422969Y532674D01*
X422860Y532688D01*
X422750Y532697D01*
X422639Y532703D01*
X422529Y532705D01*
X424801Y531732D02*
X431292Y526214D01*
X431292Y532705D01*
X428696Y537644D02*
X419608Y540241D01*
X428696Y537644D02*
X428696Y544135D01*
X426099Y542188D02*
X431292Y542188D01*
X342392Y286258D02*
X330708Y286258D01*
X330708Y289504D01*
X330710Y289617D01*
X330716Y289730D01*
X330726Y289843D01*
X330740Y289956D01*
X330757Y290068D01*
X330779Y290179D01*
X330804Y290289D01*
X330834Y290399D01*
X330867Y290507D01*
X330904Y290614D01*
X330944Y290720D01*
X330989Y290824D01*
X331037Y290927D01*
X331088Y291028D01*
X331143Y291127D01*
X331201Y291224D01*
X331263Y291319D01*
X331328Y291412D01*
X331396Y291502D01*
X331467Y291590D01*
X331542Y291676D01*
X331619Y291759D01*
X331699Y291839D01*
X331782Y291916D01*
X331868Y291991D01*
X331956Y292062D01*
X332046Y292130D01*
X332139Y292195D01*
X332234Y292257D01*
X332331Y292315D01*
X332430Y292370D01*
X332531Y292421D01*
X332634Y292469D01*
X332738Y292514D01*
X332844Y292554D01*
X332951Y292591D01*
X333059Y292624D01*
X333169Y292654D01*
X333279Y292679D01*
X333390Y292701D01*
X333502Y292718D01*
X333615Y292732D01*
X333728Y292742D01*
X333841Y292748D01*
X333954Y292750D01*
X334067Y292748D01*
X334180Y292742D01*
X334293Y292732D01*
X334406Y292718D01*
X334518Y292701D01*
X334629Y292679D01*
X334739Y292654D01*
X334849Y292624D01*
X334957Y292591D01*
X335064Y292554D01*
X335170Y292514D01*
X335274Y292469D01*
X335377Y292421D01*
X335478Y292370D01*
X335577Y292315D01*
X335674Y292257D01*
X335769Y292195D01*
X335862Y292130D01*
X335952Y292062D01*
X336040Y291991D01*
X336126Y291916D01*
X336209Y291839D01*
X336289Y291759D01*
X336366Y291676D01*
X336441Y291590D01*
X336512Y291502D01*
X336580Y291412D01*
X336645Y291319D01*
X336707Y291224D01*
X336765Y291127D01*
X336820Y291028D01*
X336871Y290927D01*
X336919Y290824D01*
X336964Y290720D01*
X337004Y290614D01*
X337041Y290507D01*
X337074Y290399D01*
X337104Y290289D01*
X337129Y290179D01*
X337151Y290068D01*
X337168Y289956D01*
X337182Y289843D01*
X337192Y289730D01*
X337198Y289617D01*
X337200Y289504D01*
X337199Y289504D02*
X337199Y286258D01*
X337199Y290153D02*
X342392Y292749D01*
X342392Y297614D02*
X342392Y300860D01*
X342390Y300973D01*
X342384Y301086D01*
X342374Y301199D01*
X342360Y301312D01*
X342343Y301424D01*
X342321Y301535D01*
X342296Y301645D01*
X342266Y301755D01*
X342233Y301863D01*
X342196Y301970D01*
X342156Y302076D01*
X342111Y302180D01*
X342063Y302283D01*
X342012Y302384D01*
X341957Y302483D01*
X341899Y302580D01*
X341837Y302675D01*
X341772Y302768D01*
X341704Y302858D01*
X341633Y302946D01*
X341558Y303032D01*
X341481Y303115D01*
X341401Y303195D01*
X341318Y303272D01*
X341232Y303347D01*
X341144Y303418D01*
X341054Y303486D01*
X340961Y303551D01*
X340866Y303613D01*
X340769Y303671D01*
X340670Y303726D01*
X340569Y303777D01*
X340466Y303825D01*
X340362Y303870D01*
X340256Y303910D01*
X340149Y303947D01*
X340041Y303980D01*
X339931Y304010D01*
X339821Y304035D01*
X339710Y304057D01*
X339598Y304074D01*
X339485Y304088D01*
X339372Y304098D01*
X339259Y304104D01*
X339146Y304106D01*
X339033Y304104D01*
X338920Y304098D01*
X338807Y304088D01*
X338694Y304074D01*
X338582Y304057D01*
X338471Y304035D01*
X338361Y304010D01*
X338251Y303980D01*
X338143Y303947D01*
X338036Y303910D01*
X337930Y303870D01*
X337826Y303825D01*
X337723Y303777D01*
X337622Y303726D01*
X337523Y303671D01*
X337426Y303613D01*
X337331Y303551D01*
X337238Y303486D01*
X337148Y303418D01*
X337060Y303347D01*
X336974Y303272D01*
X336891Y303195D01*
X336811Y303115D01*
X336734Y303032D01*
X336659Y302946D01*
X336588Y302858D01*
X336520Y302768D01*
X336455Y302675D01*
X336393Y302580D01*
X336335Y302483D01*
X336280Y302384D01*
X336229Y302283D01*
X336181Y302180D01*
X336136Y302076D01*
X336096Y301970D01*
X336059Y301863D01*
X336026Y301755D01*
X335996Y301645D01*
X335971Y301535D01*
X335949Y301424D01*
X335932Y301312D01*
X335918Y301199D01*
X335908Y301086D01*
X335902Y300973D01*
X335900Y300860D01*
X330708Y301509D02*
X330708Y297614D01*
X330708Y301509D02*
X330710Y301610D01*
X330716Y301710D01*
X330726Y301810D01*
X330739Y301910D01*
X330757Y302009D01*
X330778Y302108D01*
X330803Y302205D01*
X330832Y302302D01*
X330865Y302397D01*
X330901Y302491D01*
X330941Y302583D01*
X330984Y302674D01*
X331031Y302763D01*
X331081Y302850D01*
X331135Y302936D01*
X331192Y303019D01*
X331252Y303099D01*
X331315Y303178D01*
X331382Y303254D01*
X331451Y303327D01*
X331523Y303397D01*
X331597Y303465D01*
X331674Y303530D01*
X331754Y303591D01*
X331836Y303650D01*
X331920Y303705D01*
X332006Y303757D01*
X332094Y303806D01*
X332184Y303851D01*
X332276Y303893D01*
X332369Y303931D01*
X332464Y303965D01*
X332559Y303996D01*
X332656Y304023D01*
X332754Y304046D01*
X332853Y304066D01*
X332953Y304081D01*
X333053Y304093D01*
X333153Y304101D01*
X333254Y304105D01*
X333354Y304105D01*
X333455Y304101D01*
X333555Y304093D01*
X333655Y304081D01*
X333755Y304066D01*
X333854Y304046D01*
X333952Y304023D01*
X334049Y303996D01*
X334144Y303965D01*
X334239Y303931D01*
X334332Y303893D01*
X334424Y303851D01*
X334514Y303806D01*
X334602Y303757D01*
X334688Y303705D01*
X334772Y303650D01*
X334854Y303591D01*
X334934Y303530D01*
X335011Y303465D01*
X335085Y303397D01*
X335157Y303327D01*
X335226Y303254D01*
X335293Y303178D01*
X335356Y303099D01*
X335416Y303019D01*
X335473Y302936D01*
X335527Y302850D01*
X335577Y302763D01*
X335624Y302674D01*
X335667Y302583D01*
X335707Y302491D01*
X335743Y302397D01*
X335776Y302302D01*
X335805Y302205D01*
X335830Y302108D01*
X335851Y302009D01*
X335869Y301910D01*
X335882Y301810D01*
X335892Y301710D01*
X335898Y301610D01*
X335900Y301509D01*
X335901Y301509D02*
X335901Y298913D01*
X108458Y343408D02*
X108458Y355092D01*
X111704Y355092D01*
X111817Y355090D01*
X111930Y355084D01*
X112043Y355074D01*
X112156Y355060D01*
X112268Y355043D01*
X112379Y355021D01*
X112489Y354996D01*
X112599Y354966D01*
X112707Y354933D01*
X112814Y354896D01*
X112920Y354856D01*
X113024Y354811D01*
X113127Y354763D01*
X113228Y354712D01*
X113327Y354657D01*
X113424Y354599D01*
X113519Y354537D01*
X113612Y354472D01*
X113702Y354404D01*
X113790Y354333D01*
X113876Y354258D01*
X113959Y354181D01*
X114039Y354101D01*
X114116Y354018D01*
X114191Y353932D01*
X114262Y353844D01*
X114330Y353754D01*
X114395Y353661D01*
X114457Y353566D01*
X114515Y353469D01*
X114570Y353370D01*
X114621Y353269D01*
X114669Y353166D01*
X114714Y353062D01*
X114754Y352956D01*
X114791Y352849D01*
X114824Y352741D01*
X114854Y352631D01*
X114879Y352521D01*
X114901Y352410D01*
X114918Y352298D01*
X114932Y352185D01*
X114942Y352072D01*
X114948Y351959D01*
X114950Y351846D01*
X114948Y351733D01*
X114942Y351620D01*
X114932Y351507D01*
X114918Y351394D01*
X114901Y351282D01*
X114879Y351171D01*
X114854Y351061D01*
X114824Y350951D01*
X114791Y350843D01*
X114754Y350736D01*
X114714Y350630D01*
X114669Y350526D01*
X114621Y350423D01*
X114570Y350322D01*
X114515Y350223D01*
X114457Y350126D01*
X114395Y350031D01*
X114330Y349938D01*
X114262Y349848D01*
X114191Y349760D01*
X114116Y349674D01*
X114039Y349591D01*
X113959Y349511D01*
X113876Y349434D01*
X113790Y349359D01*
X113702Y349288D01*
X113612Y349220D01*
X113519Y349155D01*
X113424Y349093D01*
X113327Y349035D01*
X113228Y348980D01*
X113127Y348929D01*
X113024Y348881D01*
X112920Y348836D01*
X112814Y348796D01*
X112707Y348759D01*
X112599Y348726D01*
X112489Y348696D01*
X112379Y348671D01*
X112268Y348649D01*
X112156Y348632D01*
X112043Y348618D01*
X111930Y348608D01*
X111817Y348602D01*
X111704Y348600D01*
X111704Y348601D02*
X108458Y348601D01*
X112353Y348601D02*
X114949Y343408D01*
X119814Y346004D02*
X122411Y355092D01*
X119814Y346004D02*
X126305Y346004D01*
X124358Y348601D02*
X124358Y343408D01*
D11*
X274574Y339171D02*
X280162Y339171D01*
X274574Y339171D02*
X274574Y340724D01*
X274576Y340801D01*
X274582Y340879D01*
X274591Y340955D01*
X274605Y341032D01*
X274622Y341107D01*
X274643Y341181D01*
X274668Y341255D01*
X274696Y341327D01*
X274728Y341397D01*
X274763Y341466D01*
X274802Y341533D01*
X274844Y341598D01*
X274889Y341661D01*
X274937Y341722D01*
X274988Y341780D01*
X275042Y341835D01*
X275099Y341888D01*
X275158Y341937D01*
X275220Y341984D01*
X275284Y342028D01*
X275350Y342068D01*
X275418Y342105D01*
X275488Y342139D01*
X275559Y342169D01*
X275632Y342195D01*
X275706Y342218D01*
X275781Y342237D01*
X275856Y342252D01*
X275933Y342264D01*
X276010Y342272D01*
X276087Y342276D01*
X276165Y342276D01*
X276242Y342272D01*
X276319Y342264D01*
X276396Y342252D01*
X276471Y342237D01*
X276546Y342218D01*
X276620Y342195D01*
X276693Y342169D01*
X276764Y342139D01*
X276834Y342105D01*
X276902Y342068D01*
X276968Y342028D01*
X277032Y341984D01*
X277094Y341937D01*
X277153Y341888D01*
X277210Y341835D01*
X277264Y341780D01*
X277315Y341722D01*
X277363Y341661D01*
X277408Y341598D01*
X277450Y341533D01*
X277489Y341466D01*
X277524Y341397D01*
X277556Y341327D01*
X277584Y341255D01*
X277609Y341181D01*
X277630Y341107D01*
X277647Y341032D01*
X277661Y340955D01*
X277670Y340879D01*
X277676Y340801D01*
X277678Y340724D01*
X277678Y339171D01*
X277678Y341034D02*
X280162Y342276D01*
X280162Y344622D02*
X280162Y346484D01*
X280160Y346554D01*
X280154Y346623D01*
X280144Y346692D01*
X280131Y346760D01*
X280113Y346828D01*
X280092Y346894D01*
X280067Y346959D01*
X280039Y347023D01*
X280007Y347085D01*
X279972Y347145D01*
X279933Y347203D01*
X279891Y347258D01*
X279846Y347312D01*
X279798Y347362D01*
X279748Y347410D01*
X279694Y347455D01*
X279639Y347497D01*
X279581Y347536D01*
X279521Y347571D01*
X279459Y347603D01*
X279395Y347631D01*
X279330Y347656D01*
X279264Y347677D01*
X279196Y347695D01*
X279128Y347708D01*
X279059Y347718D01*
X278990Y347724D01*
X278920Y347726D01*
X278299Y347726D01*
X278229Y347724D01*
X278160Y347718D01*
X278091Y347708D01*
X278023Y347695D01*
X277955Y347677D01*
X277889Y347656D01*
X277824Y347631D01*
X277760Y347603D01*
X277698Y347571D01*
X277638Y347536D01*
X277580Y347497D01*
X277525Y347455D01*
X277471Y347410D01*
X277421Y347362D01*
X277373Y347312D01*
X277328Y347258D01*
X277286Y347203D01*
X277247Y347145D01*
X277212Y347085D01*
X277180Y347023D01*
X277152Y346959D01*
X277127Y346894D01*
X277106Y346828D01*
X277088Y346760D01*
X277075Y346692D01*
X277065Y346623D01*
X277059Y346554D01*
X277057Y346484D01*
X277058Y346484D02*
X277058Y344622D01*
X274574Y344622D01*
X274574Y347726D01*
D16*
X419608Y324358D02*
X431292Y324358D01*
X419608Y324358D02*
X419608Y327604D01*
X419610Y327717D01*
X419616Y327830D01*
X419626Y327943D01*
X419640Y328056D01*
X419657Y328168D01*
X419679Y328279D01*
X419704Y328389D01*
X419734Y328499D01*
X419767Y328607D01*
X419804Y328714D01*
X419844Y328820D01*
X419889Y328924D01*
X419937Y329027D01*
X419988Y329128D01*
X420043Y329227D01*
X420101Y329324D01*
X420163Y329419D01*
X420228Y329512D01*
X420296Y329602D01*
X420367Y329690D01*
X420442Y329776D01*
X420519Y329859D01*
X420599Y329939D01*
X420682Y330016D01*
X420768Y330091D01*
X420856Y330162D01*
X420946Y330230D01*
X421039Y330295D01*
X421134Y330357D01*
X421231Y330415D01*
X421330Y330470D01*
X421431Y330521D01*
X421534Y330569D01*
X421638Y330614D01*
X421744Y330654D01*
X421851Y330691D01*
X421959Y330724D01*
X422069Y330754D01*
X422179Y330779D01*
X422290Y330801D01*
X422402Y330818D01*
X422515Y330832D01*
X422628Y330842D01*
X422741Y330848D01*
X422854Y330850D01*
X422967Y330848D01*
X423080Y330842D01*
X423193Y330832D01*
X423306Y330818D01*
X423418Y330801D01*
X423529Y330779D01*
X423639Y330754D01*
X423749Y330724D01*
X423857Y330691D01*
X423964Y330654D01*
X424070Y330614D01*
X424174Y330569D01*
X424277Y330521D01*
X424378Y330470D01*
X424477Y330415D01*
X424574Y330357D01*
X424669Y330295D01*
X424762Y330230D01*
X424852Y330162D01*
X424940Y330091D01*
X425026Y330016D01*
X425109Y329939D01*
X425189Y329859D01*
X425266Y329776D01*
X425341Y329690D01*
X425412Y329602D01*
X425480Y329512D01*
X425545Y329419D01*
X425607Y329324D01*
X425665Y329227D01*
X425720Y329128D01*
X425771Y329027D01*
X425819Y328924D01*
X425864Y328820D01*
X425904Y328714D01*
X425941Y328607D01*
X425974Y328499D01*
X426004Y328389D01*
X426029Y328279D01*
X426051Y328168D01*
X426068Y328056D01*
X426082Y327943D01*
X426092Y327830D01*
X426098Y327717D01*
X426100Y327604D01*
X426099Y327604D02*
X426099Y324358D01*
X426099Y328253D02*
X431292Y330849D01*
X424801Y335714D02*
X424801Y339609D01*
X424803Y339708D01*
X424809Y339808D01*
X424818Y339907D01*
X424831Y340005D01*
X424848Y340103D01*
X424869Y340201D01*
X424894Y340297D01*
X424922Y340392D01*
X424954Y340486D01*
X424989Y340579D01*
X425028Y340671D01*
X425071Y340761D01*
X425116Y340849D01*
X425166Y340936D01*
X425218Y341020D01*
X425274Y341103D01*
X425332Y341183D01*
X425394Y341261D01*
X425459Y341336D01*
X425527Y341409D01*
X425597Y341479D01*
X425670Y341547D01*
X425745Y341612D01*
X425823Y341674D01*
X425903Y341732D01*
X425986Y341788D01*
X426070Y341840D01*
X426157Y341890D01*
X426245Y341935D01*
X426335Y341978D01*
X426427Y342017D01*
X426520Y342052D01*
X426614Y342084D01*
X426709Y342112D01*
X426805Y342137D01*
X426903Y342158D01*
X427001Y342175D01*
X427099Y342188D01*
X427198Y342197D01*
X427298Y342203D01*
X427397Y342205D01*
X428046Y342205D01*
X428046Y342206D02*
X428159Y342204D01*
X428272Y342198D01*
X428385Y342188D01*
X428498Y342174D01*
X428610Y342157D01*
X428721Y342135D01*
X428831Y342110D01*
X428941Y342080D01*
X429049Y342047D01*
X429156Y342010D01*
X429262Y341970D01*
X429366Y341925D01*
X429469Y341877D01*
X429570Y341826D01*
X429669Y341771D01*
X429766Y341713D01*
X429861Y341651D01*
X429954Y341586D01*
X430044Y341518D01*
X430132Y341447D01*
X430218Y341372D01*
X430301Y341295D01*
X430381Y341215D01*
X430458Y341132D01*
X430533Y341046D01*
X430604Y340958D01*
X430672Y340868D01*
X430737Y340775D01*
X430799Y340680D01*
X430857Y340583D01*
X430912Y340484D01*
X430963Y340383D01*
X431011Y340280D01*
X431056Y340176D01*
X431096Y340070D01*
X431133Y339963D01*
X431166Y339855D01*
X431196Y339745D01*
X431221Y339635D01*
X431243Y339524D01*
X431260Y339412D01*
X431274Y339299D01*
X431284Y339186D01*
X431290Y339073D01*
X431292Y338960D01*
X431290Y338847D01*
X431284Y338734D01*
X431274Y338621D01*
X431260Y338508D01*
X431243Y338396D01*
X431221Y338285D01*
X431196Y338175D01*
X431166Y338065D01*
X431133Y337957D01*
X431096Y337850D01*
X431056Y337744D01*
X431011Y337640D01*
X430963Y337537D01*
X430912Y337436D01*
X430857Y337337D01*
X430799Y337240D01*
X430737Y337145D01*
X430672Y337052D01*
X430604Y336962D01*
X430533Y336874D01*
X430458Y336788D01*
X430381Y336705D01*
X430301Y336625D01*
X430218Y336548D01*
X430132Y336473D01*
X430044Y336402D01*
X429954Y336334D01*
X429861Y336269D01*
X429766Y336207D01*
X429669Y336149D01*
X429570Y336094D01*
X429469Y336043D01*
X429366Y335995D01*
X429262Y335950D01*
X429156Y335910D01*
X429049Y335873D01*
X428941Y335840D01*
X428831Y335810D01*
X428721Y335785D01*
X428610Y335763D01*
X428498Y335746D01*
X428385Y335732D01*
X428272Y335722D01*
X428159Y335716D01*
X428046Y335714D01*
X424801Y335714D01*
X424658Y335716D01*
X424515Y335722D01*
X424372Y335732D01*
X424230Y335746D01*
X424088Y335763D01*
X423946Y335785D01*
X423805Y335810D01*
X423665Y335840D01*
X423526Y335873D01*
X423388Y335910D01*
X423251Y335951D01*
X423115Y335995D01*
X422980Y336044D01*
X422847Y336096D01*
X422715Y336151D01*
X422585Y336211D01*
X422456Y336274D01*
X422329Y336340D01*
X422205Y336410D01*
X422082Y336483D01*
X421961Y336560D01*
X421842Y336639D01*
X421726Y336723D01*
X421611Y336809D01*
X421500Y336898D01*
X421391Y336991D01*
X421284Y337086D01*
X421180Y337185D01*
X421079Y337286D01*
X420980Y337390D01*
X420885Y337496D01*
X420792Y337606D01*
X420703Y337717D01*
X420617Y337831D01*
X420534Y337948D01*
X420454Y338067D01*
X420377Y338188D01*
X420304Y338310D01*
X420234Y338435D01*
X420168Y338562D01*
X420105Y338691D01*
X420045Y338821D01*
X419990Y338953D01*
X419938Y339086D01*
X419889Y339221D01*
X419845Y339357D01*
X419804Y339494D01*
X419767Y339632D01*
X419734Y339771D01*
X419704Y339911D01*
X419679Y340052D01*
X419657Y340194D01*
X419640Y340336D01*
X419626Y340478D01*
X419616Y340621D01*
X419610Y340764D01*
X419608Y340907D01*
X108458Y368808D02*
X108458Y380492D01*
X111704Y380492D01*
X111817Y380490D01*
X111930Y380484D01*
X112043Y380474D01*
X112156Y380460D01*
X112268Y380443D01*
X112379Y380421D01*
X112489Y380396D01*
X112599Y380366D01*
X112707Y380333D01*
X112814Y380296D01*
X112920Y380256D01*
X113024Y380211D01*
X113127Y380163D01*
X113228Y380112D01*
X113327Y380057D01*
X113424Y379999D01*
X113519Y379937D01*
X113612Y379872D01*
X113702Y379804D01*
X113790Y379733D01*
X113876Y379658D01*
X113959Y379581D01*
X114039Y379501D01*
X114116Y379418D01*
X114191Y379332D01*
X114262Y379244D01*
X114330Y379154D01*
X114395Y379061D01*
X114457Y378966D01*
X114515Y378869D01*
X114570Y378770D01*
X114621Y378669D01*
X114669Y378566D01*
X114714Y378462D01*
X114754Y378356D01*
X114791Y378249D01*
X114824Y378141D01*
X114854Y378031D01*
X114879Y377921D01*
X114901Y377810D01*
X114918Y377698D01*
X114932Y377585D01*
X114942Y377472D01*
X114948Y377359D01*
X114950Y377246D01*
X114948Y377133D01*
X114942Y377020D01*
X114932Y376907D01*
X114918Y376794D01*
X114901Y376682D01*
X114879Y376571D01*
X114854Y376461D01*
X114824Y376351D01*
X114791Y376243D01*
X114754Y376136D01*
X114714Y376030D01*
X114669Y375926D01*
X114621Y375823D01*
X114570Y375722D01*
X114515Y375623D01*
X114457Y375526D01*
X114395Y375431D01*
X114330Y375338D01*
X114262Y375248D01*
X114191Y375160D01*
X114116Y375074D01*
X114039Y374991D01*
X113959Y374911D01*
X113876Y374834D01*
X113790Y374759D01*
X113702Y374688D01*
X113612Y374620D01*
X113519Y374555D01*
X113424Y374493D01*
X113327Y374435D01*
X113228Y374380D01*
X113127Y374329D01*
X113024Y374281D01*
X112920Y374236D01*
X112814Y374196D01*
X112707Y374159D01*
X112599Y374126D01*
X112489Y374096D01*
X112379Y374071D01*
X112268Y374049D01*
X112156Y374032D01*
X112043Y374018D01*
X111930Y374008D01*
X111817Y374002D01*
X111704Y374000D01*
X111704Y374001D02*
X108458Y374001D01*
X112353Y374001D02*
X114949Y368808D01*
X119814Y379194D02*
X119814Y380492D01*
X126305Y380492D01*
X123060Y368808D01*
D11*
X274574Y363301D02*
X280162Y363301D01*
X274574Y363301D02*
X274574Y364854D01*
X274576Y364931D01*
X274582Y365009D01*
X274591Y365085D01*
X274605Y365162D01*
X274622Y365237D01*
X274643Y365311D01*
X274668Y365385D01*
X274696Y365457D01*
X274728Y365527D01*
X274763Y365596D01*
X274802Y365663D01*
X274844Y365728D01*
X274889Y365791D01*
X274937Y365852D01*
X274988Y365910D01*
X275042Y365965D01*
X275099Y366018D01*
X275158Y366067D01*
X275220Y366114D01*
X275284Y366158D01*
X275350Y366198D01*
X275418Y366235D01*
X275488Y366269D01*
X275559Y366299D01*
X275632Y366325D01*
X275706Y366348D01*
X275781Y366367D01*
X275856Y366382D01*
X275933Y366394D01*
X276010Y366402D01*
X276087Y366406D01*
X276165Y366406D01*
X276242Y366402D01*
X276319Y366394D01*
X276396Y366382D01*
X276471Y366367D01*
X276546Y366348D01*
X276620Y366325D01*
X276693Y366299D01*
X276764Y366269D01*
X276834Y366235D01*
X276902Y366198D01*
X276968Y366158D01*
X277032Y366114D01*
X277094Y366067D01*
X277153Y366018D01*
X277210Y365965D01*
X277264Y365910D01*
X277315Y365852D01*
X277363Y365791D01*
X277408Y365728D01*
X277450Y365663D01*
X277489Y365596D01*
X277524Y365527D01*
X277556Y365457D01*
X277584Y365385D01*
X277609Y365311D01*
X277630Y365237D01*
X277647Y365162D01*
X277661Y365085D01*
X277670Y365009D01*
X277676Y364931D01*
X277678Y364854D01*
X277678Y363301D01*
X277678Y365164D02*
X280162Y366406D01*
X278610Y368752D02*
X278533Y368754D01*
X278455Y368760D01*
X278379Y368769D01*
X278302Y368783D01*
X278227Y368800D01*
X278153Y368821D01*
X278079Y368846D01*
X278007Y368874D01*
X277937Y368906D01*
X277868Y368941D01*
X277801Y368980D01*
X277736Y369022D01*
X277673Y369067D01*
X277612Y369115D01*
X277554Y369166D01*
X277499Y369220D01*
X277446Y369277D01*
X277397Y369336D01*
X277350Y369398D01*
X277306Y369462D01*
X277266Y369528D01*
X277229Y369596D01*
X277195Y369666D01*
X277165Y369737D01*
X277139Y369810D01*
X277116Y369884D01*
X277097Y369959D01*
X277082Y370034D01*
X277070Y370111D01*
X277062Y370188D01*
X277058Y370265D01*
X277058Y370343D01*
X277062Y370420D01*
X277070Y370497D01*
X277082Y370574D01*
X277097Y370649D01*
X277116Y370724D01*
X277139Y370798D01*
X277165Y370871D01*
X277195Y370942D01*
X277229Y371012D01*
X277266Y371080D01*
X277306Y371146D01*
X277350Y371210D01*
X277397Y371272D01*
X277446Y371331D01*
X277499Y371388D01*
X277554Y371442D01*
X277612Y371493D01*
X277673Y371541D01*
X277736Y371586D01*
X277801Y371628D01*
X277868Y371667D01*
X277937Y371702D01*
X278007Y371734D01*
X278079Y371762D01*
X278153Y371787D01*
X278227Y371808D01*
X278302Y371825D01*
X278379Y371839D01*
X278455Y371848D01*
X278533Y371854D01*
X278610Y371856D01*
X278687Y371854D01*
X278765Y371848D01*
X278841Y371839D01*
X278918Y371825D01*
X278993Y371808D01*
X279067Y371787D01*
X279141Y371762D01*
X279213Y371734D01*
X279283Y371702D01*
X279352Y371667D01*
X279419Y371628D01*
X279484Y371586D01*
X279547Y371541D01*
X279608Y371493D01*
X279666Y371442D01*
X279721Y371388D01*
X279774Y371331D01*
X279823Y371272D01*
X279870Y371210D01*
X279914Y371146D01*
X279954Y371080D01*
X279991Y371012D01*
X280025Y370942D01*
X280055Y370871D01*
X280081Y370798D01*
X280104Y370724D01*
X280123Y370649D01*
X280138Y370574D01*
X280150Y370497D01*
X280158Y370420D01*
X280162Y370343D01*
X280162Y370265D01*
X280158Y370188D01*
X280150Y370111D01*
X280138Y370034D01*
X280123Y369959D01*
X280104Y369884D01*
X280081Y369810D01*
X280055Y369737D01*
X280025Y369666D01*
X279991Y369596D01*
X279954Y369528D01*
X279914Y369462D01*
X279870Y369398D01*
X279823Y369336D01*
X279774Y369277D01*
X279721Y369220D01*
X279666Y369166D01*
X279608Y369115D01*
X279547Y369067D01*
X279484Y369022D01*
X279419Y368980D01*
X279352Y368941D01*
X279283Y368906D01*
X279213Y368874D01*
X279141Y368846D01*
X279067Y368821D01*
X278993Y368800D01*
X278918Y368783D01*
X278841Y368769D01*
X278765Y368760D01*
X278687Y368754D01*
X278610Y368752D01*
X275816Y369062D02*
X275746Y369064D01*
X275677Y369070D01*
X275608Y369080D01*
X275540Y369093D01*
X275472Y369111D01*
X275406Y369132D01*
X275341Y369157D01*
X275277Y369185D01*
X275215Y369217D01*
X275155Y369252D01*
X275097Y369291D01*
X275042Y369333D01*
X274988Y369378D01*
X274938Y369426D01*
X274890Y369476D01*
X274845Y369530D01*
X274803Y369585D01*
X274764Y369643D01*
X274729Y369703D01*
X274697Y369765D01*
X274669Y369829D01*
X274644Y369894D01*
X274623Y369960D01*
X274605Y370028D01*
X274592Y370096D01*
X274582Y370165D01*
X274576Y370234D01*
X274574Y370304D01*
X274576Y370374D01*
X274582Y370443D01*
X274592Y370512D01*
X274605Y370580D01*
X274623Y370648D01*
X274644Y370714D01*
X274669Y370779D01*
X274697Y370843D01*
X274729Y370905D01*
X274764Y370965D01*
X274803Y371023D01*
X274845Y371078D01*
X274890Y371132D01*
X274938Y371182D01*
X274988Y371230D01*
X275042Y371275D01*
X275097Y371317D01*
X275155Y371356D01*
X275215Y371391D01*
X275277Y371423D01*
X275341Y371451D01*
X275406Y371476D01*
X275472Y371497D01*
X275540Y371515D01*
X275608Y371528D01*
X275677Y371538D01*
X275746Y371544D01*
X275816Y371546D01*
X275886Y371544D01*
X275955Y371538D01*
X276024Y371528D01*
X276092Y371515D01*
X276160Y371497D01*
X276226Y371476D01*
X276291Y371451D01*
X276355Y371423D01*
X276417Y371391D01*
X276477Y371356D01*
X276535Y371317D01*
X276590Y371275D01*
X276644Y371230D01*
X276694Y371182D01*
X276742Y371132D01*
X276787Y371078D01*
X276829Y371023D01*
X276868Y370965D01*
X276903Y370905D01*
X276935Y370843D01*
X276963Y370779D01*
X276988Y370714D01*
X277009Y370648D01*
X277027Y370580D01*
X277040Y370512D01*
X277050Y370443D01*
X277056Y370374D01*
X277058Y370304D01*
X277056Y370234D01*
X277050Y370165D01*
X277040Y370096D01*
X277027Y370028D01*
X277009Y369960D01*
X276988Y369894D01*
X276963Y369829D01*
X276935Y369765D01*
X276903Y369703D01*
X276868Y369643D01*
X276829Y369585D01*
X276787Y369530D01*
X276742Y369476D01*
X276694Y369426D01*
X276644Y369378D01*
X276590Y369333D01*
X276535Y369291D01*
X276477Y369252D01*
X276417Y369217D01*
X276355Y369185D01*
X276291Y369157D01*
X276226Y369132D01*
X276160Y369111D01*
X276092Y369093D01*
X276024Y369080D01*
X275955Y369070D01*
X275886Y369064D01*
X275816Y369062D01*
D16*
X330708Y349758D02*
X342392Y349758D01*
X330708Y349758D02*
X330708Y353004D01*
X330710Y353117D01*
X330716Y353230D01*
X330726Y353343D01*
X330740Y353456D01*
X330757Y353568D01*
X330779Y353679D01*
X330804Y353789D01*
X330834Y353899D01*
X330867Y354007D01*
X330904Y354114D01*
X330944Y354220D01*
X330989Y354324D01*
X331037Y354427D01*
X331088Y354528D01*
X331143Y354627D01*
X331201Y354724D01*
X331263Y354819D01*
X331328Y354912D01*
X331396Y355002D01*
X331467Y355090D01*
X331542Y355176D01*
X331619Y355259D01*
X331699Y355339D01*
X331782Y355416D01*
X331868Y355491D01*
X331956Y355562D01*
X332046Y355630D01*
X332139Y355695D01*
X332234Y355757D01*
X332331Y355815D01*
X332430Y355870D01*
X332531Y355921D01*
X332634Y355969D01*
X332738Y356014D01*
X332844Y356054D01*
X332951Y356091D01*
X333059Y356124D01*
X333169Y356154D01*
X333279Y356179D01*
X333390Y356201D01*
X333502Y356218D01*
X333615Y356232D01*
X333728Y356242D01*
X333841Y356248D01*
X333954Y356250D01*
X334067Y356248D01*
X334180Y356242D01*
X334293Y356232D01*
X334406Y356218D01*
X334518Y356201D01*
X334629Y356179D01*
X334739Y356154D01*
X334849Y356124D01*
X334957Y356091D01*
X335064Y356054D01*
X335170Y356014D01*
X335274Y355969D01*
X335377Y355921D01*
X335478Y355870D01*
X335577Y355815D01*
X335674Y355757D01*
X335769Y355695D01*
X335862Y355630D01*
X335952Y355562D01*
X336040Y355491D01*
X336126Y355416D01*
X336209Y355339D01*
X336289Y355259D01*
X336366Y355176D01*
X336441Y355090D01*
X336512Y355002D01*
X336580Y354912D01*
X336645Y354819D01*
X336707Y354724D01*
X336765Y354627D01*
X336820Y354528D01*
X336871Y354427D01*
X336919Y354324D01*
X336964Y354220D01*
X337004Y354114D01*
X337041Y354007D01*
X337074Y353899D01*
X337104Y353789D01*
X337129Y353679D01*
X337151Y353568D01*
X337168Y353456D01*
X337182Y353343D01*
X337192Y353230D01*
X337198Y353117D01*
X337200Y353004D01*
X337199Y353004D02*
X337199Y349758D01*
X337199Y353653D02*
X342392Y356249D01*
X337199Y363711D02*
X337199Y367605D01*
X337199Y363711D02*
X337197Y363612D01*
X337191Y363512D01*
X337182Y363413D01*
X337169Y363315D01*
X337152Y363217D01*
X337131Y363119D01*
X337106Y363023D01*
X337078Y362928D01*
X337046Y362834D01*
X337011Y362741D01*
X336972Y362649D01*
X336929Y362559D01*
X336884Y362471D01*
X336834Y362384D01*
X336782Y362300D01*
X336726Y362217D01*
X336668Y362137D01*
X336606Y362059D01*
X336541Y361984D01*
X336473Y361911D01*
X336403Y361841D01*
X336330Y361773D01*
X336255Y361708D01*
X336177Y361646D01*
X336097Y361588D01*
X336014Y361532D01*
X335930Y361480D01*
X335843Y361430D01*
X335755Y361385D01*
X335665Y361342D01*
X335573Y361303D01*
X335480Y361268D01*
X335386Y361236D01*
X335291Y361208D01*
X335195Y361183D01*
X335097Y361162D01*
X334999Y361145D01*
X334901Y361132D01*
X334802Y361123D01*
X334702Y361117D01*
X334603Y361115D01*
X334603Y361114D02*
X333954Y361114D01*
X333841Y361116D01*
X333728Y361122D01*
X333615Y361132D01*
X333502Y361146D01*
X333390Y361163D01*
X333279Y361185D01*
X333169Y361210D01*
X333059Y361240D01*
X332951Y361273D01*
X332844Y361310D01*
X332738Y361350D01*
X332634Y361395D01*
X332531Y361443D01*
X332430Y361494D01*
X332331Y361549D01*
X332234Y361607D01*
X332139Y361669D01*
X332046Y361734D01*
X331956Y361802D01*
X331868Y361873D01*
X331782Y361948D01*
X331699Y362025D01*
X331619Y362105D01*
X331542Y362188D01*
X331467Y362274D01*
X331396Y362362D01*
X331328Y362452D01*
X331263Y362545D01*
X331201Y362640D01*
X331143Y362737D01*
X331088Y362836D01*
X331037Y362937D01*
X330989Y363040D01*
X330944Y363144D01*
X330904Y363250D01*
X330867Y363357D01*
X330834Y363465D01*
X330804Y363575D01*
X330779Y363685D01*
X330757Y363796D01*
X330740Y363908D01*
X330726Y364021D01*
X330716Y364134D01*
X330710Y364247D01*
X330708Y364360D01*
X330710Y364473D01*
X330716Y364586D01*
X330726Y364699D01*
X330740Y364812D01*
X330757Y364924D01*
X330779Y365035D01*
X330804Y365145D01*
X330834Y365255D01*
X330867Y365363D01*
X330904Y365470D01*
X330944Y365576D01*
X330989Y365680D01*
X331037Y365783D01*
X331088Y365884D01*
X331143Y365983D01*
X331201Y366080D01*
X331263Y366175D01*
X331328Y366268D01*
X331396Y366358D01*
X331467Y366446D01*
X331542Y366532D01*
X331619Y366615D01*
X331699Y366695D01*
X331782Y366772D01*
X331868Y366847D01*
X331956Y366918D01*
X332046Y366986D01*
X332139Y367051D01*
X332234Y367113D01*
X332331Y367171D01*
X332430Y367226D01*
X332531Y367277D01*
X332634Y367325D01*
X332738Y367370D01*
X332844Y367410D01*
X332951Y367447D01*
X333059Y367480D01*
X333169Y367510D01*
X333279Y367535D01*
X333390Y367557D01*
X333502Y367574D01*
X333615Y367588D01*
X333728Y367598D01*
X333841Y367604D01*
X333954Y367606D01*
X333954Y367605D02*
X337199Y367605D01*
X337199Y367606D02*
X337342Y367604D01*
X337485Y367598D01*
X337628Y367588D01*
X337770Y367574D01*
X337912Y367557D01*
X338054Y367535D01*
X338195Y367510D01*
X338335Y367480D01*
X338474Y367447D01*
X338612Y367410D01*
X338749Y367369D01*
X338885Y367325D01*
X339020Y367276D01*
X339153Y367224D01*
X339285Y367169D01*
X339415Y367109D01*
X339544Y367046D01*
X339671Y366980D01*
X339796Y366910D01*
X339918Y366837D01*
X340039Y366760D01*
X340158Y366680D01*
X340274Y366597D01*
X340389Y366511D01*
X340500Y366422D01*
X340610Y366329D01*
X340716Y366234D01*
X340820Y366135D01*
X340921Y366034D01*
X341020Y365930D01*
X341115Y365824D01*
X341208Y365714D01*
X341297Y365603D01*
X341383Y365488D01*
X341466Y365372D01*
X341546Y365253D01*
X341623Y365132D01*
X341696Y365010D01*
X341766Y364885D01*
X341832Y364758D01*
X341895Y364629D01*
X341955Y364499D01*
X342010Y364367D01*
X342062Y364234D01*
X342111Y364099D01*
X342155Y363963D01*
X342196Y363826D01*
X342233Y363688D01*
X342266Y363549D01*
X342296Y363409D01*
X342321Y363268D01*
X342343Y363126D01*
X342360Y362984D01*
X342374Y362842D01*
X342384Y362699D01*
X342390Y362556D01*
X342392Y362413D01*
D17*
X49000Y341600D02*
X49000Y547400D01*
X49000Y341600D02*
X78000Y341600D01*
X78000Y547400D01*
X49000Y547400D01*
D18*
X74500Y546300D02*
X74500Y342700D01*
D17*
X118080Y259820D02*
X171480Y259820D01*
X171480Y288820D01*
X118080Y288820D01*
X118080Y259820D01*
D18*
X119180Y285320D02*
X170380Y285320D01*
X38100Y289560D02*
X38110Y290402D01*
X38141Y291243D01*
X38193Y292083D01*
X38265Y292921D01*
X38358Y293757D01*
X38471Y294591D01*
X38605Y295422D01*
X38759Y296250D01*
X38933Y297073D01*
X39128Y297892D01*
X39342Y298706D01*
X39577Y299514D01*
X39831Y300316D01*
X40104Y301112D01*
X40398Y301901D01*
X40710Y302682D01*
X41042Y303456D01*
X41392Y304221D01*
X41761Y304977D01*
X42149Y305724D01*
X42555Y306461D01*
X42978Y307189D01*
X43420Y307905D01*
X43879Y308611D01*
X44355Y309304D01*
X44848Y309987D01*
X45358Y310656D01*
X45883Y311313D01*
X46425Y311957D01*
X46983Y312588D01*
X47556Y313204D01*
X48143Y313807D01*
X48746Y314394D01*
X49362Y314967D01*
X49993Y315525D01*
X50637Y316067D01*
X51294Y316592D01*
X51963Y317102D01*
X52646Y317595D01*
X53339Y318071D01*
X54045Y318530D01*
X54761Y318972D01*
X55489Y319395D01*
X56226Y319801D01*
X56973Y320189D01*
X57729Y320558D01*
X58494Y320908D01*
X59268Y321240D01*
X60049Y321552D01*
X60838Y321846D01*
X61634Y322119D01*
X62436Y322373D01*
X63244Y322608D01*
X64058Y322822D01*
X64877Y323017D01*
X65700Y323191D01*
X66528Y323345D01*
X67359Y323479D01*
X68193Y323592D01*
X69029Y323685D01*
X69867Y323757D01*
X70707Y323809D01*
X71548Y323840D01*
X72390Y323850D01*
X73232Y323840D01*
X74073Y323809D01*
X74913Y323757D01*
X75751Y323685D01*
X76587Y323592D01*
X77421Y323479D01*
X78252Y323345D01*
X79080Y323191D01*
X79903Y323017D01*
X80722Y322822D01*
X81536Y322608D01*
X82344Y322373D01*
X83146Y322119D01*
X83942Y321846D01*
X84731Y321552D01*
X85512Y321240D01*
X86286Y320908D01*
X87051Y320558D01*
X87807Y320189D01*
X88554Y319801D01*
X89291Y319395D01*
X90019Y318972D01*
X90735Y318530D01*
X91441Y318071D01*
X92134Y317595D01*
X92817Y317102D01*
X93486Y316592D01*
X94143Y316067D01*
X94787Y315525D01*
X95418Y314967D01*
X96034Y314394D01*
X96637Y313807D01*
X97224Y313204D01*
X97797Y312588D01*
X98355Y311957D01*
X98897Y311313D01*
X99422Y310656D01*
X99932Y309987D01*
X100425Y309304D01*
X100901Y308611D01*
X101360Y307905D01*
X101802Y307189D01*
X102225Y306461D01*
X102631Y305724D01*
X103019Y304977D01*
X103388Y304221D01*
X103738Y303456D01*
X104070Y302682D01*
X104382Y301901D01*
X104676Y301112D01*
X104949Y300316D01*
X105203Y299514D01*
X105438Y298706D01*
X105652Y297892D01*
X105847Y297073D01*
X106021Y296250D01*
X106175Y295422D01*
X106309Y294591D01*
X106422Y293757D01*
X106515Y292921D01*
X106587Y292083D01*
X106639Y291243D01*
X106670Y290402D01*
X106680Y289560D01*
X106670Y288718D01*
X106639Y287877D01*
X106587Y287037D01*
X106515Y286199D01*
X106422Y285363D01*
X106309Y284529D01*
X106175Y283698D01*
X106021Y282870D01*
X105847Y282047D01*
X105652Y281228D01*
X105438Y280414D01*
X105203Y279606D01*
X104949Y278804D01*
X104676Y278008D01*
X104382Y277219D01*
X104070Y276438D01*
X103738Y275664D01*
X103388Y274899D01*
X103019Y274143D01*
X102631Y273396D01*
X102225Y272659D01*
X101802Y271931D01*
X101360Y271215D01*
X100901Y270509D01*
X100425Y269816D01*
X99932Y269133D01*
X99422Y268464D01*
X98897Y267807D01*
X98355Y267163D01*
X97797Y266532D01*
X97224Y265916D01*
X96637Y265313D01*
X96034Y264726D01*
X95418Y264153D01*
X94787Y263595D01*
X94143Y263053D01*
X93486Y262528D01*
X92817Y262018D01*
X92134Y261525D01*
X91441Y261049D01*
X90735Y260590D01*
X90019Y260148D01*
X89291Y259725D01*
X88554Y259319D01*
X87807Y258931D01*
X87051Y258562D01*
X86286Y258212D01*
X85512Y257880D01*
X84731Y257568D01*
X83942Y257274D01*
X83146Y257001D01*
X82344Y256747D01*
X81536Y256512D01*
X80722Y256298D01*
X79903Y256103D01*
X79080Y255929D01*
X78252Y255775D01*
X77421Y255641D01*
X76587Y255528D01*
X75751Y255435D01*
X74913Y255363D01*
X74073Y255311D01*
X73232Y255280D01*
X72390Y255270D01*
X71548Y255280D01*
X70707Y255311D01*
X69867Y255363D01*
X69029Y255435D01*
X68193Y255528D01*
X67359Y255641D01*
X66528Y255775D01*
X65700Y255929D01*
X64877Y256103D01*
X64058Y256298D01*
X63244Y256512D01*
X62436Y256747D01*
X61634Y257001D01*
X60838Y257274D01*
X60049Y257568D01*
X59268Y257880D01*
X58494Y258212D01*
X57729Y258562D01*
X56973Y258931D01*
X56226Y259319D01*
X55489Y259725D01*
X54761Y260148D01*
X54045Y260590D01*
X53339Y261049D01*
X52646Y261525D01*
X51963Y262018D01*
X51294Y262528D01*
X50637Y263053D01*
X49993Y263595D01*
X49362Y264153D01*
X48746Y264726D01*
X48143Y265313D01*
X47556Y265916D01*
X46983Y266532D01*
X46425Y267163D01*
X45883Y267807D01*
X45358Y268464D01*
X44848Y269133D01*
X44355Y269816D01*
X43879Y270509D01*
X43420Y271215D01*
X42978Y271931D01*
X42555Y272659D01*
X42149Y273396D01*
X41761Y274143D01*
X41392Y274899D01*
X41042Y275664D01*
X40710Y276438D01*
X40398Y277219D01*
X40104Y278008D01*
X39831Y278804D01*
X39577Y279606D01*
X39342Y280414D01*
X39128Y281228D01*
X38933Y282047D01*
X38759Y282870D01*
X38605Y283698D01*
X38471Y284529D01*
X38358Y285363D01*
X38265Y286199D01*
X38193Y287037D01*
X38141Y287877D01*
X38110Y288718D01*
X38100Y289560D01*
D15*
X56390Y289560D02*
X56395Y289953D01*
X56409Y290345D01*
X56433Y290737D01*
X56467Y291128D01*
X56510Y291519D01*
X56563Y291908D01*
X56626Y292295D01*
X56697Y292681D01*
X56779Y293066D01*
X56869Y293448D01*
X56970Y293827D01*
X57079Y294205D01*
X57198Y294579D01*
X57325Y294950D01*
X57462Y295318D01*
X57608Y295683D01*
X57763Y296044D01*
X57926Y296401D01*
X58098Y296754D01*
X58279Y297102D01*
X58469Y297446D01*
X58666Y297786D01*
X58872Y298120D01*
X59086Y298449D01*
X59309Y298773D01*
X59539Y299091D01*
X59776Y299404D01*
X60022Y299710D01*
X60275Y300011D01*
X60535Y300305D01*
X60802Y300593D01*
X61076Y300874D01*
X61357Y301148D01*
X61645Y301415D01*
X61939Y301675D01*
X62240Y301928D01*
X62546Y302174D01*
X62859Y302411D01*
X63177Y302641D01*
X63501Y302864D01*
X63830Y303078D01*
X64164Y303284D01*
X64504Y303481D01*
X64848Y303671D01*
X65196Y303852D01*
X65549Y304024D01*
X65906Y304187D01*
X66267Y304342D01*
X66632Y304488D01*
X67000Y304625D01*
X67371Y304752D01*
X67745Y304871D01*
X68123Y304980D01*
X68502Y305081D01*
X68884Y305171D01*
X69269Y305253D01*
X69655Y305324D01*
X70042Y305387D01*
X70431Y305440D01*
X70822Y305483D01*
X71213Y305517D01*
X71605Y305541D01*
X71997Y305555D01*
X72390Y305560D01*
X72783Y305555D01*
X73175Y305541D01*
X73567Y305517D01*
X73958Y305483D01*
X74349Y305440D01*
X74738Y305387D01*
X75125Y305324D01*
X75511Y305253D01*
X75896Y305171D01*
X76278Y305081D01*
X76657Y304980D01*
X77035Y304871D01*
X77409Y304752D01*
X77780Y304625D01*
X78148Y304488D01*
X78513Y304342D01*
X78874Y304187D01*
X79231Y304024D01*
X79584Y303852D01*
X79932Y303671D01*
X80276Y303481D01*
X80616Y303284D01*
X80950Y303078D01*
X81279Y302864D01*
X81603Y302641D01*
X81921Y302411D01*
X82234Y302174D01*
X82540Y301928D01*
X82841Y301675D01*
X83135Y301415D01*
X83423Y301148D01*
X83704Y300874D01*
X83978Y300593D01*
X84245Y300305D01*
X84505Y300011D01*
X84758Y299710D01*
X85004Y299404D01*
X85241Y299091D01*
X85471Y298773D01*
X85694Y298449D01*
X85908Y298120D01*
X86114Y297786D01*
X86311Y297446D01*
X86501Y297102D01*
X86682Y296754D01*
X86854Y296401D01*
X87017Y296044D01*
X87172Y295683D01*
X87318Y295318D01*
X87455Y294950D01*
X87582Y294579D01*
X87701Y294205D01*
X87810Y293827D01*
X87911Y293448D01*
X88001Y293066D01*
X88083Y292681D01*
X88154Y292295D01*
X88217Y291908D01*
X88270Y291519D01*
X88313Y291128D01*
X88347Y290737D01*
X88371Y290345D01*
X88385Y289953D01*
X88390Y289560D01*
X88385Y289167D01*
X88371Y288775D01*
X88347Y288383D01*
X88313Y287992D01*
X88270Y287601D01*
X88217Y287212D01*
X88154Y286825D01*
X88083Y286439D01*
X88001Y286054D01*
X87911Y285672D01*
X87810Y285293D01*
X87701Y284915D01*
X87582Y284541D01*
X87455Y284170D01*
X87318Y283802D01*
X87172Y283437D01*
X87017Y283076D01*
X86854Y282719D01*
X86682Y282366D01*
X86501Y282018D01*
X86311Y281674D01*
X86114Y281334D01*
X85908Y281000D01*
X85694Y280671D01*
X85471Y280347D01*
X85241Y280029D01*
X85004Y279716D01*
X84758Y279410D01*
X84505Y279109D01*
X84245Y278815D01*
X83978Y278527D01*
X83704Y278246D01*
X83423Y277972D01*
X83135Y277705D01*
X82841Y277445D01*
X82540Y277192D01*
X82234Y276946D01*
X81921Y276709D01*
X81603Y276479D01*
X81279Y276256D01*
X80950Y276042D01*
X80616Y275836D01*
X80276Y275639D01*
X79932Y275449D01*
X79584Y275268D01*
X79231Y275096D01*
X78874Y274933D01*
X78513Y274778D01*
X78148Y274632D01*
X77780Y274495D01*
X77409Y274368D01*
X77035Y274249D01*
X76657Y274140D01*
X76278Y274039D01*
X75896Y273949D01*
X75511Y273867D01*
X75125Y273796D01*
X74738Y273733D01*
X74349Y273680D01*
X73958Y273637D01*
X73567Y273603D01*
X73175Y273579D01*
X72783Y273565D01*
X72390Y273560D01*
X71997Y273565D01*
X71605Y273579D01*
X71213Y273603D01*
X70822Y273637D01*
X70431Y273680D01*
X70042Y273733D01*
X69655Y273796D01*
X69269Y273867D01*
X68884Y273949D01*
X68502Y274039D01*
X68123Y274140D01*
X67745Y274249D01*
X67371Y274368D01*
X67000Y274495D01*
X66632Y274632D01*
X66267Y274778D01*
X65906Y274933D01*
X65549Y275096D01*
X65196Y275268D01*
X64848Y275449D01*
X64504Y275639D01*
X64164Y275836D01*
X63830Y276042D01*
X63501Y276256D01*
X63177Y276479D01*
X62859Y276709D01*
X62546Y276946D01*
X62240Y277192D01*
X61939Y277445D01*
X61645Y277705D01*
X61357Y277972D01*
X61076Y278246D01*
X60802Y278527D01*
X60535Y278815D01*
X60275Y279109D01*
X60022Y279410D01*
X59776Y279716D01*
X59539Y280029D01*
X59309Y280347D01*
X59086Y280671D01*
X58872Y281000D01*
X58666Y281334D01*
X58469Y281674D01*
X58279Y282018D01*
X58098Y282366D01*
X57926Y282719D01*
X57763Y283076D01*
X57608Y283437D01*
X57462Y283802D01*
X57325Y284170D01*
X57198Y284541D01*
X57079Y284915D01*
X56970Y285293D01*
X56869Y285672D01*
X56779Y286054D01*
X56697Y286439D01*
X56626Y286825D01*
X56563Y287212D01*
X56510Y287601D01*
X56467Y287992D01*
X56433Y288383D01*
X56409Y288775D01*
X56395Y289167D01*
X56390Y289560D01*
M02*
