G04 EAGLE Gerber RS-274X export*
G75*
%MOMM*%
%FSLAX34Y34*%
%LPD*%
%INSilkscreen Bottom*%
%IPPOS*%
%AMOC8*
5,1,8,0,0,1.08239X$1,22.5*%
G01*
%ADD10C,0.152400*%


D10*
X392938Y530324D02*
X382101Y530324D01*
X387519Y524905D02*
X387519Y535742D01*
X375362Y536646D02*
X370846Y540258D01*
X370846Y524002D01*
X366331Y524002D02*
X375362Y524002D01*
X354763Y540258D02*
X354638Y540256D01*
X354513Y540250D01*
X354388Y540241D01*
X354264Y540227D01*
X354140Y540210D01*
X354016Y540189D01*
X353894Y540164D01*
X353772Y540135D01*
X353651Y540103D01*
X353531Y540067D01*
X353412Y540027D01*
X353295Y539984D01*
X353179Y539937D01*
X353064Y539886D01*
X352952Y539832D01*
X352840Y539774D01*
X352731Y539714D01*
X352624Y539649D01*
X352518Y539582D01*
X352415Y539511D01*
X352314Y539437D01*
X352215Y539360D01*
X352119Y539280D01*
X352025Y539197D01*
X351934Y539112D01*
X351845Y539023D01*
X351760Y538932D01*
X351677Y538838D01*
X351597Y538742D01*
X351520Y538643D01*
X351446Y538542D01*
X351375Y538439D01*
X351308Y538333D01*
X351243Y538226D01*
X351183Y538117D01*
X351125Y538005D01*
X351071Y537893D01*
X351020Y537778D01*
X350973Y537662D01*
X350930Y537545D01*
X350890Y537426D01*
X350854Y537306D01*
X350822Y537185D01*
X350793Y537063D01*
X350768Y536941D01*
X350747Y536817D01*
X350730Y536693D01*
X350716Y536569D01*
X350707Y536444D01*
X350701Y536319D01*
X350699Y536194D01*
X354763Y540258D02*
X354906Y540256D01*
X355048Y540250D01*
X355191Y540240D01*
X355333Y540227D01*
X355474Y540209D01*
X355616Y540188D01*
X355756Y540163D01*
X355896Y540134D01*
X356035Y540101D01*
X356173Y540064D01*
X356310Y540024D01*
X356445Y539980D01*
X356580Y539932D01*
X356713Y539880D01*
X356845Y539825D01*
X356975Y539766D01*
X357103Y539704D01*
X357230Y539638D01*
X357355Y539569D01*
X357478Y539497D01*
X357599Y539421D01*
X357717Y539342D01*
X357834Y539259D01*
X357948Y539174D01*
X358060Y539085D01*
X358169Y538994D01*
X358276Y538899D01*
X358381Y538802D01*
X358482Y538701D01*
X358581Y538598D01*
X358677Y538493D01*
X358770Y538384D01*
X358860Y538273D01*
X358947Y538160D01*
X359031Y538045D01*
X359111Y537927D01*
X359189Y537807D01*
X359263Y537685D01*
X359333Y537561D01*
X359401Y537435D01*
X359464Y537307D01*
X359525Y537178D01*
X359582Y537047D01*
X359635Y536915D01*
X359684Y536781D01*
X359730Y536646D01*
X352054Y533033D02*
X351960Y533125D01*
X351870Y533219D01*
X351782Y533316D01*
X351697Y533416D01*
X351615Y533518D01*
X351536Y533623D01*
X351461Y533730D01*
X351389Y533839D01*
X351320Y533950D01*
X351254Y534064D01*
X351192Y534179D01*
X351133Y534296D01*
X351078Y534415D01*
X351027Y534535D01*
X350979Y534657D01*
X350934Y534780D01*
X350894Y534904D01*
X350857Y535030D01*
X350824Y535157D01*
X350795Y535284D01*
X350769Y535413D01*
X350748Y535542D01*
X350730Y535672D01*
X350717Y535802D01*
X350707Y535932D01*
X350701Y536063D01*
X350699Y536194D01*
X352054Y533033D02*
X359730Y524002D01*
X350699Y524002D01*
X341147Y524002D02*
X344759Y534839D01*
X337534Y534839D02*
X341147Y524002D01*
X324694Y534839D02*
X319275Y534839D01*
X322888Y540258D02*
X322888Y526711D01*
X322887Y526711D02*
X322885Y526610D01*
X322879Y526509D01*
X322870Y526408D01*
X322857Y526307D01*
X322840Y526207D01*
X322819Y526108D01*
X322795Y526010D01*
X322767Y525913D01*
X322735Y525816D01*
X322700Y525721D01*
X322661Y525628D01*
X322619Y525536D01*
X322573Y525445D01*
X322524Y525357D01*
X322472Y525270D01*
X322416Y525185D01*
X322358Y525102D01*
X322296Y525022D01*
X322231Y524944D01*
X322164Y524868D01*
X322094Y524795D01*
X322021Y524725D01*
X321945Y524658D01*
X321867Y524593D01*
X321787Y524531D01*
X321704Y524473D01*
X321619Y524417D01*
X321533Y524365D01*
X321444Y524316D01*
X321353Y524270D01*
X321261Y524228D01*
X321168Y524189D01*
X321073Y524154D01*
X320976Y524122D01*
X320879Y524094D01*
X320781Y524070D01*
X320682Y524049D01*
X320582Y524032D01*
X320481Y524019D01*
X320380Y524010D01*
X320279Y524004D01*
X320178Y524002D01*
X319275Y524002D01*
X313497Y527614D02*
X313497Y531227D01*
X313496Y531227D02*
X313494Y531346D01*
X313488Y531466D01*
X313478Y531585D01*
X313464Y531703D01*
X313447Y531822D01*
X313425Y531939D01*
X313400Y532056D01*
X313370Y532171D01*
X313337Y532286D01*
X313300Y532400D01*
X313260Y532512D01*
X313215Y532623D01*
X313167Y532732D01*
X313116Y532840D01*
X313061Y532946D01*
X313002Y533050D01*
X312940Y533152D01*
X312875Y533252D01*
X312806Y533350D01*
X312734Y533446D01*
X312659Y533539D01*
X312582Y533629D01*
X312501Y533717D01*
X312417Y533802D01*
X312330Y533884D01*
X312241Y533964D01*
X312149Y534040D01*
X312055Y534114D01*
X311958Y534184D01*
X311860Y534251D01*
X311759Y534315D01*
X311655Y534375D01*
X311550Y534432D01*
X311443Y534485D01*
X311335Y534535D01*
X311225Y534581D01*
X311113Y534623D01*
X311000Y534662D01*
X310886Y534697D01*
X310771Y534728D01*
X310654Y534756D01*
X310537Y534779D01*
X310420Y534799D01*
X310301Y534815D01*
X310182Y534827D01*
X310063Y534835D01*
X309944Y534839D01*
X309824Y534839D01*
X309705Y534835D01*
X309586Y534827D01*
X309467Y534815D01*
X309348Y534799D01*
X309231Y534779D01*
X309114Y534756D01*
X308997Y534728D01*
X308882Y534697D01*
X308768Y534662D01*
X308655Y534623D01*
X308543Y534581D01*
X308433Y534535D01*
X308325Y534485D01*
X308218Y534432D01*
X308113Y534375D01*
X308009Y534315D01*
X307908Y534251D01*
X307810Y534184D01*
X307713Y534114D01*
X307619Y534040D01*
X307527Y533964D01*
X307438Y533884D01*
X307351Y533802D01*
X307267Y533717D01*
X307186Y533629D01*
X307109Y533539D01*
X307034Y533446D01*
X306962Y533350D01*
X306893Y533252D01*
X306828Y533152D01*
X306766Y533050D01*
X306707Y532946D01*
X306652Y532840D01*
X306601Y532732D01*
X306553Y532623D01*
X306508Y532512D01*
X306468Y532400D01*
X306431Y532286D01*
X306398Y532171D01*
X306368Y532056D01*
X306343Y531939D01*
X306321Y531822D01*
X306304Y531703D01*
X306290Y531585D01*
X306280Y531466D01*
X306274Y531346D01*
X306272Y531227D01*
X306272Y527614D01*
X306274Y527495D01*
X306280Y527375D01*
X306290Y527256D01*
X306304Y527138D01*
X306321Y527019D01*
X306343Y526902D01*
X306368Y526785D01*
X306398Y526670D01*
X306431Y526555D01*
X306468Y526441D01*
X306508Y526329D01*
X306553Y526218D01*
X306601Y526109D01*
X306652Y526001D01*
X306707Y525895D01*
X306766Y525791D01*
X306828Y525689D01*
X306893Y525589D01*
X306962Y525491D01*
X307034Y525395D01*
X307109Y525302D01*
X307186Y525212D01*
X307267Y525124D01*
X307351Y525039D01*
X307438Y524957D01*
X307527Y524877D01*
X307619Y524801D01*
X307713Y524727D01*
X307810Y524657D01*
X307908Y524590D01*
X308009Y524526D01*
X308113Y524466D01*
X308218Y524409D01*
X308325Y524356D01*
X308433Y524306D01*
X308543Y524260D01*
X308655Y524218D01*
X308768Y524179D01*
X308882Y524144D01*
X308997Y524113D01*
X309114Y524085D01*
X309231Y524062D01*
X309348Y524042D01*
X309467Y524026D01*
X309586Y524014D01*
X309705Y524006D01*
X309824Y524002D01*
X309944Y524002D01*
X310063Y524006D01*
X310182Y524014D01*
X310301Y524026D01*
X310420Y524042D01*
X310537Y524062D01*
X310654Y524085D01*
X310771Y524113D01*
X310886Y524144D01*
X311000Y524179D01*
X311113Y524218D01*
X311225Y524260D01*
X311335Y524306D01*
X311443Y524356D01*
X311550Y524409D01*
X311655Y524466D01*
X311759Y524526D01*
X311860Y524590D01*
X311958Y524657D01*
X312055Y524727D01*
X312149Y524801D01*
X312241Y524877D01*
X312330Y524957D01*
X312417Y525039D01*
X312501Y525124D01*
X312582Y525212D01*
X312659Y525302D01*
X312734Y525395D01*
X312806Y525491D01*
X312875Y525589D01*
X312940Y525689D01*
X313002Y525791D01*
X313061Y525895D01*
X313116Y526001D01*
X313167Y526109D01*
X313215Y526218D01*
X313260Y526329D01*
X313300Y526441D01*
X313337Y526555D01*
X313370Y526670D01*
X313400Y526785D01*
X313425Y526902D01*
X313447Y527019D01*
X313464Y527138D01*
X313478Y527256D01*
X313488Y527375D01*
X313494Y527495D01*
X313496Y527614D01*
X288001Y524002D02*
X288001Y540258D01*
X292516Y540258D02*
X283485Y540258D01*
X274454Y540258D02*
X274454Y524002D01*
X278969Y540258D02*
X269938Y540258D01*
X263829Y540258D02*
X263829Y524002D01*
X256604Y524002D01*
X389325Y515394D02*
X389561Y515106D01*
X389790Y514813D01*
X390011Y514514D01*
X390225Y514210D01*
X390432Y513900D01*
X390631Y513586D01*
X390823Y513268D01*
X391007Y512944D01*
X391183Y512616D01*
X391351Y512285D01*
X391511Y511949D01*
X391663Y511609D01*
X391807Y511266D01*
X391942Y510920D01*
X392069Y510570D01*
X392188Y510218D01*
X392298Y509862D01*
X392400Y509504D01*
X392493Y509144D01*
X392577Y508782D01*
X392653Y508418D01*
X392719Y508052D01*
X392777Y507684D01*
X392826Y507316D01*
X392866Y506946D01*
X392898Y506575D01*
X392920Y506204D01*
X392934Y505832D01*
X392938Y505460D01*
X392934Y505088D01*
X392920Y504716D01*
X392898Y504345D01*
X392866Y503974D01*
X392826Y503604D01*
X392777Y503236D01*
X392719Y502868D01*
X392653Y502502D01*
X392577Y502138D01*
X392493Y501776D01*
X392400Y501416D01*
X392298Y501058D01*
X392188Y500702D01*
X392069Y500350D01*
X391942Y500000D01*
X391807Y499654D01*
X391663Y499311D01*
X391511Y498971D01*
X391351Y498635D01*
X391183Y498304D01*
X391007Y497976D01*
X390823Y497653D01*
X390631Y497334D01*
X390432Y497020D01*
X390225Y496710D01*
X390011Y496406D01*
X389790Y496107D01*
X389561Y495814D01*
X389326Y495526D01*
X380591Y497332D02*
X376979Y497332D01*
X380591Y497332D02*
X380692Y497334D01*
X380793Y497340D01*
X380894Y497349D01*
X380995Y497362D01*
X381095Y497379D01*
X381194Y497400D01*
X381292Y497424D01*
X381389Y497452D01*
X381486Y497484D01*
X381581Y497519D01*
X381674Y497558D01*
X381766Y497600D01*
X381857Y497646D01*
X381946Y497695D01*
X382032Y497747D01*
X382117Y497803D01*
X382200Y497861D01*
X382280Y497923D01*
X382358Y497988D01*
X382434Y498055D01*
X382507Y498125D01*
X382577Y498198D01*
X382644Y498274D01*
X382709Y498352D01*
X382771Y498432D01*
X382829Y498515D01*
X382885Y498600D01*
X382937Y498687D01*
X382986Y498775D01*
X383032Y498866D01*
X383074Y498958D01*
X383113Y499051D01*
X383148Y499146D01*
X383180Y499243D01*
X383208Y499340D01*
X383232Y499438D01*
X383253Y499537D01*
X383270Y499637D01*
X383283Y499738D01*
X383292Y499839D01*
X383298Y499940D01*
X383300Y500041D01*
X383300Y505460D01*
X383298Y505561D01*
X383292Y505662D01*
X383283Y505763D01*
X383270Y505864D01*
X383253Y505964D01*
X383232Y506063D01*
X383208Y506161D01*
X383180Y506258D01*
X383148Y506355D01*
X383113Y506450D01*
X383074Y506543D01*
X383032Y506635D01*
X382986Y506726D01*
X382937Y506815D01*
X382885Y506901D01*
X382829Y506986D01*
X382771Y507069D01*
X382709Y507149D01*
X382644Y507227D01*
X382577Y507303D01*
X382507Y507376D01*
X382434Y507446D01*
X382358Y507513D01*
X382280Y507578D01*
X382200Y507640D01*
X382117Y507698D01*
X382032Y507754D01*
X381946Y507806D01*
X381857Y507855D01*
X381766Y507901D01*
X381674Y507943D01*
X381581Y507982D01*
X381486Y508017D01*
X381389Y508049D01*
X381292Y508077D01*
X381194Y508101D01*
X381095Y508122D01*
X380995Y508139D01*
X380894Y508152D01*
X380793Y508161D01*
X380692Y508167D01*
X380591Y508169D01*
X376979Y508169D01*
X368036Y505460D02*
X368040Y505088D01*
X368054Y504716D01*
X368076Y504345D01*
X368108Y503974D01*
X368148Y503604D01*
X368197Y503236D01*
X368255Y502868D01*
X368321Y502502D01*
X368397Y502138D01*
X368481Y501776D01*
X368574Y501416D01*
X368676Y501058D01*
X368786Y500702D01*
X368905Y500350D01*
X369032Y500000D01*
X369167Y499654D01*
X369311Y499311D01*
X369463Y498971D01*
X369623Y498635D01*
X369791Y498304D01*
X369967Y497976D01*
X370151Y497653D01*
X370343Y497334D01*
X370542Y497020D01*
X370749Y496710D01*
X370963Y496406D01*
X371184Y496107D01*
X371413Y495814D01*
X371648Y495526D01*
X368036Y505460D02*
X368040Y505832D01*
X368054Y506204D01*
X368076Y506575D01*
X368108Y506946D01*
X368148Y507316D01*
X368197Y507684D01*
X368255Y508052D01*
X368321Y508418D01*
X368397Y508782D01*
X368481Y509144D01*
X368574Y509504D01*
X368676Y509862D01*
X368786Y510218D01*
X368905Y510570D01*
X369032Y510920D01*
X369167Y511266D01*
X369311Y511609D01*
X369463Y511949D01*
X369623Y512285D01*
X369791Y512616D01*
X369967Y512944D01*
X370151Y513268D01*
X370343Y513586D01*
X370542Y513900D01*
X370749Y514210D01*
X370963Y514514D01*
X371184Y514813D01*
X371413Y515106D01*
X371649Y515394D01*
X347992Y513588D02*
X347867Y513586D01*
X347742Y513580D01*
X347617Y513571D01*
X347493Y513557D01*
X347369Y513540D01*
X347245Y513519D01*
X347123Y513494D01*
X347001Y513465D01*
X346880Y513433D01*
X346760Y513397D01*
X346641Y513357D01*
X346524Y513314D01*
X346408Y513267D01*
X346293Y513216D01*
X346181Y513162D01*
X346069Y513104D01*
X345960Y513044D01*
X345853Y512979D01*
X345747Y512912D01*
X345644Y512841D01*
X345543Y512767D01*
X345444Y512690D01*
X345348Y512610D01*
X345254Y512527D01*
X345163Y512442D01*
X345074Y512353D01*
X344989Y512262D01*
X344906Y512168D01*
X344826Y512072D01*
X344749Y511973D01*
X344675Y511872D01*
X344604Y511769D01*
X344537Y511663D01*
X344472Y511556D01*
X344412Y511447D01*
X344354Y511335D01*
X344300Y511223D01*
X344249Y511108D01*
X344202Y510992D01*
X344159Y510875D01*
X344119Y510756D01*
X344083Y510636D01*
X344051Y510515D01*
X344022Y510393D01*
X343997Y510271D01*
X343976Y510147D01*
X343959Y510023D01*
X343945Y509899D01*
X343936Y509774D01*
X343930Y509649D01*
X343928Y509524D01*
X347992Y513588D02*
X348135Y513586D01*
X348277Y513580D01*
X348420Y513570D01*
X348562Y513557D01*
X348703Y513539D01*
X348845Y513518D01*
X348985Y513493D01*
X349125Y513464D01*
X349264Y513431D01*
X349402Y513394D01*
X349539Y513354D01*
X349674Y513310D01*
X349809Y513262D01*
X349942Y513210D01*
X350074Y513155D01*
X350204Y513096D01*
X350332Y513034D01*
X350459Y512968D01*
X350584Y512899D01*
X350707Y512827D01*
X350828Y512751D01*
X350946Y512672D01*
X351063Y512589D01*
X351177Y512504D01*
X351289Y512415D01*
X351398Y512324D01*
X351505Y512229D01*
X351610Y512132D01*
X351711Y512031D01*
X351810Y511928D01*
X351906Y511823D01*
X351999Y511714D01*
X352089Y511603D01*
X352176Y511490D01*
X352260Y511375D01*
X352340Y511257D01*
X352418Y511137D01*
X352492Y511015D01*
X352562Y510891D01*
X352630Y510765D01*
X352693Y510637D01*
X352754Y510508D01*
X352811Y510377D01*
X352864Y510245D01*
X352913Y510111D01*
X352959Y509976D01*
X345283Y506363D02*
X345189Y506455D01*
X345099Y506549D01*
X345011Y506646D01*
X344926Y506746D01*
X344844Y506848D01*
X344765Y506953D01*
X344690Y507060D01*
X344618Y507169D01*
X344549Y507280D01*
X344483Y507394D01*
X344421Y507509D01*
X344362Y507626D01*
X344307Y507745D01*
X344256Y507865D01*
X344208Y507987D01*
X344163Y508110D01*
X344123Y508234D01*
X344086Y508360D01*
X344053Y508487D01*
X344024Y508614D01*
X343998Y508743D01*
X343977Y508872D01*
X343959Y509002D01*
X343946Y509132D01*
X343936Y509262D01*
X343930Y509393D01*
X343928Y509524D01*
X345282Y506363D02*
X352959Y497332D01*
X343928Y497332D01*
X337327Y505460D02*
X337323Y505780D01*
X337312Y506099D01*
X337293Y506419D01*
X337266Y506737D01*
X337232Y507055D01*
X337190Y507372D01*
X337140Y507688D01*
X337083Y508003D01*
X337019Y508316D01*
X336947Y508628D01*
X336868Y508938D01*
X336781Y509245D01*
X336687Y509551D01*
X336586Y509854D01*
X336477Y510155D01*
X336362Y510453D01*
X336239Y510749D01*
X336109Y511041D01*
X335972Y511330D01*
X335973Y511331D02*
X335934Y511439D01*
X335891Y511546D01*
X335845Y511651D01*
X335794Y511755D01*
X335741Y511857D01*
X335684Y511957D01*
X335623Y512055D01*
X335559Y512150D01*
X335492Y512244D01*
X335421Y512335D01*
X335348Y512424D01*
X335271Y512510D01*
X335192Y512593D01*
X335110Y512674D01*
X335025Y512752D01*
X334937Y512826D01*
X334847Y512898D01*
X334755Y512966D01*
X334660Y513032D01*
X334563Y513094D01*
X334464Y513152D01*
X334362Y513208D01*
X334260Y513259D01*
X334155Y513307D01*
X334049Y513352D01*
X333941Y513393D01*
X333832Y513430D01*
X333722Y513463D01*
X333610Y513492D01*
X333498Y513518D01*
X333385Y513540D01*
X333271Y513557D01*
X333157Y513571D01*
X333042Y513581D01*
X332927Y513587D01*
X332812Y513589D01*
X332812Y513588D02*
X332697Y513586D01*
X332582Y513580D01*
X332467Y513570D01*
X332353Y513556D01*
X332239Y513539D01*
X332126Y513517D01*
X332014Y513491D01*
X331902Y513462D01*
X331792Y513429D01*
X331683Y513392D01*
X331575Y513351D01*
X331469Y513306D01*
X331365Y513258D01*
X331262Y513207D01*
X331161Y513151D01*
X331061Y513093D01*
X330964Y513031D01*
X330870Y512966D01*
X330777Y512897D01*
X330687Y512825D01*
X330599Y512751D01*
X330514Y512673D01*
X330432Y512592D01*
X330353Y512509D01*
X330276Y512423D01*
X330203Y512334D01*
X330132Y512243D01*
X330065Y512149D01*
X330001Y512054D01*
X329940Y511956D01*
X329883Y511856D01*
X329830Y511754D01*
X329779Y511650D01*
X329733Y511545D01*
X329690Y511438D01*
X329651Y511330D01*
X329652Y511330D02*
X329515Y511041D01*
X329385Y510749D01*
X329262Y510453D01*
X329147Y510155D01*
X329038Y509854D01*
X328937Y509551D01*
X328843Y509245D01*
X328756Y508938D01*
X328677Y508628D01*
X328605Y508316D01*
X328541Y508003D01*
X328484Y507688D01*
X328434Y507372D01*
X328392Y507055D01*
X328358Y506737D01*
X328331Y506419D01*
X328312Y506099D01*
X328301Y505780D01*
X328297Y505460D01*
X337327Y505460D02*
X337323Y505140D01*
X337312Y504821D01*
X337293Y504501D01*
X337266Y504183D01*
X337232Y503865D01*
X337190Y503548D01*
X337140Y503232D01*
X337083Y502917D01*
X337019Y502604D01*
X336947Y502292D01*
X336868Y501982D01*
X336781Y501675D01*
X336687Y501369D01*
X336586Y501066D01*
X336477Y500765D01*
X336362Y500467D01*
X336239Y500171D01*
X336109Y499879D01*
X335972Y499590D01*
X335973Y499590D02*
X335934Y499482D01*
X335891Y499375D01*
X335845Y499270D01*
X335794Y499166D01*
X335741Y499064D01*
X335684Y498964D01*
X335623Y498866D01*
X335559Y498771D01*
X335492Y498677D01*
X335421Y498586D01*
X335348Y498497D01*
X335271Y498411D01*
X335192Y498328D01*
X335110Y498247D01*
X335025Y498169D01*
X334937Y498095D01*
X334847Y498023D01*
X334754Y497954D01*
X334660Y497889D01*
X334563Y497827D01*
X334463Y497769D01*
X334362Y497713D01*
X334260Y497662D01*
X334155Y497614D01*
X334049Y497569D01*
X333941Y497528D01*
X333832Y497491D01*
X333722Y497458D01*
X333610Y497429D01*
X333498Y497403D01*
X333385Y497381D01*
X333271Y497364D01*
X333157Y497350D01*
X333042Y497340D01*
X332927Y497334D01*
X332812Y497332D01*
X329652Y499590D02*
X329515Y499879D01*
X329385Y500171D01*
X329262Y500467D01*
X329147Y500765D01*
X329038Y501066D01*
X328937Y501369D01*
X328843Y501675D01*
X328756Y501982D01*
X328677Y502292D01*
X328605Y502604D01*
X328541Y502917D01*
X328484Y503232D01*
X328434Y503548D01*
X328392Y503865D01*
X328358Y504183D01*
X328331Y504501D01*
X328312Y504821D01*
X328301Y505140D01*
X328297Y505460D01*
X329651Y499590D02*
X329690Y499482D01*
X329733Y499375D01*
X329779Y499270D01*
X329830Y499166D01*
X329883Y499064D01*
X329941Y498964D01*
X330001Y498866D01*
X330065Y498771D01*
X330132Y498677D01*
X330203Y498586D01*
X330276Y498497D01*
X330353Y498411D01*
X330432Y498328D01*
X330514Y498247D01*
X330599Y498169D01*
X330687Y498095D01*
X330777Y498023D01*
X330870Y497954D01*
X330964Y497889D01*
X331061Y497827D01*
X331161Y497769D01*
X331262Y497713D01*
X331365Y497662D01*
X331469Y497614D01*
X331575Y497569D01*
X331683Y497528D01*
X331792Y497491D01*
X331902Y497458D01*
X332014Y497429D01*
X332126Y497403D01*
X332239Y497381D01*
X332353Y497364D01*
X332467Y497350D01*
X332582Y497340D01*
X332697Y497334D01*
X332812Y497332D01*
X336424Y500944D02*
X329199Y509976D01*
X316729Y513588D02*
X316604Y513586D01*
X316479Y513580D01*
X316354Y513571D01*
X316230Y513557D01*
X316106Y513540D01*
X315982Y513519D01*
X315860Y513494D01*
X315738Y513465D01*
X315617Y513433D01*
X315497Y513397D01*
X315378Y513357D01*
X315261Y513314D01*
X315145Y513267D01*
X315030Y513216D01*
X314918Y513162D01*
X314806Y513104D01*
X314697Y513044D01*
X314590Y512979D01*
X314484Y512912D01*
X314381Y512841D01*
X314280Y512767D01*
X314181Y512690D01*
X314085Y512610D01*
X313991Y512527D01*
X313900Y512442D01*
X313811Y512353D01*
X313726Y512262D01*
X313643Y512168D01*
X313563Y512072D01*
X313486Y511973D01*
X313412Y511872D01*
X313341Y511769D01*
X313274Y511663D01*
X313209Y511556D01*
X313149Y511447D01*
X313091Y511335D01*
X313037Y511223D01*
X312986Y511108D01*
X312939Y510992D01*
X312896Y510875D01*
X312856Y510756D01*
X312820Y510636D01*
X312788Y510515D01*
X312759Y510393D01*
X312734Y510271D01*
X312713Y510147D01*
X312696Y510023D01*
X312682Y509899D01*
X312673Y509774D01*
X312667Y509649D01*
X312665Y509524D01*
X316729Y513588D02*
X316872Y513586D01*
X317014Y513580D01*
X317157Y513570D01*
X317299Y513557D01*
X317440Y513539D01*
X317582Y513518D01*
X317722Y513493D01*
X317862Y513464D01*
X318001Y513431D01*
X318139Y513394D01*
X318276Y513354D01*
X318411Y513310D01*
X318546Y513262D01*
X318679Y513210D01*
X318811Y513155D01*
X318941Y513096D01*
X319069Y513034D01*
X319196Y512968D01*
X319321Y512899D01*
X319444Y512827D01*
X319565Y512751D01*
X319683Y512672D01*
X319800Y512589D01*
X319914Y512504D01*
X320026Y512415D01*
X320135Y512324D01*
X320242Y512229D01*
X320347Y512132D01*
X320448Y512031D01*
X320547Y511928D01*
X320643Y511823D01*
X320736Y511714D01*
X320826Y511603D01*
X320913Y511490D01*
X320997Y511375D01*
X321077Y511257D01*
X321155Y511137D01*
X321229Y511015D01*
X321299Y510891D01*
X321367Y510765D01*
X321430Y510637D01*
X321491Y510508D01*
X321548Y510377D01*
X321601Y510245D01*
X321650Y510111D01*
X321696Y509976D01*
X314020Y506363D02*
X313926Y506455D01*
X313836Y506549D01*
X313748Y506646D01*
X313663Y506746D01*
X313581Y506848D01*
X313502Y506953D01*
X313427Y507060D01*
X313355Y507169D01*
X313286Y507280D01*
X313220Y507394D01*
X313158Y507509D01*
X313099Y507626D01*
X313044Y507745D01*
X312993Y507865D01*
X312945Y507987D01*
X312900Y508110D01*
X312860Y508234D01*
X312823Y508360D01*
X312790Y508487D01*
X312761Y508614D01*
X312735Y508743D01*
X312714Y508872D01*
X312696Y509002D01*
X312683Y509132D01*
X312673Y509262D01*
X312667Y509393D01*
X312665Y509524D01*
X314020Y506363D02*
X321696Y497332D01*
X312665Y497332D01*
X297034Y509524D02*
X297036Y509649D01*
X297042Y509774D01*
X297051Y509899D01*
X297065Y510023D01*
X297082Y510147D01*
X297103Y510271D01*
X297128Y510393D01*
X297157Y510515D01*
X297189Y510636D01*
X297225Y510756D01*
X297265Y510875D01*
X297308Y510992D01*
X297355Y511108D01*
X297406Y511223D01*
X297460Y511335D01*
X297518Y511447D01*
X297578Y511556D01*
X297643Y511663D01*
X297710Y511769D01*
X297781Y511872D01*
X297855Y511973D01*
X297932Y512072D01*
X298012Y512168D01*
X298095Y512262D01*
X298180Y512353D01*
X298269Y512442D01*
X298360Y512527D01*
X298454Y512610D01*
X298550Y512690D01*
X298649Y512767D01*
X298750Y512841D01*
X298853Y512912D01*
X298959Y512979D01*
X299066Y513044D01*
X299175Y513104D01*
X299287Y513162D01*
X299399Y513216D01*
X299514Y513267D01*
X299630Y513314D01*
X299747Y513357D01*
X299866Y513397D01*
X299986Y513433D01*
X300107Y513465D01*
X300229Y513494D01*
X300351Y513519D01*
X300475Y513540D01*
X300599Y513557D01*
X300723Y513571D01*
X300848Y513580D01*
X300973Y513586D01*
X301098Y513588D01*
X301241Y513586D01*
X301383Y513580D01*
X301526Y513570D01*
X301668Y513557D01*
X301809Y513539D01*
X301951Y513518D01*
X302091Y513493D01*
X302231Y513464D01*
X302370Y513431D01*
X302508Y513394D01*
X302645Y513354D01*
X302780Y513310D01*
X302915Y513262D01*
X303048Y513210D01*
X303180Y513155D01*
X303310Y513096D01*
X303438Y513034D01*
X303565Y512968D01*
X303690Y512899D01*
X303813Y512827D01*
X303934Y512751D01*
X304052Y512672D01*
X304169Y512589D01*
X304283Y512504D01*
X304395Y512415D01*
X304504Y512324D01*
X304611Y512229D01*
X304716Y512132D01*
X304817Y512031D01*
X304916Y511928D01*
X305012Y511823D01*
X305105Y511714D01*
X305195Y511603D01*
X305282Y511490D01*
X305366Y511375D01*
X305446Y511257D01*
X305524Y511137D01*
X305598Y511015D01*
X305668Y510891D01*
X305736Y510765D01*
X305799Y510637D01*
X305860Y510508D01*
X305917Y510377D01*
X305970Y510245D01*
X306019Y510111D01*
X306065Y509976D01*
X298389Y506363D02*
X298295Y506455D01*
X298205Y506549D01*
X298117Y506646D01*
X298032Y506746D01*
X297950Y506848D01*
X297871Y506953D01*
X297796Y507060D01*
X297724Y507169D01*
X297655Y507280D01*
X297589Y507394D01*
X297527Y507509D01*
X297468Y507626D01*
X297413Y507745D01*
X297362Y507865D01*
X297314Y507987D01*
X297269Y508110D01*
X297229Y508234D01*
X297192Y508360D01*
X297159Y508487D01*
X297130Y508614D01*
X297104Y508743D01*
X297083Y508872D01*
X297065Y509002D01*
X297052Y509132D01*
X297042Y509262D01*
X297036Y509393D01*
X297034Y509524D01*
X298389Y506363D02*
X306065Y497332D01*
X297034Y497332D01*
X385713Y470662D02*
X389326Y470662D01*
X389444Y470664D01*
X389562Y470670D01*
X389680Y470679D01*
X389797Y470693D01*
X389914Y470710D01*
X390031Y470731D01*
X390146Y470756D01*
X390261Y470785D01*
X390375Y470818D01*
X390487Y470854D01*
X390598Y470894D01*
X390708Y470937D01*
X390817Y470984D01*
X390924Y471034D01*
X391029Y471089D01*
X391132Y471146D01*
X391233Y471207D01*
X391333Y471271D01*
X391430Y471338D01*
X391525Y471408D01*
X391617Y471482D01*
X391708Y471558D01*
X391795Y471638D01*
X391880Y471720D01*
X391962Y471805D01*
X392042Y471892D01*
X392118Y471983D01*
X392192Y472075D01*
X392262Y472170D01*
X392329Y472267D01*
X392393Y472367D01*
X392454Y472468D01*
X392511Y472571D01*
X392566Y472676D01*
X392616Y472783D01*
X392663Y472892D01*
X392706Y473002D01*
X392746Y473113D01*
X392782Y473225D01*
X392815Y473339D01*
X392844Y473454D01*
X392869Y473569D01*
X392890Y473686D01*
X392907Y473803D01*
X392921Y473920D01*
X392930Y474038D01*
X392936Y474156D01*
X392938Y474274D01*
X392938Y483306D01*
X392936Y483424D01*
X392930Y483542D01*
X392921Y483660D01*
X392907Y483777D01*
X392890Y483894D01*
X392869Y484011D01*
X392844Y484126D01*
X392815Y484241D01*
X392782Y484355D01*
X392746Y484467D01*
X392706Y484578D01*
X392663Y484688D01*
X392616Y484797D01*
X392566Y484904D01*
X392511Y485009D01*
X392454Y485112D01*
X392393Y485213D01*
X392329Y485313D01*
X392262Y485410D01*
X392192Y485505D01*
X392118Y485597D01*
X392042Y485688D01*
X391962Y485775D01*
X391880Y485860D01*
X391795Y485942D01*
X391708Y486022D01*
X391617Y486098D01*
X391525Y486172D01*
X391430Y486242D01*
X391333Y486309D01*
X391233Y486373D01*
X391132Y486434D01*
X391029Y486491D01*
X390924Y486546D01*
X390817Y486596D01*
X390708Y486643D01*
X390598Y486686D01*
X390487Y486726D01*
X390375Y486762D01*
X390261Y486795D01*
X390146Y486824D01*
X390031Y486849D01*
X389914Y486870D01*
X389797Y486887D01*
X389680Y486901D01*
X389562Y486910D01*
X389444Y486916D01*
X389326Y486918D01*
X385713Y486918D01*
X379140Y486918D02*
X379140Y470662D01*
X379140Y476984D02*
X370109Y486918D01*
X375528Y480596D02*
X370109Y470662D01*
X361293Y476984D02*
X357229Y476984D01*
X361293Y476984D02*
X361405Y476982D01*
X361516Y476976D01*
X361627Y476966D01*
X361738Y476953D01*
X361848Y476935D01*
X361957Y476913D01*
X362066Y476888D01*
X362174Y476859D01*
X362280Y476826D01*
X362386Y476789D01*
X362490Y476749D01*
X362592Y476705D01*
X362693Y476657D01*
X362792Y476606D01*
X362890Y476551D01*
X362985Y476493D01*
X363078Y476432D01*
X363169Y476367D01*
X363258Y476299D01*
X363344Y476228D01*
X363427Y476155D01*
X363508Y476078D01*
X363587Y475998D01*
X363662Y475916D01*
X363734Y475831D01*
X363804Y475744D01*
X363870Y475654D01*
X363933Y475562D01*
X363993Y475467D01*
X364049Y475371D01*
X364102Y475273D01*
X364151Y475173D01*
X364197Y475071D01*
X364239Y474968D01*
X364278Y474863D01*
X364313Y474757D01*
X364344Y474650D01*
X364371Y474542D01*
X364395Y474433D01*
X364414Y474323D01*
X364430Y474213D01*
X364442Y474102D01*
X364450Y473990D01*
X364454Y473879D01*
X364454Y473767D01*
X364450Y473656D01*
X364442Y473544D01*
X364430Y473433D01*
X364414Y473323D01*
X364395Y473213D01*
X364371Y473104D01*
X364344Y472996D01*
X364313Y472889D01*
X364278Y472783D01*
X364239Y472678D01*
X364197Y472575D01*
X364151Y472473D01*
X364102Y472373D01*
X364049Y472275D01*
X363993Y472179D01*
X363933Y472084D01*
X363870Y471992D01*
X363804Y471902D01*
X363734Y471815D01*
X363662Y471730D01*
X363587Y471648D01*
X363508Y471568D01*
X363427Y471491D01*
X363344Y471418D01*
X363258Y471347D01*
X363169Y471279D01*
X363078Y471214D01*
X362985Y471153D01*
X362890Y471095D01*
X362792Y471040D01*
X362693Y470989D01*
X362592Y470941D01*
X362490Y470897D01*
X362386Y470857D01*
X362280Y470820D01*
X362174Y470787D01*
X362066Y470758D01*
X361957Y470733D01*
X361848Y470711D01*
X361738Y470693D01*
X361627Y470680D01*
X361516Y470670D01*
X361405Y470664D01*
X361293Y470662D01*
X357229Y470662D01*
X357229Y478790D01*
X357231Y478891D01*
X357237Y478992D01*
X357246Y479093D01*
X357259Y479194D01*
X357276Y479294D01*
X357297Y479393D01*
X357321Y479491D01*
X357349Y479588D01*
X357381Y479685D01*
X357416Y479780D01*
X357455Y479873D01*
X357497Y479965D01*
X357543Y480056D01*
X357592Y480145D01*
X357644Y480231D01*
X357700Y480316D01*
X357758Y480399D01*
X357820Y480479D01*
X357885Y480557D01*
X357952Y480633D01*
X358022Y480706D01*
X358095Y480776D01*
X358171Y480843D01*
X358249Y480908D01*
X358329Y480970D01*
X358412Y481028D01*
X358497Y481084D01*
X358584Y481136D01*
X358672Y481185D01*
X358763Y481231D01*
X358855Y481273D01*
X358948Y481312D01*
X359043Y481347D01*
X359140Y481379D01*
X359237Y481407D01*
X359335Y481431D01*
X359434Y481452D01*
X359534Y481469D01*
X359635Y481482D01*
X359736Y481491D01*
X359837Y481497D01*
X359938Y481499D01*
X363550Y481499D01*
X349513Y481499D02*
X349513Y470662D01*
X349513Y481499D02*
X341385Y481499D01*
X341284Y481497D01*
X341183Y481491D01*
X341082Y481482D01*
X340981Y481469D01*
X340881Y481452D01*
X340782Y481431D01*
X340684Y481407D01*
X340587Y481379D01*
X340490Y481347D01*
X340395Y481312D01*
X340302Y481273D01*
X340210Y481231D01*
X340119Y481185D01*
X340031Y481136D01*
X339944Y481084D01*
X339859Y481028D01*
X339776Y480970D01*
X339696Y480908D01*
X339618Y480843D01*
X339542Y480776D01*
X339469Y480706D01*
X339399Y480633D01*
X339332Y480557D01*
X339267Y480479D01*
X339205Y480399D01*
X339147Y480316D01*
X339091Y480231D01*
X339039Y480145D01*
X338990Y480056D01*
X338944Y479965D01*
X338902Y479873D01*
X338863Y479780D01*
X338828Y479685D01*
X338796Y479588D01*
X338768Y479491D01*
X338744Y479393D01*
X338723Y479294D01*
X338706Y479194D01*
X338693Y479093D01*
X338684Y478992D01*
X338678Y478891D01*
X338676Y478790D01*
X338676Y470662D01*
X344094Y470662D02*
X344094Y481499D01*
X328467Y476984D02*
X324403Y476984D01*
X328467Y476984D02*
X328579Y476982D01*
X328690Y476976D01*
X328801Y476966D01*
X328912Y476953D01*
X329022Y476935D01*
X329131Y476913D01*
X329240Y476888D01*
X329348Y476859D01*
X329454Y476826D01*
X329560Y476789D01*
X329664Y476749D01*
X329766Y476705D01*
X329867Y476657D01*
X329966Y476606D01*
X330064Y476551D01*
X330159Y476493D01*
X330252Y476432D01*
X330343Y476367D01*
X330432Y476299D01*
X330518Y476228D01*
X330601Y476155D01*
X330682Y476078D01*
X330761Y475998D01*
X330836Y475916D01*
X330908Y475831D01*
X330978Y475744D01*
X331044Y475654D01*
X331107Y475562D01*
X331167Y475467D01*
X331223Y475371D01*
X331276Y475273D01*
X331325Y475173D01*
X331371Y475071D01*
X331413Y474968D01*
X331452Y474863D01*
X331487Y474757D01*
X331518Y474650D01*
X331545Y474542D01*
X331569Y474433D01*
X331588Y474323D01*
X331604Y474213D01*
X331616Y474102D01*
X331624Y473990D01*
X331628Y473879D01*
X331628Y473767D01*
X331624Y473656D01*
X331616Y473544D01*
X331604Y473433D01*
X331588Y473323D01*
X331569Y473213D01*
X331545Y473104D01*
X331518Y472996D01*
X331487Y472889D01*
X331452Y472783D01*
X331413Y472678D01*
X331371Y472575D01*
X331325Y472473D01*
X331276Y472373D01*
X331223Y472275D01*
X331167Y472179D01*
X331107Y472084D01*
X331044Y471992D01*
X330978Y471902D01*
X330908Y471815D01*
X330836Y471730D01*
X330761Y471648D01*
X330682Y471568D01*
X330601Y471491D01*
X330518Y471418D01*
X330432Y471347D01*
X330343Y471279D01*
X330252Y471214D01*
X330159Y471153D01*
X330064Y471095D01*
X329966Y471040D01*
X329867Y470989D01*
X329766Y470941D01*
X329664Y470897D01*
X329560Y470857D01*
X329454Y470820D01*
X329348Y470787D01*
X329240Y470758D01*
X329131Y470733D01*
X329022Y470711D01*
X328912Y470693D01*
X328801Y470680D01*
X328690Y470670D01*
X328579Y470664D01*
X328467Y470662D01*
X324403Y470662D01*
X324403Y478790D01*
X324405Y478891D01*
X324411Y478992D01*
X324420Y479093D01*
X324433Y479194D01*
X324450Y479294D01*
X324471Y479393D01*
X324495Y479491D01*
X324523Y479588D01*
X324555Y479685D01*
X324590Y479780D01*
X324629Y479873D01*
X324671Y479965D01*
X324717Y480056D01*
X324766Y480145D01*
X324818Y480231D01*
X324874Y480316D01*
X324932Y480399D01*
X324994Y480479D01*
X325059Y480557D01*
X325126Y480633D01*
X325196Y480706D01*
X325269Y480776D01*
X325345Y480843D01*
X325423Y480908D01*
X325503Y480970D01*
X325586Y481028D01*
X325671Y481084D01*
X325758Y481136D01*
X325846Y481185D01*
X325937Y481231D01*
X326029Y481273D01*
X326122Y481312D01*
X326217Y481347D01*
X326314Y481379D01*
X326411Y481407D01*
X326509Y481431D01*
X326608Y481452D01*
X326708Y481469D01*
X326809Y481482D01*
X326910Y481491D01*
X327011Y481497D01*
X327112Y481499D01*
X330725Y481499D01*
X316132Y476984D02*
X311616Y475178D01*
X316132Y476984D02*
X316220Y477021D01*
X316306Y477062D01*
X316391Y477106D01*
X316474Y477154D01*
X316554Y477205D01*
X316633Y477259D01*
X316709Y477317D01*
X316783Y477377D01*
X316855Y477441D01*
X316923Y477507D01*
X316989Y477577D01*
X317052Y477648D01*
X317113Y477723D01*
X317170Y477799D01*
X317223Y477878D01*
X317274Y477959D01*
X317321Y478042D01*
X317365Y478127D01*
X317405Y478214D01*
X317442Y478302D01*
X317475Y478392D01*
X317505Y478483D01*
X317530Y478575D01*
X317552Y478668D01*
X317570Y478762D01*
X317585Y478856D01*
X317595Y478951D01*
X317601Y479047D01*
X317604Y479142D01*
X317603Y479238D01*
X317597Y479333D01*
X317588Y479429D01*
X317575Y479523D01*
X317559Y479617D01*
X317538Y479711D01*
X317513Y479803D01*
X317485Y479894D01*
X317453Y479984D01*
X317418Y480073D01*
X317379Y480160D01*
X317336Y480246D01*
X317290Y480330D01*
X317240Y480411D01*
X317188Y480491D01*
X317132Y480569D01*
X317072Y480644D01*
X317010Y480716D01*
X316945Y480786D01*
X316877Y480854D01*
X316807Y480918D01*
X316734Y480980D01*
X316658Y481038D01*
X316580Y481094D01*
X316500Y481146D01*
X316418Y481195D01*
X316334Y481240D01*
X316248Y481282D01*
X316161Y481321D01*
X316072Y481356D01*
X315981Y481387D01*
X315890Y481414D01*
X315797Y481438D01*
X315704Y481458D01*
X315610Y481474D01*
X315515Y481486D01*
X315420Y481495D01*
X315324Y481499D01*
X315229Y481500D01*
X314982Y481493D01*
X314736Y481481D01*
X314490Y481463D01*
X314244Y481438D01*
X314000Y481408D01*
X313756Y481372D01*
X313513Y481331D01*
X313271Y481283D01*
X313030Y481229D01*
X312791Y481170D01*
X312553Y481105D01*
X312317Y481034D01*
X312082Y480958D01*
X311849Y480876D01*
X311619Y480788D01*
X311391Y480695D01*
X311164Y480597D01*
X311616Y475177D02*
X311528Y475140D01*
X311442Y475099D01*
X311357Y475055D01*
X311274Y475007D01*
X311194Y474956D01*
X311115Y474902D01*
X311039Y474844D01*
X310965Y474784D01*
X310893Y474720D01*
X310825Y474654D01*
X310759Y474584D01*
X310696Y474513D01*
X310635Y474438D01*
X310578Y474362D01*
X310525Y474283D01*
X310474Y474202D01*
X310427Y474119D01*
X310383Y474034D01*
X310343Y473947D01*
X310306Y473859D01*
X310273Y473769D01*
X310243Y473678D01*
X310218Y473586D01*
X310196Y473493D01*
X310178Y473399D01*
X310163Y473305D01*
X310153Y473210D01*
X310147Y473114D01*
X310144Y473019D01*
X310145Y472923D01*
X310151Y472828D01*
X310160Y472732D01*
X310173Y472638D01*
X310189Y472544D01*
X310210Y472450D01*
X310235Y472358D01*
X310263Y472267D01*
X310295Y472177D01*
X310330Y472088D01*
X310369Y472001D01*
X310412Y471915D01*
X310458Y471831D01*
X310508Y471750D01*
X310560Y471670D01*
X310616Y471592D01*
X310676Y471517D01*
X310738Y471445D01*
X310803Y471375D01*
X310871Y471307D01*
X310941Y471243D01*
X311014Y471181D01*
X311090Y471123D01*
X311168Y471067D01*
X311248Y471015D01*
X311330Y470966D01*
X311414Y470921D01*
X311500Y470879D01*
X311587Y470840D01*
X311676Y470805D01*
X311767Y470774D01*
X311858Y470747D01*
X311951Y470723D01*
X312044Y470703D01*
X312138Y470687D01*
X312233Y470675D01*
X312328Y470666D01*
X312424Y470662D01*
X312519Y470661D01*
X312520Y470662D02*
X312882Y470671D01*
X313244Y470689D01*
X313605Y470716D01*
X313965Y470751D01*
X314325Y470794D01*
X314684Y470846D01*
X315041Y470907D01*
X315396Y470976D01*
X315750Y471053D01*
X316102Y471139D01*
X316452Y471233D01*
X316800Y471336D01*
X317145Y471446D01*
X317487Y471565D01*
M02*
