G04 EAGLE Gerber RS-274X export*
G75*
%MOMM*%
%FSLAX34Y34*%
%LPD*%
%INSoldermask Bottom*%
%IPPOS*%
%AMOC8*
5,1,8,0,0,1.08239X$1,22.5*%
G01*
%ADD10C,2.082800*%
%ADD11C,2.003200*%
%ADD12C,3.203200*%
%ADD13C,0.959600*%


D10*
X498602Y495300D02*
X517398Y495300D01*
X517398Y469900D02*
X498602Y469900D01*
X498602Y444500D02*
X517398Y444500D01*
X517398Y419100D02*
X498602Y419100D01*
X498602Y393700D02*
X517398Y393700D01*
X517398Y368300D02*
X498602Y368300D01*
X498602Y342900D02*
X517398Y342900D01*
X517398Y317500D02*
X498602Y317500D01*
X498602Y292100D02*
X517398Y292100D01*
D11*
X72500Y533400D02*
X54500Y533400D01*
X54500Y508000D02*
X72500Y508000D01*
X72500Y482600D02*
X54500Y482600D01*
X54500Y457200D02*
X72500Y457200D01*
X72500Y431800D02*
X54500Y431800D01*
X54500Y406400D02*
X72500Y406400D01*
X72500Y381000D02*
X54500Y381000D01*
X54500Y355600D02*
X72500Y355600D01*
X132080Y283320D02*
X132080Y265320D01*
X157480Y265320D02*
X157480Y283320D01*
D12*
X72390Y289560D03*
D13*
X228600Y469900D03*
X203200Y444500D03*
X228600Y419100D03*
X203200Y393700D03*
X228600Y368300D03*
X203200Y342900D03*
X228600Y317500D03*
X203200Y292100D03*
X461010Y508000D03*
X461010Y434340D03*
X461010Y381000D03*
X459740Y318770D03*
X334010Y273050D03*
X335280Y316230D03*
X336550Y391160D03*
X335280Y450850D03*
X335280Y340360D03*
M02*
