G04 EAGLE Gerber RS-274X export*
G75*
%MOMM*%
%FSLAX34Y34*%
%LPD*%
%INTop Copper*%
%IPPOS*%
%AMOC8*
5,1,8,0,0,1.08239X$1,22.5*%
G01*
%ADD10C,0.504000*%
%ADD11R,0.700000X1.200000*%
%ADD12R,0.800000X1.000000*%
%ADD13C,1.879600*%
%ADD14R,1.300000X1.500000*%
%ADD15R,1.500000X1.300000*%
%ADD16C,1.800000*%
%ADD17C,0.254000*%
%ADD18C,0.756400*%


D10*
X321880Y303230D02*
X321880Y297770D01*
X313120Y297770D01*
X313120Y303230D01*
X321880Y303230D01*
X321880Y302558D02*
X313120Y302558D01*
X313120Y286430D02*
X313120Y280970D01*
X313120Y286430D02*
X321880Y286430D01*
X321880Y280970D01*
X313120Y280970D01*
X313120Y285758D02*
X321880Y285758D01*
X410780Y335870D02*
X410780Y341330D01*
X410780Y335870D02*
X402020Y335870D01*
X402020Y341330D01*
X410780Y341330D01*
X410780Y340658D02*
X402020Y340658D01*
X402020Y324530D02*
X402020Y319070D01*
X402020Y324530D02*
X410780Y324530D01*
X410780Y319070D01*
X402020Y319070D01*
X402020Y323858D02*
X410780Y323858D01*
X321880Y361270D02*
X321880Y366730D01*
X321880Y361270D02*
X313120Y361270D01*
X313120Y366730D01*
X321880Y366730D01*
X321880Y366058D02*
X313120Y366058D01*
X313120Y349930D02*
X313120Y344470D01*
X313120Y349930D02*
X321880Y349930D01*
X321880Y344470D01*
X313120Y344470D01*
X313120Y349258D02*
X321880Y349258D01*
X410780Y399370D02*
X410780Y404830D01*
X410780Y399370D02*
X402020Y399370D01*
X402020Y404830D01*
X410780Y404830D01*
X410780Y404158D02*
X402020Y404158D01*
X402020Y388030D02*
X402020Y382570D01*
X402020Y388030D02*
X410780Y388030D01*
X410780Y382570D01*
X402020Y382570D01*
X402020Y387358D02*
X410780Y387358D01*
X321880Y412070D02*
X321880Y417530D01*
X321880Y412070D02*
X313120Y412070D01*
X313120Y417530D01*
X321880Y417530D01*
X321880Y416858D02*
X313120Y416858D01*
X313120Y400730D02*
X313120Y395270D01*
X313120Y400730D02*
X321880Y400730D01*
X321880Y395270D01*
X313120Y395270D01*
X313120Y400058D02*
X321880Y400058D01*
X410780Y450170D02*
X410780Y455630D01*
X410780Y450170D02*
X402020Y450170D01*
X402020Y455630D01*
X410780Y455630D01*
X410780Y454958D02*
X402020Y454958D01*
X402020Y438830D02*
X402020Y433370D01*
X402020Y438830D02*
X410780Y438830D01*
X410780Y433370D01*
X402020Y433370D01*
X402020Y438158D02*
X410780Y438158D01*
X321880Y475570D02*
X321880Y481030D01*
X321880Y475570D02*
X313120Y475570D01*
X313120Y481030D01*
X321880Y481030D01*
X321880Y480358D02*
X313120Y480358D01*
X313120Y464230D02*
X313120Y458770D01*
X313120Y464230D02*
X321880Y464230D01*
X321880Y458770D01*
X313120Y458770D01*
X313120Y463558D02*
X321880Y463558D01*
X410780Y526370D02*
X410780Y531830D01*
X410780Y526370D02*
X402020Y526370D01*
X402020Y531830D01*
X410780Y531830D01*
X410780Y531158D02*
X402020Y531158D01*
X402020Y515030D02*
X402020Y509570D01*
X402020Y515030D02*
X410780Y515030D01*
X410780Y509570D01*
X402020Y509570D01*
X402020Y514358D02*
X410780Y514358D01*
D11*
X292100Y297900D03*
X292100Y260900D03*
D12*
X190500Y396400D03*
X190500Y416400D03*
D11*
X381000Y463000D03*
X381000Y426000D03*
D12*
X215900Y421800D03*
X215900Y441800D03*
D11*
X292100Y488400D03*
X292100Y451400D03*
D12*
X190500Y447200D03*
X190500Y467200D03*
D11*
X381000Y526500D03*
X381000Y489500D03*
D12*
X215900Y472600D03*
X215900Y492600D03*
X190500Y294800D03*
X190500Y314800D03*
D11*
X381000Y336000D03*
X381000Y299000D03*
D12*
X215900Y320200D03*
X215900Y340200D03*
D11*
X292100Y361400D03*
X292100Y324400D03*
D12*
X190500Y345600D03*
X190500Y365600D03*
D11*
X381000Y399500D03*
X381000Y362500D03*
D12*
X215900Y371000D03*
X215900Y391000D03*
D11*
X292100Y424900D03*
X292100Y387900D03*
D13*
X498602Y495300D02*
X517398Y495300D01*
X517398Y469900D02*
X498602Y469900D01*
X498602Y444500D02*
X517398Y444500D01*
X517398Y419100D02*
X498602Y419100D01*
X498602Y393700D02*
X517398Y393700D01*
X517398Y368300D02*
X498602Y368300D01*
X498602Y342900D02*
X517398Y342900D01*
X517398Y317500D02*
X498602Y317500D01*
X498602Y292100D02*
X517398Y292100D01*
D14*
X142900Y317500D03*
X161900Y317500D03*
X142900Y393700D03*
X161900Y393700D03*
X244500Y393700D03*
X263500Y393700D03*
D15*
X444500Y384200D03*
X444500Y403200D03*
D14*
X142900Y419100D03*
X161900Y419100D03*
X244500Y419100D03*
X263500Y419100D03*
D15*
X355600Y396900D03*
X355600Y415900D03*
D14*
X142900Y444500D03*
X161900Y444500D03*
X244500Y444500D03*
X263500Y444500D03*
D15*
X444500Y435000D03*
X444500Y454000D03*
D14*
X142900Y469900D03*
X161900Y469900D03*
X244500Y317500D03*
X263500Y317500D03*
X244500Y469900D03*
X263500Y469900D03*
D15*
X355600Y460400D03*
X355600Y479400D03*
D14*
X142900Y495300D03*
X161900Y495300D03*
X244500Y495300D03*
X263500Y495300D03*
D15*
X444500Y511200D03*
X444500Y530200D03*
X355600Y282600D03*
X355600Y301600D03*
D14*
X142900Y342900D03*
X161900Y342900D03*
X244500Y342900D03*
X263500Y342900D03*
D15*
X444500Y320700D03*
X444500Y339700D03*
D14*
X142900Y368300D03*
X161900Y368300D03*
X244500Y368300D03*
X263500Y368300D03*
D15*
X355600Y346100D03*
X355600Y365100D03*
D16*
X72500Y533400D02*
X54500Y533400D01*
X54500Y508000D02*
X72500Y508000D01*
X72500Y482600D02*
X54500Y482600D01*
X54500Y457200D02*
X72500Y457200D01*
X72500Y431800D02*
X54500Y431800D01*
X54500Y406400D02*
X72500Y406400D01*
X72500Y381000D02*
X54500Y381000D01*
X54500Y355600D02*
X72500Y355600D01*
X132080Y283320D02*
X132080Y265320D01*
X157480Y265320D02*
X157480Y283320D01*
D17*
X161900Y317500D02*
X187800Y317500D01*
X190500Y314800D01*
X231800Y304800D02*
X244500Y317500D01*
X200500Y304800D02*
X190500Y314800D01*
X200500Y304800D02*
X231800Y304800D01*
X263500Y317500D02*
X283100Y297900D01*
X292100Y297900D01*
X314900Y297900D01*
X317500Y300500D01*
X354500Y300500D01*
X355600Y301600D01*
X482600Y317500D02*
X508000Y317500D01*
X482600Y317500D02*
X469900Y304800D01*
X406400Y304800D01*
X386080Y284480D01*
X372720Y284480D02*
X355600Y301600D01*
X372720Y284480D02*
X386080Y284480D01*
D18*
X228600Y469900D03*
X203200Y444500D03*
X228600Y419100D03*
X203200Y393700D03*
X228600Y368300D03*
X203200Y342900D03*
X228600Y317500D03*
X203200Y292100D03*
D17*
X215900Y472600D02*
X225900Y472600D01*
X228600Y469900D01*
X203200Y444500D02*
X193200Y444500D01*
X190500Y447200D01*
X215900Y421800D02*
X225900Y421800D01*
X228600Y419100D01*
X193200Y393700D02*
X190500Y396400D01*
X193200Y393700D02*
X203200Y393700D01*
X215900Y371000D02*
X218600Y368300D01*
X228600Y368300D01*
X203200Y342900D02*
X193200Y342900D01*
X190500Y345600D01*
X215900Y320200D02*
X218600Y317500D01*
X228600Y317500D01*
X193200Y292100D02*
X190500Y294800D01*
X292100Y260900D02*
X314900Y283700D01*
X317500Y283700D01*
X318600Y282600D01*
X335280Y282600D01*
X355600Y282600D01*
X381000Y299000D02*
X403800Y321800D01*
X406400Y321800D01*
X443400Y321800D01*
X444500Y320700D01*
X205649Y342900D02*
X203200Y342900D01*
X317500Y347200D02*
X335280Y347200D01*
X354500Y347200D01*
X355600Y346100D01*
X407500Y384200D02*
X444500Y384200D01*
X407500Y384200D02*
X406400Y385300D01*
X203200Y292100D02*
X193200Y292100D01*
X203200Y393700D02*
X205649Y393700D01*
X292100Y387900D02*
X302200Y398000D01*
X317500Y398000D01*
X337820Y398000D01*
X354500Y398000D01*
X355600Y396900D01*
X381000Y426000D02*
X391100Y436100D01*
X406400Y436100D01*
X443400Y436100D01*
X444500Y435000D01*
X444500Y511200D02*
X407500Y511200D01*
X406400Y512300D01*
X383600Y489500D01*
X381000Y489500D01*
D18*
X461010Y508000D03*
X461010Y434340D03*
X461010Y381000D03*
X459740Y318770D03*
X334010Y273050D03*
X335280Y316230D03*
X336550Y391160D03*
X335280Y450850D03*
D17*
X444500Y511200D02*
X447700Y508000D01*
X461010Y508000D01*
X444500Y435000D02*
X445160Y434340D01*
X461010Y434340D01*
X444500Y384200D02*
X447700Y381000D01*
X461010Y381000D01*
X444500Y320700D02*
X446430Y318770D01*
X459740Y318770D01*
X302200Y461500D02*
X292100Y451400D01*
X302200Y461500D02*
X317500Y461500D01*
X335280Y461500D01*
X354500Y461500D01*
X355600Y460400D01*
D18*
X335280Y340360D03*
D17*
X317500Y347200D02*
X315350Y345050D01*
X313200Y342900D01*
X334010Y281330D02*
X334010Y273050D01*
X334010Y281330D02*
X335280Y282600D01*
X335280Y340360D02*
X335280Y347200D01*
X336550Y391160D02*
X336550Y396730D01*
X337820Y398000D01*
X335280Y450850D02*
X335280Y461500D01*
X406400Y385300D02*
X383600Y362500D01*
X381000Y362500D01*
X312750Y345050D02*
X292100Y324400D01*
X312750Y345050D02*
X315350Y345050D01*
X244500Y342900D02*
X241800Y340200D01*
X215900Y340200D01*
X165100Y342900D02*
X161900Y342900D01*
X165100Y342900D02*
X177800Y330200D01*
X205900Y330200D01*
X215900Y340200D01*
X381000Y336000D02*
X383600Y338600D01*
X406400Y338600D01*
X407500Y339700D01*
X444500Y339700D01*
X447700Y342900D01*
X508000Y342900D01*
X274320Y342900D02*
X263500Y342900D01*
X274320Y342900D02*
X279400Y337820D01*
X279400Y318770D02*
X287020Y311150D01*
X298450Y311150D01*
X313690Y326390D02*
X313690Y327660D01*
X316230Y330200D01*
X375200Y330200D02*
X381000Y336000D01*
X279400Y337820D02*
X279400Y318770D01*
X298450Y311150D02*
X313690Y326390D01*
X316230Y330200D02*
X375200Y330200D01*
X187800Y368300D02*
X161900Y368300D01*
X187800Y368300D02*
X190500Y365600D01*
X231800Y355600D02*
X244500Y368300D01*
X200500Y355600D02*
X190500Y365600D01*
X200500Y355600D02*
X231800Y355600D01*
X263500Y368300D02*
X285200Y368300D01*
X292100Y361400D01*
X294700Y364000D01*
X317500Y364000D01*
X318600Y365100D01*
X355600Y365100D01*
X365150Y365100D01*
X368300Y361950D02*
X368300Y355600D01*
X373380Y350520D01*
X392430Y350520D02*
X410210Y368300D01*
X508000Y368300D01*
X368300Y361950D02*
X365150Y365100D01*
X373380Y350520D02*
X392430Y350520D01*
X244500Y393700D02*
X241800Y391000D01*
X215900Y391000D01*
X174600Y381000D02*
X161900Y393700D01*
X205900Y381000D02*
X215900Y391000D01*
X205900Y381000D02*
X174600Y381000D01*
X263500Y393700D02*
X266700Y393700D01*
X381000Y399500D02*
X403800Y399500D01*
X406400Y402100D01*
X407500Y403200D01*
X444500Y403200D01*
X447700Y406400D01*
X482600Y406400D02*
X495300Y393700D01*
X508000Y393700D01*
X482600Y406400D02*
X447700Y406400D01*
X283210Y377190D02*
X266700Y393700D01*
X283210Y377190D02*
X364490Y377190D01*
X381000Y393700D01*
X381000Y399500D01*
X187800Y419100D02*
X161900Y419100D01*
X187800Y419100D02*
X190500Y416400D01*
X231800Y406400D02*
X244500Y419100D01*
X200500Y406400D02*
X190500Y416400D01*
X200500Y406400D02*
X231800Y406400D01*
X263500Y419100D02*
X286300Y419100D01*
X292100Y424900D01*
X307400Y424900D01*
X317500Y414800D01*
X318600Y415900D01*
X355600Y415900D01*
X479400Y415900D02*
X482600Y419100D01*
X508000Y419100D01*
X479400Y415900D02*
X355600Y415900D01*
X165100Y444500D02*
X161900Y444500D01*
X165100Y444500D02*
X177800Y431800D01*
X205900Y431800D01*
X215900Y441800D01*
X241800Y441800D02*
X244500Y444500D01*
X241800Y441800D02*
X215900Y441800D01*
X263500Y444500D02*
X279400Y444500D01*
X287020Y436880D01*
X360680Y436880D01*
X381000Y457200D02*
X381000Y463000D01*
X381000Y457200D02*
X360680Y436880D01*
X407500Y454000D02*
X444500Y454000D01*
X407500Y454000D02*
X406400Y452900D01*
X396300Y463000D01*
X381000Y463000D01*
X444500Y454000D02*
X447700Y457200D01*
X469900Y457200D01*
X482600Y444500D01*
X508000Y444500D01*
X187800Y469900D02*
X161900Y469900D01*
X187800Y469900D02*
X190500Y467200D01*
X231800Y457200D02*
X244500Y469900D01*
X200500Y457200D02*
X190500Y467200D01*
X200500Y457200D02*
X231800Y457200D01*
X263500Y469900D02*
X273600Y469900D01*
X292100Y488400D01*
X307400Y488400D01*
X317500Y478300D01*
X318600Y479400D01*
X355600Y479400D01*
X370230Y479400D01*
X374650Y474980D01*
X391160Y474980D01*
X396240Y480060D01*
X398780Y482600D01*
X469900Y482600D02*
X482600Y469900D01*
X508000Y469900D01*
X469900Y482600D02*
X398780Y482600D01*
X213200Y495300D02*
X161900Y495300D01*
X213200Y495300D02*
X215900Y492600D01*
X218600Y495300D01*
X244500Y495300D01*
X263500Y495300D02*
X294700Y526500D01*
X381000Y526500D01*
X403800Y526500D01*
X406400Y529100D01*
X443400Y529100D01*
X444500Y530200D01*
X473100Y530200D01*
X508000Y495300D01*
X104800Y355600D02*
X63500Y355600D01*
X104800Y355600D02*
X142900Y317500D01*
X104800Y381000D02*
X63500Y381000D01*
X104800Y381000D02*
X142900Y342900D01*
X104800Y406400D02*
X63500Y406400D01*
X104800Y406400D02*
X142900Y368300D01*
X104800Y431800D02*
X63500Y431800D01*
X104800Y431800D02*
X142900Y393700D01*
X104800Y457200D02*
X63500Y457200D01*
X104800Y457200D02*
X142900Y419100D01*
X104800Y482600D02*
X63500Y482600D01*
X104800Y482600D02*
X142900Y444500D01*
X104800Y508000D02*
X63500Y508000D01*
X104800Y508000D02*
X142900Y469900D01*
X142900Y495300D02*
X104800Y533400D01*
X63500Y533400D01*
M02*
