G04 EAGLE Gerber RS-274X export*
G75*
%MOMM*%
%FSLAX34Y34*%
%LPD*%
%INSolderpaste Top*%
%IPPOS*%
%AMOC8*
5,1,8,0,0,1.08239X$1,22.5*%
G01*
%ADD10C,0.504000*%
%ADD11R,0.700000X1.200000*%
%ADD12R,0.800000X1.000000*%
%ADD13R,1.300000X1.500000*%
%ADD14R,1.500000X1.300000*%

G36*
X411191Y523832D02*
X411191Y523832D01*
X411198Y523837D01*
X411202Y523833D01*
X411584Y523924D01*
X411588Y523929D01*
X411592Y523927D01*
X411954Y524077D01*
X411957Y524082D01*
X411961Y524080D01*
X412295Y524285D01*
X412297Y524290D01*
X412301Y524290D01*
X412600Y524545D01*
X412601Y524550D01*
X412605Y524550D01*
X412860Y524849D01*
X412861Y524855D01*
X412865Y524855D01*
X413070Y525189D01*
X413069Y525195D01*
X413074Y525196D01*
X413224Y525558D01*
X413223Y525560D01*
X413224Y525560D01*
X413222Y525563D01*
X413222Y525564D01*
X413226Y525566D01*
X413317Y525948D01*
X413315Y525953D01*
X413317Y525954D01*
X413318Y525955D01*
X413349Y526346D01*
X413347Y526349D01*
X413349Y526350D01*
X413349Y531850D01*
X413347Y531852D01*
X413349Y531854D01*
X413318Y532245D01*
X413314Y532249D01*
X413317Y532252D01*
X413226Y532634D01*
X413221Y532638D01*
X413224Y532642D01*
X413074Y533004D01*
X413068Y533007D01*
X413070Y533011D01*
X412865Y533345D01*
X412860Y533347D01*
X412860Y533351D01*
X412605Y533650D01*
X412600Y533651D01*
X412600Y533655D01*
X412301Y533910D01*
X412295Y533911D01*
X412295Y533915D01*
X411961Y534120D01*
X411955Y534119D01*
X411954Y534124D01*
X411592Y534274D01*
X411586Y534272D01*
X411584Y534276D01*
X411202Y534367D01*
X411197Y534365D01*
X411195Y534368D01*
X410804Y534399D01*
X410801Y534397D01*
X410800Y534399D01*
X401609Y534368D01*
X401602Y534363D01*
X401598Y534367D01*
X401216Y534276D01*
X401212Y534271D01*
X401208Y534274D01*
X400846Y534124D01*
X400843Y534118D01*
X400839Y534120D01*
X400505Y533915D01*
X400503Y533910D01*
X400499Y533910D01*
X400200Y533655D01*
X400199Y533650D01*
X400195Y533650D01*
X399940Y533351D01*
X399939Y533345D01*
X399935Y533345D01*
X399730Y533011D01*
X399731Y533005D01*
X399727Y533004D01*
X399577Y532642D01*
X399578Y532636D01*
X399574Y532634D01*
X399483Y532252D01*
X399485Y532247D01*
X399482Y532245D01*
X399451Y531854D01*
X399453Y531851D01*
X399451Y531850D01*
X399451Y526350D01*
X399453Y526348D01*
X399451Y526346D01*
X399482Y525955D01*
X399486Y525951D01*
X399483Y525948D01*
X399574Y525566D01*
X399579Y525562D01*
X399577Y525558D01*
X399727Y525196D01*
X399732Y525193D01*
X399730Y525189D01*
X399935Y524855D01*
X399940Y524853D01*
X399940Y524849D01*
X400195Y524550D01*
X400200Y524549D01*
X400200Y524545D01*
X400499Y524290D01*
X400505Y524289D01*
X400505Y524285D01*
X400839Y524080D01*
X400845Y524081D01*
X400846Y524077D01*
X401208Y523927D01*
X401214Y523928D01*
X401216Y523924D01*
X401598Y523833D01*
X401603Y523835D01*
X401605Y523832D01*
X401996Y523801D01*
X401999Y523803D01*
X402000Y523801D01*
X411191Y523832D01*
G37*
G36*
X411191Y507032D02*
X411191Y507032D01*
X411198Y507037D01*
X411202Y507033D01*
X411584Y507124D01*
X411588Y507129D01*
X411592Y507127D01*
X411954Y507277D01*
X411957Y507282D01*
X411961Y507280D01*
X412295Y507485D01*
X412297Y507490D01*
X412301Y507490D01*
X412600Y507745D01*
X412601Y507750D01*
X412605Y507750D01*
X412860Y508049D01*
X412861Y508055D01*
X412865Y508055D01*
X413070Y508389D01*
X413069Y508395D01*
X413074Y508396D01*
X413224Y508758D01*
X413223Y508760D01*
X413224Y508760D01*
X413222Y508763D01*
X413222Y508764D01*
X413226Y508766D01*
X413317Y509148D01*
X413315Y509153D01*
X413317Y509154D01*
X413318Y509155D01*
X413349Y509546D01*
X413347Y509549D01*
X413349Y509550D01*
X413349Y515050D01*
X413347Y515052D01*
X413349Y515054D01*
X413318Y515445D01*
X413314Y515449D01*
X413317Y515452D01*
X413226Y515834D01*
X413221Y515838D01*
X413224Y515842D01*
X413074Y516204D01*
X413068Y516207D01*
X413070Y516211D01*
X412865Y516545D01*
X412860Y516547D01*
X412860Y516551D01*
X412605Y516850D01*
X412600Y516851D01*
X412600Y516855D01*
X412301Y517110D01*
X412295Y517111D01*
X412295Y517115D01*
X411961Y517320D01*
X411955Y517319D01*
X411954Y517324D01*
X411592Y517474D01*
X411586Y517472D01*
X411584Y517476D01*
X411202Y517567D01*
X411197Y517565D01*
X411195Y517568D01*
X410804Y517599D01*
X410801Y517597D01*
X410800Y517599D01*
X401609Y517568D01*
X401602Y517563D01*
X401598Y517567D01*
X401216Y517476D01*
X401212Y517471D01*
X401208Y517474D01*
X400846Y517324D01*
X400843Y517318D01*
X400839Y517320D01*
X400505Y517115D01*
X400503Y517110D01*
X400499Y517110D01*
X400200Y516855D01*
X400199Y516850D01*
X400195Y516850D01*
X399940Y516551D01*
X399939Y516545D01*
X399935Y516545D01*
X399730Y516211D01*
X399731Y516205D01*
X399727Y516204D01*
X399577Y515842D01*
X399578Y515836D01*
X399574Y515834D01*
X399483Y515452D01*
X399485Y515447D01*
X399482Y515445D01*
X399451Y515054D01*
X399453Y515051D01*
X399451Y515050D01*
X399451Y509550D01*
X399453Y509548D01*
X399451Y509546D01*
X399482Y509155D01*
X399486Y509151D01*
X399483Y509148D01*
X399574Y508766D01*
X399579Y508762D01*
X399577Y508758D01*
X399727Y508396D01*
X399732Y508393D01*
X399730Y508389D01*
X399935Y508055D01*
X399940Y508053D01*
X399940Y508049D01*
X400195Y507750D01*
X400200Y507749D01*
X400200Y507745D01*
X400499Y507490D01*
X400505Y507489D01*
X400505Y507485D01*
X400839Y507280D01*
X400845Y507281D01*
X400846Y507277D01*
X401208Y507127D01*
X401214Y507128D01*
X401216Y507124D01*
X401598Y507033D01*
X401603Y507035D01*
X401605Y507032D01*
X401996Y507001D01*
X401999Y507003D01*
X402000Y507001D01*
X411191Y507032D01*
G37*
G36*
X322291Y473032D02*
X322291Y473032D01*
X322298Y473037D01*
X322302Y473033D01*
X322684Y473124D01*
X322688Y473129D01*
X322692Y473127D01*
X323054Y473277D01*
X323057Y473282D01*
X323061Y473280D01*
X323395Y473485D01*
X323397Y473490D01*
X323401Y473490D01*
X323700Y473745D01*
X323701Y473750D01*
X323705Y473750D01*
X323960Y474049D01*
X323961Y474055D01*
X323965Y474055D01*
X324170Y474389D01*
X324169Y474395D01*
X324174Y474396D01*
X324324Y474758D01*
X324323Y474760D01*
X324324Y474760D01*
X324322Y474763D01*
X324322Y474764D01*
X324326Y474766D01*
X324417Y475148D01*
X324415Y475153D01*
X324417Y475154D01*
X324418Y475155D01*
X324449Y475546D01*
X324447Y475549D01*
X324449Y475550D01*
X324449Y481050D01*
X324447Y481052D01*
X324449Y481054D01*
X324418Y481445D01*
X324414Y481449D01*
X324417Y481452D01*
X324326Y481834D01*
X324321Y481838D01*
X324324Y481842D01*
X324174Y482204D01*
X324168Y482207D01*
X324170Y482211D01*
X323965Y482545D01*
X323960Y482547D01*
X323960Y482551D01*
X323705Y482850D01*
X323700Y482851D01*
X323700Y482855D01*
X323401Y483110D01*
X323395Y483111D01*
X323395Y483115D01*
X323061Y483320D01*
X323055Y483319D01*
X323054Y483324D01*
X322692Y483474D01*
X322686Y483472D01*
X322684Y483476D01*
X322302Y483567D01*
X322297Y483565D01*
X322295Y483568D01*
X321904Y483599D01*
X321901Y483597D01*
X321900Y483599D01*
X312709Y483568D01*
X312702Y483563D01*
X312698Y483567D01*
X312316Y483476D01*
X312312Y483471D01*
X312308Y483474D01*
X311946Y483324D01*
X311943Y483318D01*
X311939Y483320D01*
X311605Y483115D01*
X311603Y483110D01*
X311599Y483110D01*
X311300Y482855D01*
X311299Y482850D01*
X311295Y482850D01*
X311040Y482551D01*
X311039Y482545D01*
X311035Y482545D01*
X310830Y482211D01*
X310831Y482205D01*
X310827Y482204D01*
X310677Y481842D01*
X310678Y481836D01*
X310674Y481834D01*
X310583Y481452D01*
X310585Y481447D01*
X310582Y481445D01*
X310551Y481054D01*
X310553Y481051D01*
X310551Y481050D01*
X310551Y475550D01*
X310553Y475548D01*
X310551Y475546D01*
X310582Y475155D01*
X310586Y475151D01*
X310583Y475148D01*
X310674Y474766D01*
X310679Y474762D01*
X310677Y474758D01*
X310827Y474396D01*
X310832Y474393D01*
X310830Y474389D01*
X311035Y474055D01*
X311040Y474053D01*
X311040Y474049D01*
X311295Y473750D01*
X311300Y473749D01*
X311300Y473745D01*
X311599Y473490D01*
X311605Y473489D01*
X311605Y473485D01*
X311939Y473280D01*
X311945Y473281D01*
X311946Y473277D01*
X312308Y473127D01*
X312314Y473128D01*
X312316Y473124D01*
X312698Y473033D01*
X312703Y473035D01*
X312705Y473032D01*
X313096Y473001D01*
X313099Y473003D01*
X313100Y473001D01*
X322291Y473032D01*
G37*
G36*
X322291Y456232D02*
X322291Y456232D01*
X322298Y456237D01*
X322302Y456233D01*
X322684Y456324D01*
X322688Y456329D01*
X322692Y456327D01*
X323054Y456477D01*
X323057Y456482D01*
X323061Y456480D01*
X323395Y456685D01*
X323397Y456690D01*
X323401Y456690D01*
X323700Y456945D01*
X323701Y456950D01*
X323705Y456950D01*
X323960Y457249D01*
X323961Y457255D01*
X323965Y457255D01*
X324170Y457589D01*
X324169Y457595D01*
X324174Y457596D01*
X324324Y457958D01*
X324323Y457960D01*
X324324Y457960D01*
X324322Y457963D01*
X324322Y457964D01*
X324326Y457966D01*
X324417Y458348D01*
X324415Y458353D01*
X324417Y458354D01*
X324418Y458355D01*
X324449Y458746D01*
X324447Y458749D01*
X324449Y458750D01*
X324449Y464250D01*
X324447Y464252D01*
X324449Y464254D01*
X324418Y464645D01*
X324414Y464649D01*
X324417Y464652D01*
X324326Y465034D01*
X324321Y465038D01*
X324324Y465042D01*
X324174Y465404D01*
X324168Y465407D01*
X324170Y465411D01*
X323965Y465745D01*
X323960Y465747D01*
X323960Y465751D01*
X323705Y466050D01*
X323700Y466051D01*
X323700Y466055D01*
X323401Y466310D01*
X323395Y466311D01*
X323395Y466315D01*
X323061Y466520D01*
X323055Y466519D01*
X323054Y466524D01*
X322692Y466674D01*
X322686Y466672D01*
X322684Y466676D01*
X322302Y466767D01*
X322297Y466765D01*
X322295Y466768D01*
X321904Y466799D01*
X321901Y466797D01*
X321900Y466799D01*
X312709Y466768D01*
X312702Y466763D01*
X312698Y466767D01*
X312316Y466676D01*
X312312Y466671D01*
X312308Y466674D01*
X311946Y466524D01*
X311943Y466518D01*
X311939Y466520D01*
X311605Y466315D01*
X311603Y466310D01*
X311599Y466310D01*
X311300Y466055D01*
X311299Y466050D01*
X311295Y466050D01*
X311040Y465751D01*
X311039Y465745D01*
X311035Y465745D01*
X310830Y465411D01*
X310831Y465405D01*
X310827Y465404D01*
X310677Y465042D01*
X310678Y465036D01*
X310674Y465034D01*
X310583Y464652D01*
X310585Y464647D01*
X310582Y464645D01*
X310551Y464254D01*
X310553Y464251D01*
X310551Y464250D01*
X310551Y458750D01*
X310553Y458748D01*
X310551Y458746D01*
X310582Y458355D01*
X310586Y458351D01*
X310583Y458348D01*
X310674Y457966D01*
X310679Y457962D01*
X310677Y457958D01*
X310827Y457596D01*
X310832Y457593D01*
X310830Y457589D01*
X311035Y457255D01*
X311040Y457253D01*
X311040Y457249D01*
X311295Y456950D01*
X311300Y456949D01*
X311300Y456945D01*
X311599Y456690D01*
X311605Y456689D01*
X311605Y456685D01*
X311939Y456480D01*
X311945Y456481D01*
X311946Y456477D01*
X312308Y456327D01*
X312314Y456328D01*
X312316Y456324D01*
X312698Y456233D01*
X312703Y456235D01*
X312705Y456232D01*
X313096Y456201D01*
X313099Y456203D01*
X313100Y456201D01*
X322291Y456232D01*
G37*
G36*
X411191Y447632D02*
X411191Y447632D01*
X411198Y447637D01*
X411202Y447633D01*
X411584Y447724D01*
X411588Y447729D01*
X411592Y447727D01*
X411954Y447877D01*
X411957Y447882D01*
X411961Y447880D01*
X412295Y448085D01*
X412297Y448090D01*
X412301Y448090D01*
X412600Y448345D01*
X412601Y448350D01*
X412605Y448350D01*
X412860Y448649D01*
X412861Y448655D01*
X412865Y448655D01*
X413070Y448989D01*
X413069Y448995D01*
X413074Y448996D01*
X413224Y449358D01*
X413223Y449360D01*
X413224Y449360D01*
X413222Y449363D01*
X413222Y449364D01*
X413226Y449366D01*
X413317Y449748D01*
X413315Y449753D01*
X413317Y449754D01*
X413318Y449755D01*
X413349Y450146D01*
X413347Y450149D01*
X413349Y450150D01*
X413349Y455650D01*
X413347Y455652D01*
X413349Y455654D01*
X413318Y456045D01*
X413314Y456049D01*
X413317Y456052D01*
X413226Y456434D01*
X413221Y456438D01*
X413224Y456442D01*
X413074Y456804D01*
X413068Y456807D01*
X413070Y456811D01*
X412865Y457145D01*
X412860Y457147D01*
X412860Y457151D01*
X412605Y457450D01*
X412600Y457451D01*
X412600Y457455D01*
X412301Y457710D01*
X412295Y457711D01*
X412295Y457715D01*
X411961Y457920D01*
X411955Y457919D01*
X411954Y457924D01*
X411592Y458074D01*
X411586Y458072D01*
X411584Y458076D01*
X411202Y458167D01*
X411197Y458165D01*
X411195Y458168D01*
X410804Y458199D01*
X410801Y458197D01*
X410800Y458199D01*
X401609Y458168D01*
X401602Y458163D01*
X401598Y458167D01*
X401216Y458076D01*
X401212Y458071D01*
X401208Y458074D01*
X400846Y457924D01*
X400843Y457918D01*
X400839Y457920D01*
X400505Y457715D01*
X400503Y457710D01*
X400499Y457710D01*
X400200Y457455D01*
X400199Y457450D01*
X400195Y457450D01*
X399940Y457151D01*
X399939Y457145D01*
X399935Y457145D01*
X399730Y456811D01*
X399731Y456805D01*
X399727Y456804D01*
X399577Y456442D01*
X399578Y456436D01*
X399574Y456434D01*
X399483Y456052D01*
X399485Y456047D01*
X399482Y456045D01*
X399451Y455654D01*
X399453Y455651D01*
X399451Y455650D01*
X399451Y450150D01*
X399453Y450148D01*
X399451Y450146D01*
X399482Y449755D01*
X399486Y449751D01*
X399483Y449748D01*
X399574Y449366D01*
X399579Y449362D01*
X399577Y449358D01*
X399727Y448996D01*
X399732Y448993D01*
X399730Y448989D01*
X399935Y448655D01*
X399940Y448653D01*
X399940Y448649D01*
X400195Y448350D01*
X400200Y448349D01*
X400200Y448345D01*
X400499Y448090D01*
X400505Y448089D01*
X400505Y448085D01*
X400839Y447880D01*
X400845Y447881D01*
X400846Y447877D01*
X401208Y447727D01*
X401214Y447728D01*
X401216Y447724D01*
X401598Y447633D01*
X401603Y447635D01*
X401605Y447632D01*
X401996Y447601D01*
X401999Y447603D01*
X402000Y447601D01*
X411191Y447632D01*
G37*
G36*
X411191Y430832D02*
X411191Y430832D01*
X411198Y430837D01*
X411202Y430833D01*
X411584Y430924D01*
X411588Y430929D01*
X411592Y430927D01*
X411954Y431077D01*
X411957Y431082D01*
X411961Y431080D01*
X412295Y431285D01*
X412297Y431290D01*
X412301Y431290D01*
X412600Y431545D01*
X412601Y431550D01*
X412605Y431550D01*
X412860Y431849D01*
X412861Y431855D01*
X412865Y431855D01*
X413070Y432189D01*
X413069Y432195D01*
X413074Y432196D01*
X413224Y432558D01*
X413223Y432560D01*
X413224Y432560D01*
X413222Y432563D01*
X413222Y432564D01*
X413226Y432566D01*
X413317Y432948D01*
X413315Y432953D01*
X413317Y432954D01*
X413318Y432955D01*
X413349Y433346D01*
X413347Y433349D01*
X413349Y433350D01*
X413349Y438850D01*
X413347Y438852D01*
X413349Y438854D01*
X413318Y439245D01*
X413314Y439249D01*
X413317Y439252D01*
X413226Y439634D01*
X413221Y439638D01*
X413224Y439642D01*
X413074Y440004D01*
X413068Y440007D01*
X413070Y440011D01*
X412865Y440345D01*
X412860Y440347D01*
X412860Y440351D01*
X412605Y440650D01*
X412600Y440651D01*
X412600Y440655D01*
X412301Y440910D01*
X412295Y440911D01*
X412295Y440915D01*
X411961Y441120D01*
X411955Y441119D01*
X411954Y441124D01*
X411592Y441274D01*
X411586Y441272D01*
X411584Y441276D01*
X411202Y441367D01*
X411197Y441365D01*
X411195Y441368D01*
X410804Y441399D01*
X410801Y441397D01*
X410800Y441399D01*
X401609Y441368D01*
X401602Y441363D01*
X401598Y441367D01*
X401216Y441276D01*
X401212Y441271D01*
X401208Y441274D01*
X400846Y441124D01*
X400843Y441118D01*
X400839Y441120D01*
X400505Y440915D01*
X400503Y440910D01*
X400499Y440910D01*
X400200Y440655D01*
X400199Y440650D01*
X400195Y440650D01*
X399940Y440351D01*
X399939Y440345D01*
X399935Y440345D01*
X399730Y440011D01*
X399731Y440005D01*
X399727Y440004D01*
X399577Y439642D01*
X399578Y439636D01*
X399574Y439634D01*
X399483Y439252D01*
X399485Y439247D01*
X399482Y439245D01*
X399451Y438854D01*
X399453Y438851D01*
X399451Y438850D01*
X399451Y433350D01*
X399453Y433348D01*
X399451Y433346D01*
X399482Y432955D01*
X399486Y432951D01*
X399483Y432948D01*
X399574Y432566D01*
X399579Y432562D01*
X399577Y432558D01*
X399727Y432196D01*
X399732Y432193D01*
X399730Y432189D01*
X399935Y431855D01*
X399940Y431853D01*
X399940Y431849D01*
X400195Y431550D01*
X400200Y431549D01*
X400200Y431545D01*
X400499Y431290D01*
X400505Y431289D01*
X400505Y431285D01*
X400839Y431080D01*
X400845Y431081D01*
X400846Y431077D01*
X401208Y430927D01*
X401214Y430928D01*
X401216Y430924D01*
X401598Y430833D01*
X401603Y430835D01*
X401605Y430832D01*
X401996Y430801D01*
X401999Y430803D01*
X402000Y430801D01*
X411191Y430832D01*
G37*
G36*
X322291Y409532D02*
X322291Y409532D01*
X322298Y409537D01*
X322302Y409533D01*
X322684Y409624D01*
X322688Y409629D01*
X322692Y409627D01*
X323054Y409777D01*
X323057Y409782D01*
X323061Y409780D01*
X323395Y409985D01*
X323397Y409990D01*
X323401Y409990D01*
X323700Y410245D01*
X323701Y410250D01*
X323705Y410250D01*
X323960Y410549D01*
X323961Y410555D01*
X323965Y410555D01*
X324170Y410889D01*
X324169Y410895D01*
X324174Y410896D01*
X324324Y411258D01*
X324323Y411260D01*
X324324Y411260D01*
X324322Y411263D01*
X324322Y411264D01*
X324326Y411266D01*
X324417Y411648D01*
X324415Y411653D01*
X324417Y411654D01*
X324418Y411655D01*
X324449Y412046D01*
X324447Y412049D01*
X324449Y412050D01*
X324449Y417550D01*
X324447Y417552D01*
X324449Y417554D01*
X324418Y417945D01*
X324414Y417949D01*
X324417Y417952D01*
X324326Y418334D01*
X324321Y418338D01*
X324324Y418342D01*
X324174Y418704D01*
X324168Y418707D01*
X324170Y418711D01*
X323965Y419045D01*
X323960Y419047D01*
X323960Y419051D01*
X323705Y419350D01*
X323700Y419351D01*
X323700Y419355D01*
X323401Y419610D01*
X323395Y419611D01*
X323395Y419615D01*
X323061Y419820D01*
X323055Y419819D01*
X323054Y419824D01*
X322692Y419974D01*
X322686Y419972D01*
X322684Y419976D01*
X322302Y420067D01*
X322297Y420065D01*
X322295Y420068D01*
X321904Y420099D01*
X321901Y420097D01*
X321900Y420099D01*
X312709Y420068D01*
X312702Y420063D01*
X312698Y420067D01*
X312316Y419976D01*
X312312Y419971D01*
X312308Y419974D01*
X311946Y419824D01*
X311943Y419818D01*
X311939Y419820D01*
X311605Y419615D01*
X311603Y419610D01*
X311599Y419610D01*
X311300Y419355D01*
X311299Y419350D01*
X311295Y419350D01*
X311040Y419051D01*
X311039Y419045D01*
X311035Y419045D01*
X310830Y418711D01*
X310831Y418705D01*
X310827Y418704D01*
X310677Y418342D01*
X310678Y418336D01*
X310674Y418334D01*
X310583Y417952D01*
X310585Y417947D01*
X310582Y417945D01*
X310551Y417554D01*
X310553Y417551D01*
X310551Y417550D01*
X310551Y412050D01*
X310553Y412048D01*
X310551Y412046D01*
X310582Y411655D01*
X310586Y411651D01*
X310583Y411648D01*
X310674Y411266D01*
X310679Y411262D01*
X310677Y411258D01*
X310827Y410896D01*
X310832Y410893D01*
X310830Y410889D01*
X311035Y410555D01*
X311040Y410553D01*
X311040Y410549D01*
X311295Y410250D01*
X311300Y410249D01*
X311300Y410245D01*
X311599Y409990D01*
X311605Y409989D01*
X311605Y409985D01*
X311939Y409780D01*
X311945Y409781D01*
X311946Y409777D01*
X312308Y409627D01*
X312314Y409628D01*
X312316Y409624D01*
X312698Y409533D01*
X312703Y409535D01*
X312705Y409532D01*
X313096Y409501D01*
X313099Y409503D01*
X313100Y409501D01*
X322291Y409532D01*
G37*
G36*
X411191Y396832D02*
X411191Y396832D01*
X411198Y396837D01*
X411202Y396833D01*
X411584Y396924D01*
X411588Y396929D01*
X411592Y396927D01*
X411954Y397077D01*
X411957Y397082D01*
X411961Y397080D01*
X412295Y397285D01*
X412297Y397290D01*
X412301Y397290D01*
X412600Y397545D01*
X412601Y397550D01*
X412605Y397550D01*
X412860Y397849D01*
X412861Y397855D01*
X412865Y397855D01*
X413070Y398189D01*
X413069Y398195D01*
X413074Y398196D01*
X413224Y398558D01*
X413223Y398560D01*
X413224Y398560D01*
X413222Y398563D01*
X413222Y398564D01*
X413226Y398566D01*
X413317Y398948D01*
X413315Y398953D01*
X413317Y398954D01*
X413318Y398955D01*
X413349Y399346D01*
X413347Y399349D01*
X413349Y399350D01*
X413349Y404850D01*
X413347Y404852D01*
X413349Y404854D01*
X413318Y405245D01*
X413314Y405249D01*
X413317Y405252D01*
X413226Y405634D01*
X413221Y405638D01*
X413224Y405642D01*
X413074Y406004D01*
X413068Y406007D01*
X413070Y406011D01*
X412865Y406345D01*
X412860Y406347D01*
X412860Y406351D01*
X412605Y406650D01*
X412600Y406651D01*
X412600Y406655D01*
X412301Y406910D01*
X412295Y406911D01*
X412295Y406915D01*
X411961Y407120D01*
X411955Y407119D01*
X411954Y407124D01*
X411592Y407274D01*
X411586Y407272D01*
X411584Y407276D01*
X411202Y407367D01*
X411197Y407365D01*
X411195Y407368D01*
X410804Y407399D01*
X410801Y407397D01*
X410800Y407399D01*
X401609Y407368D01*
X401602Y407363D01*
X401598Y407367D01*
X401216Y407276D01*
X401212Y407271D01*
X401208Y407274D01*
X400846Y407124D01*
X400843Y407118D01*
X400839Y407120D01*
X400505Y406915D01*
X400503Y406910D01*
X400499Y406910D01*
X400200Y406655D01*
X400199Y406650D01*
X400195Y406650D01*
X399940Y406351D01*
X399939Y406345D01*
X399935Y406345D01*
X399730Y406011D01*
X399731Y406005D01*
X399727Y406004D01*
X399577Y405642D01*
X399578Y405636D01*
X399574Y405634D01*
X399483Y405252D01*
X399485Y405247D01*
X399482Y405245D01*
X399451Y404854D01*
X399453Y404851D01*
X399451Y404850D01*
X399451Y399350D01*
X399453Y399348D01*
X399451Y399346D01*
X399482Y398955D01*
X399486Y398951D01*
X399483Y398948D01*
X399574Y398566D01*
X399579Y398562D01*
X399577Y398558D01*
X399727Y398196D01*
X399732Y398193D01*
X399730Y398189D01*
X399935Y397855D01*
X399940Y397853D01*
X399940Y397849D01*
X400195Y397550D01*
X400200Y397549D01*
X400200Y397545D01*
X400499Y397290D01*
X400505Y397289D01*
X400505Y397285D01*
X400839Y397080D01*
X400845Y397081D01*
X400846Y397077D01*
X401208Y396927D01*
X401214Y396928D01*
X401216Y396924D01*
X401598Y396833D01*
X401603Y396835D01*
X401605Y396832D01*
X401996Y396801D01*
X401999Y396803D01*
X402000Y396801D01*
X411191Y396832D01*
G37*
G36*
X322291Y392732D02*
X322291Y392732D01*
X322298Y392737D01*
X322302Y392733D01*
X322684Y392824D01*
X322688Y392829D01*
X322692Y392827D01*
X323054Y392977D01*
X323057Y392982D01*
X323061Y392980D01*
X323395Y393185D01*
X323397Y393190D01*
X323401Y393190D01*
X323700Y393445D01*
X323701Y393450D01*
X323705Y393450D01*
X323960Y393749D01*
X323961Y393755D01*
X323965Y393755D01*
X324170Y394089D01*
X324169Y394095D01*
X324174Y394096D01*
X324324Y394458D01*
X324323Y394460D01*
X324324Y394460D01*
X324322Y394463D01*
X324322Y394464D01*
X324326Y394466D01*
X324417Y394848D01*
X324415Y394853D01*
X324417Y394854D01*
X324418Y394855D01*
X324449Y395246D01*
X324447Y395249D01*
X324449Y395250D01*
X324449Y400750D01*
X324447Y400752D01*
X324449Y400754D01*
X324418Y401145D01*
X324414Y401149D01*
X324417Y401152D01*
X324326Y401534D01*
X324321Y401538D01*
X324324Y401542D01*
X324174Y401904D01*
X324168Y401907D01*
X324170Y401911D01*
X323965Y402245D01*
X323960Y402247D01*
X323960Y402251D01*
X323705Y402550D01*
X323700Y402551D01*
X323700Y402555D01*
X323401Y402810D01*
X323395Y402811D01*
X323395Y402815D01*
X323061Y403020D01*
X323055Y403019D01*
X323054Y403024D01*
X322692Y403174D01*
X322686Y403172D01*
X322684Y403176D01*
X322302Y403267D01*
X322297Y403265D01*
X322295Y403268D01*
X321904Y403299D01*
X321901Y403297D01*
X321900Y403299D01*
X312709Y403268D01*
X312702Y403263D01*
X312698Y403267D01*
X312316Y403176D01*
X312312Y403171D01*
X312308Y403174D01*
X311946Y403024D01*
X311943Y403018D01*
X311939Y403020D01*
X311605Y402815D01*
X311603Y402810D01*
X311599Y402810D01*
X311300Y402555D01*
X311299Y402550D01*
X311295Y402550D01*
X311040Y402251D01*
X311039Y402245D01*
X311035Y402245D01*
X310830Y401911D01*
X310831Y401905D01*
X310827Y401904D01*
X310677Y401542D01*
X310678Y401536D01*
X310674Y401534D01*
X310583Y401152D01*
X310585Y401147D01*
X310582Y401145D01*
X310551Y400754D01*
X310553Y400751D01*
X310551Y400750D01*
X310551Y395250D01*
X310553Y395248D01*
X310551Y395246D01*
X310582Y394855D01*
X310586Y394851D01*
X310583Y394848D01*
X310674Y394466D01*
X310679Y394462D01*
X310677Y394458D01*
X310827Y394096D01*
X310832Y394093D01*
X310830Y394089D01*
X311035Y393755D01*
X311040Y393753D01*
X311040Y393749D01*
X311295Y393450D01*
X311300Y393449D01*
X311300Y393445D01*
X311599Y393190D01*
X311605Y393189D01*
X311605Y393185D01*
X311939Y392980D01*
X311945Y392981D01*
X311946Y392977D01*
X312308Y392827D01*
X312314Y392828D01*
X312316Y392824D01*
X312698Y392733D01*
X312703Y392735D01*
X312705Y392732D01*
X313096Y392701D01*
X313099Y392703D01*
X313100Y392701D01*
X322291Y392732D01*
G37*
G36*
X411191Y380032D02*
X411191Y380032D01*
X411198Y380037D01*
X411202Y380033D01*
X411584Y380124D01*
X411588Y380129D01*
X411592Y380127D01*
X411954Y380277D01*
X411957Y380282D01*
X411961Y380280D01*
X412295Y380485D01*
X412297Y380490D01*
X412301Y380490D01*
X412600Y380745D01*
X412601Y380750D01*
X412605Y380750D01*
X412860Y381049D01*
X412861Y381055D01*
X412865Y381055D01*
X413070Y381389D01*
X413069Y381395D01*
X413074Y381396D01*
X413224Y381758D01*
X413223Y381760D01*
X413224Y381760D01*
X413222Y381763D01*
X413222Y381764D01*
X413226Y381766D01*
X413317Y382148D01*
X413315Y382153D01*
X413317Y382154D01*
X413318Y382155D01*
X413349Y382546D01*
X413347Y382549D01*
X413349Y382550D01*
X413349Y388050D01*
X413347Y388052D01*
X413349Y388054D01*
X413318Y388445D01*
X413314Y388449D01*
X413317Y388452D01*
X413226Y388834D01*
X413221Y388838D01*
X413224Y388842D01*
X413074Y389204D01*
X413068Y389207D01*
X413070Y389211D01*
X412865Y389545D01*
X412860Y389547D01*
X412860Y389551D01*
X412605Y389850D01*
X412600Y389851D01*
X412600Y389855D01*
X412301Y390110D01*
X412295Y390111D01*
X412295Y390115D01*
X411961Y390320D01*
X411955Y390319D01*
X411954Y390324D01*
X411592Y390474D01*
X411586Y390472D01*
X411584Y390476D01*
X411202Y390567D01*
X411197Y390565D01*
X411195Y390568D01*
X410804Y390599D01*
X410801Y390597D01*
X410800Y390599D01*
X401609Y390568D01*
X401602Y390563D01*
X401598Y390567D01*
X401216Y390476D01*
X401212Y390471D01*
X401208Y390474D01*
X400846Y390324D01*
X400843Y390318D01*
X400839Y390320D01*
X400505Y390115D01*
X400503Y390110D01*
X400499Y390110D01*
X400200Y389855D01*
X400199Y389850D01*
X400195Y389850D01*
X399940Y389551D01*
X399939Y389545D01*
X399935Y389545D01*
X399730Y389211D01*
X399731Y389205D01*
X399727Y389204D01*
X399577Y388842D01*
X399578Y388836D01*
X399574Y388834D01*
X399483Y388452D01*
X399485Y388447D01*
X399482Y388445D01*
X399451Y388054D01*
X399453Y388051D01*
X399451Y388050D01*
X399451Y382550D01*
X399453Y382548D01*
X399451Y382546D01*
X399482Y382155D01*
X399486Y382151D01*
X399483Y382148D01*
X399574Y381766D01*
X399579Y381762D01*
X399577Y381758D01*
X399727Y381396D01*
X399732Y381393D01*
X399730Y381389D01*
X399935Y381055D01*
X399940Y381053D01*
X399940Y381049D01*
X400195Y380750D01*
X400200Y380749D01*
X400200Y380745D01*
X400499Y380490D01*
X400505Y380489D01*
X400505Y380485D01*
X400839Y380280D01*
X400845Y380281D01*
X400846Y380277D01*
X401208Y380127D01*
X401214Y380128D01*
X401216Y380124D01*
X401598Y380033D01*
X401603Y380035D01*
X401605Y380032D01*
X401996Y380001D01*
X401999Y380003D01*
X402000Y380001D01*
X411191Y380032D01*
G37*
G36*
X322291Y358732D02*
X322291Y358732D01*
X322298Y358737D01*
X322302Y358733D01*
X322684Y358824D01*
X322688Y358829D01*
X322692Y358827D01*
X323054Y358977D01*
X323057Y358982D01*
X323061Y358980D01*
X323395Y359185D01*
X323397Y359190D01*
X323401Y359190D01*
X323700Y359445D01*
X323701Y359450D01*
X323705Y359450D01*
X323960Y359749D01*
X323961Y359755D01*
X323965Y359755D01*
X324170Y360089D01*
X324169Y360095D01*
X324174Y360096D01*
X324324Y360458D01*
X324323Y360460D01*
X324324Y360460D01*
X324322Y360463D01*
X324322Y360464D01*
X324326Y360466D01*
X324417Y360848D01*
X324415Y360853D01*
X324417Y360854D01*
X324418Y360855D01*
X324449Y361246D01*
X324447Y361249D01*
X324449Y361250D01*
X324449Y366750D01*
X324447Y366752D01*
X324449Y366754D01*
X324418Y367145D01*
X324414Y367149D01*
X324417Y367152D01*
X324326Y367534D01*
X324321Y367538D01*
X324324Y367542D01*
X324174Y367904D01*
X324168Y367907D01*
X324170Y367911D01*
X323965Y368245D01*
X323960Y368247D01*
X323960Y368251D01*
X323705Y368550D01*
X323700Y368551D01*
X323700Y368555D01*
X323401Y368810D01*
X323395Y368811D01*
X323395Y368815D01*
X323061Y369020D01*
X323055Y369019D01*
X323054Y369024D01*
X322692Y369174D01*
X322686Y369172D01*
X322684Y369176D01*
X322302Y369267D01*
X322297Y369265D01*
X322295Y369268D01*
X321904Y369299D01*
X321901Y369297D01*
X321900Y369299D01*
X312709Y369268D01*
X312702Y369263D01*
X312698Y369267D01*
X312316Y369176D01*
X312312Y369171D01*
X312308Y369174D01*
X311946Y369024D01*
X311943Y369018D01*
X311939Y369020D01*
X311605Y368815D01*
X311603Y368810D01*
X311599Y368810D01*
X311300Y368555D01*
X311299Y368550D01*
X311295Y368550D01*
X311040Y368251D01*
X311039Y368245D01*
X311035Y368245D01*
X310830Y367911D01*
X310831Y367905D01*
X310827Y367904D01*
X310677Y367542D01*
X310678Y367536D01*
X310674Y367534D01*
X310583Y367152D01*
X310585Y367147D01*
X310582Y367145D01*
X310551Y366754D01*
X310553Y366751D01*
X310551Y366750D01*
X310551Y361250D01*
X310553Y361248D01*
X310551Y361246D01*
X310582Y360855D01*
X310586Y360851D01*
X310583Y360848D01*
X310674Y360466D01*
X310679Y360462D01*
X310677Y360458D01*
X310827Y360096D01*
X310832Y360093D01*
X310830Y360089D01*
X311035Y359755D01*
X311040Y359753D01*
X311040Y359749D01*
X311295Y359450D01*
X311300Y359449D01*
X311300Y359445D01*
X311599Y359190D01*
X311605Y359189D01*
X311605Y359185D01*
X311939Y358980D01*
X311945Y358981D01*
X311946Y358977D01*
X312308Y358827D01*
X312314Y358828D01*
X312316Y358824D01*
X312698Y358733D01*
X312703Y358735D01*
X312705Y358732D01*
X313096Y358701D01*
X313099Y358703D01*
X313100Y358701D01*
X322291Y358732D01*
G37*
G36*
X322291Y341932D02*
X322291Y341932D01*
X322298Y341937D01*
X322302Y341933D01*
X322684Y342024D01*
X322688Y342029D01*
X322692Y342027D01*
X323054Y342177D01*
X323057Y342182D01*
X323061Y342180D01*
X323395Y342385D01*
X323397Y342390D01*
X323401Y342390D01*
X323700Y342645D01*
X323701Y342650D01*
X323705Y342650D01*
X323960Y342949D01*
X323961Y342955D01*
X323965Y342955D01*
X324170Y343289D01*
X324169Y343295D01*
X324174Y343296D01*
X324324Y343658D01*
X324323Y343660D01*
X324324Y343660D01*
X324322Y343663D01*
X324322Y343664D01*
X324326Y343666D01*
X324417Y344048D01*
X324415Y344053D01*
X324417Y344054D01*
X324418Y344055D01*
X324449Y344446D01*
X324447Y344449D01*
X324449Y344450D01*
X324449Y349950D01*
X324447Y349952D01*
X324449Y349954D01*
X324418Y350345D01*
X324414Y350349D01*
X324417Y350352D01*
X324326Y350734D01*
X324321Y350738D01*
X324324Y350742D01*
X324174Y351104D01*
X324168Y351107D01*
X324170Y351111D01*
X323965Y351445D01*
X323960Y351447D01*
X323960Y351451D01*
X323705Y351750D01*
X323700Y351751D01*
X323700Y351755D01*
X323401Y352010D01*
X323395Y352011D01*
X323395Y352015D01*
X323061Y352220D01*
X323055Y352219D01*
X323054Y352224D01*
X322692Y352374D01*
X322686Y352372D01*
X322684Y352376D01*
X322302Y352467D01*
X322297Y352465D01*
X322295Y352468D01*
X321904Y352499D01*
X321901Y352497D01*
X321900Y352499D01*
X312709Y352468D01*
X312702Y352463D01*
X312698Y352467D01*
X312316Y352376D01*
X312312Y352371D01*
X312308Y352374D01*
X311946Y352224D01*
X311943Y352218D01*
X311939Y352220D01*
X311605Y352015D01*
X311603Y352010D01*
X311599Y352010D01*
X311300Y351755D01*
X311299Y351750D01*
X311295Y351750D01*
X311040Y351451D01*
X311039Y351445D01*
X311035Y351445D01*
X310830Y351111D01*
X310831Y351105D01*
X310827Y351104D01*
X310677Y350742D01*
X310678Y350736D01*
X310674Y350734D01*
X310583Y350352D01*
X310585Y350347D01*
X310582Y350345D01*
X310551Y349954D01*
X310553Y349951D01*
X310551Y349950D01*
X310551Y344450D01*
X310553Y344448D01*
X310551Y344446D01*
X310582Y344055D01*
X310586Y344051D01*
X310583Y344048D01*
X310674Y343666D01*
X310679Y343662D01*
X310677Y343658D01*
X310827Y343296D01*
X310832Y343293D01*
X310830Y343289D01*
X311035Y342955D01*
X311040Y342953D01*
X311040Y342949D01*
X311295Y342650D01*
X311300Y342649D01*
X311300Y342645D01*
X311599Y342390D01*
X311605Y342389D01*
X311605Y342385D01*
X311939Y342180D01*
X311945Y342181D01*
X311946Y342177D01*
X312308Y342027D01*
X312314Y342028D01*
X312316Y342024D01*
X312698Y341933D01*
X312703Y341935D01*
X312705Y341932D01*
X313096Y341901D01*
X313099Y341903D01*
X313100Y341901D01*
X322291Y341932D01*
G37*
G36*
X411191Y333332D02*
X411191Y333332D01*
X411198Y333337D01*
X411202Y333333D01*
X411584Y333424D01*
X411588Y333429D01*
X411592Y333427D01*
X411954Y333577D01*
X411957Y333582D01*
X411961Y333580D01*
X412295Y333785D01*
X412297Y333790D01*
X412301Y333790D01*
X412600Y334045D01*
X412601Y334050D01*
X412605Y334050D01*
X412860Y334349D01*
X412861Y334355D01*
X412865Y334355D01*
X413070Y334689D01*
X413069Y334695D01*
X413074Y334696D01*
X413224Y335058D01*
X413223Y335060D01*
X413224Y335060D01*
X413222Y335063D01*
X413222Y335064D01*
X413226Y335066D01*
X413317Y335448D01*
X413315Y335453D01*
X413317Y335454D01*
X413318Y335455D01*
X413349Y335846D01*
X413347Y335849D01*
X413349Y335850D01*
X413349Y341350D01*
X413347Y341352D01*
X413349Y341354D01*
X413318Y341745D01*
X413314Y341749D01*
X413317Y341752D01*
X413226Y342134D01*
X413221Y342138D01*
X413224Y342142D01*
X413074Y342504D01*
X413068Y342507D01*
X413070Y342511D01*
X412865Y342845D01*
X412860Y342847D01*
X412860Y342851D01*
X412605Y343150D01*
X412600Y343151D01*
X412600Y343155D01*
X412301Y343410D01*
X412295Y343411D01*
X412295Y343415D01*
X411961Y343620D01*
X411955Y343619D01*
X411954Y343624D01*
X411592Y343774D01*
X411586Y343772D01*
X411584Y343776D01*
X411202Y343867D01*
X411197Y343865D01*
X411195Y343868D01*
X410804Y343899D01*
X410801Y343897D01*
X410800Y343899D01*
X401609Y343868D01*
X401602Y343863D01*
X401598Y343867D01*
X401216Y343776D01*
X401212Y343771D01*
X401208Y343774D01*
X400846Y343624D01*
X400843Y343618D01*
X400839Y343620D01*
X400505Y343415D01*
X400503Y343410D01*
X400499Y343410D01*
X400200Y343155D01*
X400199Y343150D01*
X400195Y343150D01*
X399940Y342851D01*
X399939Y342845D01*
X399935Y342845D01*
X399730Y342511D01*
X399731Y342505D01*
X399727Y342504D01*
X399577Y342142D01*
X399578Y342136D01*
X399574Y342134D01*
X399483Y341752D01*
X399485Y341747D01*
X399482Y341745D01*
X399451Y341354D01*
X399453Y341351D01*
X399451Y341350D01*
X399451Y335850D01*
X399453Y335848D01*
X399451Y335846D01*
X399482Y335455D01*
X399486Y335451D01*
X399483Y335448D01*
X399574Y335066D01*
X399579Y335062D01*
X399577Y335058D01*
X399727Y334696D01*
X399732Y334693D01*
X399730Y334689D01*
X399935Y334355D01*
X399940Y334353D01*
X399940Y334349D01*
X400195Y334050D01*
X400200Y334049D01*
X400200Y334045D01*
X400499Y333790D01*
X400505Y333789D01*
X400505Y333785D01*
X400839Y333580D01*
X400845Y333581D01*
X400846Y333577D01*
X401208Y333427D01*
X401214Y333428D01*
X401216Y333424D01*
X401598Y333333D01*
X401603Y333335D01*
X401605Y333332D01*
X401996Y333301D01*
X401999Y333303D01*
X402000Y333301D01*
X411191Y333332D01*
G37*
G36*
X411191Y316532D02*
X411191Y316532D01*
X411198Y316537D01*
X411202Y316533D01*
X411584Y316624D01*
X411588Y316629D01*
X411592Y316627D01*
X411954Y316777D01*
X411957Y316782D01*
X411961Y316780D01*
X412295Y316985D01*
X412297Y316990D01*
X412301Y316990D01*
X412600Y317245D01*
X412601Y317250D01*
X412605Y317250D01*
X412860Y317549D01*
X412861Y317555D01*
X412865Y317555D01*
X413070Y317889D01*
X413069Y317895D01*
X413074Y317896D01*
X413224Y318258D01*
X413223Y318260D01*
X413224Y318260D01*
X413222Y318263D01*
X413222Y318264D01*
X413226Y318266D01*
X413317Y318648D01*
X413315Y318653D01*
X413317Y318654D01*
X413318Y318655D01*
X413349Y319046D01*
X413347Y319049D01*
X413349Y319050D01*
X413349Y324550D01*
X413347Y324552D01*
X413349Y324554D01*
X413318Y324945D01*
X413314Y324949D01*
X413317Y324952D01*
X413226Y325334D01*
X413221Y325338D01*
X413224Y325342D01*
X413074Y325704D01*
X413068Y325707D01*
X413070Y325711D01*
X412865Y326045D01*
X412860Y326047D01*
X412860Y326051D01*
X412605Y326350D01*
X412600Y326351D01*
X412600Y326355D01*
X412301Y326610D01*
X412295Y326611D01*
X412295Y326615D01*
X411961Y326820D01*
X411955Y326819D01*
X411954Y326824D01*
X411592Y326974D01*
X411586Y326972D01*
X411584Y326976D01*
X411202Y327067D01*
X411197Y327065D01*
X411195Y327068D01*
X410804Y327099D01*
X410801Y327097D01*
X410800Y327099D01*
X401609Y327068D01*
X401602Y327063D01*
X401598Y327067D01*
X401216Y326976D01*
X401212Y326971D01*
X401208Y326974D01*
X400846Y326824D01*
X400843Y326818D01*
X400839Y326820D01*
X400505Y326615D01*
X400503Y326610D01*
X400499Y326610D01*
X400200Y326355D01*
X400199Y326350D01*
X400195Y326350D01*
X399940Y326051D01*
X399939Y326045D01*
X399935Y326045D01*
X399730Y325711D01*
X399731Y325705D01*
X399727Y325704D01*
X399577Y325342D01*
X399578Y325336D01*
X399574Y325334D01*
X399483Y324952D01*
X399485Y324947D01*
X399482Y324945D01*
X399451Y324554D01*
X399453Y324551D01*
X399451Y324550D01*
X399451Y319050D01*
X399453Y319048D01*
X399451Y319046D01*
X399482Y318655D01*
X399486Y318651D01*
X399483Y318648D01*
X399574Y318266D01*
X399579Y318262D01*
X399577Y318258D01*
X399727Y317896D01*
X399732Y317893D01*
X399730Y317889D01*
X399935Y317555D01*
X399940Y317553D01*
X399940Y317549D01*
X400195Y317250D01*
X400200Y317249D01*
X400200Y317245D01*
X400499Y316990D01*
X400505Y316989D01*
X400505Y316985D01*
X400839Y316780D01*
X400845Y316781D01*
X400846Y316777D01*
X401208Y316627D01*
X401214Y316628D01*
X401216Y316624D01*
X401598Y316533D01*
X401603Y316535D01*
X401605Y316532D01*
X401996Y316501D01*
X401999Y316503D01*
X402000Y316501D01*
X411191Y316532D01*
G37*
G36*
X322291Y295232D02*
X322291Y295232D01*
X322298Y295237D01*
X322302Y295233D01*
X322684Y295324D01*
X322688Y295329D01*
X322692Y295327D01*
X323054Y295477D01*
X323057Y295482D01*
X323061Y295480D01*
X323395Y295685D01*
X323397Y295690D01*
X323401Y295690D01*
X323700Y295945D01*
X323701Y295950D01*
X323705Y295950D01*
X323960Y296249D01*
X323961Y296255D01*
X323965Y296255D01*
X324170Y296589D01*
X324169Y296595D01*
X324174Y296596D01*
X324324Y296958D01*
X324323Y296960D01*
X324324Y296960D01*
X324322Y296963D01*
X324322Y296964D01*
X324326Y296966D01*
X324417Y297348D01*
X324415Y297353D01*
X324417Y297354D01*
X324418Y297355D01*
X324449Y297746D01*
X324447Y297749D01*
X324449Y297750D01*
X324449Y303250D01*
X324447Y303252D01*
X324449Y303254D01*
X324418Y303645D01*
X324414Y303649D01*
X324417Y303652D01*
X324326Y304034D01*
X324321Y304038D01*
X324324Y304042D01*
X324174Y304404D01*
X324168Y304407D01*
X324170Y304411D01*
X323965Y304745D01*
X323960Y304747D01*
X323960Y304751D01*
X323705Y305050D01*
X323700Y305051D01*
X323700Y305055D01*
X323401Y305310D01*
X323395Y305311D01*
X323395Y305315D01*
X323061Y305520D01*
X323055Y305519D01*
X323054Y305524D01*
X322692Y305674D01*
X322686Y305672D01*
X322684Y305676D01*
X322302Y305767D01*
X322297Y305765D01*
X322295Y305768D01*
X321904Y305799D01*
X321901Y305797D01*
X321900Y305799D01*
X312709Y305768D01*
X312702Y305763D01*
X312698Y305767D01*
X312316Y305676D01*
X312312Y305671D01*
X312308Y305674D01*
X311946Y305524D01*
X311943Y305518D01*
X311939Y305520D01*
X311605Y305315D01*
X311603Y305310D01*
X311599Y305310D01*
X311300Y305055D01*
X311299Y305050D01*
X311295Y305050D01*
X311040Y304751D01*
X311039Y304745D01*
X311035Y304745D01*
X310830Y304411D01*
X310831Y304405D01*
X310827Y304404D01*
X310677Y304042D01*
X310678Y304036D01*
X310674Y304034D01*
X310583Y303652D01*
X310585Y303647D01*
X310582Y303645D01*
X310551Y303254D01*
X310553Y303251D01*
X310551Y303250D01*
X310551Y297750D01*
X310553Y297748D01*
X310551Y297746D01*
X310582Y297355D01*
X310586Y297351D01*
X310583Y297348D01*
X310674Y296966D01*
X310679Y296962D01*
X310677Y296958D01*
X310827Y296596D01*
X310832Y296593D01*
X310830Y296589D01*
X311035Y296255D01*
X311040Y296253D01*
X311040Y296249D01*
X311295Y295950D01*
X311300Y295949D01*
X311300Y295945D01*
X311599Y295690D01*
X311605Y295689D01*
X311605Y295685D01*
X311939Y295480D01*
X311945Y295481D01*
X311946Y295477D01*
X312308Y295327D01*
X312314Y295328D01*
X312316Y295324D01*
X312698Y295233D01*
X312703Y295235D01*
X312705Y295232D01*
X313096Y295201D01*
X313099Y295203D01*
X313100Y295201D01*
X322291Y295232D01*
G37*
G36*
X322291Y278432D02*
X322291Y278432D01*
X322298Y278437D01*
X322302Y278433D01*
X322684Y278524D01*
X322688Y278529D01*
X322692Y278527D01*
X323054Y278677D01*
X323057Y278682D01*
X323061Y278680D01*
X323395Y278885D01*
X323397Y278890D01*
X323401Y278890D01*
X323700Y279145D01*
X323701Y279150D01*
X323705Y279150D01*
X323960Y279449D01*
X323961Y279455D01*
X323965Y279455D01*
X324170Y279789D01*
X324169Y279795D01*
X324174Y279796D01*
X324324Y280158D01*
X324323Y280160D01*
X324324Y280160D01*
X324322Y280163D01*
X324322Y280164D01*
X324326Y280166D01*
X324417Y280548D01*
X324415Y280553D01*
X324417Y280554D01*
X324418Y280555D01*
X324449Y280946D01*
X324447Y280949D01*
X324449Y280950D01*
X324449Y286450D01*
X324447Y286452D01*
X324449Y286454D01*
X324418Y286845D01*
X324414Y286849D01*
X324417Y286852D01*
X324326Y287234D01*
X324321Y287238D01*
X324324Y287242D01*
X324174Y287604D01*
X324168Y287607D01*
X324170Y287611D01*
X323965Y287945D01*
X323960Y287947D01*
X323960Y287951D01*
X323705Y288250D01*
X323700Y288251D01*
X323700Y288255D01*
X323401Y288510D01*
X323395Y288511D01*
X323395Y288515D01*
X323061Y288720D01*
X323055Y288719D01*
X323054Y288724D01*
X322692Y288874D01*
X322686Y288872D01*
X322684Y288876D01*
X322302Y288967D01*
X322297Y288965D01*
X322295Y288968D01*
X321904Y288999D01*
X321901Y288997D01*
X321900Y288999D01*
X312709Y288968D01*
X312702Y288963D01*
X312698Y288967D01*
X312316Y288876D01*
X312312Y288871D01*
X312308Y288874D01*
X311946Y288724D01*
X311943Y288718D01*
X311939Y288720D01*
X311605Y288515D01*
X311603Y288510D01*
X311599Y288510D01*
X311300Y288255D01*
X311299Y288250D01*
X311295Y288250D01*
X311040Y287951D01*
X311039Y287945D01*
X311035Y287945D01*
X310830Y287611D01*
X310831Y287605D01*
X310827Y287604D01*
X310677Y287242D01*
X310678Y287236D01*
X310674Y287234D01*
X310583Y286852D01*
X310585Y286847D01*
X310582Y286845D01*
X310551Y286454D01*
X310553Y286451D01*
X310551Y286450D01*
X310551Y280950D01*
X310553Y280948D01*
X310551Y280946D01*
X310582Y280555D01*
X310586Y280551D01*
X310583Y280548D01*
X310674Y280166D01*
X310679Y280162D01*
X310677Y280158D01*
X310827Y279796D01*
X310832Y279793D01*
X310830Y279789D01*
X311035Y279455D01*
X311040Y279453D01*
X311040Y279449D01*
X311295Y279150D01*
X311300Y279149D01*
X311300Y279145D01*
X311599Y278890D01*
X311605Y278889D01*
X311605Y278885D01*
X311939Y278680D01*
X311945Y278681D01*
X311946Y278677D01*
X312308Y278527D01*
X312314Y278528D01*
X312316Y278524D01*
X312698Y278433D01*
X312703Y278435D01*
X312705Y278432D01*
X313096Y278401D01*
X313099Y278403D01*
X313100Y278401D01*
X322291Y278432D01*
G37*
D10*
X321880Y303230D02*
X321880Y297770D01*
X313120Y297770D01*
X313120Y303230D01*
X321880Y303230D01*
X321880Y302558D02*
X313120Y302558D01*
X313120Y286430D02*
X313120Y280970D01*
X313120Y286430D02*
X321880Y286430D01*
X321880Y280970D01*
X313120Y280970D01*
X313120Y285758D02*
X321880Y285758D01*
X410780Y335870D02*
X410780Y341330D01*
X410780Y335870D02*
X402020Y335870D01*
X402020Y341330D01*
X410780Y341330D01*
X410780Y340658D02*
X402020Y340658D01*
X402020Y324530D02*
X402020Y319070D01*
X402020Y324530D02*
X410780Y324530D01*
X410780Y319070D01*
X402020Y319070D01*
X402020Y323858D02*
X410780Y323858D01*
X321880Y361270D02*
X321880Y366730D01*
X321880Y361270D02*
X313120Y361270D01*
X313120Y366730D01*
X321880Y366730D01*
X321880Y366058D02*
X313120Y366058D01*
X313120Y349930D02*
X313120Y344470D01*
X313120Y349930D02*
X321880Y349930D01*
X321880Y344470D01*
X313120Y344470D01*
X313120Y349258D02*
X321880Y349258D01*
X410780Y399370D02*
X410780Y404830D01*
X410780Y399370D02*
X402020Y399370D01*
X402020Y404830D01*
X410780Y404830D01*
X410780Y404158D02*
X402020Y404158D01*
X402020Y388030D02*
X402020Y382570D01*
X402020Y388030D02*
X410780Y388030D01*
X410780Y382570D01*
X402020Y382570D01*
X402020Y387358D02*
X410780Y387358D01*
X321880Y412070D02*
X321880Y417530D01*
X321880Y412070D02*
X313120Y412070D01*
X313120Y417530D01*
X321880Y417530D01*
X321880Y416858D02*
X313120Y416858D01*
X313120Y400730D02*
X313120Y395270D01*
X313120Y400730D02*
X321880Y400730D01*
X321880Y395270D01*
X313120Y395270D01*
X313120Y400058D02*
X321880Y400058D01*
X410780Y450170D02*
X410780Y455630D01*
X410780Y450170D02*
X402020Y450170D01*
X402020Y455630D01*
X410780Y455630D01*
X410780Y454958D02*
X402020Y454958D01*
X402020Y438830D02*
X402020Y433370D01*
X402020Y438830D02*
X410780Y438830D01*
X410780Y433370D01*
X402020Y433370D01*
X402020Y438158D02*
X410780Y438158D01*
X321880Y475570D02*
X321880Y481030D01*
X321880Y475570D02*
X313120Y475570D01*
X313120Y481030D01*
X321880Y481030D01*
X321880Y480358D02*
X313120Y480358D01*
X313120Y464230D02*
X313120Y458770D01*
X313120Y464230D02*
X321880Y464230D01*
X321880Y458770D01*
X313120Y458770D01*
X313120Y463558D02*
X321880Y463558D01*
X410780Y526370D02*
X410780Y531830D01*
X410780Y526370D02*
X402020Y526370D01*
X402020Y531830D01*
X410780Y531830D01*
X410780Y531158D02*
X402020Y531158D01*
X402020Y515030D02*
X402020Y509570D01*
X402020Y515030D02*
X410780Y515030D01*
X410780Y509570D01*
X402020Y509570D01*
X402020Y514358D02*
X410780Y514358D01*
D11*
X292100Y297900D03*
X292100Y260900D03*
D12*
X190500Y396400D03*
X190500Y416400D03*
D11*
X381000Y463000D03*
X381000Y426000D03*
D12*
X215900Y421800D03*
X215900Y441800D03*
D11*
X292100Y488400D03*
X292100Y451400D03*
D12*
X190500Y447200D03*
X190500Y467200D03*
D11*
X381000Y526500D03*
X381000Y489500D03*
D12*
X215900Y472600D03*
X215900Y492600D03*
X190500Y294800D03*
X190500Y314800D03*
D11*
X381000Y336000D03*
X381000Y299000D03*
D12*
X215900Y320200D03*
X215900Y340200D03*
D11*
X292100Y361400D03*
X292100Y324400D03*
D12*
X190500Y345600D03*
X190500Y365600D03*
D11*
X381000Y399500D03*
X381000Y362500D03*
D12*
X215900Y371000D03*
X215900Y391000D03*
D11*
X292100Y424900D03*
X292100Y387900D03*
D13*
X142900Y317500D03*
X161900Y317500D03*
X142900Y393700D03*
X161900Y393700D03*
X244500Y393700D03*
X263500Y393700D03*
D14*
X444500Y384200D03*
X444500Y403200D03*
D13*
X142900Y419100D03*
X161900Y419100D03*
X244500Y419100D03*
X263500Y419100D03*
D14*
X355600Y396900D03*
X355600Y415900D03*
D13*
X142900Y444500D03*
X161900Y444500D03*
X244500Y444500D03*
X263500Y444500D03*
D14*
X444500Y435000D03*
X444500Y454000D03*
D13*
X142900Y469900D03*
X161900Y469900D03*
X244500Y317500D03*
X263500Y317500D03*
X244500Y469900D03*
X263500Y469900D03*
D14*
X355600Y460400D03*
X355600Y479400D03*
D13*
X142900Y495300D03*
X161900Y495300D03*
X244500Y495300D03*
X263500Y495300D03*
D14*
X444500Y511200D03*
X444500Y530200D03*
X355600Y282600D03*
X355600Y301600D03*
D13*
X142900Y342900D03*
X161900Y342900D03*
X244500Y342900D03*
X263500Y342900D03*
D14*
X444500Y320700D03*
X444500Y339700D03*
D13*
X142900Y368300D03*
X161900Y368300D03*
X244500Y368300D03*
X263500Y368300D03*
D14*
X355600Y346100D03*
X355600Y365100D03*
M02*
