G04 EAGLE Gerber RS-274X export*
G75*
%MOMM*%
%FSLAX34Y34*%
%LPD*%
%INTop Copper*%
%IPPOS*%
%AMOC8*
5,1,8,0,0,1.08239X$1,22.5*%
G01*
%ADD10R,2.032000X0.660400*%
%ADD11C,1.879600*%
%ADD12R,1.400000X1.000000*%
%ADD13R,1.300000X1.500000*%
%ADD14C,1.800000*%
%ADD15R,0.611800X0.911800*%
%ADD16C,0.756400*%
%ADD17C,0.762000*%
%ADD18C,0.254000*%

G36*
X653335Y127004D02*
X653335Y127004D01*
X653380Y127002D01*
X653610Y127024D01*
X653840Y127041D01*
X653884Y127050D01*
X653929Y127055D01*
X654153Y127110D01*
X654379Y127160D01*
X654421Y127176D01*
X654465Y127186D01*
X654679Y127273D01*
X654895Y127355D01*
X654934Y127377D01*
X654976Y127394D01*
X655175Y127511D01*
X655377Y127623D01*
X655413Y127651D01*
X655452Y127674D01*
X655632Y127818D01*
X655815Y127958D01*
X655847Y127990D01*
X655882Y128019D01*
X656040Y128189D01*
X656201Y128353D01*
X656227Y128389D01*
X656258Y128422D01*
X656390Y128613D01*
X656525Y128799D01*
X656546Y128839D01*
X656572Y128876D01*
X656675Y129084D01*
X656782Y129287D01*
X656797Y129330D01*
X656817Y129370D01*
X656888Y129590D01*
X656965Y129808D01*
X656974Y129852D01*
X656988Y129895D01*
X657027Y130123D01*
X657071Y130349D01*
X657073Y130394D01*
X657081Y130439D01*
X657099Y130810D01*
X657099Y732690D01*
X657097Y732727D01*
X657098Y732762D01*
X657098Y732768D01*
X657098Y732780D01*
X657076Y733010D01*
X657059Y733240D01*
X657050Y733284D01*
X657045Y733329D01*
X656990Y733553D01*
X656940Y733779D01*
X656924Y733821D01*
X656914Y733865D01*
X656827Y734079D01*
X656745Y734295D01*
X656723Y734334D01*
X656706Y734376D01*
X656589Y734575D01*
X656477Y734777D01*
X656449Y734813D01*
X656426Y734852D01*
X656282Y735032D01*
X656142Y735215D01*
X656110Y735247D01*
X656081Y735282D01*
X655911Y735440D01*
X655747Y735601D01*
X655711Y735627D01*
X655678Y735658D01*
X655487Y735790D01*
X655301Y735925D01*
X655261Y735946D01*
X655224Y735972D01*
X655016Y736075D01*
X654813Y736182D01*
X654770Y736197D01*
X654730Y736217D01*
X654510Y736288D01*
X654292Y736365D01*
X654248Y736374D01*
X654205Y736388D01*
X653977Y736427D01*
X653751Y736471D01*
X653706Y736473D01*
X653661Y736481D01*
X653290Y736499D01*
X621092Y736499D01*
X620863Y736483D01*
X620634Y736472D01*
X620588Y736463D01*
X620542Y736459D01*
X620317Y736410D01*
X620092Y736366D01*
X620049Y736350D01*
X620003Y736340D01*
X619788Y736259D01*
X619572Y736183D01*
X619531Y736161D01*
X619488Y736145D01*
X619287Y736033D01*
X619083Y735926D01*
X619046Y735899D01*
X619005Y735877D01*
X618822Y735737D01*
X618637Y735602D01*
X618604Y735570D01*
X618567Y735542D01*
X618407Y735378D01*
X618242Y735217D01*
X618214Y735180D01*
X618182Y735147D01*
X618047Y734962D01*
X617907Y734779D01*
X617884Y734738D01*
X617857Y734701D01*
X617750Y734498D01*
X617639Y734297D01*
X617622Y734253D01*
X617601Y734213D01*
X617524Y733996D01*
X617443Y733781D01*
X617433Y733736D01*
X617417Y733692D01*
X617373Y733467D01*
X617323Y733242D01*
X617320Y733196D01*
X617311Y733151D01*
X617300Y732922D01*
X617283Y732692D01*
X617286Y732646D01*
X617284Y732600D01*
X617306Y732371D01*
X617323Y732142D01*
X617333Y732097D01*
X617337Y732051D01*
X617392Y731828D01*
X617441Y731603D01*
X617458Y731560D01*
X617469Y731515D01*
X617555Y731302D01*
X617637Y731087D01*
X617659Y731047D01*
X617676Y731004D01*
X617793Y730805D01*
X617904Y730605D01*
X617932Y730568D01*
X617956Y730528D01*
X618100Y730349D01*
X618239Y730166D01*
X618272Y730134D01*
X618301Y730098D01*
X618470Y729941D01*
X618633Y729781D01*
X618671Y729754D01*
X618705Y729722D01*
X618894Y729591D01*
X619079Y729456D01*
X619120Y729434D01*
X619158Y729408D01*
X619364Y729306D01*
X619568Y729199D01*
X619621Y729179D01*
X619653Y729163D01*
X619720Y729141D01*
X619915Y729067D01*
X624428Y727601D01*
X632695Y721595D01*
X638701Y713328D01*
X641859Y703609D01*
X641859Y693391D01*
X638701Y683672D01*
X632695Y675405D01*
X624428Y669399D01*
X614709Y666241D01*
X604491Y666241D01*
X594772Y669399D01*
X586505Y675405D01*
X580499Y683672D01*
X577341Y693391D01*
X577341Y703609D01*
X580499Y713328D01*
X586505Y721595D01*
X594772Y727601D01*
X599285Y729067D01*
X599498Y729154D01*
X599712Y729235D01*
X599753Y729258D01*
X599796Y729275D01*
X599994Y729392D01*
X600195Y729503D01*
X600232Y729531D01*
X600271Y729555D01*
X600450Y729699D01*
X600633Y729838D01*
X600665Y729871D01*
X600701Y729900D01*
X600858Y730069D01*
X601018Y730233D01*
X601046Y730270D01*
X601077Y730304D01*
X601208Y730494D01*
X601343Y730679D01*
X601364Y730720D01*
X601391Y730758D01*
X601493Y730964D01*
X601599Y731167D01*
X601615Y731211D01*
X601635Y731253D01*
X601706Y731471D01*
X601783Y731688D01*
X601792Y731733D01*
X601806Y731777D01*
X601845Y732004D01*
X601889Y732229D01*
X601891Y732275D01*
X601899Y732321D01*
X601905Y732551D01*
X601916Y732780D01*
X601911Y732826D01*
X601913Y732872D01*
X601885Y733101D01*
X601863Y733329D01*
X601852Y733374D01*
X601846Y733420D01*
X601786Y733642D01*
X601731Y733865D01*
X601714Y733908D01*
X601702Y733953D01*
X601610Y734163D01*
X601524Y734376D01*
X601500Y734416D01*
X601482Y734458D01*
X601361Y734654D01*
X601244Y734852D01*
X601215Y734888D01*
X601191Y734927D01*
X601043Y735103D01*
X600899Y735282D01*
X600865Y735314D01*
X600835Y735349D01*
X600664Y735501D01*
X600495Y735658D01*
X600457Y735684D01*
X600423Y735715D01*
X600231Y735841D01*
X600042Y735972D01*
X600000Y735993D01*
X599961Y736018D01*
X599754Y736115D01*
X599547Y736217D01*
X599503Y736231D01*
X599461Y736251D01*
X599241Y736317D01*
X599023Y736388D01*
X598977Y736396D01*
X598933Y736409D01*
X598706Y736442D01*
X598479Y736481D01*
X598421Y736484D01*
X598387Y736489D01*
X598316Y736489D01*
X598108Y736499D01*
X252792Y736499D01*
X252563Y736483D01*
X252334Y736472D01*
X252288Y736463D01*
X252242Y736459D01*
X252017Y736410D01*
X251792Y736366D01*
X251749Y736350D01*
X251703Y736340D01*
X251488Y736259D01*
X251272Y736183D01*
X251231Y736161D01*
X251188Y736145D01*
X250987Y736033D01*
X250783Y735926D01*
X250746Y735899D01*
X250705Y735877D01*
X250522Y735737D01*
X250337Y735602D01*
X250304Y735570D01*
X250267Y735542D01*
X250107Y735378D01*
X249942Y735217D01*
X249914Y735180D01*
X249882Y735147D01*
X249747Y734962D01*
X249607Y734779D01*
X249584Y734738D01*
X249557Y734701D01*
X249450Y734498D01*
X249339Y734297D01*
X249322Y734253D01*
X249301Y734213D01*
X249224Y733996D01*
X249143Y733781D01*
X249133Y733736D01*
X249117Y733692D01*
X249073Y733467D01*
X249023Y733242D01*
X249020Y733196D01*
X249011Y733151D01*
X249000Y732922D01*
X248983Y732692D01*
X248986Y732646D01*
X248984Y732600D01*
X249006Y732371D01*
X249023Y732142D01*
X249033Y732097D01*
X249037Y732051D01*
X249092Y731828D01*
X249141Y731603D01*
X249158Y731560D01*
X249169Y731515D01*
X249255Y731302D01*
X249337Y731087D01*
X249359Y731047D01*
X249376Y731004D01*
X249493Y730805D01*
X249604Y730605D01*
X249632Y730568D01*
X249656Y730528D01*
X249800Y730349D01*
X249939Y730166D01*
X249972Y730134D01*
X250001Y730098D01*
X250169Y729941D01*
X250333Y729781D01*
X250371Y729753D01*
X250405Y729722D01*
X250594Y729591D01*
X250779Y729456D01*
X250820Y729434D01*
X250858Y729408D01*
X251065Y729306D01*
X251268Y729199D01*
X251321Y729179D01*
X251353Y729163D01*
X251420Y729141D01*
X251615Y729067D01*
X256128Y727601D01*
X264395Y721595D01*
X270401Y713328D01*
X273559Y703609D01*
X273559Y693391D01*
X270401Y683672D01*
X264395Y675405D01*
X256128Y669399D01*
X246409Y666241D01*
X236191Y666241D01*
X226472Y669399D01*
X218205Y675405D01*
X212199Y683672D01*
X210633Y688493D01*
X210546Y688705D01*
X210465Y688920D01*
X210442Y688961D01*
X210425Y689004D01*
X210309Y689201D01*
X210197Y689402D01*
X210169Y689439D01*
X210145Y689479D01*
X210001Y689658D01*
X209862Y689841D01*
X209829Y689873D01*
X209800Y689909D01*
X209631Y690066D01*
X209467Y690226D01*
X209430Y690253D01*
X209396Y690285D01*
X209206Y690416D01*
X209021Y690551D01*
X208980Y690572D01*
X208942Y690598D01*
X208736Y690700D01*
X208533Y690807D01*
X208489Y690823D01*
X208447Y690843D01*
X208229Y690914D01*
X208012Y690990D01*
X207967Y690999D01*
X207923Y691014D01*
X207696Y691053D01*
X207471Y691097D01*
X207425Y691099D01*
X207379Y691107D01*
X207149Y691112D01*
X206920Y691124D01*
X206874Y691119D01*
X206828Y691120D01*
X206599Y691093D01*
X206371Y691071D01*
X206326Y691060D01*
X206280Y691054D01*
X206058Y690994D01*
X205835Y690939D01*
X205792Y690922D01*
X205747Y690909D01*
X205537Y690818D01*
X205324Y690731D01*
X205284Y690708D01*
X205242Y690689D01*
X205046Y690568D01*
X204848Y690452D01*
X204812Y690423D01*
X204773Y690399D01*
X204597Y690250D01*
X204418Y690107D01*
X204386Y690073D01*
X204351Y690043D01*
X204198Y689871D01*
X204042Y689703D01*
X204016Y689665D01*
X203985Y689630D01*
X203859Y689438D01*
X203728Y689249D01*
X203708Y689208D01*
X203682Y689169D01*
X203585Y688961D01*
X203483Y688755D01*
X203469Y688711D01*
X203449Y688669D01*
X203383Y688449D01*
X203312Y688230D01*
X203304Y688185D01*
X203291Y688141D01*
X203258Y687914D01*
X203219Y687687D01*
X203216Y687629D01*
X203211Y687595D01*
X203211Y687524D01*
X203201Y687315D01*
X203201Y516522D01*
X203212Y516362D01*
X203214Y516201D01*
X203232Y516087D01*
X203241Y515972D01*
X203275Y515815D01*
X203300Y515656D01*
X203335Y515546D01*
X203360Y515433D01*
X203417Y515283D01*
X203464Y515130D01*
X203514Y515025D01*
X203555Y514917D01*
X203633Y514777D01*
X203703Y514632D01*
X203767Y514536D01*
X203823Y514435D01*
X203921Y514307D01*
X204010Y514174D01*
X204088Y514088D01*
X204158Y513997D01*
X204273Y513885D01*
X204381Y513765D01*
X204470Y513692D01*
X204553Y513611D01*
X204682Y513517D01*
X204807Y513415D01*
X204906Y513355D01*
X204999Y513287D01*
X205141Y513212D01*
X205279Y513129D01*
X205385Y513084D01*
X205487Y513030D01*
X205639Y512977D01*
X205787Y512914D01*
X205899Y512885D01*
X206008Y512847D01*
X206165Y512816D01*
X206321Y512776D01*
X206436Y512763D01*
X206549Y512741D01*
X206709Y512733D01*
X206869Y512715D01*
X206985Y512719D01*
X207100Y512714D01*
X207260Y512729D01*
X207420Y512735D01*
X207534Y512756D01*
X207649Y512767D01*
X207805Y512805D01*
X207963Y512834D01*
X208073Y512871D01*
X208185Y512898D01*
X208334Y512959D01*
X208486Y513010D01*
X208589Y513063D01*
X208696Y513106D01*
X208835Y513188D01*
X208978Y513260D01*
X209072Y513327D01*
X209172Y513386D01*
X209297Y513486D01*
X209428Y513579D01*
X209547Y513686D01*
X209602Y513731D01*
X209637Y513768D01*
X209704Y513828D01*
X289859Y593984D01*
X294325Y598450D01*
X299460Y600577D01*
X358650Y600577D01*
X358695Y600580D01*
X358740Y600578D01*
X358970Y600600D01*
X359200Y600617D01*
X359244Y600626D01*
X359289Y600631D01*
X359513Y600686D01*
X359739Y600736D01*
X359781Y600752D01*
X359825Y600762D01*
X360039Y600849D01*
X360255Y600931D01*
X360294Y600953D01*
X360336Y600970D01*
X360535Y601087D01*
X360737Y601199D01*
X360773Y601227D01*
X360812Y601250D01*
X360992Y601394D01*
X361175Y601534D01*
X361207Y601566D01*
X361242Y601595D01*
X361400Y601765D01*
X361561Y601929D01*
X361587Y601965D01*
X361618Y601998D01*
X361750Y602189D01*
X361885Y602375D01*
X361906Y602415D01*
X361932Y602452D01*
X362035Y602660D01*
X362142Y602863D01*
X362157Y602906D01*
X362177Y602946D01*
X362248Y603166D01*
X362325Y603384D01*
X362334Y603428D01*
X362348Y603471D01*
X362387Y603699D01*
X362431Y603925D01*
X362433Y603970D01*
X362441Y604015D01*
X362459Y604386D01*
X362459Y604650D01*
X362557Y605141D01*
X362748Y605604D01*
X363027Y606020D01*
X363380Y606373D01*
X363796Y606652D01*
X364259Y606843D01*
X364750Y606941D01*
X368760Y606941D01*
X368885Y606950D01*
X369011Y606949D01*
X369160Y606970D01*
X369310Y606981D01*
X369433Y607008D01*
X369557Y607025D01*
X369701Y607067D01*
X369849Y607100D01*
X369966Y607144D01*
X370087Y607179D01*
X370224Y607242D01*
X370365Y607295D01*
X370474Y607356D01*
X370588Y607408D01*
X370715Y607490D01*
X370847Y607563D01*
X370947Y607640D01*
X371052Y607707D01*
X371165Y607806D01*
X371285Y607898D01*
X371373Y607988D01*
X371467Y608070D01*
X371565Y608185D01*
X371671Y608293D01*
X371744Y608394D01*
X371826Y608490D01*
X371907Y608617D01*
X371995Y608739D01*
X372053Y608850D01*
X372120Y608956D01*
X372221Y609169D01*
X372252Y609227D01*
X372257Y609244D01*
X372262Y609253D01*
X372267Y609266D01*
X372279Y609292D01*
X373233Y611594D01*
X376806Y615167D01*
X381474Y617101D01*
X399526Y617101D01*
X404194Y615167D01*
X404835Y614526D01*
X404990Y614393D01*
X405141Y614252D01*
X405199Y614212D01*
X405252Y614166D01*
X405426Y614055D01*
X405595Y613938D01*
X405658Y613907D01*
X405717Y613869D01*
X405905Y613785D01*
X406089Y613693D01*
X406156Y613671D01*
X406221Y613642D01*
X406418Y613586D01*
X406614Y613522D01*
X406683Y613510D01*
X406751Y613491D01*
X406955Y613464D01*
X407157Y613429D01*
X407248Y613424D01*
X407298Y613418D01*
X407368Y613419D01*
X407529Y613411D01*
X416149Y613411D01*
X416159Y613411D01*
X416168Y613411D01*
X416432Y613431D01*
X416699Y613451D01*
X416709Y613453D01*
X416718Y613454D01*
X416977Y613512D01*
X417238Y613570D01*
X417247Y613573D01*
X417257Y613575D01*
X417606Y613701D01*
X418715Y614160D01*
X429885Y614160D01*
X430342Y613970D01*
X430537Y613906D01*
X430730Y613834D01*
X430799Y613819D01*
X430866Y613797D01*
X431068Y613761D01*
X431269Y613718D01*
X431340Y613713D01*
X431409Y613701D01*
X431615Y613694D01*
X431820Y613681D01*
X431890Y613686D01*
X431960Y613684D01*
X432165Y613707D01*
X432370Y613723D01*
X432439Y613739D01*
X432508Y613747D01*
X432707Y613800D01*
X432908Y613845D01*
X432993Y613876D01*
X433042Y613889D01*
X433106Y613916D01*
X433258Y613970D01*
X433715Y614160D01*
X436386Y614160D01*
X436547Y614171D01*
X436707Y614173D01*
X436821Y614191D01*
X436937Y614200D01*
X437093Y614234D01*
X437252Y614259D01*
X437362Y614294D01*
X437475Y614319D01*
X437626Y614376D01*
X437779Y614423D01*
X437883Y614473D01*
X437991Y614514D01*
X438131Y614592D01*
X438276Y614662D01*
X438372Y614726D01*
X438473Y614782D01*
X438601Y614880D01*
X438734Y614969D01*
X438820Y615047D01*
X438912Y615117D01*
X439024Y615232D01*
X439143Y615340D01*
X439217Y615429D01*
X439297Y615512D01*
X439391Y615641D01*
X439494Y615766D01*
X439554Y615865D01*
X439622Y615958D01*
X439696Y616100D01*
X439779Y616238D01*
X439824Y616344D01*
X439878Y616446D01*
X439931Y616598D01*
X439994Y616746D01*
X440023Y616858D01*
X440061Y616967D01*
X440092Y617124D01*
X440133Y617280D01*
X440145Y617395D01*
X440168Y617508D01*
X440175Y617668D01*
X440193Y617828D01*
X440189Y617944D01*
X440195Y618059D01*
X440179Y618219D01*
X440173Y618379D01*
X440153Y618493D01*
X440142Y618608D01*
X440103Y618764D01*
X440074Y618922D01*
X440037Y619032D01*
X440010Y619144D01*
X439949Y619293D01*
X439898Y619445D01*
X439846Y619548D01*
X439802Y619655D01*
X439721Y619794D01*
X439648Y619937D01*
X439581Y620031D01*
X439523Y620131D01*
X439422Y620256D01*
X439330Y620387D01*
X439222Y620506D01*
X439178Y620561D01*
X439140Y620596D01*
X439080Y620663D01*
X419956Y639786D01*
X419494Y640903D01*
X419461Y640968D01*
X419436Y641035D01*
X419338Y641214D01*
X419246Y641396D01*
X419205Y641455D01*
X419170Y641518D01*
X419047Y641681D01*
X418930Y641848D01*
X418881Y641901D01*
X418837Y641958D01*
X418692Y642102D01*
X418552Y642250D01*
X418496Y642295D01*
X418444Y642345D01*
X418279Y642467D01*
X418120Y642593D01*
X418058Y642629D01*
X418000Y642672D01*
X417819Y642768D01*
X417643Y642870D01*
X417576Y642897D01*
X417512Y642930D01*
X417320Y642999D01*
X417130Y643075D01*
X417061Y643092D01*
X416993Y643116D01*
X416792Y643156D01*
X416594Y643204D01*
X416523Y643211D01*
X416452Y643225D01*
X416248Y643236D01*
X416045Y643254D01*
X415973Y643250D01*
X415901Y643254D01*
X415698Y643235D01*
X415494Y643224D01*
X415423Y643210D01*
X415352Y643204D01*
X414988Y643125D01*
X409309Y641603D01*
X403491Y641603D01*
X397870Y643109D01*
X392831Y646019D01*
X388717Y650133D01*
X388546Y650428D01*
X388435Y650592D01*
X388330Y650761D01*
X388280Y650820D01*
X388237Y650885D01*
X388103Y651031D01*
X387975Y651183D01*
X387917Y651234D01*
X387864Y651292D01*
X387711Y651417D01*
X387562Y651549D01*
X387497Y651592D01*
X387437Y651641D01*
X387267Y651743D01*
X387101Y651851D01*
X387030Y651884D01*
X386964Y651924D01*
X386781Y652000D01*
X386601Y652084D01*
X386526Y652107D01*
X386455Y652137D01*
X386263Y652186D01*
X386072Y652242D01*
X385995Y652254D01*
X385920Y652273D01*
X385723Y652294D01*
X385526Y652323D01*
X385449Y652323D01*
X385371Y652331D01*
X385173Y652323D01*
X384975Y652323D01*
X384898Y652312D01*
X384820Y652309D01*
X384809Y652307D01*
X384809Y658395D01*
X384790Y658666D01*
X384771Y658932D01*
X384770Y658940D01*
X384769Y658945D01*
X384765Y658967D01*
X384701Y659297D01*
X384701Y659299D01*
X384671Y659390D01*
X384650Y659484D01*
X384650Y659485D01*
X384586Y659653D01*
X384531Y659824D01*
X384489Y659910D01*
X384455Y660001D01*
X384367Y660158D01*
X384288Y660319D01*
X384234Y660398D01*
X384187Y660483D01*
X384077Y660626D01*
X383976Y660774D01*
X383910Y660845D01*
X383852Y660921D01*
X383723Y661047D01*
X383601Y661179D01*
X383526Y661239D01*
X383457Y661307D01*
X383312Y661412D01*
X383172Y661525D01*
X383089Y661575D01*
X383011Y661631D01*
X382852Y661715D01*
X382697Y661806D01*
X382608Y661843D01*
X382522Y661888D01*
X382353Y661947D01*
X382187Y662016D01*
X382093Y662039D01*
X382002Y662071D01*
X381826Y662106D01*
X381652Y662149D01*
X381555Y662159D01*
X381461Y662177D01*
X381282Y662186D01*
X381103Y662204D01*
X381006Y662200D01*
X380910Y662204D01*
X380731Y662187D01*
X380552Y662179D01*
X380457Y662161D01*
X380361Y662151D01*
X380186Y662108D01*
X380010Y662074D01*
X379919Y662043D01*
X379825Y662020D01*
X379659Y661952D01*
X379489Y661893D01*
X379403Y661848D01*
X379314Y661812D01*
X379159Y661721D01*
X379000Y661638D01*
X378921Y661581D01*
X378838Y661533D01*
X378698Y661420D01*
X378552Y661315D01*
X378483Y661248D01*
X378408Y661187D01*
X378285Y661056D01*
X378156Y660931D01*
X378098Y660855D01*
X378032Y660784D01*
X377930Y660636D01*
X377820Y660494D01*
X377773Y660409D01*
X377718Y660330D01*
X377638Y660169D01*
X377550Y660012D01*
X377516Y659922D01*
X377473Y659836D01*
X377417Y659665D01*
X377353Y659497D01*
X377332Y659403D01*
X377302Y659311D01*
X377272Y659134D01*
X377232Y658959D01*
X377225Y658863D01*
X377209Y658767D01*
X377192Y658431D01*
X377191Y658409D01*
X377191Y658404D01*
X377191Y658396D01*
X377191Y652387D01*
X376417Y652638D01*
X374743Y653491D01*
X373222Y654596D01*
X371894Y655924D01*
X370789Y657445D01*
X369936Y659119D01*
X369355Y660906D01*
X369061Y662762D01*
X369061Y669291D01*
X380492Y669291D01*
X380537Y669294D01*
X380582Y669292D01*
X380812Y669314D01*
X381042Y669331D01*
X381086Y669340D01*
X381131Y669345D01*
X381355Y669400D01*
X381581Y669450D01*
X381623Y669466D01*
X381667Y669476D01*
X381881Y669563D01*
X382097Y669645D01*
X382136Y669667D01*
X382178Y669684D01*
X382377Y669801D01*
X382579Y669913D01*
X382615Y669941D01*
X382654Y669963D01*
X382834Y670108D01*
X383017Y670248D01*
X383049Y670280D01*
X383084Y670309D01*
X383242Y670478D01*
X383403Y670643D01*
X383429Y670679D01*
X383460Y670712D01*
X383592Y670903D01*
X383727Y671089D01*
X383748Y671129D01*
X383774Y671166D01*
X383877Y671374D01*
X383984Y671577D01*
X383999Y671620D01*
X384019Y671660D01*
X384090Y671880D01*
X384167Y672098D01*
X384176Y672142D01*
X384190Y672185D01*
X384229Y672413D01*
X384273Y672639D01*
X384275Y672684D01*
X384283Y672729D01*
X384301Y673100D01*
X384298Y673145D01*
X384300Y673190D01*
X384278Y673420D01*
X384261Y673650D01*
X384252Y673695D01*
X384247Y673739D01*
X384192Y673963D01*
X384142Y674189D01*
X384126Y674231D01*
X384116Y674275D01*
X384029Y674489D01*
X383947Y674705D01*
X383925Y674744D01*
X383908Y674786D01*
X383791Y674985D01*
X383679Y675187D01*
X383651Y675223D01*
X383628Y675262D01*
X383484Y675442D01*
X383344Y675625D01*
X383312Y675657D01*
X383283Y675692D01*
X383113Y675850D01*
X382949Y676011D01*
X382913Y676037D01*
X382880Y676068D01*
X382689Y676200D01*
X382503Y676335D01*
X382463Y676356D01*
X382426Y676382D01*
X382218Y676485D01*
X382015Y676592D01*
X381972Y676607D01*
X381932Y676627D01*
X381712Y676699D01*
X381494Y676775D01*
X381450Y676784D01*
X381407Y676798D01*
X381179Y676837D01*
X380953Y676881D01*
X380908Y676884D01*
X380863Y676891D01*
X380492Y676909D01*
X369061Y676909D01*
X369061Y683438D01*
X369355Y685294D01*
X369936Y687081D01*
X370789Y688755D01*
X371894Y690276D01*
X373222Y691604D01*
X374743Y692709D01*
X376417Y693562D01*
X377191Y693813D01*
X377191Y687804D01*
X377198Y687708D01*
X377195Y687611D01*
X377218Y687433D01*
X377231Y687254D01*
X377251Y687159D01*
X377263Y687063D01*
X377311Y686890D01*
X377350Y686715D01*
X377384Y686625D01*
X377409Y686532D01*
X377481Y686367D01*
X377545Y686199D01*
X377592Y686115D01*
X377631Y686026D01*
X377726Y685874D01*
X377813Y685717D01*
X377872Y685640D01*
X377923Y685558D01*
X378039Y685421D01*
X378148Y685279D01*
X378217Y685211D01*
X378280Y685137D01*
X378414Y685019D01*
X378543Y684893D01*
X378621Y684836D01*
X378693Y684772D01*
X378844Y684674D01*
X378989Y684569D01*
X379074Y684524D01*
X379155Y684471D01*
X379318Y684396D01*
X379477Y684312D01*
X379568Y684280D01*
X379656Y684240D01*
X379828Y684188D01*
X379998Y684129D01*
X380092Y684110D01*
X380185Y684083D01*
X380363Y684057D01*
X380539Y684023D01*
X380635Y684018D01*
X380731Y684004D01*
X380911Y684005D01*
X381090Y683996D01*
X381186Y684005D01*
X381283Y684005D01*
X381460Y684031D01*
X381639Y684049D01*
X381733Y684072D01*
X381828Y684086D01*
X382001Y684138D01*
X382175Y684180D01*
X382264Y684217D01*
X382357Y684245D01*
X382519Y684320D01*
X382686Y684388D01*
X382769Y684437D01*
X382857Y684478D01*
X383007Y684577D01*
X383162Y684667D01*
X383237Y684728D01*
X383318Y684781D01*
X383452Y684900D01*
X383592Y685013D01*
X383658Y685083D01*
X383730Y685147D01*
X383845Y685285D01*
X383968Y685416D01*
X384023Y685496D01*
X384085Y685570D01*
X384179Y685722D01*
X384282Y685870D01*
X384325Y685957D01*
X384375Y686039D01*
X384447Y686203D01*
X384527Y686364D01*
X384557Y686456D01*
X384595Y686545D01*
X384691Y686868D01*
X384698Y686889D01*
X384698Y686890D01*
X384699Y686895D01*
X384701Y686901D01*
X384701Y686903D01*
X384745Y687166D01*
X384791Y687434D01*
X384792Y687442D01*
X384792Y687447D01*
X384793Y687469D01*
X384809Y687805D01*
X384809Y693902D01*
X385000Y693875D01*
X385077Y693876D01*
X385155Y693868D01*
X385353Y693878D01*
X385551Y693879D01*
X385628Y693891D01*
X385706Y693895D01*
X385901Y693933D01*
X386097Y693963D01*
X386171Y693986D01*
X386247Y694001D01*
X386435Y694067D01*
X386624Y694125D01*
X386694Y694158D01*
X386768Y694184D01*
X386943Y694276D01*
X387123Y694361D01*
X387187Y694404D01*
X387256Y694440D01*
X387417Y694557D01*
X387582Y694666D01*
X387640Y694718D01*
X387703Y694764D01*
X387845Y694903D01*
X387992Y695035D01*
X388042Y695095D01*
X388098Y695149D01*
X388218Y695307D01*
X388345Y695459D01*
X388399Y695544D01*
X388433Y695587D01*
X388466Y695648D01*
X388546Y695772D01*
X388717Y696067D01*
X392831Y700181D01*
X397870Y703091D01*
X403491Y704597D01*
X409309Y704597D01*
X414930Y703091D01*
X417195Y701783D01*
X417332Y701716D01*
X417465Y701641D01*
X417580Y701596D01*
X417692Y701542D01*
X417837Y701496D01*
X417979Y701441D01*
X418100Y701413D01*
X418218Y701376D01*
X418368Y701351D01*
X418516Y701317D01*
X418640Y701307D01*
X418762Y701287D01*
X418915Y701285D01*
X419066Y701273D01*
X419190Y701280D01*
X419314Y701278D01*
X419465Y701298D01*
X419617Y701308D01*
X419738Y701333D01*
X419861Y701349D01*
X420008Y701390D01*
X420156Y701422D01*
X420273Y701465D01*
X420392Y701498D01*
X420531Y701560D01*
X420674Y701613D01*
X420831Y701693D01*
X420896Y701722D01*
X420935Y701747D01*
X421005Y701783D01*
X423270Y703091D01*
X428891Y704597D01*
X434709Y704597D01*
X440330Y703091D01*
X442595Y701783D01*
X442732Y701716D01*
X442865Y701641D01*
X442980Y701596D01*
X443092Y701542D01*
X443237Y701496D01*
X443379Y701441D01*
X443500Y701413D01*
X443618Y701376D01*
X443768Y701351D01*
X443916Y701317D01*
X444040Y701307D01*
X444162Y701287D01*
X444315Y701285D01*
X444466Y701273D01*
X444590Y701280D01*
X444714Y701278D01*
X444865Y701298D01*
X445017Y701308D01*
X445138Y701333D01*
X445261Y701349D01*
X445408Y701390D01*
X445556Y701422D01*
X445673Y701465D01*
X445792Y701498D01*
X445931Y701560D01*
X446074Y701613D01*
X446231Y701693D01*
X446296Y701722D01*
X446335Y701747D01*
X446405Y701783D01*
X448670Y703091D01*
X454291Y704597D01*
X460109Y704597D01*
X465730Y703091D01*
X467995Y701783D01*
X468132Y701716D01*
X468265Y701641D01*
X468380Y701596D01*
X468492Y701542D01*
X468637Y701496D01*
X468779Y701441D01*
X468900Y701413D01*
X469018Y701376D01*
X469168Y701351D01*
X469316Y701317D01*
X469440Y701307D01*
X469562Y701287D01*
X469715Y701285D01*
X469866Y701273D01*
X469990Y701280D01*
X470114Y701278D01*
X470265Y701298D01*
X470417Y701308D01*
X470538Y701333D01*
X470661Y701349D01*
X470808Y701390D01*
X470956Y701422D01*
X471073Y701465D01*
X471192Y701498D01*
X471331Y701560D01*
X471474Y701613D01*
X471631Y701693D01*
X471696Y701722D01*
X471735Y701747D01*
X471805Y701783D01*
X474070Y703091D01*
X479691Y704597D01*
X485509Y704597D01*
X491130Y703091D01*
X493395Y701783D01*
X493532Y701716D01*
X493665Y701641D01*
X493780Y701596D01*
X493892Y701542D01*
X494037Y701496D01*
X494179Y701441D01*
X494300Y701413D01*
X494418Y701376D01*
X494568Y701351D01*
X494716Y701317D01*
X494840Y701307D01*
X494962Y701287D01*
X495115Y701285D01*
X495266Y701273D01*
X495390Y701280D01*
X495514Y701278D01*
X495665Y701298D01*
X495817Y701308D01*
X495938Y701333D01*
X496061Y701349D01*
X496208Y701390D01*
X496356Y701422D01*
X496473Y701465D01*
X496592Y701498D01*
X496731Y701560D01*
X496874Y701613D01*
X497031Y701693D01*
X497096Y701722D01*
X497135Y701747D01*
X497205Y701783D01*
X499470Y703091D01*
X505091Y704597D01*
X510909Y704597D01*
X516530Y703091D01*
X521569Y700181D01*
X525683Y696067D01*
X525854Y695772D01*
X525965Y695608D01*
X526070Y695439D01*
X526120Y695380D01*
X526163Y695315D01*
X526297Y695169D01*
X526425Y695017D01*
X526483Y694966D01*
X526536Y694908D01*
X526689Y694783D01*
X526838Y694651D01*
X526903Y694608D01*
X526963Y694559D01*
X527133Y694457D01*
X527299Y694349D01*
X527370Y694316D01*
X527436Y694276D01*
X527619Y694200D01*
X527799Y694116D01*
X527874Y694093D01*
X527945Y694063D01*
X528137Y694014D01*
X528328Y693958D01*
X528405Y693946D01*
X528480Y693927D01*
X528677Y693906D01*
X528874Y693877D01*
X528951Y693877D01*
X529029Y693869D01*
X529227Y693877D01*
X529425Y693877D01*
X529502Y693888D01*
X529580Y693891D01*
X529591Y693893D01*
X529591Y687805D01*
X529591Y687801D01*
X529591Y687796D01*
X529611Y687519D01*
X529631Y687255D01*
X529632Y687251D01*
X529632Y687246D01*
X529704Y686881D01*
X529705Y686880D01*
X529731Y686799D01*
X529750Y686716D01*
X529750Y686715D01*
X529817Y686537D01*
X529877Y686356D01*
X529915Y686279D01*
X529945Y686199D01*
X530038Y686033D01*
X530123Y685862D01*
X530172Y685792D01*
X530213Y685717D01*
X530329Y685566D01*
X530438Y685409D01*
X530496Y685347D01*
X530548Y685279D01*
X530685Y685146D01*
X530815Y685007D01*
X530882Y684953D01*
X530943Y684893D01*
X531097Y684781D01*
X531246Y684662D01*
X531320Y684619D01*
X531389Y684569D01*
X531557Y684481D01*
X531722Y684384D01*
X531802Y684352D01*
X531878Y684312D01*
X532057Y684249D01*
X532234Y684178D01*
X532317Y684158D01*
X532398Y684129D01*
X532585Y684092D01*
X532770Y684047D01*
X532855Y684039D01*
X532939Y684023D01*
X533130Y684013D01*
X533319Y683996D01*
X533405Y684000D01*
X533490Y683996D01*
X533680Y684014D01*
X533870Y684024D01*
X533954Y684041D01*
X534039Y684049D01*
X534224Y684094D01*
X534411Y684131D01*
X534492Y684160D01*
X534575Y684181D01*
X534752Y684252D01*
X534931Y684316D01*
X535007Y684356D01*
X535086Y684388D01*
X535251Y684485D01*
X535419Y684574D01*
X535488Y684624D01*
X535562Y684668D01*
X535711Y684787D01*
X535864Y684899D01*
X535925Y684959D01*
X535992Y685013D01*
X536122Y685152D01*
X536258Y685286D01*
X536310Y685354D01*
X536368Y685416D01*
X536477Y685573D01*
X536592Y685725D01*
X536633Y685800D01*
X536682Y685870D01*
X536767Y686041D01*
X536859Y686208D01*
X536889Y686288D01*
X536927Y686365D01*
X536986Y686546D01*
X537053Y686724D01*
X537071Y686808D01*
X537098Y686889D01*
X537130Y687077D01*
X537171Y687263D01*
X537177Y687348D01*
X537191Y687433D01*
X537209Y687804D01*
X537209Y693813D01*
X537983Y693562D01*
X539657Y692709D01*
X541178Y691604D01*
X542506Y690276D01*
X543611Y688755D01*
X544464Y687081D01*
X545045Y685294D01*
X545339Y683438D01*
X545339Y676909D01*
X533908Y676909D01*
X533863Y676906D01*
X533818Y676908D01*
X533588Y676886D01*
X533358Y676869D01*
X533314Y676860D01*
X533269Y676855D01*
X533045Y676800D01*
X532819Y676750D01*
X532777Y676734D01*
X532733Y676724D01*
X532519Y676637D01*
X532303Y676555D01*
X532264Y676533D01*
X532222Y676516D01*
X532023Y676399D01*
X531821Y676287D01*
X531785Y676259D01*
X531746Y676237D01*
X531566Y676092D01*
X531383Y675952D01*
X531351Y675920D01*
X531316Y675891D01*
X531158Y675722D01*
X530997Y675557D01*
X530971Y675521D01*
X530940Y675488D01*
X530808Y675297D01*
X530673Y675111D01*
X530652Y675071D01*
X530626Y675034D01*
X530523Y674826D01*
X530416Y674623D01*
X530401Y674580D01*
X530381Y674540D01*
X530310Y674320D01*
X530233Y674102D01*
X530224Y674058D01*
X530210Y674015D01*
X530171Y673787D01*
X530127Y673561D01*
X530125Y673516D01*
X530117Y673471D01*
X530099Y673100D01*
X530102Y673055D01*
X530100Y673010D01*
X530122Y672780D01*
X530139Y672550D01*
X530148Y672505D01*
X530153Y672461D01*
X530208Y672237D01*
X530258Y672011D01*
X530274Y671969D01*
X530284Y671925D01*
X530371Y671711D01*
X530453Y671495D01*
X530475Y671456D01*
X530492Y671414D01*
X530609Y671215D01*
X530721Y671013D01*
X530749Y670977D01*
X530772Y670938D01*
X530916Y670758D01*
X531056Y670574D01*
X531088Y670543D01*
X531117Y670508D01*
X531287Y670350D01*
X531451Y670189D01*
X531487Y670163D01*
X531520Y670132D01*
X531711Y670000D01*
X531897Y669865D01*
X531937Y669844D01*
X531974Y669818D01*
X532182Y669715D01*
X532385Y669608D01*
X532428Y669593D01*
X532468Y669573D01*
X532688Y669501D01*
X532906Y669425D01*
X532950Y669416D01*
X532993Y669402D01*
X533221Y669363D01*
X533447Y669319D01*
X533492Y669316D01*
X533537Y669309D01*
X533908Y669291D01*
X545339Y669291D01*
X545339Y662762D01*
X545045Y660906D01*
X544464Y659119D01*
X543611Y657445D01*
X542506Y655924D01*
X541178Y654596D01*
X539657Y653491D01*
X537983Y652638D01*
X537209Y652387D01*
X537209Y658396D01*
X537203Y658481D01*
X537206Y658567D01*
X537183Y658756D01*
X537169Y658946D01*
X537151Y659030D01*
X537141Y659115D01*
X537092Y659298D01*
X537050Y659485D01*
X537020Y659565D01*
X536998Y659648D01*
X536922Y659823D01*
X536855Y660001D01*
X536813Y660075D01*
X536779Y660154D01*
X536679Y660316D01*
X536587Y660483D01*
X536535Y660551D01*
X536490Y660624D01*
X536368Y660770D01*
X536252Y660921D01*
X536191Y660981D01*
X536136Y661047D01*
X535993Y661174D01*
X535857Y661307D01*
X535788Y661357D01*
X535724Y661414D01*
X535565Y661519D01*
X535411Y661631D01*
X535335Y661671D01*
X535264Y661718D01*
X535091Y661799D01*
X534923Y661888D01*
X534842Y661916D01*
X534764Y661953D01*
X534582Y662008D01*
X534402Y662071D01*
X534318Y662087D01*
X534236Y662112D01*
X534048Y662141D01*
X533861Y662177D01*
X533776Y662181D01*
X533691Y662194D01*
X533500Y662195D01*
X533310Y662204D01*
X533225Y662196D01*
X533139Y662196D01*
X532951Y662169D01*
X532761Y662151D01*
X532678Y662131D01*
X532593Y662119D01*
X532410Y662065D01*
X532225Y662019D01*
X532146Y661987D01*
X532064Y661963D01*
X531891Y661884D01*
X531714Y661812D01*
X531640Y661768D01*
X531562Y661733D01*
X531403Y661629D01*
X531238Y661532D01*
X531171Y661479D01*
X531100Y661432D01*
X530957Y661307D01*
X530808Y661187D01*
X530749Y661124D01*
X530685Y661068D01*
X530562Y660923D01*
X530432Y660784D01*
X530383Y660713D01*
X530328Y660648D01*
X530227Y660487D01*
X530118Y660330D01*
X530080Y660253D01*
X530035Y660180D01*
X529958Y660006D01*
X529873Y659835D01*
X529847Y659754D01*
X529812Y659676D01*
X529705Y659320D01*
X529704Y659319D01*
X529704Y659315D01*
X529702Y659311D01*
X529702Y659310D01*
X529656Y659039D01*
X529610Y658775D01*
X529609Y658771D01*
X529609Y658766D01*
X529591Y658395D01*
X529591Y652298D01*
X529400Y652325D01*
X529323Y652324D01*
X529245Y652332D01*
X529047Y652322D01*
X528849Y652321D01*
X528772Y652309D01*
X528694Y652305D01*
X528499Y652267D01*
X528303Y652237D01*
X528229Y652214D01*
X528153Y652199D01*
X527965Y652133D01*
X527776Y652075D01*
X527706Y652042D01*
X527632Y652016D01*
X527457Y651924D01*
X527277Y651839D01*
X527213Y651796D01*
X527144Y651760D01*
X526983Y651643D01*
X526818Y651534D01*
X526760Y651482D01*
X526697Y651436D01*
X526555Y651297D01*
X526408Y651165D01*
X526358Y651105D01*
X526302Y651051D01*
X526182Y650893D01*
X526055Y650741D01*
X526001Y650656D01*
X525967Y650613D01*
X525934Y650552D01*
X525854Y650428D01*
X525683Y650133D01*
X521569Y646019D01*
X516530Y643109D01*
X510909Y641603D01*
X505091Y641603D01*
X499470Y643109D01*
X497205Y644417D01*
X497068Y644484D01*
X496935Y644559D01*
X496820Y644604D01*
X496708Y644658D01*
X496563Y644704D01*
X496421Y644759D01*
X496300Y644787D01*
X496182Y644824D01*
X496032Y644849D01*
X495884Y644883D01*
X495760Y644893D01*
X495638Y644913D01*
X495485Y644915D01*
X495334Y644927D01*
X495210Y644920D01*
X495086Y644922D01*
X494935Y644902D01*
X494783Y644892D01*
X494662Y644867D01*
X494539Y644851D01*
X494392Y644810D01*
X494244Y644778D01*
X494127Y644735D01*
X494008Y644702D01*
X493869Y644640D01*
X493726Y644587D01*
X493569Y644507D01*
X493504Y644478D01*
X493465Y644453D01*
X493395Y644417D01*
X491130Y643109D01*
X485509Y641603D01*
X479691Y641603D01*
X479513Y641651D01*
X479487Y641656D01*
X479461Y641664D01*
X479217Y641708D01*
X478971Y641755D01*
X478944Y641756D01*
X478918Y641761D01*
X478669Y641768D01*
X478420Y641779D01*
X478394Y641776D01*
X478367Y641777D01*
X478120Y641749D01*
X477871Y641724D01*
X477845Y641717D01*
X477819Y641714D01*
X477579Y641650D01*
X477336Y641590D01*
X477311Y641579D01*
X477285Y641573D01*
X477056Y641474D01*
X476826Y641380D01*
X476803Y641366D01*
X476778Y641355D01*
X476566Y641225D01*
X476352Y641098D01*
X476331Y641081D01*
X476308Y641067D01*
X476116Y640907D01*
X475923Y640751D01*
X475905Y640732D01*
X475884Y640714D01*
X475717Y640528D01*
X475549Y640346D01*
X475533Y640324D01*
X475515Y640304D01*
X475378Y640097D01*
X475237Y639891D01*
X475225Y639866D01*
X475210Y639844D01*
X475104Y639620D01*
X474994Y639395D01*
X474986Y639370D01*
X474974Y639345D01*
X474902Y639107D01*
X474825Y638870D01*
X474821Y638844D01*
X474813Y638818D01*
X474775Y638571D01*
X474734Y638326D01*
X474734Y638299D01*
X474730Y638272D01*
X474728Y638023D01*
X474723Y637774D01*
X474726Y637748D01*
X474726Y637721D01*
X474761Y637474D01*
X474791Y637227D01*
X474799Y637201D01*
X474802Y637174D01*
X474872Y636935D01*
X474938Y636695D01*
X474949Y636671D01*
X474956Y636645D01*
X475060Y636418D01*
X475160Y636190D01*
X475174Y636167D01*
X475186Y636143D01*
X475320Y635934D01*
X475453Y635722D01*
X475470Y635702D01*
X475485Y635679D01*
X475649Y635492D01*
X475810Y635302D01*
X475830Y635284D01*
X475848Y635264D01*
X476037Y635102D01*
X476224Y634937D01*
X476246Y634923D01*
X476267Y634905D01*
X476478Y634772D01*
X476686Y634637D01*
X476711Y634625D01*
X476733Y634611D01*
X477070Y634452D01*
X477814Y634144D01*
X489962Y621996D01*
X490057Y621914D01*
X490145Y621824D01*
X490265Y621733D01*
X490379Y621635D01*
X490485Y621567D01*
X490585Y621492D01*
X490717Y621419D01*
X490844Y621338D01*
X490959Y621287D01*
X491069Y621226D01*
X491210Y621174D01*
X491347Y621112D01*
X491468Y621077D01*
X491585Y621033D01*
X491733Y621002D01*
X491878Y620960D01*
X492002Y620944D01*
X492125Y620917D01*
X492275Y620907D01*
X492425Y620887D01*
X492550Y620888D01*
X492675Y620880D01*
X492825Y620892D01*
X492976Y620894D01*
X493100Y620913D01*
X493225Y620923D01*
X493372Y620956D01*
X493521Y620980D01*
X493641Y621017D01*
X493763Y621045D01*
X493984Y621124D01*
X494048Y621144D01*
X494072Y621155D01*
X494113Y621170D01*
X498316Y622911D01*
X509243Y622911D01*
X509253Y622911D01*
X509263Y622911D01*
X509526Y622931D01*
X509793Y622951D01*
X509803Y622953D01*
X509813Y622954D01*
X510071Y623012D01*
X510332Y623070D01*
X510341Y623073D01*
X510351Y623075D01*
X510701Y623201D01*
X512874Y624101D01*
X531926Y624101D01*
X536594Y622167D01*
X540167Y618594D01*
X540847Y616952D01*
X540904Y616840D01*
X540951Y616724D01*
X541027Y616594D01*
X541095Y616459D01*
X541167Y616357D01*
X541230Y616248D01*
X541325Y616131D01*
X541411Y616007D01*
X541497Y615916D01*
X541575Y615818D01*
X541686Y615715D01*
X541789Y615605D01*
X541887Y615528D01*
X541979Y615442D01*
X542103Y615356D01*
X542221Y615262D01*
X542329Y615200D01*
X542433Y615128D01*
X542568Y615061D01*
X542698Y614986D01*
X542815Y614939D01*
X542927Y614883D01*
X543071Y614836D01*
X543210Y614780D01*
X543332Y614751D01*
X543452Y614712D01*
X543600Y614687D01*
X543747Y614652D01*
X543871Y614640D01*
X543995Y614619D01*
X544231Y614607D01*
X544296Y614601D01*
X544323Y614603D01*
X544367Y614601D01*
X553926Y614601D01*
X556099Y613701D01*
X556108Y613698D01*
X556117Y613693D01*
X556371Y613611D01*
X556623Y613527D01*
X556633Y613525D01*
X556642Y613522D01*
X556907Y613477D01*
X557166Y613431D01*
X557176Y613431D01*
X557186Y613429D01*
X557557Y613411D01*
X587484Y613411D01*
X593553Y610897D01*
X597433Y607016D01*
X597588Y606883D01*
X597739Y606742D01*
X597797Y606702D01*
X597851Y606656D01*
X598024Y606545D01*
X598193Y606428D01*
X598256Y606397D01*
X598316Y606359D01*
X598503Y606275D01*
X598687Y606183D01*
X598754Y606161D01*
X598819Y606132D01*
X599016Y606076D01*
X599212Y606012D01*
X599281Y606000D01*
X599349Y605981D01*
X599553Y605954D01*
X599756Y605919D01*
X599846Y605914D01*
X599896Y605908D01*
X599966Y605909D01*
X600127Y605901D01*
X610217Y605901D01*
X618193Y602597D01*
X624297Y596493D01*
X627601Y588517D01*
X627601Y579883D01*
X624732Y572958D01*
X624667Y572762D01*
X624595Y572570D01*
X624581Y572501D01*
X624558Y572434D01*
X624522Y572231D01*
X624479Y572031D01*
X624474Y571961D01*
X624462Y571891D01*
X624456Y571685D01*
X624442Y571480D01*
X624448Y571410D01*
X624445Y571339D01*
X624469Y571135D01*
X624485Y570930D01*
X624500Y570862D01*
X624509Y570791D01*
X624561Y570593D01*
X624607Y570392D01*
X624637Y570307D01*
X624650Y570258D01*
X624678Y570194D01*
X624732Y570042D01*
X627601Y563117D01*
X627601Y554483D01*
X624297Y546507D01*
X618193Y540403D01*
X609782Y536919D01*
X609638Y536847D01*
X609491Y536784D01*
X609392Y536724D01*
X609289Y536672D01*
X609157Y536580D01*
X609020Y536496D01*
X608932Y536422D01*
X608837Y536356D01*
X608720Y536246D01*
X608596Y536143D01*
X608519Y536057D01*
X608435Y535978D01*
X608335Y535852D01*
X608228Y535732D01*
X608164Y535636D01*
X608092Y535546D01*
X608012Y535407D01*
X607923Y535273D01*
X607873Y535168D01*
X607815Y535068D01*
X607756Y534919D01*
X607687Y534774D01*
X607653Y534664D01*
X607610Y534556D01*
X607573Y534400D01*
X607526Y534246D01*
X607508Y534132D01*
X607481Y534020D01*
X607467Y533860D01*
X607442Y533701D01*
X607442Y533585D01*
X607431Y533470D01*
X607440Y533310D01*
X607439Y533149D01*
X607455Y533035D01*
X607461Y532920D01*
X607493Y532762D01*
X607515Y532603D01*
X607547Y532492D01*
X607570Y532379D01*
X607624Y532228D01*
X607669Y532073D01*
X607717Y531968D01*
X607756Y531859D01*
X607831Y531718D01*
X607898Y531572D01*
X607961Y531474D01*
X608015Y531372D01*
X608110Y531243D01*
X608197Y531108D01*
X608273Y531021D01*
X608342Y530928D01*
X608454Y530814D01*
X608560Y530693D01*
X608648Y530617D01*
X608729Y530535D01*
X608857Y530438D01*
X608979Y530334D01*
X609077Y530272D01*
X609169Y530203D01*
X609310Y530125D01*
X609446Y530040D01*
X609591Y529971D01*
X609653Y529937D01*
X609700Y529919D01*
X609782Y529881D01*
X618193Y526397D01*
X624297Y520293D01*
X627601Y512317D01*
X627601Y503683D01*
X624732Y496758D01*
X624667Y496563D01*
X624595Y496370D01*
X624581Y496301D01*
X624558Y496234D01*
X624523Y496032D01*
X624479Y495831D01*
X624474Y495760D01*
X624462Y495691D01*
X624456Y495485D01*
X624442Y495280D01*
X624448Y495210D01*
X624445Y495139D01*
X624469Y494935D01*
X624485Y494730D01*
X624500Y494662D01*
X624509Y494591D01*
X624561Y494393D01*
X624607Y494192D01*
X624637Y494107D01*
X624650Y494058D01*
X624678Y493994D01*
X624732Y493842D01*
X627601Y486917D01*
X627601Y478283D01*
X624297Y470307D01*
X618193Y464203D01*
X609782Y460719D01*
X609638Y460647D01*
X609491Y460584D01*
X609392Y460524D01*
X609289Y460472D01*
X609157Y460380D01*
X609020Y460296D01*
X608932Y460222D01*
X608837Y460156D01*
X608720Y460046D01*
X608596Y459943D01*
X608519Y459857D01*
X608435Y459778D01*
X608335Y459652D01*
X608228Y459532D01*
X608164Y459436D01*
X608092Y459346D01*
X608012Y459207D01*
X607923Y459073D01*
X607873Y458968D01*
X607815Y458868D01*
X607756Y458719D01*
X607687Y458574D01*
X607653Y458464D01*
X607610Y458356D01*
X607573Y458200D01*
X607526Y458046D01*
X607508Y457932D01*
X607481Y457820D01*
X607467Y457660D01*
X607442Y457501D01*
X607442Y457385D01*
X607431Y457270D01*
X607440Y457110D01*
X607439Y456949D01*
X607455Y456835D01*
X607461Y456720D01*
X607493Y456562D01*
X607515Y456403D01*
X607547Y456292D01*
X607570Y456179D01*
X607624Y456028D01*
X607669Y455873D01*
X607717Y455768D01*
X607756Y455659D01*
X607831Y455518D01*
X607898Y455372D01*
X607961Y455274D01*
X608015Y455172D01*
X608110Y455043D01*
X608197Y454908D01*
X608273Y454821D01*
X608342Y454728D01*
X608454Y454614D01*
X608560Y454493D01*
X608648Y454417D01*
X608729Y454335D01*
X608857Y454238D01*
X608979Y454134D01*
X609077Y454072D01*
X609169Y454003D01*
X609310Y453925D01*
X609446Y453840D01*
X609591Y453771D01*
X609653Y453737D01*
X609700Y453719D01*
X609782Y453681D01*
X618193Y450197D01*
X624297Y444093D01*
X627601Y436117D01*
X627601Y427483D01*
X624732Y420558D01*
X624667Y420363D01*
X624595Y420170D01*
X624581Y420101D01*
X624558Y420034D01*
X624523Y419832D01*
X624479Y419631D01*
X624474Y419560D01*
X624462Y419491D01*
X624456Y419285D01*
X624442Y419080D01*
X624448Y419010D01*
X624445Y418939D01*
X624469Y418735D01*
X624485Y418530D01*
X624500Y418462D01*
X624509Y418391D01*
X624561Y418193D01*
X624607Y417992D01*
X624637Y417907D01*
X624650Y417858D01*
X624678Y417794D01*
X624732Y417642D01*
X627601Y410717D01*
X627601Y402083D01*
X624297Y394107D01*
X618193Y388003D01*
X609782Y384519D01*
X609638Y384447D01*
X609491Y384384D01*
X609392Y384324D01*
X609289Y384272D01*
X609157Y384180D01*
X609020Y384096D01*
X608932Y384022D01*
X608837Y383956D01*
X608720Y383846D01*
X608596Y383743D01*
X608519Y383657D01*
X608435Y383578D01*
X608335Y383452D01*
X608228Y383332D01*
X608164Y383236D01*
X608092Y383146D01*
X608012Y383007D01*
X607923Y382873D01*
X607873Y382768D01*
X607815Y382668D01*
X607756Y382519D01*
X607687Y382374D01*
X607653Y382264D01*
X607610Y382156D01*
X607573Y382000D01*
X607526Y381846D01*
X607508Y381732D01*
X607481Y381620D01*
X607467Y381460D01*
X607442Y381301D01*
X607442Y381185D01*
X607431Y381070D01*
X607440Y380910D01*
X607439Y380749D01*
X607455Y380635D01*
X607461Y380520D01*
X607493Y380362D01*
X607515Y380203D01*
X607547Y380092D01*
X607570Y379979D01*
X607624Y379828D01*
X607669Y379673D01*
X607717Y379568D01*
X607756Y379459D01*
X607831Y379318D01*
X607898Y379172D01*
X607961Y379074D01*
X608015Y378972D01*
X608110Y378843D01*
X608197Y378708D01*
X608273Y378621D01*
X608342Y378528D01*
X608454Y378414D01*
X608560Y378293D01*
X608648Y378217D01*
X608729Y378135D01*
X608857Y378038D01*
X608979Y377934D01*
X609077Y377872D01*
X609169Y377803D01*
X609310Y377725D01*
X609446Y377640D01*
X609591Y377571D01*
X609653Y377537D01*
X609700Y377519D01*
X609782Y377481D01*
X618193Y373997D01*
X624297Y367893D01*
X627601Y359917D01*
X627601Y351283D01*
X624732Y344358D01*
X624667Y344163D01*
X624595Y343970D01*
X624581Y343901D01*
X624558Y343834D01*
X624523Y343632D01*
X624479Y343431D01*
X624474Y343360D01*
X624462Y343291D01*
X624456Y343085D01*
X624442Y342880D01*
X624448Y342810D01*
X624445Y342739D01*
X624469Y342535D01*
X624485Y342330D01*
X624500Y342262D01*
X624509Y342191D01*
X624561Y341993D01*
X624607Y341792D01*
X624637Y341707D01*
X624650Y341658D01*
X624678Y341594D01*
X624732Y341442D01*
X627601Y334517D01*
X627601Y325883D01*
X624297Y317907D01*
X618193Y311803D01*
X610217Y308499D01*
X600127Y308499D01*
X599922Y308484D01*
X599716Y308477D01*
X599647Y308464D01*
X599577Y308459D01*
X599375Y308415D01*
X599174Y308378D01*
X599107Y308356D01*
X599038Y308340D01*
X598846Y308267D01*
X598651Y308202D01*
X598588Y308170D01*
X598522Y308145D01*
X598343Y308045D01*
X598159Y307952D01*
X598102Y307911D01*
X598040Y307877D01*
X597877Y307752D01*
X597709Y307633D01*
X597642Y307573D01*
X597601Y307542D01*
X597552Y307491D01*
X597433Y307384D01*
X593553Y303503D01*
X587484Y300989D01*
X557557Y300989D01*
X557547Y300989D01*
X557537Y300989D01*
X557274Y300969D01*
X557007Y300949D01*
X556997Y300947D01*
X556987Y300946D01*
X556730Y300888D01*
X556468Y300830D01*
X556459Y300827D01*
X556449Y300825D01*
X556099Y300699D01*
X553926Y299799D01*
X544367Y299799D01*
X544242Y299790D01*
X544116Y299791D01*
X543967Y299770D01*
X543816Y299759D01*
X543694Y299732D01*
X543570Y299715D01*
X543425Y299673D01*
X543278Y299640D01*
X543160Y299596D01*
X543040Y299561D01*
X542903Y299498D01*
X542762Y299445D01*
X542652Y299384D01*
X542538Y299332D01*
X542411Y299250D01*
X542280Y299177D01*
X542180Y299101D01*
X542075Y299033D01*
X541961Y298933D01*
X541841Y298842D01*
X541754Y298752D01*
X541659Y298670D01*
X541561Y298555D01*
X541456Y298447D01*
X541382Y298346D01*
X541301Y298250D01*
X541220Y298123D01*
X541131Y298001D01*
X541073Y297890D01*
X541006Y297784D01*
X540906Y297571D01*
X540875Y297513D01*
X540866Y297487D01*
X540847Y297448D01*
X540167Y295806D01*
X536594Y292233D01*
X531926Y290299D01*
X516894Y290299D01*
X516885Y290299D01*
X516875Y290299D01*
X516612Y290279D01*
X516344Y290259D01*
X516335Y290257D01*
X516325Y290256D01*
X516068Y290198D01*
X515806Y290140D01*
X515796Y290137D01*
X515787Y290135D01*
X515437Y290009D01*
X511284Y288289D01*
X504716Y288289D01*
X498647Y290803D01*
X497974Y291477D01*
X497940Y291506D01*
X497909Y291540D01*
X497731Y291687D01*
X497556Y291837D01*
X497518Y291862D01*
X497483Y291890D01*
X497286Y292010D01*
X497091Y292134D01*
X497050Y292153D01*
X497012Y292176D01*
X496799Y292266D01*
X496588Y292361D01*
X496545Y292373D01*
X496503Y292391D01*
X496280Y292449D01*
X496058Y292512D01*
X496013Y292518D01*
X495969Y292529D01*
X495740Y292555D01*
X495511Y292585D01*
X495466Y292585D01*
X495421Y292590D01*
X495190Y292581D01*
X494959Y292579D01*
X494915Y292572D01*
X494870Y292570D01*
X494642Y292529D01*
X494415Y292493D01*
X494371Y292479D01*
X494327Y292471D01*
X494108Y292397D01*
X493888Y292329D01*
X493847Y292309D01*
X493804Y292295D01*
X493599Y292190D01*
X493390Y292090D01*
X493353Y292065D01*
X493312Y292045D01*
X493124Y291912D01*
X492932Y291783D01*
X492899Y291752D01*
X492862Y291726D01*
X492587Y291477D01*
X491937Y290827D01*
X485879Y288317D01*
X479321Y288317D01*
X473957Y290539D01*
X473948Y290542D01*
X473939Y290547D01*
X473685Y290629D01*
X473433Y290713D01*
X473424Y290715D01*
X473414Y290718D01*
X473149Y290763D01*
X472890Y290809D01*
X472880Y290809D01*
X472871Y290811D01*
X472499Y290829D01*
X423925Y290829D01*
X423764Y290818D01*
X423604Y290816D01*
X423490Y290798D01*
X423374Y290789D01*
X423218Y290755D01*
X423059Y290730D01*
X422949Y290695D01*
X422836Y290670D01*
X422685Y290613D01*
X422532Y290566D01*
X422428Y290516D01*
X422320Y290475D01*
X422180Y290397D01*
X422035Y290327D01*
X421939Y290263D01*
X421838Y290207D01*
X421710Y290109D01*
X421577Y290020D01*
X421491Y289942D01*
X421399Y289872D01*
X421287Y289757D01*
X421168Y289649D01*
X421094Y289560D01*
X421014Y289477D01*
X420920Y289348D01*
X420817Y289223D01*
X420757Y289124D01*
X420689Y289031D01*
X420615Y288889D01*
X420532Y288751D01*
X420487Y288645D01*
X420433Y288543D01*
X420380Y288391D01*
X420317Y288243D01*
X420288Y288131D01*
X420250Y288022D01*
X420219Y287865D01*
X420178Y287709D01*
X420166Y287594D01*
X420143Y287481D01*
X420136Y287321D01*
X420118Y287161D01*
X420122Y287045D01*
X420116Y286930D01*
X420132Y286770D01*
X420138Y286610D01*
X420158Y286496D01*
X420169Y286381D01*
X420208Y286225D01*
X420237Y286067D01*
X420274Y285957D01*
X420301Y285845D01*
X420362Y285696D01*
X420413Y285544D01*
X420465Y285441D01*
X420509Y285334D01*
X420590Y285195D01*
X420663Y285052D01*
X420730Y284958D01*
X420788Y284858D01*
X420889Y284733D01*
X420981Y284602D01*
X421089Y284483D01*
X421133Y284428D01*
X421158Y284405D01*
X421164Y284397D01*
X421183Y284380D01*
X421231Y284326D01*
X443644Y261914D01*
X445771Y256779D01*
X445771Y237378D01*
X445790Y237112D01*
X445808Y236845D01*
X445810Y236836D01*
X445811Y236828D01*
X445869Y236565D01*
X445925Y236305D01*
X445928Y236298D01*
X445930Y236289D01*
X446025Y236038D01*
X446118Y235789D01*
X446122Y235781D01*
X446125Y235773D01*
X446256Y235538D01*
X446384Y235305D01*
X446389Y235299D01*
X446393Y235291D01*
X446557Y235077D01*
X446717Y234865D01*
X446723Y234860D01*
X446728Y234853D01*
X446919Y234666D01*
X447110Y234478D01*
X447117Y234473D01*
X447123Y234467D01*
X447339Y234310D01*
X447555Y234152D01*
X447562Y234148D01*
X447569Y234143D01*
X447805Y234019D01*
X448042Y233893D01*
X448050Y233890D01*
X448057Y233886D01*
X448307Y233798D01*
X448561Y233708D01*
X448570Y233706D01*
X448578Y233703D01*
X448836Y233652D01*
X449102Y233599D01*
X449111Y233598D01*
X449119Y233597D01*
X449386Y233584D01*
X449653Y233570D01*
X449662Y233570D01*
X449670Y233570D01*
X449937Y233596D01*
X450203Y233620D01*
X450213Y233622D01*
X450219Y233623D01*
X450246Y233630D01*
X450566Y233699D01*
X454291Y234697D01*
X460109Y234697D01*
X465730Y233191D01*
X467995Y231883D01*
X468132Y231816D01*
X468265Y231741D01*
X468380Y231696D01*
X468492Y231642D01*
X468637Y231596D01*
X468779Y231541D01*
X468900Y231513D01*
X469018Y231476D01*
X469168Y231451D01*
X469316Y231417D01*
X469440Y231407D01*
X469562Y231387D01*
X469715Y231385D01*
X469866Y231373D01*
X469990Y231380D01*
X470114Y231378D01*
X470265Y231398D01*
X470417Y231408D01*
X470538Y231433D01*
X470661Y231449D01*
X470808Y231490D01*
X470956Y231522D01*
X471073Y231565D01*
X471192Y231598D01*
X471331Y231660D01*
X471474Y231713D01*
X471631Y231793D01*
X471696Y231822D01*
X471735Y231847D01*
X471805Y231883D01*
X474070Y233191D01*
X479691Y234697D01*
X485509Y234697D01*
X491130Y233191D01*
X493395Y231883D01*
X493532Y231816D01*
X493665Y231741D01*
X493780Y231696D01*
X493892Y231642D01*
X494037Y231596D01*
X494179Y231541D01*
X494300Y231513D01*
X494418Y231476D01*
X494568Y231451D01*
X494716Y231417D01*
X494840Y231407D01*
X494962Y231387D01*
X495115Y231385D01*
X495266Y231373D01*
X495390Y231380D01*
X495514Y231378D01*
X495665Y231398D01*
X495817Y231408D01*
X495938Y231433D01*
X496061Y231449D01*
X496208Y231490D01*
X496356Y231522D01*
X496473Y231565D01*
X496592Y231598D01*
X496731Y231660D01*
X496874Y231713D01*
X497031Y231793D01*
X497096Y231822D01*
X497135Y231847D01*
X497205Y231883D01*
X499470Y233191D01*
X505091Y234697D01*
X510909Y234697D01*
X516530Y233191D01*
X521569Y230281D01*
X525683Y226167D01*
X525854Y225872D01*
X525965Y225707D01*
X526070Y225539D01*
X526120Y225480D01*
X526164Y225415D01*
X526297Y225269D01*
X526425Y225117D01*
X526483Y225066D01*
X526536Y225008D01*
X526690Y224883D01*
X526838Y224751D01*
X526903Y224708D01*
X526963Y224659D01*
X527133Y224557D01*
X527299Y224448D01*
X527370Y224416D01*
X527436Y224376D01*
X527620Y224299D01*
X527799Y224216D01*
X527874Y224193D01*
X527946Y224163D01*
X528138Y224114D01*
X528328Y224058D01*
X528405Y224046D01*
X528480Y224027D01*
X528678Y224006D01*
X528874Y223977D01*
X528951Y223977D01*
X529029Y223969D01*
X529227Y223977D01*
X529425Y223977D01*
X529502Y223988D01*
X529580Y223991D01*
X529591Y223993D01*
X529591Y217905D01*
X529591Y217901D01*
X529591Y217896D01*
X529611Y217619D01*
X529631Y217355D01*
X529632Y217351D01*
X529632Y217346D01*
X529704Y216981D01*
X529705Y216980D01*
X529731Y216899D01*
X529750Y216816D01*
X529750Y216815D01*
X529817Y216637D01*
X529877Y216456D01*
X529915Y216379D01*
X529945Y216299D01*
X530038Y216133D01*
X530123Y215962D01*
X530172Y215892D01*
X530213Y215817D01*
X530329Y215666D01*
X530438Y215509D01*
X530496Y215447D01*
X530548Y215379D01*
X530685Y215246D01*
X530815Y215107D01*
X530882Y215053D01*
X530943Y214993D01*
X531097Y214882D01*
X531246Y214762D01*
X531320Y214719D01*
X531389Y214669D01*
X531557Y214581D01*
X531722Y214484D01*
X531802Y214452D01*
X531878Y214412D01*
X532057Y214349D01*
X532234Y214278D01*
X532317Y214258D01*
X532398Y214229D01*
X532585Y214192D01*
X532770Y214147D01*
X532855Y214139D01*
X532939Y214123D01*
X533130Y214114D01*
X533319Y214096D01*
X533405Y214100D01*
X533490Y214096D01*
X533680Y214114D01*
X533870Y214124D01*
X533954Y214141D01*
X534039Y214149D01*
X534224Y214194D01*
X534411Y214231D01*
X534492Y214260D01*
X534575Y214281D01*
X534752Y214352D01*
X534931Y214416D01*
X535007Y214456D01*
X535086Y214488D01*
X535251Y214585D01*
X535419Y214674D01*
X535488Y214724D01*
X535562Y214768D01*
X535711Y214887D01*
X535864Y214999D01*
X535925Y215059D01*
X535992Y215113D01*
X536122Y215252D01*
X536258Y215386D01*
X536310Y215454D01*
X536368Y215516D01*
X536477Y215673D01*
X536592Y215825D01*
X536633Y215900D01*
X536682Y215970D01*
X536767Y216141D01*
X536859Y216308D01*
X536889Y216388D01*
X536927Y216465D01*
X536986Y216646D01*
X537053Y216824D01*
X537071Y216908D01*
X537098Y216989D01*
X537130Y217177D01*
X537171Y217363D01*
X537177Y217448D01*
X537191Y217533D01*
X537209Y217904D01*
X537209Y223913D01*
X537983Y223662D01*
X539657Y222809D01*
X541178Y221704D01*
X542506Y220376D01*
X543611Y218855D01*
X544464Y217181D01*
X545045Y215394D01*
X545339Y213538D01*
X545339Y207009D01*
X533908Y207009D01*
X533863Y207006D01*
X533818Y207008D01*
X533588Y206986D01*
X533358Y206969D01*
X533314Y206960D01*
X533269Y206955D01*
X533045Y206900D01*
X532819Y206850D01*
X532777Y206834D01*
X532733Y206824D01*
X532519Y206737D01*
X532303Y206655D01*
X532264Y206633D01*
X532222Y206616D01*
X532023Y206499D01*
X531821Y206387D01*
X531785Y206359D01*
X531746Y206337D01*
X531566Y206192D01*
X531383Y206052D01*
X531351Y206020D01*
X531316Y205991D01*
X531158Y205822D01*
X530997Y205657D01*
X530971Y205621D01*
X530940Y205588D01*
X530808Y205397D01*
X530673Y205211D01*
X530652Y205171D01*
X530626Y205134D01*
X530523Y204926D01*
X530416Y204723D01*
X530401Y204680D01*
X530381Y204640D01*
X530310Y204420D01*
X530233Y204202D01*
X530224Y204158D01*
X530210Y204115D01*
X530171Y203887D01*
X530127Y203661D01*
X530125Y203616D01*
X530117Y203571D01*
X530099Y203200D01*
X530102Y203155D01*
X530100Y203110D01*
X530122Y202880D01*
X530139Y202650D01*
X530148Y202605D01*
X530153Y202561D01*
X530208Y202337D01*
X530258Y202111D01*
X530274Y202069D01*
X530284Y202025D01*
X530371Y201811D01*
X530453Y201595D01*
X530475Y201556D01*
X530492Y201514D01*
X530609Y201315D01*
X530721Y201113D01*
X530749Y201077D01*
X530772Y201038D01*
X530916Y200858D01*
X531056Y200674D01*
X531088Y200643D01*
X531117Y200608D01*
X531287Y200450D01*
X531451Y200289D01*
X531487Y200263D01*
X531520Y200232D01*
X531711Y200100D01*
X531897Y199965D01*
X531937Y199944D01*
X531974Y199918D01*
X532182Y199815D01*
X532385Y199708D01*
X532428Y199693D01*
X532468Y199673D01*
X532688Y199601D01*
X532906Y199525D01*
X532950Y199516D01*
X532993Y199502D01*
X533221Y199463D01*
X533447Y199419D01*
X533492Y199416D01*
X533537Y199409D01*
X533908Y199391D01*
X545339Y199391D01*
X545339Y192862D01*
X545045Y191006D01*
X544464Y189219D01*
X543611Y187545D01*
X542506Y186024D01*
X541178Y184696D01*
X539657Y183591D01*
X537983Y182738D01*
X537209Y182487D01*
X537209Y188496D01*
X537203Y188581D01*
X537206Y188667D01*
X537183Y188856D01*
X537169Y189046D01*
X537151Y189130D01*
X537141Y189215D01*
X537092Y189398D01*
X537050Y189585D01*
X537020Y189665D01*
X536998Y189748D01*
X536922Y189923D01*
X536855Y190101D01*
X536813Y190175D01*
X536779Y190254D01*
X536679Y190416D01*
X536587Y190583D01*
X536535Y190651D01*
X536490Y190724D01*
X536368Y190870D01*
X536252Y191021D01*
X536191Y191081D01*
X536136Y191147D01*
X535993Y191274D01*
X535857Y191407D01*
X535788Y191457D01*
X535724Y191514D01*
X535565Y191619D01*
X535411Y191731D01*
X535335Y191771D01*
X535264Y191818D01*
X535091Y191899D01*
X534923Y191988D01*
X534842Y192016D01*
X534764Y192052D01*
X534582Y192108D01*
X534402Y192171D01*
X534318Y192187D01*
X534236Y192212D01*
X534048Y192241D01*
X533861Y192277D01*
X533776Y192281D01*
X533691Y192294D01*
X533500Y192295D01*
X533310Y192304D01*
X533225Y192296D01*
X533139Y192296D01*
X532951Y192269D01*
X532761Y192251D01*
X532678Y192231D01*
X532593Y192219D01*
X532410Y192165D01*
X532225Y192119D01*
X532146Y192087D01*
X532064Y192063D01*
X531891Y191983D01*
X531714Y191912D01*
X531640Y191868D01*
X531562Y191833D01*
X531403Y191729D01*
X531238Y191632D01*
X531171Y191579D01*
X531100Y191532D01*
X530957Y191407D01*
X530808Y191287D01*
X530749Y191224D01*
X530685Y191168D01*
X530562Y191023D01*
X530432Y190884D01*
X530383Y190813D01*
X530328Y190748D01*
X530227Y190587D01*
X530118Y190430D01*
X530080Y190353D01*
X530035Y190280D01*
X529958Y190106D01*
X529873Y189935D01*
X529847Y189854D01*
X529812Y189776D01*
X529705Y189420D01*
X529704Y189419D01*
X529704Y189415D01*
X529702Y189411D01*
X529702Y189410D01*
X529656Y189139D01*
X529610Y188875D01*
X529609Y188870D01*
X529609Y188866D01*
X529591Y188495D01*
X529591Y182399D01*
X529400Y182425D01*
X529323Y182424D01*
X529245Y182432D01*
X529047Y182422D01*
X528849Y182421D01*
X528772Y182409D01*
X528694Y182405D01*
X528499Y182367D01*
X528304Y182337D01*
X528229Y182314D01*
X528153Y182299D01*
X527966Y182234D01*
X527776Y182175D01*
X527706Y182142D01*
X527632Y182116D01*
X527457Y182024D01*
X527277Y181939D01*
X527213Y181896D01*
X527144Y181860D01*
X526983Y181743D01*
X526818Y181634D01*
X526760Y181582D01*
X526697Y181536D01*
X526555Y181397D01*
X526408Y181265D01*
X526358Y181205D01*
X526302Y181151D01*
X526182Y180993D01*
X526055Y180841D01*
X526001Y180756D01*
X525967Y180713D01*
X525934Y180653D01*
X525854Y180528D01*
X525683Y180233D01*
X521569Y176119D01*
X516530Y173209D01*
X510909Y171703D01*
X505091Y171703D01*
X499470Y173209D01*
X497205Y174517D01*
X497068Y174584D01*
X496935Y174659D01*
X496820Y174704D01*
X496708Y174758D01*
X496563Y174804D01*
X496421Y174859D01*
X496300Y174887D01*
X496182Y174924D01*
X496032Y174949D01*
X495884Y174983D01*
X495760Y174993D01*
X495638Y175013D01*
X495485Y175015D01*
X495334Y175027D01*
X495210Y175020D01*
X495086Y175022D01*
X494935Y175002D01*
X494783Y174992D01*
X494662Y174967D01*
X494539Y174951D01*
X494392Y174910D01*
X494244Y174878D01*
X494127Y174835D01*
X494008Y174802D01*
X493869Y174740D01*
X493726Y174687D01*
X493569Y174607D01*
X493504Y174578D01*
X493465Y174553D01*
X493395Y174517D01*
X491130Y173209D01*
X485509Y171703D01*
X479691Y171703D01*
X474070Y173209D01*
X471805Y174517D01*
X471668Y174584D01*
X471535Y174659D01*
X471420Y174704D01*
X471308Y174758D01*
X471163Y174804D01*
X471021Y174859D01*
X470900Y174887D01*
X470782Y174924D01*
X470632Y174949D01*
X470484Y174983D01*
X470360Y174993D01*
X470238Y175013D01*
X470085Y175015D01*
X469934Y175027D01*
X469810Y175020D01*
X469686Y175022D01*
X469535Y175002D01*
X469383Y174992D01*
X469262Y174967D01*
X469139Y174951D01*
X468992Y174910D01*
X468844Y174878D01*
X468727Y174835D01*
X468608Y174802D01*
X468469Y174740D01*
X468326Y174687D01*
X468169Y174607D01*
X468104Y174578D01*
X468065Y174553D01*
X467995Y174517D01*
X465730Y173209D01*
X460109Y171703D01*
X454291Y171703D01*
X448670Y173209D01*
X446405Y174517D01*
X446268Y174584D01*
X446135Y174659D01*
X446020Y174704D01*
X445908Y174758D01*
X445763Y174804D01*
X445621Y174859D01*
X445500Y174887D01*
X445382Y174924D01*
X445232Y174949D01*
X445084Y174983D01*
X444960Y174993D01*
X444838Y175013D01*
X444685Y175015D01*
X444534Y175027D01*
X444410Y175020D01*
X444286Y175022D01*
X444135Y175002D01*
X443983Y174992D01*
X443862Y174967D01*
X443739Y174951D01*
X443592Y174910D01*
X443444Y174878D01*
X443327Y174835D01*
X443208Y174802D01*
X443069Y174740D01*
X442926Y174687D01*
X442769Y174607D01*
X442704Y174578D01*
X442665Y174553D01*
X442595Y174517D01*
X440330Y173209D01*
X434709Y171703D01*
X428891Y171703D01*
X423270Y173209D01*
X421005Y174517D01*
X420868Y174584D01*
X420735Y174659D01*
X420620Y174704D01*
X420508Y174758D01*
X420363Y174804D01*
X420221Y174859D01*
X420100Y174887D01*
X419982Y174924D01*
X419832Y174949D01*
X419684Y174983D01*
X419560Y174993D01*
X419438Y175013D01*
X419285Y175015D01*
X419134Y175027D01*
X419010Y175020D01*
X418886Y175022D01*
X418735Y175002D01*
X418583Y174992D01*
X418462Y174967D01*
X418339Y174951D01*
X418192Y174910D01*
X418044Y174878D01*
X417927Y174835D01*
X417808Y174802D01*
X417669Y174740D01*
X417526Y174687D01*
X417369Y174607D01*
X417304Y174578D01*
X417265Y174553D01*
X417195Y174517D01*
X414930Y173209D01*
X409309Y171703D01*
X403491Y171703D01*
X397870Y173209D01*
X392831Y176119D01*
X388717Y180233D01*
X388546Y180528D01*
X388435Y180693D01*
X388330Y180861D01*
X388280Y180920D01*
X388236Y180985D01*
X388103Y181131D01*
X387975Y181283D01*
X387917Y181334D01*
X387864Y181392D01*
X387710Y181517D01*
X387562Y181649D01*
X387497Y181692D01*
X387437Y181741D01*
X387267Y181843D01*
X387101Y181952D01*
X387030Y181984D01*
X386964Y182024D01*
X386780Y182101D01*
X386601Y182184D01*
X386526Y182207D01*
X386454Y182237D01*
X386262Y182286D01*
X386072Y182342D01*
X385995Y182354D01*
X385920Y182373D01*
X385722Y182394D01*
X385526Y182423D01*
X385449Y182423D01*
X385371Y182431D01*
X385173Y182423D01*
X384975Y182423D01*
X384898Y182412D01*
X384820Y182409D01*
X384809Y182407D01*
X384809Y188495D01*
X384809Y188499D01*
X384809Y188504D01*
X384789Y188775D01*
X384769Y189045D01*
X384768Y189050D01*
X384768Y189054D01*
X384696Y189419D01*
X384695Y189420D01*
X384669Y189501D01*
X384650Y189584D01*
X384650Y189585D01*
X384582Y189763D01*
X384523Y189944D01*
X384485Y190021D01*
X384455Y190101D01*
X384362Y190267D01*
X384277Y190438D01*
X384228Y190508D01*
X384187Y190583D01*
X384071Y190735D01*
X383962Y190891D01*
X383904Y190953D01*
X383852Y191021D01*
X383715Y191154D01*
X383585Y191294D01*
X383518Y191347D01*
X383457Y191407D01*
X383303Y191519D01*
X383154Y191638D01*
X383080Y191681D01*
X383011Y191731D01*
X382843Y191820D01*
X382678Y191916D01*
X382598Y191948D01*
X382522Y191988D01*
X382343Y192051D01*
X382166Y192122D01*
X382083Y192143D01*
X382002Y192171D01*
X381815Y192208D01*
X381630Y192253D01*
X381545Y192261D01*
X381461Y192277D01*
X381270Y192287D01*
X381081Y192304D01*
X380995Y192300D01*
X380910Y192304D01*
X380720Y192286D01*
X380530Y192276D01*
X380446Y192259D01*
X380361Y192251D01*
X380176Y192206D01*
X379989Y192169D01*
X379908Y192140D01*
X379825Y192120D01*
X379648Y192048D01*
X379469Y191984D01*
X379393Y191944D01*
X379314Y191912D01*
X379149Y191815D01*
X378981Y191726D01*
X378912Y191676D01*
X378838Y191632D01*
X378689Y191513D01*
X378536Y191401D01*
X378475Y191341D01*
X378408Y191287D01*
X378278Y191148D01*
X378142Y191015D01*
X378090Y190946D01*
X378032Y190884D01*
X377923Y190727D01*
X377808Y190575D01*
X377767Y190500D01*
X377718Y190430D01*
X377633Y190259D01*
X377541Y190092D01*
X377511Y190013D01*
X377473Y189936D01*
X377414Y189754D01*
X377347Y189576D01*
X377329Y189492D01*
X377302Y189411D01*
X377270Y189223D01*
X377229Y189037D01*
X377223Y188952D01*
X377209Y188867D01*
X377191Y188496D01*
X377191Y182487D01*
X376417Y182738D01*
X374743Y183591D01*
X373222Y184696D01*
X371894Y186024D01*
X370789Y187545D01*
X369936Y189219D01*
X369355Y191006D01*
X369061Y192862D01*
X369061Y199391D01*
X380492Y199391D01*
X380537Y199394D01*
X380582Y199392D01*
X380812Y199414D01*
X381042Y199431D01*
X381086Y199440D01*
X381131Y199445D01*
X381355Y199500D01*
X381581Y199550D01*
X381623Y199566D01*
X381667Y199576D01*
X381881Y199663D01*
X382097Y199745D01*
X382136Y199767D01*
X382178Y199784D01*
X382377Y199901D01*
X382579Y200013D01*
X382615Y200041D01*
X382654Y200063D01*
X382834Y200208D01*
X383017Y200348D01*
X383049Y200380D01*
X383084Y200409D01*
X383242Y200578D01*
X383403Y200743D01*
X383429Y200779D01*
X383460Y200812D01*
X383592Y201003D01*
X383727Y201189D01*
X383748Y201229D01*
X383774Y201266D01*
X383877Y201474D01*
X383984Y201677D01*
X383999Y201720D01*
X384019Y201760D01*
X384090Y201980D01*
X384167Y202198D01*
X384176Y202242D01*
X384190Y202285D01*
X384229Y202513D01*
X384273Y202739D01*
X384275Y202784D01*
X384283Y202829D01*
X384301Y203200D01*
X384298Y203245D01*
X384300Y203290D01*
X384278Y203520D01*
X384261Y203750D01*
X384252Y203795D01*
X384247Y203839D01*
X384192Y204063D01*
X384142Y204289D01*
X384126Y204331D01*
X384116Y204375D01*
X384029Y204589D01*
X383947Y204805D01*
X383925Y204844D01*
X383908Y204886D01*
X383791Y205085D01*
X383679Y205287D01*
X383651Y205323D01*
X383628Y205362D01*
X383484Y205542D01*
X383344Y205725D01*
X383312Y205757D01*
X383283Y205792D01*
X383113Y205950D01*
X382949Y206111D01*
X382913Y206137D01*
X382880Y206168D01*
X382689Y206300D01*
X382503Y206435D01*
X382463Y206456D01*
X382426Y206482D01*
X382218Y206585D01*
X382015Y206692D01*
X381972Y206707D01*
X381932Y206727D01*
X381712Y206799D01*
X381494Y206875D01*
X381450Y206884D01*
X381407Y206898D01*
X381179Y206937D01*
X380953Y206981D01*
X380908Y206984D01*
X380863Y206991D01*
X380492Y207009D01*
X369061Y207009D01*
X369061Y213538D01*
X369355Y215394D01*
X369936Y217181D01*
X370789Y218855D01*
X371894Y220376D01*
X373222Y221704D01*
X374743Y222809D01*
X376417Y223662D01*
X377191Y223913D01*
X377191Y217904D01*
X377197Y217819D01*
X377194Y217733D01*
X377217Y217544D01*
X377231Y217354D01*
X377249Y217270D01*
X377259Y217185D01*
X377308Y217001D01*
X377350Y216815D01*
X377380Y216735D01*
X377402Y216652D01*
X377478Y216477D01*
X377545Y216299D01*
X377587Y216224D01*
X377621Y216146D01*
X377721Y215983D01*
X377813Y215817D01*
X377865Y215749D01*
X377910Y215676D01*
X378032Y215530D01*
X378148Y215379D01*
X378209Y215319D01*
X378264Y215253D01*
X378407Y215126D01*
X378543Y214993D01*
X378612Y214943D01*
X378676Y214886D01*
X378835Y214781D01*
X378989Y214669D01*
X379065Y214629D01*
X379136Y214582D01*
X379309Y214501D01*
X379477Y214412D01*
X379558Y214384D01*
X379636Y214347D01*
X379818Y214292D01*
X379998Y214229D01*
X380082Y214212D01*
X380164Y214188D01*
X380352Y214159D01*
X380539Y214123D01*
X380624Y214119D01*
X380709Y214106D01*
X380900Y214105D01*
X381090Y214096D01*
X381175Y214104D01*
X381261Y214104D01*
X381449Y214130D01*
X381639Y214149D01*
X381722Y214169D01*
X381807Y214181D01*
X381990Y214235D01*
X382175Y214280D01*
X382254Y214313D01*
X382336Y214337D01*
X382509Y214416D01*
X382686Y214488D01*
X382760Y214532D01*
X382838Y214567D01*
X382997Y214671D01*
X383162Y214768D01*
X383229Y214821D01*
X383300Y214868D01*
X383443Y214993D01*
X383592Y215113D01*
X383651Y215176D01*
X383715Y215232D01*
X383838Y215377D01*
X383968Y215516D01*
X384017Y215587D01*
X384072Y215652D01*
X384173Y215813D01*
X384282Y215970D01*
X384320Y216047D01*
X384365Y216119D01*
X384442Y216294D01*
X384527Y216464D01*
X384553Y216546D01*
X384588Y216624D01*
X384695Y216980D01*
X384696Y216981D01*
X384696Y216985D01*
X384698Y216989D01*
X384698Y216990D01*
X384744Y217261D01*
X384790Y217525D01*
X384790Y217529D01*
X384791Y217534D01*
X384809Y217905D01*
X384809Y224001D01*
X385000Y223975D01*
X385077Y223976D01*
X385155Y223968D01*
X385353Y223978D01*
X385551Y223979D01*
X385628Y223991D01*
X385706Y223995D01*
X385901Y224033D01*
X386096Y224063D01*
X386171Y224086D01*
X386247Y224101D01*
X386434Y224166D01*
X386624Y224225D01*
X386694Y224258D01*
X386768Y224284D01*
X386943Y224376D01*
X387123Y224461D01*
X387187Y224504D01*
X387256Y224540D01*
X387417Y224657D01*
X387582Y224766D01*
X387640Y224818D01*
X387703Y224864D01*
X387845Y225003D01*
X387992Y225135D01*
X388042Y225195D01*
X388098Y225249D01*
X388218Y225407D01*
X388345Y225559D01*
X388399Y225644D01*
X388433Y225687D01*
X388466Y225747D01*
X388546Y225872D01*
X388717Y226167D01*
X392831Y230281D01*
X397870Y233191D01*
X403491Y234697D01*
X409309Y234697D01*
X413034Y233699D01*
X413298Y233648D01*
X413559Y233597D01*
X413567Y233596D01*
X413576Y233595D01*
X413846Y233583D01*
X414110Y233570D01*
X414119Y233571D01*
X414127Y233570D01*
X414393Y233597D01*
X414659Y233623D01*
X414668Y233625D01*
X414676Y233626D01*
X414935Y233691D01*
X415195Y233755D01*
X415203Y233758D01*
X415211Y233760D01*
X415457Y233861D01*
X415706Y233962D01*
X415713Y233967D01*
X415721Y233970D01*
X415951Y234106D01*
X416182Y234242D01*
X416188Y234247D01*
X416196Y234251D01*
X416401Y234417D01*
X416612Y234587D01*
X416618Y234593D01*
X416624Y234598D01*
X416802Y234790D01*
X416988Y234991D01*
X416993Y234998D01*
X416999Y235004D01*
X417146Y235220D01*
X417302Y235444D01*
X417306Y235452D01*
X417310Y235459D01*
X417426Y235695D01*
X417547Y235939D01*
X417549Y235947D01*
X417553Y235954D01*
X417634Y236206D01*
X417718Y236463D01*
X417719Y236471D01*
X417722Y236480D01*
X417766Y236742D01*
X417811Y237007D01*
X417812Y237017D01*
X417813Y237024D01*
X417813Y237051D01*
X417829Y237378D01*
X417829Y246635D01*
X417814Y246840D01*
X417807Y247046D01*
X417794Y247115D01*
X417789Y247186D01*
X417745Y247387D01*
X417708Y247588D01*
X417686Y247655D01*
X417670Y247724D01*
X417597Y247916D01*
X417532Y248111D01*
X417500Y248174D01*
X417475Y248240D01*
X417375Y248420D01*
X417282Y248603D01*
X417241Y248661D01*
X417207Y248722D01*
X417082Y248885D01*
X416963Y249053D01*
X416903Y249120D01*
X416872Y249161D01*
X416821Y249210D01*
X416714Y249329D01*
X380393Y285650D01*
X380238Y285783D01*
X380087Y285924D01*
X380029Y285964D01*
X379976Y286010D01*
X379802Y286121D01*
X379633Y286238D01*
X379570Y286269D01*
X379510Y286307D01*
X379323Y286391D01*
X379139Y286483D01*
X379072Y286505D01*
X379007Y286534D01*
X378810Y286590D01*
X378614Y286654D01*
X378545Y286666D01*
X378477Y286685D01*
X378273Y286712D01*
X378071Y286747D01*
X377980Y286752D01*
X377930Y286758D01*
X377860Y286757D01*
X377699Y286765D01*
X290960Y286765D01*
X285825Y288892D01*
X209704Y365014D01*
X209582Y365119D01*
X209467Y365231D01*
X209374Y365299D01*
X209286Y365375D01*
X209151Y365461D01*
X209021Y365555D01*
X208919Y365609D01*
X208821Y365671D01*
X208675Y365737D01*
X208533Y365812D01*
X208424Y365850D01*
X208318Y365898D01*
X208164Y365942D01*
X208012Y365995D01*
X207899Y366017D01*
X207788Y366049D01*
X207628Y366071D01*
X207471Y366101D01*
X207356Y366107D01*
X207241Y366122D01*
X207080Y366121D01*
X206920Y366128D01*
X206805Y366117D01*
X206689Y366116D01*
X206530Y366091D01*
X206371Y366075D01*
X206259Y366048D01*
X206144Y366030D01*
X205991Y365982D01*
X205835Y365944D01*
X205728Y365900D01*
X205618Y365866D01*
X205473Y365796D01*
X205324Y365736D01*
X205224Y365678D01*
X205120Y365628D01*
X204987Y365538D01*
X204848Y365457D01*
X204758Y365384D01*
X204662Y365320D01*
X204543Y365212D01*
X204418Y365112D01*
X204339Y365027D01*
X204253Y364949D01*
X204151Y364825D01*
X204042Y364708D01*
X203976Y364613D01*
X203903Y364524D01*
X203819Y364386D01*
X203728Y364254D01*
X203677Y364150D01*
X203617Y364052D01*
X203555Y363904D01*
X203483Y363760D01*
X203447Y363650D01*
X203402Y363543D01*
X203362Y363388D01*
X203312Y363235D01*
X203293Y363121D01*
X203264Y363009D01*
X203246Y362850D01*
X203219Y362692D01*
X203211Y362531D01*
X203203Y362461D01*
X203205Y362410D01*
X203201Y362320D01*
X203201Y188985D01*
X203217Y188755D01*
X203228Y188526D01*
X203237Y188481D01*
X203241Y188434D01*
X203290Y188209D01*
X203334Y187984D01*
X203350Y187941D01*
X203360Y187896D01*
X203441Y187680D01*
X203517Y187464D01*
X203539Y187423D01*
X203555Y187380D01*
X203667Y187179D01*
X203774Y186975D01*
X203801Y186938D01*
X203823Y186898D01*
X203963Y186715D01*
X204098Y186529D01*
X204130Y186496D01*
X204158Y186459D01*
X204322Y186299D01*
X204483Y186134D01*
X204520Y186106D01*
X204553Y186074D01*
X204738Y185939D01*
X204921Y185799D01*
X204962Y185777D01*
X204999Y185749D01*
X205202Y185643D01*
X205403Y185531D01*
X205447Y185514D01*
X205487Y185493D01*
X205704Y185417D01*
X205919Y185335D01*
X205964Y185325D01*
X206008Y185309D01*
X206233Y185265D01*
X206458Y185216D01*
X206504Y185212D01*
X206549Y185203D01*
X206778Y185192D01*
X207008Y185175D01*
X207054Y185179D01*
X207100Y185176D01*
X207329Y185198D01*
X207558Y185215D01*
X207603Y185225D01*
X207649Y185229D01*
X207872Y185284D01*
X208097Y185334D01*
X208140Y185350D01*
X208185Y185361D01*
X208398Y185447D01*
X208613Y185529D01*
X208653Y185551D01*
X208696Y185569D01*
X208894Y185685D01*
X209095Y185797D01*
X209132Y185825D01*
X209172Y185848D01*
X209351Y185992D01*
X209534Y186131D01*
X209566Y186164D01*
X209602Y186193D01*
X209759Y186362D01*
X209919Y186526D01*
X209946Y186563D01*
X209978Y186597D01*
X210109Y186786D01*
X210244Y186972D01*
X210266Y187013D01*
X210292Y187051D01*
X210394Y187257D01*
X210501Y187460D01*
X210521Y187514D01*
X210537Y187545D01*
X210559Y187612D01*
X210633Y187807D01*
X212199Y192628D01*
X218205Y200895D01*
X226472Y206901D01*
X236191Y210059D01*
X246409Y210059D01*
X256128Y206901D01*
X264395Y200895D01*
X270401Y192628D01*
X273559Y182909D01*
X273559Y172691D01*
X270401Y162972D01*
X264395Y154705D01*
X256128Y148699D01*
X246409Y145541D01*
X236191Y145541D01*
X226472Y148699D01*
X218205Y154705D01*
X212199Y162972D01*
X210633Y167793D01*
X210546Y168006D01*
X210465Y168220D01*
X210442Y168261D01*
X210425Y168304D01*
X210308Y168502D01*
X210197Y168702D01*
X210169Y168739D01*
X210145Y168779D01*
X210002Y168958D01*
X209862Y169141D01*
X209829Y169173D01*
X209800Y169209D01*
X209632Y169366D01*
X209467Y169526D01*
X209430Y169553D01*
X209396Y169585D01*
X209206Y169716D01*
X209021Y169851D01*
X208980Y169872D01*
X208942Y169898D01*
X208736Y170000D01*
X208533Y170107D01*
X208489Y170123D01*
X208447Y170143D01*
X208229Y170214D01*
X208012Y170291D01*
X207967Y170299D01*
X207923Y170314D01*
X207696Y170353D01*
X207471Y170397D01*
X207425Y170399D01*
X207379Y170407D01*
X207149Y170412D01*
X206920Y170424D01*
X206874Y170419D01*
X206828Y170420D01*
X206599Y170393D01*
X206371Y170371D01*
X206326Y170360D01*
X206280Y170354D01*
X206058Y170294D01*
X205835Y170239D01*
X205792Y170222D01*
X205747Y170209D01*
X205537Y170118D01*
X205324Y170031D01*
X205284Y170008D01*
X205242Y169989D01*
X205047Y169868D01*
X204848Y169752D01*
X204812Y169723D01*
X204773Y169699D01*
X204598Y169551D01*
X204418Y169407D01*
X204386Y169373D01*
X204351Y169343D01*
X204199Y169172D01*
X204042Y169003D01*
X204016Y168965D01*
X203985Y168930D01*
X203859Y168739D01*
X203728Y168549D01*
X203707Y168508D01*
X203682Y168469D01*
X203585Y168261D01*
X203483Y168055D01*
X203469Y168011D01*
X203449Y167969D01*
X203383Y167749D01*
X203312Y167530D01*
X203304Y167485D01*
X203291Y167441D01*
X203258Y167214D01*
X203219Y166987D01*
X203216Y166929D01*
X203211Y166895D01*
X203211Y166824D01*
X203201Y166615D01*
X203201Y130810D01*
X203204Y130765D01*
X203202Y130720D01*
X203224Y130490D01*
X203241Y130260D01*
X203250Y130216D01*
X203255Y130171D01*
X203310Y129947D01*
X203360Y129721D01*
X203376Y129679D01*
X203386Y129635D01*
X203473Y129421D01*
X203555Y129205D01*
X203577Y129166D01*
X203594Y129124D01*
X203711Y128925D01*
X203823Y128723D01*
X203851Y128687D01*
X203874Y128648D01*
X204018Y128468D01*
X204158Y128285D01*
X204190Y128253D01*
X204219Y128218D01*
X204389Y128060D01*
X204553Y127899D01*
X204589Y127873D01*
X204622Y127842D01*
X204813Y127710D01*
X204999Y127575D01*
X205039Y127554D01*
X205076Y127528D01*
X205284Y127425D01*
X205487Y127318D01*
X205530Y127303D01*
X205570Y127283D01*
X205790Y127212D01*
X206008Y127135D01*
X206052Y127126D01*
X206095Y127112D01*
X206323Y127073D01*
X206549Y127029D01*
X206594Y127027D01*
X206639Y127019D01*
X207010Y127001D01*
X653290Y127001D01*
X653335Y127004D01*
G37*
%LPC*%
G36*
X583583Y219599D02*
X583583Y219599D01*
X575607Y222903D01*
X569503Y229007D01*
X566199Y236983D01*
X566199Y245617D01*
X569068Y252542D01*
X569133Y252737D01*
X569205Y252930D01*
X569219Y252999D01*
X569242Y253066D01*
X569277Y253268D01*
X569321Y253469D01*
X569326Y253540D01*
X569338Y253609D01*
X569344Y253815D01*
X569358Y254020D01*
X569352Y254090D01*
X569355Y254161D01*
X569331Y254365D01*
X569315Y254570D01*
X569300Y254638D01*
X569291Y254709D01*
X569239Y254907D01*
X569193Y255108D01*
X569163Y255193D01*
X569150Y255242D01*
X569122Y255306D01*
X569068Y255458D01*
X566199Y262383D01*
X566199Y271017D01*
X569503Y278993D01*
X575607Y285097D01*
X583583Y288401D01*
X610217Y288401D01*
X618193Y285097D01*
X624297Y278993D01*
X627601Y271017D01*
X627601Y262383D01*
X624732Y255458D01*
X624667Y255262D01*
X624595Y255070D01*
X624581Y255001D01*
X624558Y254934D01*
X624522Y254731D01*
X624479Y254531D01*
X624474Y254461D01*
X624462Y254391D01*
X624456Y254185D01*
X624442Y253980D01*
X624448Y253910D01*
X624445Y253839D01*
X624469Y253635D01*
X624485Y253430D01*
X624500Y253362D01*
X624509Y253291D01*
X624561Y253093D01*
X624607Y252892D01*
X624637Y252807D01*
X624650Y252758D01*
X624678Y252694D01*
X624732Y252542D01*
X627601Y245617D01*
X627601Y236983D01*
X624297Y229007D01*
X618193Y222903D01*
X610217Y219599D01*
X583583Y219599D01*
G37*
%LPD*%
%LPC*%
G36*
X604491Y145541D02*
X604491Y145541D01*
X594772Y148699D01*
X586505Y154705D01*
X580499Y162972D01*
X577341Y172691D01*
X577341Y182909D01*
X580499Y192628D01*
X586505Y200895D01*
X594772Y206901D01*
X604491Y210059D01*
X614709Y210059D01*
X624428Y206901D01*
X632695Y200895D01*
X638701Y192628D01*
X641859Y182909D01*
X641859Y172691D01*
X638701Y162972D01*
X632695Y154705D01*
X624428Y148699D01*
X614709Y145541D01*
X604491Y145541D01*
G37*
%LPD*%
G36*
X271348Y509149D02*
X271348Y509149D01*
X271544Y509156D01*
X271623Y509170D01*
X271703Y509177D01*
X271895Y509220D01*
X272087Y509255D01*
X272163Y509281D01*
X272241Y509298D01*
X272591Y509424D01*
X277128Y511303D01*
X280889Y511303D01*
X281094Y511318D01*
X281300Y511325D01*
X281369Y511338D01*
X281439Y511343D01*
X281641Y511387D01*
X281842Y511424D01*
X281909Y511446D01*
X281978Y511462D01*
X282170Y511535D01*
X282365Y511600D01*
X282428Y511632D01*
X282494Y511657D01*
X282673Y511757D01*
X282857Y511850D01*
X282914Y511891D01*
X282976Y511925D01*
X283139Y512050D01*
X283307Y512169D01*
X283374Y512229D01*
X283415Y512260D01*
X283464Y512311D01*
X283583Y512418D01*
X288081Y516917D01*
X294150Y519431D01*
X358650Y519431D01*
X358695Y519434D01*
X358740Y519432D01*
X358970Y519454D01*
X359200Y519471D01*
X359244Y519480D01*
X359289Y519485D01*
X359513Y519540D01*
X359739Y519590D01*
X359781Y519606D01*
X359825Y519616D01*
X360039Y519703D01*
X360255Y519785D01*
X360294Y519807D01*
X360336Y519824D01*
X360535Y519941D01*
X360737Y520053D01*
X360773Y520081D01*
X360812Y520104D01*
X360992Y520248D01*
X361175Y520388D01*
X361207Y520420D01*
X361242Y520449D01*
X361400Y520619D01*
X361561Y520783D01*
X361587Y520819D01*
X361618Y520852D01*
X361750Y521043D01*
X361885Y521229D01*
X361906Y521269D01*
X361932Y521306D01*
X362035Y521514D01*
X362142Y521717D01*
X362157Y521760D01*
X362177Y521800D01*
X362248Y522020D01*
X362325Y522238D01*
X362334Y522282D01*
X362348Y522325D01*
X362387Y522553D01*
X362431Y522779D01*
X362433Y522824D01*
X362441Y522869D01*
X362459Y523240D01*
X362459Y528450D01*
X362557Y528941D01*
X362748Y529404D01*
X363027Y529820D01*
X363380Y530173D01*
X363796Y530452D01*
X364259Y530643D01*
X364750Y530741D01*
X368760Y530741D01*
X368885Y530750D01*
X369011Y530749D01*
X369160Y530770D01*
X369310Y530781D01*
X369433Y530808D01*
X369557Y530825D01*
X369701Y530867D01*
X369849Y530900D01*
X369966Y530944D01*
X370087Y530979D01*
X370224Y531042D01*
X370365Y531095D01*
X370474Y531156D01*
X370588Y531208D01*
X370715Y531290D01*
X370847Y531363D01*
X370947Y531440D01*
X371052Y531507D01*
X371165Y531606D01*
X371285Y531698D01*
X371373Y531788D01*
X371467Y531870D01*
X371565Y531985D01*
X371671Y532093D01*
X371744Y532194D01*
X371826Y532290D01*
X371907Y532417D01*
X371995Y532539D01*
X372053Y532650D01*
X372120Y532756D01*
X372221Y532969D01*
X372252Y533027D01*
X372261Y533053D01*
X372261Y533054D01*
X372268Y533068D01*
X372271Y533074D01*
X372279Y533092D01*
X373233Y535394D01*
X374895Y537056D01*
X374924Y537091D01*
X374958Y537121D01*
X375105Y537299D01*
X375256Y537474D01*
X375280Y537512D01*
X375309Y537547D01*
X375428Y537744D01*
X375552Y537939D01*
X375571Y537980D01*
X375594Y538019D01*
X375684Y538231D01*
X375779Y538442D01*
X375791Y538485D01*
X375809Y538527D01*
X375867Y538750D01*
X375930Y538972D01*
X375936Y539017D01*
X375948Y539061D01*
X375973Y539290D01*
X376004Y539519D01*
X376003Y539564D01*
X376008Y539609D01*
X376000Y539840D01*
X375997Y540071D01*
X375990Y540115D01*
X375988Y540161D01*
X375947Y540387D01*
X375911Y540616D01*
X375898Y540659D01*
X375889Y540703D01*
X375816Y540922D01*
X375747Y541142D01*
X375727Y541183D01*
X375713Y541226D01*
X375609Y541431D01*
X375509Y541640D01*
X375483Y541678D01*
X375463Y541718D01*
X375330Y541906D01*
X375201Y542098D01*
X375171Y542131D01*
X375145Y542168D01*
X374895Y542444D01*
X373233Y544106D01*
X372279Y546408D01*
X372223Y546520D01*
X372176Y546636D01*
X372099Y546766D01*
X372032Y546901D01*
X371960Y547004D01*
X371896Y547112D01*
X371802Y547229D01*
X371716Y547353D01*
X371630Y547444D01*
X371551Y547542D01*
X371441Y547645D01*
X371338Y547755D01*
X371240Y547832D01*
X371148Y547918D01*
X371023Y548004D01*
X370905Y548098D01*
X370797Y548160D01*
X370694Y548232D01*
X370559Y548299D01*
X370428Y548374D01*
X370312Y548421D01*
X370200Y548477D01*
X370056Y548524D01*
X369916Y548580D01*
X369794Y548609D01*
X369675Y548648D01*
X369526Y548673D01*
X369380Y548708D01*
X369255Y548720D01*
X369131Y548741D01*
X368896Y548753D01*
X368830Y548759D01*
X368803Y548757D01*
X368760Y548759D01*
X364750Y548759D01*
X364259Y548857D01*
X363796Y549048D01*
X363380Y549327D01*
X363027Y549680D01*
X362748Y550096D01*
X362557Y550559D01*
X362459Y551050D01*
X362459Y551314D01*
X362456Y551359D01*
X362458Y551404D01*
X362436Y551634D01*
X362419Y551864D01*
X362410Y551908D01*
X362405Y551953D01*
X362350Y552177D01*
X362300Y552403D01*
X362284Y552445D01*
X362274Y552489D01*
X362187Y552703D01*
X362105Y552919D01*
X362083Y552958D01*
X362066Y553000D01*
X361949Y553199D01*
X361837Y553401D01*
X361809Y553437D01*
X361786Y553476D01*
X361642Y553656D01*
X361502Y553839D01*
X361470Y553871D01*
X361441Y553906D01*
X361271Y554064D01*
X361107Y554225D01*
X361071Y554251D01*
X361038Y554282D01*
X360847Y554414D01*
X360661Y554549D01*
X360621Y554570D01*
X360584Y554596D01*
X360376Y554699D01*
X360173Y554806D01*
X360130Y554821D01*
X360090Y554841D01*
X359870Y554912D01*
X359652Y554989D01*
X359608Y554998D01*
X359565Y555012D01*
X359337Y555051D01*
X359111Y555095D01*
X359066Y555097D01*
X359021Y555105D01*
X358650Y555123D01*
X309505Y555123D01*
X309300Y555108D01*
X309094Y555101D01*
X309025Y555088D01*
X308954Y555083D01*
X308753Y555039D01*
X308552Y555002D01*
X308485Y554980D01*
X308416Y554964D01*
X308224Y554891D01*
X308029Y554826D01*
X307966Y554794D01*
X307900Y554769D01*
X307720Y554669D01*
X307537Y554576D01*
X307479Y554535D01*
X307418Y554501D01*
X307254Y554376D01*
X307087Y554257D01*
X307020Y554197D01*
X306979Y554166D01*
X306930Y554115D01*
X306811Y554008D01*
X268440Y515637D01*
X268388Y515576D01*
X268329Y515521D01*
X268208Y515368D01*
X268079Y515219D01*
X268036Y515151D01*
X267986Y515089D01*
X267888Y514920D01*
X267783Y514754D01*
X267750Y514681D01*
X267709Y514611D01*
X267637Y514430D01*
X267556Y514251D01*
X267534Y514174D01*
X267504Y514099D01*
X267458Y513909D01*
X267405Y513721D01*
X267394Y513641D01*
X267375Y513563D01*
X267357Y513368D01*
X267331Y513174D01*
X267332Y513093D01*
X267325Y513013D01*
X267336Y512818D01*
X267338Y512622D01*
X267351Y512543D01*
X267355Y512463D01*
X267394Y512271D01*
X267424Y512077D01*
X267448Y512001D01*
X267464Y511922D01*
X267530Y511738D01*
X267588Y511551D01*
X267623Y511478D01*
X267650Y511402D01*
X267742Y511230D01*
X267826Y511053D01*
X267871Y510986D01*
X267909Y510915D01*
X268025Y510758D01*
X268134Y510595D01*
X268188Y510536D01*
X268236Y510471D01*
X268373Y510331D01*
X268505Y510187D01*
X268567Y510135D01*
X268623Y510078D01*
X268779Y509960D01*
X268930Y509836D01*
X268999Y509794D01*
X269063Y509746D01*
X269235Y509651D01*
X269402Y509550D01*
X269476Y509519D01*
X269547Y509480D01*
X269730Y509412D01*
X269911Y509336D01*
X269988Y509315D01*
X270064Y509287D01*
X270255Y509246D01*
X270444Y509197D01*
X270524Y509188D01*
X270603Y509171D01*
X270798Y509158D01*
X270993Y509136D01*
X271073Y509139D01*
X271153Y509134D01*
X271348Y509149D01*
G37*
G36*
X358695Y360938D02*
X358695Y360938D01*
X358740Y360936D01*
X358970Y360958D01*
X359200Y360975D01*
X359244Y360984D01*
X359289Y360989D01*
X359513Y361044D01*
X359739Y361094D01*
X359781Y361110D01*
X359825Y361120D01*
X360039Y361207D01*
X360255Y361289D01*
X360294Y361311D01*
X360336Y361328D01*
X360535Y361445D01*
X360737Y361557D01*
X360773Y361585D01*
X360812Y361608D01*
X360992Y361752D01*
X361175Y361892D01*
X361207Y361924D01*
X361242Y361953D01*
X361400Y362123D01*
X361561Y362287D01*
X361587Y362323D01*
X361618Y362356D01*
X361750Y362547D01*
X361885Y362733D01*
X361906Y362773D01*
X361932Y362810D01*
X362035Y363018D01*
X362142Y363221D01*
X362157Y363264D01*
X362177Y363304D01*
X362248Y363524D01*
X362325Y363742D01*
X362334Y363786D01*
X362348Y363829D01*
X362387Y364057D01*
X362431Y364283D01*
X362433Y364328D01*
X362441Y364373D01*
X362447Y364491D01*
X367490Y364491D01*
X367535Y364494D01*
X367580Y364492D01*
X367810Y364514D01*
X368040Y364531D01*
X368084Y364540D01*
X368129Y364545D01*
X368353Y364600D01*
X368579Y364650D01*
X368621Y364666D01*
X368665Y364676D01*
X368879Y364763D01*
X369095Y364845D01*
X369134Y364867D01*
X369176Y364884D01*
X369375Y365001D01*
X369577Y365113D01*
X369613Y365141D01*
X369652Y365163D01*
X369832Y365308D01*
X370015Y365448D01*
X370047Y365480D01*
X370082Y365509D01*
X370240Y365678D01*
X370401Y365843D01*
X370427Y365879D01*
X370458Y365912D01*
X370590Y366103D01*
X370725Y366289D01*
X370746Y366329D01*
X370772Y366366D01*
X370875Y366574D01*
X370982Y366777D01*
X370997Y366820D01*
X371017Y366860D01*
X371088Y367080D01*
X371165Y367298D01*
X371174Y367342D01*
X371188Y367385D01*
X371227Y367613D01*
X371271Y367839D01*
X371273Y367884D01*
X371281Y367929D01*
X371299Y368300D01*
X371296Y368345D01*
X371298Y368390D01*
X371276Y368620D01*
X371259Y368850D01*
X371250Y368895D01*
X371245Y368939D01*
X371190Y369163D01*
X371140Y369389D01*
X371124Y369431D01*
X371114Y369475D01*
X371027Y369689D01*
X370945Y369905D01*
X370923Y369944D01*
X370906Y369986D01*
X370789Y370185D01*
X370677Y370387D01*
X370649Y370423D01*
X370626Y370462D01*
X370482Y370642D01*
X370342Y370825D01*
X370310Y370857D01*
X370281Y370892D01*
X370111Y371050D01*
X369947Y371211D01*
X369911Y371237D01*
X369878Y371268D01*
X369687Y371400D01*
X369501Y371535D01*
X369461Y371556D01*
X369424Y371582D01*
X369216Y371685D01*
X369013Y371792D01*
X368970Y371807D01*
X368930Y371827D01*
X368710Y371899D01*
X368492Y371975D01*
X368448Y371984D01*
X368405Y371998D01*
X368177Y372037D01*
X367951Y372081D01*
X367906Y372084D01*
X367861Y372091D01*
X367490Y372109D01*
X362459Y372109D01*
X362459Y376050D01*
X362589Y376701D01*
X362606Y376843D01*
X362634Y376983D01*
X362640Y377116D01*
X362657Y377248D01*
X362654Y377391D01*
X362661Y377534D01*
X362648Y377667D01*
X362645Y377800D01*
X362622Y377941D01*
X362608Y378083D01*
X362576Y378212D01*
X362554Y378344D01*
X362510Y378480D01*
X362476Y378619D01*
X362426Y378742D01*
X362385Y378869D01*
X362322Y378997D01*
X362268Y379130D01*
X362201Y379245D01*
X362142Y379364D01*
X362062Y379482D01*
X361989Y379606D01*
X361906Y379710D01*
X361830Y379819D01*
X361734Y379924D01*
X361644Y380036D01*
X361546Y380127D01*
X361456Y380225D01*
X361345Y380315D01*
X361240Y380412D01*
X361131Y380488D01*
X361027Y380572D01*
X360904Y380644D01*
X360786Y380726D01*
X360667Y380785D01*
X360553Y380853D01*
X360420Y380907D01*
X360292Y380971D01*
X360166Y381012D01*
X360042Y381063D01*
X359903Y381097D01*
X359768Y381142D01*
X359637Y381164D01*
X359507Y381197D01*
X359365Y381211D01*
X359224Y381235D01*
X359030Y381245D01*
X358958Y381252D01*
X358919Y381250D01*
X358853Y381253D01*
X341645Y381253D01*
X336510Y383380D01*
X328577Y391314D01*
X328422Y391447D01*
X328271Y391588D01*
X328213Y391628D01*
X328160Y391674D01*
X327986Y391785D01*
X327817Y391902D01*
X327754Y391933D01*
X327694Y391971D01*
X327507Y392055D01*
X327323Y392147D01*
X327256Y392169D01*
X327191Y392198D01*
X326994Y392254D01*
X326798Y392318D01*
X326729Y392330D01*
X326661Y392349D01*
X326457Y392376D01*
X326255Y392411D01*
X326164Y392416D01*
X326114Y392422D01*
X326044Y392421D01*
X325883Y392429D01*
X308164Y392429D01*
X308154Y392429D01*
X308144Y392429D01*
X307881Y392409D01*
X307614Y392389D01*
X307604Y392387D01*
X307594Y392386D01*
X307337Y392328D01*
X307075Y392270D01*
X307066Y392267D01*
X307056Y392265D01*
X306706Y392139D01*
X302500Y390397D01*
X277621Y390397D01*
X277460Y390386D01*
X277300Y390384D01*
X277186Y390366D01*
X277070Y390357D01*
X276914Y390323D01*
X276755Y390298D01*
X276645Y390263D01*
X276532Y390238D01*
X276381Y390181D01*
X276228Y390134D01*
X276124Y390084D01*
X276016Y390043D01*
X275876Y389965D01*
X275731Y389895D01*
X275635Y389831D01*
X275534Y389775D01*
X275406Y389677D01*
X275273Y389588D01*
X275187Y389510D01*
X275095Y389440D01*
X274983Y389325D01*
X274864Y389217D01*
X274790Y389128D01*
X274710Y389045D01*
X274616Y388916D01*
X274513Y388791D01*
X274453Y388692D01*
X274385Y388599D01*
X274311Y388457D01*
X274228Y388319D01*
X274183Y388213D01*
X274129Y388111D01*
X274076Y387959D01*
X274013Y387811D01*
X273984Y387699D01*
X273946Y387590D01*
X273915Y387433D01*
X273874Y387277D01*
X273862Y387162D01*
X273839Y387049D01*
X273832Y386889D01*
X273814Y386729D01*
X273818Y386613D01*
X273812Y386498D01*
X273828Y386338D01*
X273834Y386178D01*
X273854Y386064D01*
X273865Y385949D01*
X273904Y385793D01*
X273933Y385635D01*
X273970Y385525D01*
X273997Y385413D01*
X274058Y385264D01*
X274109Y385112D01*
X274161Y385009D01*
X274205Y384902D01*
X274286Y384763D01*
X274359Y384620D01*
X274426Y384526D01*
X274484Y384426D01*
X274585Y384301D01*
X274677Y384170D01*
X274785Y384051D01*
X274829Y383996D01*
X274867Y383961D01*
X274927Y383894D01*
X296771Y362050D01*
X296926Y361916D01*
X297077Y361776D01*
X297135Y361736D01*
X297188Y361690D01*
X297362Y361579D01*
X297531Y361462D01*
X297594Y361431D01*
X297654Y361393D01*
X297841Y361309D01*
X298025Y361217D01*
X298092Y361195D01*
X298157Y361166D01*
X298354Y361110D01*
X298550Y361046D01*
X298619Y361034D01*
X298687Y361015D01*
X298891Y360988D01*
X299093Y360953D01*
X299184Y360948D01*
X299234Y360942D01*
X299304Y360943D01*
X299465Y360935D01*
X358650Y360935D01*
X358695Y360938D01*
G37*
D10*
X228346Y495300D03*
X289814Y495300D03*
X228346Y482600D03*
X228346Y469900D03*
X289814Y482600D03*
X289814Y469900D03*
X228346Y457200D03*
X289814Y457200D03*
X228346Y444500D03*
X289814Y444500D03*
X228346Y431800D03*
X228346Y419100D03*
X289814Y431800D03*
X289814Y419100D03*
X228346Y406400D03*
X289814Y406400D03*
D11*
X381000Y212598D02*
X381000Y193802D01*
X406400Y193802D02*
X406400Y212598D01*
X431800Y212598D02*
X431800Y193802D01*
X457200Y193802D02*
X457200Y212598D01*
X482600Y212598D02*
X482600Y193802D01*
X508000Y193802D02*
X508000Y212598D01*
X533400Y212598D02*
X533400Y193802D01*
X381000Y663702D02*
X381000Y682498D01*
X406400Y682498D02*
X406400Y663702D01*
X431800Y663702D02*
X431800Y682498D01*
X457200Y682498D02*
X457200Y663702D01*
X482600Y663702D02*
X482600Y682498D01*
X508000Y682498D02*
X508000Y663702D01*
X533400Y663702D02*
X533400Y682498D01*
D12*
X544400Y596900D03*
X522400Y587400D03*
X522400Y606400D03*
X544400Y558800D03*
X522400Y549300D03*
X522400Y568300D03*
X544400Y508000D03*
X522400Y498500D03*
X522400Y517500D03*
X544400Y469900D03*
X522400Y460400D03*
X522400Y479400D03*
X544400Y431800D03*
X522400Y422300D03*
X522400Y441300D03*
X544400Y393700D03*
X522400Y384200D03*
X522400Y403200D03*
X544400Y355600D03*
X522400Y346100D03*
X522400Y365100D03*
X544400Y317500D03*
X522400Y308000D03*
X522400Y327000D03*
D13*
X473100Y596900D03*
X492100Y596900D03*
X371500Y558800D03*
X390500Y558800D03*
X371500Y520700D03*
X390500Y520700D03*
X371500Y482600D03*
X390500Y482600D03*
X371500Y444500D03*
X390500Y444500D03*
X371500Y406400D03*
X390500Y406400D03*
X371500Y368300D03*
X390500Y368300D03*
X371500Y330200D03*
X390500Y330200D03*
X473100Y558800D03*
X492100Y558800D03*
X473100Y520700D03*
X492100Y520700D03*
X473100Y482600D03*
X492100Y482600D03*
X473100Y444500D03*
X492100Y444500D03*
X473100Y406400D03*
X492100Y406400D03*
X473100Y368300D03*
X492100Y368300D03*
X473100Y330200D03*
X492100Y330200D03*
X371500Y596900D03*
X390500Y596900D03*
D14*
X587900Y584200D02*
X605900Y584200D01*
X605900Y558800D02*
X587900Y558800D01*
X587900Y508000D02*
X605900Y508000D01*
X605900Y482600D02*
X587900Y482600D01*
X587900Y431800D02*
X605900Y431800D01*
X605900Y406400D02*
X587900Y406400D01*
X587900Y355600D02*
X605900Y355600D01*
X605900Y330200D02*
X587900Y330200D01*
X587900Y241300D02*
X605900Y241300D01*
X605900Y266700D02*
X587900Y266700D01*
D15*
X424300Y596900D03*
X439300Y596900D03*
X424300Y558800D03*
X439300Y558800D03*
X424300Y520700D03*
X439300Y520700D03*
X424300Y482600D03*
X439300Y482600D03*
X424300Y444500D03*
X439300Y444500D03*
X424300Y406400D03*
X439300Y406400D03*
X424300Y368300D03*
X439300Y368300D03*
X424300Y330200D03*
X439300Y330200D03*
D16*
X342900Y596900D03*
X342900Y558800D03*
X342900Y520700D03*
X342900Y482600D03*
X342900Y444500D03*
X342900Y406400D03*
X342900Y368300D03*
X342900Y330200D03*
D17*
X342900Y596900D02*
X371500Y596900D01*
X371500Y558800D02*
X342900Y558800D01*
X342900Y520700D02*
X371500Y520700D01*
X371500Y482600D02*
X342900Y482600D01*
X342900Y444500D02*
X371500Y444500D01*
X371500Y406400D02*
X342900Y406400D01*
X342900Y368300D02*
X371500Y368300D01*
X371500Y330200D02*
X342900Y330200D01*
D16*
X228600Y381000D03*
D18*
X289814Y457200D02*
X330200Y457200D01*
X342900Y444500D01*
X228600Y406146D02*
X228346Y406400D01*
X228600Y406146D02*
X228600Y381000D01*
D17*
X289814Y495300D02*
X297434Y502920D01*
X406400Y502920D01*
X406400Y508000D01*
D16*
X406400Y508000D03*
D17*
X362657Y419100D02*
X289814Y419100D01*
X362657Y419100D02*
X362791Y419234D01*
X399209Y419234D02*
X399343Y419100D01*
X406400Y419100D01*
X399209Y419234D02*
X362791Y419234D01*
D16*
X406400Y419100D03*
D18*
X293739Y300736D02*
X211328Y383147D01*
X278148Y469900D02*
X289814Y469900D01*
X272052Y475996D02*
X217029Y475996D01*
X272052Y475996D02*
X278148Y469900D01*
X211328Y470295D02*
X211328Y383147D01*
X211328Y470295D02*
X217029Y475996D01*
X431800Y254000D02*
X431800Y203200D01*
X431800Y254000D02*
X385064Y300736D01*
X293739Y300736D01*
X289814Y431800D02*
X324453Y431800D01*
X330175Y426078D01*
X450222Y426078D02*
X457200Y419100D01*
X450222Y426078D02*
X330175Y426078D01*
D16*
X457200Y419100D03*
D18*
X333248Y406400D02*
X289814Y406400D01*
X333248Y406400D02*
X344424Y395224D01*
X480568Y395224D01*
X482600Y397256D01*
X431800Y647700D02*
X431800Y673100D01*
X431800Y647700D02*
X457200Y622300D01*
X469900Y622300D01*
X482600Y609600D01*
X482600Y397256D01*
D16*
X482600Y304800D03*
D18*
X215392Y384830D02*
X215392Y448959D01*
X215392Y384830D02*
X295422Y304800D01*
X482600Y304800D01*
X217029Y450596D02*
X215392Y448959D01*
X278148Y444500D02*
X289814Y444500D01*
X278148Y444500D02*
X272052Y450596D01*
X217029Y450596D01*
D17*
X519200Y520700D02*
X522400Y517500D01*
X519200Y520700D02*
X492100Y520700D01*
X492100Y558800D02*
X501600Y568300D01*
X522400Y568300D01*
X522400Y606400D02*
X501600Y606400D01*
X492100Y596900D01*
X519200Y482600D02*
X522400Y479400D01*
X519200Y482600D02*
X492100Y482600D01*
X519200Y406400D02*
X522400Y403200D01*
X519200Y406400D02*
X492100Y406400D01*
X522400Y441300D02*
X519200Y444500D01*
X492100Y444500D01*
X519200Y368300D02*
X522400Y365100D01*
X519200Y368300D02*
X492100Y368300D01*
X519200Y330200D02*
X522400Y327000D01*
X519200Y330200D02*
X492100Y330200D01*
X473100Y558800D02*
X439300Y558800D01*
D18*
X435869Y558800D01*
X425575Y569094D01*
X302140Y569094D02*
X228346Y495300D01*
X302140Y569094D02*
X425575Y569094D01*
D17*
X439300Y520700D02*
X473100Y520700D01*
D18*
X272401Y482600D02*
X228346Y482600D01*
X272401Y482600D02*
X278497Y476504D01*
X411494Y492894D02*
X439300Y520700D01*
X327465Y476504D02*
X278497Y476504D01*
X327465Y476504D02*
X343855Y492894D01*
X411494Y492894D01*
D17*
X439300Y482600D02*
X473100Y482600D01*
D18*
X272401Y469900D02*
X228346Y469900D01*
X272401Y469900D02*
X278497Y463804D01*
X420504Y463804D02*
X439300Y482600D01*
X420504Y463804D02*
X278497Y463804D01*
D17*
X439300Y444500D02*
X473100Y444500D01*
D18*
X439300Y444500D02*
X435869Y444500D01*
X425575Y434206D01*
X343855Y434206D01*
X326957Y451104D01*
X272401Y457200D02*
X228346Y457200D01*
X272401Y457200D02*
X278497Y451104D01*
X326957Y451104D01*
D17*
X439300Y406400D02*
X473100Y406400D01*
D18*
X272401Y444500D02*
X228346Y444500D01*
X272401Y444500D02*
X278497Y438404D01*
X323596Y438404D01*
X331858Y430142D01*
X473100Y415900D02*
X473100Y406400D01*
X458858Y430142D02*
X331858Y430142D01*
X458858Y430142D02*
X473100Y415900D01*
D17*
X473100Y368300D02*
X439300Y368300D01*
D18*
X417964Y346964D01*
X292100Y346964D01*
X245364Y393700D01*
X239663Y425196D02*
X234950Y425196D01*
X228346Y431800D01*
X245364Y419495D02*
X245364Y393700D01*
X245364Y419495D02*
X239663Y425196D01*
D17*
X439300Y330200D02*
X473100Y330200D01*
D18*
X439300Y330200D02*
X426600Y342900D01*
X279400Y342900D01*
X241300Y410859D02*
X239663Y412496D01*
X241300Y381000D02*
X279400Y342900D01*
X239663Y412496D02*
X234950Y412496D01*
X228346Y419100D01*
X241300Y410859D02*
X241300Y381000D01*
D17*
X439300Y596900D02*
X473100Y596900D01*
D18*
X217029Y489204D02*
X215392Y490841D01*
X215392Y499759D01*
X435869Y596900D02*
X439300Y596900D01*
X435869Y596900D02*
X425575Y586606D01*
X302239Y586606D02*
X215392Y499759D01*
X302239Y586606D02*
X425575Y586606D01*
X289814Y482600D02*
X283210Y489204D01*
X217029Y489204D01*
D17*
X544400Y596900D02*
X584200Y596900D01*
X596900Y584200D01*
X596900Y558800D02*
X544400Y558800D01*
X544400Y508000D02*
X596900Y508000D01*
X584200Y469900D02*
X544400Y469900D01*
X584200Y469900D02*
X596900Y482600D01*
X596900Y431800D02*
X544400Y431800D01*
X544400Y393700D02*
X584200Y393700D01*
X596900Y406400D01*
X596900Y355600D02*
X544400Y355600D01*
X544400Y317500D02*
X584200Y317500D01*
X596900Y330200D01*
X424300Y596900D02*
X390500Y596900D01*
X390500Y558800D02*
X424300Y558800D01*
X424300Y520700D02*
X390500Y520700D01*
X390500Y482600D02*
X424300Y482600D01*
X424300Y444500D02*
X390500Y444500D01*
X390500Y406400D02*
X424300Y406400D01*
X424300Y368300D02*
X390500Y368300D01*
X390500Y330200D02*
X424300Y330200D01*
D16*
X508000Y584200D03*
D17*
X511200Y587400D01*
D16*
X508000Y546100D03*
X508000Y495300D03*
X508000Y457200D03*
X508000Y419100D03*
X508000Y381000D03*
X508000Y342900D03*
X508000Y304800D03*
D17*
X511200Y308000D01*
X522400Y308000D01*
X508000Y381000D02*
X511200Y384200D01*
X508000Y419100D02*
X511200Y422300D01*
X508000Y457200D02*
X511200Y460400D01*
X508000Y495300D02*
X511200Y498500D01*
X508000Y546100D02*
X511200Y549300D01*
X511200Y346100D02*
X508000Y342900D01*
X511200Y587400D02*
X522400Y587400D01*
X522400Y549300D02*
X511200Y549300D01*
X511200Y498500D02*
X522400Y498500D01*
X522400Y460400D02*
X511200Y460400D01*
X511200Y422300D02*
X522400Y422300D01*
X522400Y384200D02*
X511200Y384200D01*
X511200Y346100D02*
X522400Y346100D01*
M02*
