G04 EAGLE Gerber RS-274X export*
G75*
%MOMM*%
%FSLAX34Y34*%
%LPD*%
%INBottom Copper*%
%IPPOS*%
%AMOC8*
5,1,8,0,0,1.08239X$1,22.5*%
G01*
%ADD10C,1.879600*%
%ADD11C,1.800000*%
%ADD12R,0.910000X1.220000*%
%ADD13C,0.762000*%
%ADD14C,0.756400*%
%ADD15C,0.812800*%

G36*
X655948Y127016D02*
X655948Y127016D01*
X656067Y127023D01*
X656105Y127036D01*
X656146Y127041D01*
X656256Y127084D01*
X656369Y127121D01*
X656404Y127143D01*
X656441Y127158D01*
X656537Y127227D01*
X656638Y127291D01*
X656666Y127321D01*
X656699Y127344D01*
X656775Y127436D01*
X656856Y127523D01*
X656876Y127558D01*
X656901Y127589D01*
X656952Y127697D01*
X657010Y127801D01*
X657020Y127841D01*
X657037Y127877D01*
X657059Y127994D01*
X657089Y128109D01*
X657093Y128169D01*
X657097Y128189D01*
X657095Y128210D01*
X657099Y128270D01*
X657099Y199748D01*
X657093Y199797D01*
X657095Y199847D01*
X657073Y199954D01*
X657059Y200063D01*
X657041Y200110D01*
X657031Y200158D01*
X656983Y200257D01*
X656942Y200359D01*
X656913Y200399D01*
X656891Y200444D01*
X656820Y200527D01*
X656756Y200616D01*
X656717Y200648D01*
X656685Y200686D01*
X656595Y200749D01*
X656511Y200819D01*
X656466Y200840D01*
X656425Y200869D01*
X656322Y200908D01*
X656223Y200955D01*
X656174Y200964D01*
X656128Y200982D01*
X656018Y200994D01*
X655911Y201014D01*
X655861Y201011D01*
X655812Y201017D01*
X655703Y201001D01*
X655593Y200995D01*
X655546Y200979D01*
X655497Y200972D01*
X655344Y200920D01*
X651035Y199135D01*
X636464Y199135D01*
X636425Y199130D01*
X636385Y199133D01*
X636267Y199110D01*
X636149Y199095D01*
X636112Y199081D01*
X636072Y199073D01*
X635964Y199022D01*
X635853Y198978D01*
X635821Y198955D01*
X635785Y198938D01*
X635692Y198862D01*
X635595Y198792D01*
X635570Y198761D01*
X635539Y198736D01*
X635469Y198639D01*
X635393Y198547D01*
X635376Y198511D01*
X635352Y198478D01*
X635308Y198367D01*
X635257Y198259D01*
X635250Y198220D01*
X635235Y198183D01*
X635220Y198064D01*
X635197Y197947D01*
X635200Y197907D01*
X635195Y197867D01*
X635210Y197748D01*
X635217Y197629D01*
X635229Y197591D01*
X635234Y197552D01*
X635278Y197440D01*
X635315Y197327D01*
X635336Y197293D01*
X635351Y197256D01*
X635437Y197120D01*
X638701Y192628D01*
X641859Y182909D01*
X641859Y172691D01*
X638701Y162972D01*
X632695Y154705D01*
X624428Y148699D01*
X614709Y145541D01*
X604491Y145541D01*
X594772Y148699D01*
X586505Y154705D01*
X580499Y162972D01*
X577341Y172691D01*
X577341Y182909D01*
X580499Y192628D01*
X583763Y197120D01*
X583782Y197155D01*
X583807Y197185D01*
X583858Y197294D01*
X583916Y197399D01*
X583926Y197437D01*
X583943Y197473D01*
X583965Y197590D01*
X583995Y197707D01*
X583995Y197747D01*
X584003Y197786D01*
X583995Y197905D01*
X583995Y198025D01*
X583985Y198063D01*
X583983Y198103D01*
X583946Y198217D01*
X583916Y198333D01*
X583897Y198368D01*
X583885Y198405D01*
X583821Y198507D01*
X583763Y198612D01*
X583736Y198641D01*
X583715Y198674D01*
X583628Y198756D01*
X583546Y198843D01*
X583512Y198865D01*
X583483Y198892D01*
X583378Y198950D01*
X583277Y199014D01*
X583239Y199026D01*
X583205Y199046D01*
X583089Y199075D01*
X582975Y199113D01*
X582935Y199115D01*
X582897Y199125D01*
X582736Y199135D01*
X546608Y199135D01*
X546490Y199120D01*
X546371Y199113D01*
X546333Y199100D01*
X546292Y199095D01*
X546182Y199052D01*
X546069Y199015D01*
X546034Y198993D01*
X545997Y198978D01*
X545901Y198909D01*
X545800Y198845D01*
X545772Y198815D01*
X545739Y198792D01*
X545663Y198700D01*
X545582Y198613D01*
X545562Y198578D01*
X545537Y198547D01*
X545486Y198439D01*
X545428Y198335D01*
X545418Y198295D01*
X545401Y198259D01*
X545379Y198142D01*
X545349Y198027D01*
X545345Y197967D01*
X545341Y197947D01*
X545343Y197926D01*
X545339Y197866D01*
X545339Y192862D01*
X545045Y191006D01*
X544464Y189219D01*
X543611Y187545D01*
X542506Y186024D01*
X541178Y184696D01*
X539657Y183591D01*
X537983Y182738D01*
X536196Y182157D01*
X535939Y182117D01*
X535939Y197866D01*
X535924Y197984D01*
X535917Y198103D01*
X535904Y198141D01*
X535899Y198182D01*
X535856Y198292D01*
X535819Y198405D01*
X535797Y198440D01*
X535782Y198477D01*
X535712Y198573D01*
X535649Y198674D01*
X535619Y198702D01*
X535595Y198735D01*
X535504Y198811D01*
X535417Y198892D01*
X535382Y198912D01*
X535351Y198937D01*
X535243Y198988D01*
X535139Y199046D01*
X535099Y199056D01*
X535063Y199073D01*
X534946Y199095D01*
X534831Y199125D01*
X534770Y199129D01*
X534750Y199133D01*
X534730Y199131D01*
X534670Y199135D01*
X532130Y199135D01*
X532012Y199120D01*
X531893Y199113D01*
X531855Y199100D01*
X531814Y199095D01*
X531704Y199052D01*
X531591Y199015D01*
X531556Y198993D01*
X531519Y198978D01*
X531423Y198909D01*
X531322Y198845D01*
X531294Y198815D01*
X531261Y198792D01*
X531186Y198700D01*
X531104Y198613D01*
X531084Y198578D01*
X531059Y198547D01*
X531008Y198439D01*
X530950Y198335D01*
X530940Y198295D01*
X530923Y198259D01*
X530901Y198142D01*
X530871Y198027D01*
X530867Y197967D01*
X530863Y197947D01*
X530865Y197926D01*
X530861Y197866D01*
X530861Y182117D01*
X530604Y182157D01*
X528813Y182739D01*
X528809Y182741D01*
X528801Y182746D01*
X528660Y182794D01*
X528519Y182845D01*
X528509Y182846D01*
X528500Y182849D01*
X528351Y182861D01*
X528202Y182875D01*
X528193Y182874D01*
X528183Y182874D01*
X528036Y182849D01*
X527888Y182826D01*
X527879Y182822D01*
X527870Y182820D01*
X527732Y182758D01*
X527596Y182699D01*
X527589Y182694D01*
X527580Y182689D01*
X527463Y182596D01*
X527345Y182505D01*
X527339Y182497D01*
X527331Y182491D01*
X527241Y182372D01*
X527150Y182254D01*
X527146Y182245D01*
X527140Y182237D01*
X527069Y182092D01*
X526734Y181284D01*
X524882Y179432D01*
X524822Y179354D01*
X524754Y179282D01*
X524725Y179229D01*
X524688Y179181D01*
X524648Y179090D01*
X524600Y179003D01*
X524585Y178945D01*
X524561Y178889D01*
X524546Y178791D01*
X524521Y178695D01*
X524515Y178595D01*
X524511Y178575D01*
X524513Y178563D01*
X524511Y178535D01*
X524511Y161816D01*
X521997Y155747D01*
X517353Y151103D01*
X511284Y148589D01*
X403116Y148589D01*
X397047Y151103D01*
X392403Y155747D01*
X389889Y161816D01*
X389889Y178535D01*
X389877Y178633D01*
X389874Y178732D01*
X389857Y178790D01*
X389849Y178850D01*
X389813Y178942D01*
X389785Y179037D01*
X389755Y179090D01*
X389732Y179146D01*
X389674Y179226D01*
X389624Y179311D01*
X389558Y179387D01*
X389546Y179403D01*
X389536Y179411D01*
X389518Y179432D01*
X387666Y181284D01*
X387331Y182092D01*
X387326Y182101D01*
X387323Y182110D01*
X387319Y182118D01*
X387247Y182239D01*
X387173Y182369D01*
X387167Y182375D01*
X387162Y182384D01*
X387056Y182490D01*
X386952Y182597D01*
X386944Y182602D01*
X386937Y182609D01*
X386809Y182685D01*
X386681Y182763D01*
X386672Y182766D01*
X386663Y182771D01*
X386520Y182813D01*
X386377Y182857D01*
X386367Y182857D01*
X386358Y182860D01*
X386210Y182865D01*
X386059Y182872D01*
X386050Y182870D01*
X386040Y182870D01*
X385895Y182838D01*
X385748Y182808D01*
X385739Y182803D01*
X385730Y182801D01*
X385583Y182738D01*
X383796Y182157D01*
X383539Y182117D01*
X383539Y201930D01*
X383524Y202048D01*
X383517Y202167D01*
X383504Y202205D01*
X383499Y202245D01*
X383456Y202356D01*
X383419Y202469D01*
X383397Y202503D01*
X383382Y202541D01*
X383312Y202637D01*
X383249Y202738D01*
X383219Y202766D01*
X383195Y202798D01*
X383104Y202874D01*
X383017Y202956D01*
X382982Y202975D01*
X382951Y203001D01*
X382843Y203052D01*
X382739Y203109D01*
X382699Y203120D01*
X382663Y203137D01*
X382546Y203159D01*
X382431Y203189D01*
X382370Y203193D01*
X382350Y203197D01*
X382330Y203195D01*
X382270Y203199D01*
X380999Y203199D01*
X380999Y203201D01*
X382270Y203201D01*
X382388Y203216D01*
X382507Y203223D01*
X382545Y203236D01*
X382585Y203241D01*
X382696Y203285D01*
X382809Y203321D01*
X382844Y203343D01*
X382881Y203358D01*
X382977Y203428D01*
X383078Y203491D01*
X383106Y203521D01*
X383139Y203545D01*
X383214Y203636D01*
X383296Y203723D01*
X383316Y203758D01*
X383341Y203790D01*
X383392Y203897D01*
X383450Y204002D01*
X383460Y204041D01*
X383477Y204077D01*
X383499Y204194D01*
X383529Y204309D01*
X383533Y204370D01*
X383537Y204390D01*
X383535Y204410D01*
X383539Y204470D01*
X383539Y224283D01*
X383796Y224243D01*
X385587Y223661D01*
X385591Y223659D01*
X385599Y223654D01*
X385740Y223606D01*
X385881Y223555D01*
X385891Y223554D01*
X385900Y223551D01*
X386049Y223539D01*
X386198Y223525D01*
X386207Y223526D01*
X386217Y223526D01*
X386364Y223551D01*
X386512Y223574D01*
X386521Y223578D01*
X386530Y223580D01*
X386668Y223642D01*
X386804Y223701D01*
X386811Y223706D01*
X386820Y223711D01*
X386937Y223804D01*
X387055Y223895D01*
X387061Y223903D01*
X387069Y223909D01*
X387159Y224028D01*
X387250Y224146D01*
X387254Y224155D01*
X387260Y224163D01*
X387331Y224308D01*
X387666Y225116D01*
X389518Y226968D01*
X389578Y227046D01*
X389646Y227118D01*
X389675Y227171D01*
X389712Y227219D01*
X389752Y227310D01*
X389800Y227397D01*
X389815Y227455D01*
X389839Y227511D01*
X389854Y227609D01*
X389879Y227705D01*
X389885Y227805D01*
X389889Y227825D01*
X389887Y227837D01*
X389889Y227865D01*
X389889Y648435D01*
X389877Y648533D01*
X389874Y648632D01*
X389857Y648690D01*
X389849Y648750D01*
X389813Y648842D01*
X389785Y648937D01*
X389755Y648990D01*
X389732Y649046D01*
X389674Y649126D01*
X389624Y649211D01*
X389558Y649287D01*
X389546Y649303D01*
X389536Y649311D01*
X389518Y649332D01*
X387666Y651184D01*
X387331Y651992D01*
X387326Y652001D01*
X387323Y652010D01*
X387247Y652139D01*
X387173Y652269D01*
X387167Y652275D01*
X387162Y652284D01*
X387056Y652390D01*
X386952Y652497D01*
X386944Y652502D01*
X386937Y652509D01*
X386809Y652585D01*
X386681Y652663D01*
X386672Y652666D01*
X386663Y652671D01*
X386520Y652713D01*
X386377Y652757D01*
X386367Y652757D01*
X386358Y652760D01*
X386210Y652765D01*
X386059Y652772D01*
X386050Y652770D01*
X386040Y652770D01*
X385895Y652738D01*
X385748Y652708D01*
X385739Y652703D01*
X385730Y652701D01*
X385583Y652638D01*
X383796Y652057D01*
X383539Y652017D01*
X383539Y671830D01*
X383524Y671948D01*
X383517Y672067D01*
X383504Y672105D01*
X383499Y672145D01*
X383456Y672256D01*
X383419Y672369D01*
X383397Y672403D01*
X383382Y672441D01*
X383312Y672537D01*
X383249Y672638D01*
X383219Y672666D01*
X383195Y672698D01*
X383104Y672774D01*
X383017Y672856D01*
X382982Y672875D01*
X382951Y672901D01*
X382843Y672952D01*
X382739Y673009D01*
X382699Y673020D01*
X382663Y673037D01*
X382546Y673059D01*
X382431Y673089D01*
X382370Y673093D01*
X382350Y673097D01*
X382330Y673095D01*
X382270Y673099D01*
X380999Y673099D01*
X380999Y673101D01*
X382270Y673101D01*
X382388Y673116D01*
X382507Y673123D01*
X382545Y673136D01*
X382585Y673141D01*
X382696Y673185D01*
X382809Y673221D01*
X382844Y673243D01*
X382881Y673258D01*
X382977Y673328D01*
X383078Y673391D01*
X383106Y673421D01*
X383139Y673445D01*
X383214Y673536D01*
X383296Y673623D01*
X383316Y673658D01*
X383341Y673690D01*
X383392Y673797D01*
X383450Y673902D01*
X383460Y673941D01*
X383477Y673977D01*
X383499Y674094D01*
X383529Y674209D01*
X383533Y674270D01*
X383537Y674290D01*
X383535Y674310D01*
X383539Y674370D01*
X383539Y694183D01*
X383796Y694143D01*
X385587Y693561D01*
X385591Y693559D01*
X385599Y693554D01*
X385740Y693506D01*
X385881Y693455D01*
X385891Y693454D01*
X385900Y693451D01*
X386049Y693439D01*
X386198Y693425D01*
X386207Y693426D01*
X386217Y693426D01*
X386364Y693451D01*
X386512Y693474D01*
X386521Y693478D01*
X386530Y693480D01*
X386668Y693542D01*
X386804Y693601D01*
X386811Y693606D01*
X386820Y693611D01*
X386937Y693704D01*
X387055Y693795D01*
X387061Y693803D01*
X387069Y693809D01*
X387159Y693928D01*
X387250Y694046D01*
X387254Y694055D01*
X387260Y694063D01*
X387331Y694208D01*
X387666Y695016D01*
X389518Y696868D01*
X389578Y696946D01*
X389646Y697018D01*
X389675Y697071D01*
X389712Y697119D01*
X389752Y697210D01*
X389800Y697297D01*
X389815Y697355D01*
X389839Y697411D01*
X389854Y697509D01*
X389879Y697605D01*
X389885Y697705D01*
X389889Y697725D01*
X389887Y697737D01*
X389889Y697765D01*
X389889Y714484D01*
X392403Y720553D01*
X397047Y725197D01*
X403116Y727711D01*
X511284Y727711D01*
X517353Y725197D01*
X521997Y720553D01*
X524511Y714484D01*
X524511Y697765D01*
X524523Y697667D01*
X524526Y697568D01*
X524543Y697510D01*
X524551Y697450D01*
X524587Y697358D01*
X524615Y697263D01*
X524645Y697210D01*
X524668Y697154D01*
X524726Y697074D01*
X524776Y696989D01*
X524842Y696913D01*
X524854Y696897D01*
X524864Y696889D01*
X524882Y696868D01*
X526734Y695016D01*
X527069Y694208D01*
X527074Y694199D01*
X527077Y694190D01*
X527153Y694061D01*
X527227Y693931D01*
X527233Y693925D01*
X527238Y693916D01*
X527344Y693810D01*
X527448Y693703D01*
X527456Y693698D01*
X527463Y693691D01*
X527591Y693615D01*
X527719Y693537D01*
X527728Y693534D01*
X527737Y693529D01*
X527880Y693487D01*
X528023Y693443D01*
X528033Y693443D01*
X528042Y693440D01*
X528190Y693435D01*
X528341Y693428D01*
X528350Y693430D01*
X528360Y693430D01*
X528505Y693462D01*
X528652Y693492D01*
X528661Y693497D01*
X528670Y693499D01*
X528817Y693562D01*
X530604Y694143D01*
X530861Y694183D01*
X530861Y674370D01*
X530876Y674252D01*
X530883Y674133D01*
X530896Y674095D01*
X530901Y674055D01*
X530944Y673944D01*
X530981Y673831D01*
X531003Y673797D01*
X531018Y673759D01*
X531088Y673663D01*
X531151Y673562D01*
X531181Y673534D01*
X531204Y673502D01*
X531296Y673426D01*
X531383Y673344D01*
X531418Y673325D01*
X531449Y673299D01*
X531557Y673248D01*
X531661Y673191D01*
X531701Y673180D01*
X531737Y673163D01*
X531854Y673141D01*
X531969Y673111D01*
X532030Y673107D01*
X532050Y673103D01*
X532070Y673105D01*
X532130Y673101D01*
X533401Y673101D01*
X533401Y671830D01*
X533416Y671712D01*
X533423Y671593D01*
X533436Y671555D01*
X533441Y671514D01*
X533485Y671404D01*
X533521Y671291D01*
X533543Y671256D01*
X533558Y671219D01*
X533628Y671123D01*
X533691Y671022D01*
X533721Y670994D01*
X533745Y670961D01*
X533836Y670886D01*
X533923Y670804D01*
X533958Y670784D01*
X533990Y670759D01*
X534097Y670708D01*
X534202Y670650D01*
X534241Y670640D01*
X534277Y670623D01*
X534394Y670601D01*
X534509Y670571D01*
X534570Y670567D01*
X534590Y670563D01*
X534610Y670565D01*
X534670Y670561D01*
X545339Y670561D01*
X545339Y662762D01*
X545045Y660906D01*
X544464Y659119D01*
X543611Y657445D01*
X542506Y655924D01*
X541177Y654596D01*
X540441Y654061D01*
X540383Y654006D01*
X540319Y653960D01*
X540268Y653898D01*
X540210Y653843D01*
X540167Y653776D01*
X540116Y653715D01*
X540082Y653642D01*
X540039Y653575D01*
X540014Y653499D01*
X539981Y653427D01*
X539966Y653348D01*
X539941Y653272D01*
X539936Y653193D01*
X539921Y653114D01*
X539926Y653035D01*
X539921Y652955D01*
X539936Y652877D01*
X539941Y652797D01*
X539965Y652721D01*
X539980Y652642D01*
X540014Y652570D01*
X540039Y652495D01*
X540081Y652427D01*
X540115Y652355D01*
X540166Y652293D01*
X540209Y652226D01*
X540267Y652171D01*
X540318Y652109D01*
X540382Y652063D01*
X540440Y652008D01*
X540510Y651969D01*
X540575Y651922D01*
X540649Y651893D01*
X540719Y651854D01*
X540796Y651834D01*
X540871Y651805D01*
X540950Y651795D01*
X541027Y651775D01*
X541185Y651765D01*
X541186Y651765D01*
X541187Y651765D01*
X651035Y651765D01*
X655344Y649980D01*
X655392Y649967D01*
X655437Y649945D01*
X655545Y649925D01*
X655651Y649896D01*
X655701Y649895D01*
X655750Y649886D01*
X655859Y649892D01*
X655969Y649891D01*
X656017Y649902D01*
X656067Y649905D01*
X656171Y649939D01*
X656278Y649965D01*
X656322Y649988D01*
X656369Y650003D01*
X656462Y650062D01*
X656559Y650114D01*
X656596Y650147D01*
X656638Y650174D01*
X656713Y650254D01*
X656795Y650327D01*
X656822Y650369D01*
X656856Y650405D01*
X656909Y650501D01*
X656969Y650593D01*
X656986Y650640D01*
X657010Y650684D01*
X657037Y650790D01*
X657073Y650894D01*
X657077Y650944D01*
X657089Y650992D01*
X657099Y651152D01*
X657099Y735230D01*
X657084Y735348D01*
X657077Y735467D01*
X657064Y735505D01*
X657059Y735546D01*
X657016Y735656D01*
X656979Y735769D01*
X656957Y735804D01*
X656942Y735841D01*
X656873Y735937D01*
X656809Y736038D01*
X656779Y736066D01*
X656756Y736099D01*
X656664Y736175D01*
X656577Y736256D01*
X656542Y736276D01*
X656511Y736301D01*
X656403Y736352D01*
X656299Y736410D01*
X656259Y736420D01*
X656223Y736437D01*
X656106Y736459D01*
X655991Y736489D01*
X655931Y736493D01*
X655911Y736497D01*
X655890Y736495D01*
X655830Y736499D01*
X204470Y736499D01*
X204352Y736484D01*
X204233Y736477D01*
X204195Y736464D01*
X204154Y736459D01*
X204044Y736416D01*
X203931Y736379D01*
X203896Y736357D01*
X203859Y736342D01*
X203763Y736273D01*
X203662Y736209D01*
X203634Y736179D01*
X203601Y736156D01*
X203525Y736064D01*
X203444Y735977D01*
X203424Y735942D01*
X203399Y735911D01*
X203348Y735803D01*
X203290Y735699D01*
X203280Y735659D01*
X203263Y735623D01*
X203241Y735506D01*
X203211Y735391D01*
X203207Y735331D01*
X203203Y735311D01*
X203205Y735290D01*
X203201Y735230D01*
X203201Y128270D01*
X203216Y128152D01*
X203223Y128033D01*
X203236Y127995D01*
X203241Y127954D01*
X203284Y127844D01*
X203321Y127731D01*
X203343Y127696D01*
X203358Y127659D01*
X203427Y127563D01*
X203491Y127462D01*
X203521Y127434D01*
X203544Y127401D01*
X203636Y127325D01*
X203723Y127244D01*
X203758Y127224D01*
X203789Y127199D01*
X203897Y127148D01*
X204001Y127090D01*
X204041Y127080D01*
X204077Y127063D01*
X204194Y127041D01*
X204309Y127011D01*
X204369Y127007D01*
X204389Y127003D01*
X204410Y127005D01*
X204470Y127001D01*
X655830Y127001D01*
X655948Y127016D01*
G37*
G36*
X647929Y211853D02*
X647929Y211853D01*
X648160Y211863D01*
X648214Y211873D01*
X648268Y211877D01*
X648494Y211925D01*
X648720Y211967D01*
X648772Y211984D01*
X648826Y211996D01*
X649042Y212075D01*
X649260Y212148D01*
X649309Y212173D01*
X649361Y212192D01*
X649564Y212300D01*
X649769Y212403D01*
X649815Y212434D01*
X649863Y212460D01*
X650049Y212596D01*
X650238Y212727D01*
X650279Y212764D01*
X650323Y212797D01*
X650488Y212957D01*
X650657Y213113D01*
X650692Y213156D01*
X650731Y213194D01*
X650872Y213376D01*
X651018Y213554D01*
X651046Y213602D01*
X651080Y213645D01*
X651194Y213845D01*
X651313Y214042D01*
X651335Y214092D01*
X651362Y214140D01*
X651447Y214354D01*
X651538Y214565D01*
X651552Y214618D01*
X651572Y214669D01*
X651627Y214894D01*
X651687Y215115D01*
X651691Y215159D01*
X651707Y215223D01*
X651762Y215790D01*
X651759Y215856D01*
X651763Y215900D01*
X651763Y635000D01*
X651747Y635229D01*
X651737Y635460D01*
X651727Y635514D01*
X651723Y635568D01*
X651675Y635794D01*
X651633Y636020D01*
X651616Y636072D01*
X651604Y636126D01*
X651525Y636342D01*
X651452Y636560D01*
X651427Y636609D01*
X651408Y636661D01*
X651300Y636864D01*
X651197Y637069D01*
X651166Y637115D01*
X651140Y637163D01*
X651004Y637349D01*
X650873Y637538D01*
X650836Y637579D01*
X650803Y637623D01*
X650643Y637788D01*
X650487Y637957D01*
X650444Y637992D01*
X650406Y638031D01*
X650224Y638172D01*
X650046Y638318D01*
X649998Y638346D01*
X649955Y638380D01*
X649755Y638494D01*
X649558Y638613D01*
X649508Y638635D01*
X649460Y638662D01*
X649246Y638747D01*
X649035Y638838D01*
X648982Y638852D01*
X648931Y638872D01*
X648706Y638927D01*
X648485Y638987D01*
X648441Y638991D01*
X648377Y639007D01*
X647810Y639062D01*
X647744Y639059D01*
X647700Y639063D01*
X503174Y639063D01*
X502945Y639047D01*
X502714Y639037D01*
X502660Y639027D01*
X502606Y639023D01*
X502380Y638975D01*
X502154Y638933D01*
X502102Y638916D01*
X502048Y638904D01*
X501832Y638825D01*
X501614Y638752D01*
X501565Y638727D01*
X501513Y638708D01*
X501310Y638600D01*
X501105Y638497D01*
X501059Y638466D01*
X501011Y638440D01*
X500825Y638304D01*
X500636Y638173D01*
X500595Y638136D01*
X500551Y638103D01*
X500386Y637943D01*
X500217Y637787D01*
X500182Y637744D01*
X500143Y637706D01*
X500002Y637524D01*
X499856Y637346D01*
X499828Y637298D01*
X499794Y637255D01*
X499680Y637055D01*
X499561Y636858D01*
X499539Y636808D01*
X499512Y636760D01*
X499427Y636546D01*
X499336Y636335D01*
X499322Y636282D01*
X499302Y636231D01*
X499247Y636006D01*
X499187Y635785D01*
X499183Y635741D01*
X499167Y635677D01*
X499112Y635110D01*
X499115Y635044D01*
X499111Y635000D01*
X499111Y238390D01*
X499124Y238198D01*
X499129Y238006D01*
X499144Y237915D01*
X499151Y237821D01*
X499191Y237634D01*
X499222Y237444D01*
X499250Y237355D01*
X499270Y237264D01*
X499336Y237084D01*
X499393Y236901D01*
X499433Y236817D01*
X499466Y236729D01*
X499556Y236560D01*
X499639Y236387D01*
X499690Y236309D01*
X499734Y236227D01*
X499848Y236072D01*
X499954Y235912D01*
X500016Y235842D01*
X500071Y235767D01*
X500205Y235629D01*
X500332Y235486D01*
X500403Y235425D01*
X500468Y235358D01*
X500620Y235241D01*
X500766Y235117D01*
X500845Y235067D01*
X500919Y235010D01*
X501085Y234915D01*
X501248Y234812D01*
X501333Y234774D01*
X501414Y234728D01*
X501593Y234657D01*
X501767Y234578D01*
X501856Y234552D01*
X501943Y234517D01*
X502131Y234472D01*
X502314Y234419D01*
X502406Y234405D01*
X502497Y234383D01*
X502689Y234365D01*
X502878Y234337D01*
X502971Y234337D01*
X503064Y234328D01*
X503256Y234336D01*
X503448Y234336D01*
X503519Y234348D01*
X503634Y234353D01*
X504194Y234457D01*
X504212Y234463D01*
X504226Y234465D01*
X505091Y234697D01*
X510909Y234697D01*
X516530Y233191D01*
X518668Y231956D01*
X518688Y231946D01*
X518706Y231934D01*
X518945Y231821D01*
X519181Y231706D01*
X519201Y231700D01*
X519221Y231690D01*
X519473Y231612D01*
X519723Y231531D01*
X519744Y231527D01*
X519765Y231521D01*
X520024Y231478D01*
X520284Y231433D01*
X520306Y231432D01*
X520328Y231429D01*
X520591Y231423D01*
X520853Y231415D01*
X520875Y231417D01*
X520897Y231416D01*
X521159Y231448D01*
X521420Y231476D01*
X521441Y231481D01*
X521463Y231484D01*
X521717Y231551D01*
X521972Y231616D01*
X521993Y231624D01*
X522014Y231630D01*
X522082Y231661D01*
X522500Y231832D01*
X522643Y231916D01*
X522732Y231956D01*
X524870Y233191D01*
X530491Y234697D01*
X536309Y234697D01*
X541930Y233191D01*
X546969Y230281D01*
X551083Y226167D01*
X553993Y221128D01*
X555536Y215368D01*
X555539Y215332D01*
X555587Y215106D01*
X555629Y214880D01*
X555646Y214828D01*
X555658Y214774D01*
X555737Y214558D01*
X555810Y214340D01*
X555835Y214291D01*
X555854Y214239D01*
X555962Y214036D01*
X556065Y213831D01*
X556096Y213785D01*
X556122Y213737D01*
X556258Y213551D01*
X556389Y213362D01*
X556426Y213321D01*
X556459Y213277D01*
X556619Y213112D01*
X556775Y212943D01*
X556818Y212908D01*
X556856Y212869D01*
X557038Y212728D01*
X557216Y212582D01*
X557264Y212554D01*
X557307Y212520D01*
X557507Y212406D01*
X557704Y212287D01*
X557754Y212265D01*
X557802Y212238D01*
X558016Y212153D01*
X558227Y212062D01*
X558280Y212048D01*
X558331Y212028D01*
X558556Y211973D01*
X558777Y211913D01*
X558821Y211909D01*
X558885Y211894D01*
X559452Y211838D01*
X559518Y211841D01*
X559562Y211837D01*
X647700Y211837D01*
X647929Y211853D01*
G37*
%LPC*%
G36*
X585043Y308499D02*
X585043Y308499D01*
X579524Y309978D01*
X575660Y312209D01*
X575623Y312227D01*
X575588Y312249D01*
X575367Y312352D01*
X575148Y312458D01*
X575109Y312471D01*
X575071Y312488D01*
X574837Y312559D01*
X574606Y312634D01*
X574565Y312641D01*
X574526Y312653D01*
X574284Y312690D01*
X574044Y312732D01*
X574003Y312733D01*
X573963Y312740D01*
X573718Y312742D01*
X573475Y312750D01*
X573434Y312746D01*
X573393Y312746D01*
X573151Y312715D01*
X572908Y312689D01*
X572869Y312679D01*
X572828Y312674D01*
X572728Y312643D01*
X572356Y312549D01*
X572176Y312475D01*
X572073Y312444D01*
X569551Y311399D01*
X555399Y311399D01*
X550731Y313333D01*
X547158Y316906D01*
X545224Y321574D01*
X545224Y338826D01*
X546268Y341345D01*
X546287Y341402D01*
X546312Y341457D01*
X546377Y341673D01*
X546448Y341885D01*
X546459Y341945D01*
X546477Y342003D01*
X546511Y342225D01*
X546551Y342446D01*
X546554Y342506D01*
X546563Y342566D01*
X546566Y342791D01*
X546575Y343015D01*
X546569Y343075D01*
X546570Y343136D01*
X546541Y343358D01*
X546519Y343582D01*
X546505Y343641D01*
X546497Y343701D01*
X546463Y343813D01*
X546384Y344136D01*
X546301Y344345D01*
X546268Y344455D01*
X545224Y346974D01*
X545224Y364226D01*
X547158Y368894D01*
X550731Y372467D01*
X555399Y374401D01*
X569551Y374401D01*
X572073Y373356D01*
X572113Y373343D01*
X572150Y373325D01*
X572382Y373253D01*
X572614Y373175D01*
X572654Y373168D01*
X572694Y373156D01*
X572935Y373116D01*
X573174Y373072D01*
X573215Y373070D01*
X573256Y373064D01*
X573500Y373059D01*
X573744Y373048D01*
X573784Y373052D01*
X573826Y373052D01*
X574068Y373080D01*
X574311Y373104D01*
X574351Y373114D01*
X574391Y373119D01*
X574627Y373182D01*
X574864Y373239D01*
X574902Y373254D01*
X574942Y373265D01*
X575038Y373308D01*
X575393Y373450D01*
X575562Y373547D01*
X575660Y373591D01*
X579524Y375822D01*
X584201Y377075D01*
X584274Y377100D01*
X584349Y377118D01*
X584543Y377193D01*
X584740Y377261D01*
X584809Y377296D01*
X584880Y377324D01*
X585062Y377425D01*
X585247Y377520D01*
X585310Y377564D01*
X585377Y377602D01*
X585543Y377728D01*
X585714Y377848D01*
X585770Y377900D01*
X585831Y377947D01*
X585977Y378095D01*
X586129Y378237D01*
X586178Y378297D01*
X586232Y378352D01*
X586356Y378519D01*
X586486Y378681D01*
X586526Y378748D01*
X586572Y378809D01*
X586671Y378992D01*
X586778Y379171D01*
X586808Y379242D01*
X586845Y379309D01*
X586918Y379504D01*
X586998Y379697D01*
X587018Y379771D01*
X587045Y379843D01*
X587090Y380046D01*
X587143Y380248D01*
X587152Y380324D01*
X587168Y380399D01*
X587185Y380607D01*
X587209Y380814D01*
X587207Y380890D01*
X587213Y380967D01*
X587200Y381175D01*
X587195Y381383D01*
X587182Y381459D01*
X587177Y381536D01*
X587136Y381740D01*
X587101Y381945D01*
X587078Y382019D01*
X587063Y382094D01*
X586993Y382290D01*
X586930Y382489D01*
X586897Y382558D01*
X586871Y382631D01*
X586775Y382815D01*
X586685Y383003D01*
X586643Y383067D01*
X586607Y383135D01*
X586485Y383304D01*
X586370Y383478D01*
X586319Y383536D01*
X586274Y383598D01*
X586130Y383748D01*
X585992Y383904D01*
X585933Y383954D01*
X585880Y384009D01*
X585716Y384138D01*
X585558Y384273D01*
X585493Y384314D01*
X585432Y384362D01*
X585252Y384466D01*
X585076Y384578D01*
X585006Y384609D01*
X584940Y384648D01*
X584826Y384690D01*
X584557Y384812D01*
X584314Y384883D01*
X584201Y384925D01*
X579524Y386178D01*
X575660Y388409D01*
X575623Y388427D01*
X575588Y388449D01*
X575367Y388552D01*
X575148Y388658D01*
X575109Y388671D01*
X575071Y388688D01*
X574837Y388759D01*
X574606Y388834D01*
X574565Y388841D01*
X574526Y388853D01*
X574284Y388890D01*
X574044Y388932D01*
X574003Y388933D01*
X573963Y388940D01*
X573718Y388942D01*
X573475Y388950D01*
X573434Y388946D01*
X573393Y388946D01*
X573151Y388915D01*
X572908Y388889D01*
X572869Y388879D01*
X572828Y388874D01*
X572728Y388843D01*
X572356Y388749D01*
X572176Y388675D01*
X572073Y388644D01*
X569551Y387599D01*
X555399Y387599D01*
X550731Y389533D01*
X547158Y393106D01*
X545224Y397774D01*
X545224Y415026D01*
X546268Y417545D01*
X546287Y417602D01*
X546312Y417657D01*
X546347Y417771D01*
X546371Y417832D01*
X546389Y417909D01*
X546448Y418085D01*
X546459Y418145D01*
X546477Y418203D01*
X546511Y418425D01*
X546551Y418646D01*
X546554Y418706D01*
X546563Y418766D01*
X546566Y418991D01*
X546575Y419215D01*
X546569Y419275D01*
X546570Y419336D01*
X546541Y419558D01*
X546519Y419782D01*
X546505Y419841D01*
X546497Y419901D01*
X546463Y420013D01*
X546384Y420336D01*
X546301Y420545D01*
X546268Y420655D01*
X545224Y423174D01*
X545224Y440426D01*
X547158Y445094D01*
X550731Y448667D01*
X555399Y450601D01*
X569551Y450601D01*
X572073Y449556D01*
X572113Y449543D01*
X572150Y449525D01*
X572382Y449453D01*
X572614Y449375D01*
X572654Y449368D01*
X572694Y449356D01*
X572935Y449316D01*
X573174Y449272D01*
X573215Y449270D01*
X573256Y449264D01*
X573500Y449259D01*
X573744Y449248D01*
X573784Y449252D01*
X573826Y449252D01*
X574068Y449280D01*
X574311Y449304D01*
X574351Y449314D01*
X574391Y449319D01*
X574627Y449382D01*
X574864Y449439D01*
X574902Y449454D01*
X574942Y449465D01*
X575038Y449508D01*
X575393Y449650D01*
X575562Y449747D01*
X575660Y449791D01*
X579524Y452022D01*
X584201Y453275D01*
X584274Y453300D01*
X584349Y453318D01*
X584543Y453393D01*
X584740Y453461D01*
X584809Y453496D01*
X584880Y453524D01*
X585062Y453625D01*
X585247Y453720D01*
X585310Y453764D01*
X585377Y453802D01*
X585543Y453928D01*
X585714Y454048D01*
X585770Y454100D01*
X585831Y454147D01*
X585977Y454295D01*
X586129Y454437D01*
X586178Y454497D01*
X586232Y454552D01*
X586356Y454719D01*
X586486Y454881D01*
X586526Y454948D01*
X586572Y455009D01*
X586671Y455192D01*
X586778Y455371D01*
X586808Y455442D01*
X586845Y455509D01*
X586918Y455704D01*
X586998Y455897D01*
X587018Y455971D01*
X587045Y456043D01*
X587090Y456246D01*
X587143Y456448D01*
X587152Y456524D01*
X587168Y456599D01*
X587185Y456807D01*
X587209Y457014D01*
X587207Y457090D01*
X587213Y457167D01*
X587200Y457375D01*
X587195Y457583D01*
X587182Y457659D01*
X587177Y457736D01*
X587136Y457940D01*
X587101Y458145D01*
X587078Y458219D01*
X587063Y458294D01*
X586993Y458490D01*
X586930Y458689D01*
X586897Y458758D01*
X586871Y458831D01*
X586775Y459015D01*
X586685Y459203D01*
X586643Y459267D01*
X586607Y459335D01*
X586485Y459504D01*
X586370Y459678D01*
X586319Y459736D01*
X586274Y459798D01*
X586130Y459948D01*
X585992Y460104D01*
X585933Y460154D01*
X585880Y460209D01*
X585716Y460338D01*
X585558Y460473D01*
X585493Y460514D01*
X585432Y460562D01*
X585252Y460666D01*
X585076Y460778D01*
X585006Y460809D01*
X584940Y460848D01*
X584826Y460890D01*
X584557Y461012D01*
X584314Y461083D01*
X584201Y461125D01*
X579524Y462378D01*
X575660Y464609D01*
X575623Y464627D01*
X575588Y464649D01*
X575367Y464752D01*
X575148Y464858D01*
X575109Y464871D01*
X575071Y464888D01*
X574837Y464959D01*
X574606Y465034D01*
X574565Y465041D01*
X574526Y465053D01*
X574284Y465090D01*
X574044Y465132D01*
X574003Y465133D01*
X573963Y465140D01*
X573718Y465142D01*
X573475Y465150D01*
X573434Y465146D01*
X573393Y465146D01*
X573151Y465115D01*
X572908Y465089D01*
X572869Y465079D01*
X572828Y465074D01*
X572728Y465043D01*
X572356Y464949D01*
X572176Y464875D01*
X572073Y464844D01*
X569551Y463799D01*
X555399Y463799D01*
X550731Y465733D01*
X547158Y469306D01*
X545224Y473974D01*
X545224Y491226D01*
X546268Y493745D01*
X546287Y493802D01*
X546312Y493857D01*
X546377Y494073D01*
X546448Y494285D01*
X546459Y494345D01*
X546477Y494403D01*
X546511Y494625D01*
X546551Y494846D01*
X546554Y494906D01*
X546563Y494966D01*
X546566Y495191D01*
X546575Y495415D01*
X546569Y495475D01*
X546570Y495536D01*
X546541Y495758D01*
X546519Y495982D01*
X546505Y496041D01*
X546497Y496101D01*
X546463Y496213D01*
X546384Y496536D01*
X546301Y496745D01*
X546268Y496855D01*
X545224Y499374D01*
X545224Y516626D01*
X547158Y521294D01*
X550731Y524867D01*
X555399Y526801D01*
X569551Y526801D01*
X572073Y525756D01*
X572113Y525743D01*
X572150Y525725D01*
X572382Y525653D01*
X572614Y525575D01*
X572654Y525568D01*
X572694Y525556D01*
X572935Y525516D01*
X573174Y525472D01*
X573215Y525470D01*
X573256Y525464D01*
X573500Y525459D01*
X573744Y525448D01*
X573784Y525452D01*
X573826Y525452D01*
X574068Y525480D01*
X574311Y525504D01*
X574351Y525514D01*
X574391Y525519D01*
X574627Y525582D01*
X574864Y525639D01*
X574902Y525654D01*
X574942Y525665D01*
X575038Y525708D01*
X575393Y525850D01*
X575562Y525947D01*
X575660Y525991D01*
X579524Y528222D01*
X584201Y529475D01*
X584274Y529500D01*
X584349Y529518D01*
X584543Y529593D01*
X584740Y529661D01*
X584809Y529696D01*
X584880Y529724D01*
X585062Y529825D01*
X585247Y529920D01*
X585310Y529964D01*
X585377Y530002D01*
X585543Y530128D01*
X585714Y530248D01*
X585770Y530300D01*
X585831Y530347D01*
X585977Y530495D01*
X586129Y530637D01*
X586178Y530697D01*
X586232Y530752D01*
X586356Y530919D01*
X586486Y531081D01*
X586526Y531148D01*
X586572Y531209D01*
X586671Y531392D01*
X586778Y531571D01*
X586808Y531642D01*
X586845Y531709D01*
X586918Y531904D01*
X586998Y532097D01*
X587018Y532171D01*
X587045Y532243D01*
X587090Y532446D01*
X587143Y532648D01*
X587152Y532724D01*
X587168Y532799D01*
X587185Y533007D01*
X587209Y533214D01*
X587207Y533290D01*
X587213Y533367D01*
X587200Y533575D01*
X587195Y533783D01*
X587182Y533859D01*
X587177Y533936D01*
X587136Y534140D01*
X587101Y534345D01*
X587078Y534419D01*
X587063Y534494D01*
X586993Y534690D01*
X586930Y534889D01*
X586897Y534958D01*
X586871Y535031D01*
X586775Y535215D01*
X586685Y535403D01*
X586643Y535467D01*
X586607Y535535D01*
X586485Y535704D01*
X586370Y535878D01*
X586319Y535936D01*
X586274Y535998D01*
X586130Y536148D01*
X585992Y536304D01*
X585933Y536354D01*
X585880Y536409D01*
X585716Y536538D01*
X585558Y536673D01*
X585493Y536714D01*
X585432Y536762D01*
X585252Y536866D01*
X585076Y536978D01*
X585006Y537009D01*
X584940Y537048D01*
X584826Y537090D01*
X584557Y537212D01*
X584314Y537283D01*
X584201Y537325D01*
X579524Y538578D01*
X575660Y540809D01*
X575623Y540827D01*
X575588Y540849D01*
X575367Y540952D01*
X575148Y541058D01*
X575109Y541071D01*
X575071Y541088D01*
X574837Y541159D01*
X574606Y541234D01*
X574565Y541241D01*
X574526Y541253D01*
X574284Y541290D01*
X574044Y541332D01*
X574003Y541333D01*
X573963Y541340D01*
X573718Y541342D01*
X573475Y541350D01*
X573434Y541346D01*
X573393Y541346D01*
X573151Y541315D01*
X572908Y541289D01*
X572869Y541279D01*
X572828Y541274D01*
X572728Y541243D01*
X572356Y541149D01*
X572176Y541075D01*
X572073Y541044D01*
X569551Y539999D01*
X555399Y539999D01*
X550731Y541933D01*
X547158Y545506D01*
X545224Y550174D01*
X545224Y567426D01*
X546268Y569945D01*
X546287Y570002D01*
X546312Y570057D01*
X546377Y570273D01*
X546448Y570485D01*
X546459Y570545D01*
X546477Y570603D01*
X546511Y570825D01*
X546551Y571046D01*
X546554Y571106D01*
X546563Y571166D01*
X546566Y571391D01*
X546575Y571615D01*
X546569Y571675D01*
X546570Y571736D01*
X546541Y571958D01*
X546519Y572182D01*
X546505Y572241D01*
X546497Y572301D01*
X546463Y572413D01*
X546384Y572736D01*
X546301Y572945D01*
X546268Y573055D01*
X545224Y575574D01*
X545224Y592826D01*
X547158Y597494D01*
X550731Y601067D01*
X555399Y603001D01*
X569551Y603001D01*
X572073Y601956D01*
X572113Y601943D01*
X572150Y601925D01*
X572382Y601853D01*
X572614Y601775D01*
X572654Y601768D01*
X572694Y601756D01*
X572935Y601716D01*
X573174Y601672D01*
X573215Y601670D01*
X573256Y601664D01*
X573500Y601659D01*
X573744Y601648D01*
X573784Y601652D01*
X573826Y601652D01*
X574068Y601680D01*
X574311Y601704D01*
X574351Y601714D01*
X574391Y601719D01*
X574627Y601782D01*
X574864Y601839D01*
X574902Y601854D01*
X574942Y601865D01*
X575038Y601908D01*
X575393Y602050D01*
X575562Y602147D01*
X575660Y602191D01*
X579524Y604422D01*
X585043Y605901D01*
X608757Y605901D01*
X614276Y604422D01*
X619225Y601565D01*
X623265Y597525D01*
X626122Y592576D01*
X627601Y587057D01*
X627601Y581343D01*
X626122Y575824D01*
X624798Y573532D01*
X624789Y573512D01*
X624777Y573494D01*
X624664Y573257D01*
X624549Y573019D01*
X624542Y572998D01*
X624533Y572979D01*
X624455Y572728D01*
X624373Y572477D01*
X624370Y572456D01*
X624363Y572435D01*
X624321Y572175D01*
X624275Y571916D01*
X624275Y571894D01*
X624271Y571872D01*
X624265Y571609D01*
X624257Y571347D01*
X624259Y571325D01*
X624259Y571303D01*
X624290Y571039D01*
X624318Y570780D01*
X624324Y570759D01*
X624326Y570737D01*
X624394Y570482D01*
X624458Y570228D01*
X624467Y570208D01*
X624472Y570186D01*
X624504Y570118D01*
X624674Y569700D01*
X624758Y569557D01*
X624798Y569468D01*
X626122Y567176D01*
X627601Y561657D01*
X627601Y555943D01*
X626122Y550424D01*
X623265Y545475D01*
X619225Y541435D01*
X614276Y538578D01*
X609599Y537325D01*
X609526Y537300D01*
X609451Y537282D01*
X609257Y537207D01*
X609060Y537139D01*
X608992Y537104D01*
X608920Y537076D01*
X608738Y536975D01*
X608553Y536880D01*
X608490Y536836D01*
X608423Y536798D01*
X608257Y536672D01*
X608086Y536552D01*
X608030Y536500D01*
X607969Y536453D01*
X607823Y536305D01*
X607671Y536163D01*
X607622Y536103D01*
X607568Y536048D01*
X607444Y535881D01*
X607314Y535719D01*
X607274Y535653D01*
X607228Y535591D01*
X607129Y535408D01*
X607022Y535229D01*
X606992Y535158D01*
X606955Y535091D01*
X606882Y534896D01*
X606802Y534704D01*
X606782Y534629D01*
X606755Y534557D01*
X606710Y534354D01*
X606657Y534152D01*
X606648Y534076D01*
X606632Y534001D01*
X606615Y533793D01*
X606591Y533586D01*
X606593Y533510D01*
X606587Y533433D01*
X606600Y533225D01*
X606605Y533017D01*
X606618Y532941D01*
X606623Y532864D01*
X606664Y532660D01*
X606699Y532455D01*
X606722Y532382D01*
X606737Y532306D01*
X606807Y532110D01*
X606870Y531911D01*
X606903Y531842D01*
X606929Y531769D01*
X607025Y531585D01*
X607115Y531397D01*
X607158Y531333D01*
X607193Y531265D01*
X607315Y531095D01*
X607430Y530922D01*
X607481Y530865D01*
X607526Y530802D01*
X607670Y530652D01*
X607808Y530496D01*
X607867Y530446D01*
X607920Y530391D01*
X608084Y530262D01*
X608242Y530127D01*
X608308Y530086D01*
X608368Y530038D01*
X608548Y529934D01*
X608724Y529822D01*
X608794Y529791D01*
X608860Y529752D01*
X608974Y529709D01*
X609243Y529588D01*
X609486Y529517D01*
X609599Y529475D01*
X614276Y528222D01*
X619225Y525365D01*
X623265Y521325D01*
X626122Y516376D01*
X627601Y510857D01*
X627601Y505143D01*
X626122Y499624D01*
X624798Y497332D01*
X624789Y497312D01*
X624777Y497294D01*
X624664Y497057D01*
X624549Y496819D01*
X624542Y496798D01*
X624533Y496779D01*
X624455Y496528D01*
X624373Y496277D01*
X624370Y496256D01*
X624363Y496235D01*
X624321Y495975D01*
X624275Y495716D01*
X624275Y495694D01*
X624271Y495672D01*
X624265Y495409D01*
X624257Y495147D01*
X624259Y495125D01*
X624259Y495103D01*
X624290Y494839D01*
X624318Y494580D01*
X624324Y494559D01*
X624326Y494537D01*
X624394Y494282D01*
X624458Y494028D01*
X624467Y494008D01*
X624472Y493986D01*
X624504Y493918D01*
X624674Y493500D01*
X624758Y493357D01*
X624798Y493268D01*
X626122Y490976D01*
X627601Y485457D01*
X627601Y479743D01*
X626122Y474224D01*
X623265Y469275D01*
X619225Y465235D01*
X614276Y462378D01*
X609599Y461125D01*
X609526Y461100D01*
X609451Y461082D01*
X609257Y461007D01*
X609060Y460939D01*
X608992Y460904D01*
X608920Y460876D01*
X608738Y460775D01*
X608553Y460680D01*
X608490Y460636D01*
X608423Y460598D01*
X608257Y460472D01*
X608086Y460352D01*
X608030Y460300D01*
X607969Y460253D01*
X607823Y460105D01*
X607671Y459963D01*
X607622Y459903D01*
X607568Y459848D01*
X607444Y459681D01*
X607314Y459519D01*
X607274Y459453D01*
X607228Y459391D01*
X607129Y459208D01*
X607022Y459029D01*
X606992Y458958D01*
X606955Y458891D01*
X606882Y458696D01*
X606802Y458504D01*
X606782Y458429D01*
X606755Y458357D01*
X606710Y458154D01*
X606657Y457952D01*
X606648Y457876D01*
X606632Y457801D01*
X606615Y457593D01*
X606591Y457386D01*
X606593Y457310D01*
X606587Y457233D01*
X606600Y457025D01*
X606605Y456817D01*
X606618Y456741D01*
X606623Y456664D01*
X606664Y456460D01*
X606699Y456255D01*
X606722Y456182D01*
X606737Y456106D01*
X606807Y455910D01*
X606870Y455711D01*
X606903Y455642D01*
X606929Y455569D01*
X607025Y455385D01*
X607115Y455197D01*
X607158Y455133D01*
X607193Y455065D01*
X607315Y454895D01*
X607430Y454722D01*
X607481Y454665D01*
X607526Y454602D01*
X607670Y454452D01*
X607808Y454296D01*
X607867Y454246D01*
X607920Y454191D01*
X608084Y454062D01*
X608242Y453927D01*
X608308Y453886D01*
X608368Y453838D01*
X608548Y453734D01*
X608724Y453622D01*
X608794Y453591D01*
X608860Y453552D01*
X608974Y453509D01*
X609243Y453388D01*
X609486Y453317D01*
X609599Y453275D01*
X614276Y452022D01*
X619225Y449165D01*
X623265Y445125D01*
X626122Y440176D01*
X627601Y434657D01*
X627601Y428943D01*
X626122Y423424D01*
X624798Y421132D01*
X624789Y421112D01*
X624777Y421094D01*
X624664Y420857D01*
X624549Y420619D01*
X624542Y420598D01*
X624533Y420579D01*
X624455Y420328D01*
X624373Y420077D01*
X624370Y420056D01*
X624363Y420035D01*
X624321Y419775D01*
X624275Y419516D01*
X624275Y419494D01*
X624271Y419472D01*
X624265Y419209D01*
X624257Y418947D01*
X624259Y418925D01*
X624259Y418903D01*
X624290Y418639D01*
X624318Y418380D01*
X624324Y418359D01*
X624326Y418337D01*
X624394Y418082D01*
X624458Y417828D01*
X624467Y417808D01*
X624472Y417786D01*
X624504Y417718D01*
X624567Y417563D01*
X624587Y417503D01*
X624612Y417454D01*
X624674Y417300D01*
X624758Y417157D01*
X624798Y417068D01*
X626122Y414776D01*
X627601Y409257D01*
X627601Y403543D01*
X626122Y398024D01*
X623265Y393075D01*
X619225Y389035D01*
X614276Y386178D01*
X609599Y384925D01*
X609526Y384900D01*
X609451Y384882D01*
X609257Y384807D01*
X609060Y384739D01*
X608992Y384704D01*
X608920Y384676D01*
X608738Y384575D01*
X608553Y384480D01*
X608490Y384436D01*
X608423Y384398D01*
X608257Y384272D01*
X608086Y384152D01*
X608030Y384100D01*
X607969Y384053D01*
X607823Y383905D01*
X607671Y383763D01*
X607622Y383703D01*
X607568Y383648D01*
X607444Y383481D01*
X607314Y383319D01*
X607274Y383253D01*
X607228Y383191D01*
X607129Y383008D01*
X607022Y382829D01*
X606992Y382758D01*
X606955Y382691D01*
X606882Y382496D01*
X606802Y382304D01*
X606782Y382229D01*
X606755Y382157D01*
X606710Y381954D01*
X606657Y381752D01*
X606648Y381676D01*
X606632Y381601D01*
X606615Y381393D01*
X606591Y381186D01*
X606593Y381110D01*
X606587Y381033D01*
X606600Y380825D01*
X606605Y380617D01*
X606618Y380541D01*
X606623Y380464D01*
X606664Y380260D01*
X606699Y380055D01*
X606722Y379982D01*
X606737Y379906D01*
X606807Y379710D01*
X606870Y379511D01*
X606903Y379442D01*
X606929Y379369D01*
X607025Y379185D01*
X607115Y378997D01*
X607158Y378933D01*
X607193Y378865D01*
X607315Y378695D01*
X607430Y378522D01*
X607481Y378465D01*
X607526Y378402D01*
X607670Y378252D01*
X607808Y378096D01*
X607867Y378046D01*
X607920Y377991D01*
X608084Y377862D01*
X608242Y377727D01*
X608308Y377686D01*
X608368Y377638D01*
X608548Y377534D01*
X608724Y377422D01*
X608794Y377391D01*
X608860Y377352D01*
X608974Y377309D01*
X609243Y377188D01*
X609486Y377117D01*
X609599Y377075D01*
X614276Y375822D01*
X619225Y372965D01*
X623265Y368925D01*
X626122Y363976D01*
X627601Y358457D01*
X627601Y352743D01*
X626122Y347224D01*
X624798Y344932D01*
X624789Y344912D01*
X624777Y344894D01*
X624664Y344657D01*
X624549Y344419D01*
X624542Y344398D01*
X624533Y344379D01*
X624455Y344128D01*
X624373Y343877D01*
X624370Y343856D01*
X624363Y343835D01*
X624321Y343575D01*
X624275Y343316D01*
X624275Y343294D01*
X624271Y343272D01*
X624265Y343009D01*
X624257Y342747D01*
X624259Y342725D01*
X624259Y342703D01*
X624290Y342439D01*
X624318Y342180D01*
X624324Y342159D01*
X624326Y342137D01*
X624394Y341882D01*
X624458Y341628D01*
X624467Y341608D01*
X624472Y341586D01*
X624504Y341518D01*
X624674Y341100D01*
X624758Y340957D01*
X624798Y340868D01*
X626122Y338576D01*
X627601Y333057D01*
X627601Y327343D01*
X626122Y321824D01*
X623265Y316875D01*
X619225Y312835D01*
X614276Y309978D01*
X608757Y308499D01*
X585043Y308499D01*
G37*
%LPD*%
%LPC*%
G36*
X236191Y666241D02*
X236191Y666241D01*
X226472Y669399D01*
X218205Y675405D01*
X212199Y683672D01*
X209041Y693391D01*
X209041Y703609D01*
X212199Y713328D01*
X218205Y721595D01*
X226472Y727601D01*
X236191Y730759D01*
X246409Y730759D01*
X256128Y727601D01*
X264395Y721595D01*
X270401Y713328D01*
X273559Y703609D01*
X273559Y693391D01*
X270401Y683672D01*
X264395Y675405D01*
X256128Y669399D01*
X246409Y666241D01*
X236191Y666241D01*
G37*
%LPD*%
%LPC*%
G36*
X236191Y145541D02*
X236191Y145541D01*
X226472Y148699D01*
X218205Y154705D01*
X212199Y162972D01*
X209041Y172691D01*
X209041Y182909D01*
X212199Y192628D01*
X218205Y200895D01*
X226472Y206901D01*
X236191Y210059D01*
X246409Y210059D01*
X256128Y206901D01*
X264395Y200895D01*
X270401Y192628D01*
X273559Y182909D01*
X273559Y172691D01*
X270401Y162972D01*
X264395Y154705D01*
X256128Y148699D01*
X246409Y145541D01*
X236191Y145541D01*
G37*
%LPD*%
%LPC*%
G36*
X604491Y666241D02*
X604491Y666241D01*
X594772Y669399D01*
X586505Y675405D01*
X580499Y683672D01*
X577341Y693391D01*
X577341Y703609D01*
X580499Y713328D01*
X586505Y721595D01*
X594772Y727601D01*
X604491Y730759D01*
X614709Y730759D01*
X624428Y727601D01*
X632695Y721595D01*
X638701Y713328D01*
X641859Y703609D01*
X641859Y693391D01*
X638701Y683672D01*
X632695Y675405D01*
X624428Y669399D01*
X614709Y666241D01*
X604491Y666241D01*
G37*
%LPD*%
%LPC*%
G36*
X600963Y245363D02*
X600963Y245363D01*
X600963Y262637D01*
X616714Y262637D01*
X616595Y262270D01*
X615770Y260651D01*
X614703Y259182D01*
X613418Y257897D01*
X612579Y257287D01*
X612569Y257279D01*
X612557Y257272D01*
X612350Y257096D01*
X612142Y256921D01*
X612134Y256911D01*
X612124Y256903D01*
X611944Y256700D01*
X611762Y256497D01*
X611754Y256486D01*
X611745Y256476D01*
X611596Y256250D01*
X611444Y256024D01*
X611438Y256012D01*
X611431Y256001D01*
X611314Y255756D01*
X611195Y255511D01*
X611191Y255499D01*
X611186Y255487D01*
X611104Y255228D01*
X611021Y254969D01*
X611019Y254956D01*
X611015Y254943D01*
X610970Y254674D01*
X610924Y254407D01*
X610924Y254394D01*
X610922Y254381D01*
X610915Y254108D01*
X610907Y253838D01*
X610908Y253825D01*
X610908Y253812D01*
X610940Y253540D01*
X610970Y253272D01*
X610973Y253259D01*
X610974Y253246D01*
X611044Y252981D01*
X611111Y252720D01*
X611116Y252707D01*
X611119Y252695D01*
X611225Y252443D01*
X611328Y252193D01*
X611335Y252181D01*
X611340Y252169D01*
X611479Y251935D01*
X611616Y251701D01*
X611625Y251691D01*
X611631Y251680D01*
X611803Y251466D01*
X611971Y251255D01*
X611980Y251246D01*
X611989Y251236D01*
X612029Y251201D01*
X612384Y250863D01*
X612510Y250774D01*
X612579Y250713D01*
X613418Y250103D01*
X614703Y248818D01*
X615770Y247349D01*
X616595Y245730D01*
X616714Y245363D01*
X600963Y245363D01*
G37*
%LPD*%
%LPC*%
G36*
X577086Y245363D02*
X577086Y245363D01*
X577205Y245730D01*
X578030Y247349D01*
X579097Y248818D01*
X580382Y250103D01*
X581221Y250713D01*
X581232Y250721D01*
X581243Y250728D01*
X581448Y250903D01*
X581658Y251079D01*
X581666Y251089D01*
X581677Y251098D01*
X581857Y251301D01*
X582038Y251503D01*
X582046Y251514D01*
X582055Y251524D01*
X582205Y251751D01*
X582356Y251976D01*
X582362Y251988D01*
X582369Y251999D01*
X582486Y252244D01*
X582605Y252489D01*
X582609Y252501D01*
X582614Y252513D01*
X582695Y252771D01*
X582779Y253031D01*
X582781Y253044D01*
X582785Y253057D01*
X582829Y253324D01*
X582876Y253593D01*
X582876Y253606D01*
X582878Y253619D01*
X582885Y253892D01*
X582893Y254162D01*
X582892Y254175D01*
X582892Y254189D01*
X582860Y254459D01*
X582830Y254729D01*
X582827Y254741D01*
X582826Y254755D01*
X582757Y255017D01*
X582689Y255281D01*
X582684Y255293D01*
X582681Y255306D01*
X582576Y255555D01*
X582472Y255807D01*
X582465Y255819D01*
X582460Y255831D01*
X582321Y256065D01*
X582184Y256299D01*
X582175Y256309D01*
X582169Y256320D01*
X581998Y256532D01*
X581829Y256745D01*
X581819Y256754D01*
X581811Y256764D01*
X581772Y256799D01*
X581416Y257137D01*
X581290Y257226D01*
X581221Y257287D01*
X580382Y257897D01*
X579097Y259182D01*
X578030Y260651D01*
X577205Y262270D01*
X577086Y262637D01*
X592837Y262637D01*
X592837Y245363D01*
X577086Y245363D01*
G37*
%LPD*%
%LPC*%
G36*
X535939Y675639D02*
X535939Y675639D01*
X535939Y694183D01*
X536196Y694143D01*
X537983Y693562D01*
X539657Y692709D01*
X541178Y691604D01*
X542506Y690276D01*
X543611Y688755D01*
X544464Y687081D01*
X545045Y685294D01*
X545339Y683438D01*
X545339Y675639D01*
X535939Y675639D01*
G37*
%LPD*%
%LPC*%
G36*
X369061Y675639D02*
X369061Y675639D01*
X369061Y683438D01*
X369355Y685294D01*
X369936Y687081D01*
X370789Y688755D01*
X371894Y690276D01*
X373222Y691604D01*
X374743Y692709D01*
X376417Y693562D01*
X378204Y694143D01*
X378461Y694183D01*
X378461Y675639D01*
X369061Y675639D01*
G37*
%LPD*%
%LPC*%
G36*
X369061Y205739D02*
X369061Y205739D01*
X369061Y213538D01*
X369355Y215394D01*
X369936Y217181D01*
X370789Y218855D01*
X371894Y220376D01*
X373222Y221704D01*
X374743Y222809D01*
X376417Y223662D01*
X378204Y224243D01*
X378461Y224283D01*
X378461Y205739D01*
X369061Y205739D01*
G37*
%LPD*%
%LPC*%
G36*
X378204Y182157D02*
X378204Y182157D01*
X376417Y182738D01*
X374743Y183591D01*
X373222Y184696D01*
X371894Y186024D01*
X370789Y187545D01*
X369936Y189219D01*
X369355Y191006D01*
X369061Y192862D01*
X369061Y200661D01*
X378461Y200661D01*
X378461Y182117D01*
X378204Y182157D01*
G37*
%LPD*%
%LPC*%
G36*
X378204Y652057D02*
X378204Y652057D01*
X376417Y652638D01*
X374743Y653491D01*
X373222Y654596D01*
X371894Y655924D01*
X370789Y657445D01*
X369936Y659119D01*
X369355Y660906D01*
X369061Y662762D01*
X369061Y670561D01*
X378461Y670561D01*
X378461Y652017D01*
X378204Y652057D01*
G37*
%LPD*%
%LPC*%
G36*
X600963Y270763D02*
X600963Y270763D01*
X600963Y278241D01*
X606808Y278241D01*
X608602Y277957D01*
X610330Y277395D01*
X611949Y276570D01*
X613418Y275503D01*
X614703Y274218D01*
X615770Y272749D01*
X616595Y271130D01*
X616714Y270763D01*
X600963Y270763D01*
G37*
%LPD*%
%LPC*%
G36*
X577086Y270763D02*
X577086Y270763D01*
X577205Y271130D01*
X578030Y272749D01*
X579097Y274218D01*
X580382Y275503D01*
X581851Y276570D01*
X583470Y277395D01*
X585198Y277957D01*
X586992Y278241D01*
X592837Y278241D01*
X592837Y270763D01*
X577086Y270763D01*
G37*
%LPD*%
%LPC*%
G36*
X600963Y229759D02*
X600963Y229759D01*
X600963Y237237D01*
X616714Y237237D01*
X616595Y236870D01*
X615770Y235251D01*
X614703Y233782D01*
X613418Y232497D01*
X611949Y231430D01*
X610330Y230605D01*
X608602Y230043D01*
X606808Y229759D01*
X600963Y229759D01*
G37*
%LPD*%
%LPC*%
G36*
X586992Y229759D02*
X586992Y229759D01*
X585198Y230043D01*
X583470Y230605D01*
X581851Y231430D01*
X580382Y232497D01*
X579097Y233782D01*
X578030Y235251D01*
X577205Y236870D01*
X577086Y237237D01*
X592837Y237237D01*
X592837Y229759D01*
X586992Y229759D01*
G37*
%LPD*%
%LPC*%
G36*
X533788Y562863D02*
X533788Y562863D01*
X533788Y567608D01*
X533828Y567594D01*
X534043Y567548D01*
X534153Y567515D01*
X535016Y567343D01*
X535478Y567152D01*
X535895Y566873D01*
X536248Y566520D01*
X536527Y566103D01*
X536718Y565641D01*
X536816Y565150D01*
X536816Y562863D01*
X533788Y562863D01*
G37*
%LPD*%
%LPC*%
G36*
X533788Y334263D02*
X533788Y334263D01*
X533788Y339008D01*
X533828Y338994D01*
X534043Y338948D01*
X534153Y338915D01*
X535016Y338743D01*
X535478Y338552D01*
X535895Y338273D01*
X536248Y337920D01*
X536527Y337503D01*
X536718Y337041D01*
X536816Y336550D01*
X536816Y334263D01*
X533788Y334263D01*
G37*
%LPD*%
%LPC*%
G36*
X533788Y486663D02*
X533788Y486663D01*
X533788Y491408D01*
X533828Y491394D01*
X534043Y491348D01*
X534153Y491315D01*
X535016Y491143D01*
X535478Y490952D01*
X535895Y490673D01*
X536248Y490320D01*
X536527Y489903D01*
X536718Y489441D01*
X536816Y488950D01*
X536816Y486663D01*
X533788Y486663D01*
G37*
%LPD*%
%LPC*%
G36*
X533788Y410463D02*
X533788Y410463D01*
X533788Y415208D01*
X533828Y415194D01*
X534044Y415148D01*
X534153Y415115D01*
X535016Y414943D01*
X535478Y414752D01*
X535895Y414473D01*
X536248Y414120D01*
X536527Y413703D01*
X536718Y413241D01*
X536816Y412750D01*
X536816Y410463D01*
X533788Y410463D01*
G37*
%LPD*%
%LPC*%
G36*
X533788Y427737D02*
X533788Y427737D01*
X536816Y427737D01*
X536816Y425450D01*
X536718Y424959D01*
X536527Y424497D01*
X536248Y424080D01*
X535895Y423727D01*
X535478Y423448D01*
X535016Y423257D01*
X534153Y423085D01*
X534097Y423070D01*
X534040Y423061D01*
X533822Y422995D01*
X533788Y422986D01*
X533788Y427737D01*
G37*
%LPD*%
%LPC*%
G36*
X533788Y580137D02*
X533788Y580137D01*
X536816Y580137D01*
X536816Y577850D01*
X536718Y577359D01*
X536527Y576897D01*
X536248Y576480D01*
X535895Y576127D01*
X535478Y575848D01*
X535016Y575657D01*
X534153Y575485D01*
X534097Y575470D01*
X534040Y575461D01*
X533822Y575395D01*
X533788Y575386D01*
X533788Y580137D01*
G37*
%LPD*%
%LPC*%
G36*
X533788Y503937D02*
X533788Y503937D01*
X536816Y503937D01*
X536816Y501650D01*
X536718Y501159D01*
X536527Y500697D01*
X536248Y500280D01*
X535895Y499927D01*
X535478Y499648D01*
X535016Y499457D01*
X534153Y499285D01*
X534097Y499270D01*
X534040Y499261D01*
X533822Y499195D01*
X533788Y499186D01*
X533788Y503937D01*
G37*
%LPD*%
%LPC*%
G36*
X533788Y351537D02*
X533788Y351537D01*
X536816Y351537D01*
X536816Y349250D01*
X536718Y348759D01*
X536527Y348297D01*
X536248Y347880D01*
X535895Y347527D01*
X535478Y347248D01*
X535016Y347057D01*
X534153Y346885D01*
X534097Y346870D01*
X534040Y346861D01*
X533822Y346795D01*
X533788Y346786D01*
X533788Y351537D01*
G37*
%LPD*%
%LPC*%
G36*
X522634Y562863D02*
X522634Y562863D01*
X522634Y565150D01*
X522732Y565641D01*
X522923Y566103D01*
X523202Y566520D01*
X523555Y566873D01*
X523972Y567152D01*
X524434Y567343D01*
X525297Y567515D01*
X525353Y567530D01*
X525410Y567539D01*
X525628Y567605D01*
X525662Y567614D01*
X525662Y562863D01*
X522634Y562863D01*
G37*
%LPD*%
%LPC*%
G36*
X522634Y486663D02*
X522634Y486663D01*
X522634Y488950D01*
X522732Y489441D01*
X522923Y489903D01*
X523202Y490320D01*
X523555Y490673D01*
X523972Y490952D01*
X524434Y491143D01*
X525297Y491315D01*
X525353Y491330D01*
X525410Y491339D01*
X525628Y491405D01*
X525662Y491414D01*
X525662Y486663D01*
X522634Y486663D01*
G37*
%LPD*%
%LPC*%
G36*
X522634Y334263D02*
X522634Y334263D01*
X522634Y336550D01*
X522732Y337041D01*
X522923Y337503D01*
X523202Y337920D01*
X523555Y338273D01*
X523972Y338552D01*
X524434Y338743D01*
X525297Y338915D01*
X525353Y338930D01*
X525410Y338939D01*
X525628Y339005D01*
X525662Y339014D01*
X525662Y334263D01*
X522634Y334263D01*
G37*
%LPD*%
%LPC*%
G36*
X522634Y410463D02*
X522634Y410463D01*
X522634Y412750D01*
X522732Y413241D01*
X522923Y413703D01*
X523202Y414120D01*
X523555Y414473D01*
X523972Y414752D01*
X524434Y414943D01*
X525297Y415115D01*
X525353Y415130D01*
X525410Y415139D01*
X525628Y415205D01*
X525662Y415214D01*
X525662Y410463D01*
X522634Y410463D01*
G37*
%LPD*%
%LPC*%
G36*
X525622Y423006D02*
X525622Y423006D01*
X525407Y423052D01*
X525297Y423085D01*
X524434Y423257D01*
X523972Y423448D01*
X523555Y423727D01*
X523202Y424080D01*
X522923Y424497D01*
X522732Y424959D01*
X522634Y425450D01*
X522634Y427737D01*
X525662Y427737D01*
X525662Y422992D01*
X525622Y423006D01*
G37*
%LPD*%
%LPC*%
G36*
X525622Y499206D02*
X525622Y499206D01*
X525406Y499252D01*
X525297Y499285D01*
X524434Y499457D01*
X523972Y499648D01*
X523555Y499927D01*
X523202Y500280D01*
X522923Y500697D01*
X522732Y501159D01*
X522634Y501650D01*
X522634Y503937D01*
X525662Y503937D01*
X525662Y499192D01*
X525622Y499206D01*
G37*
%LPD*%
%LPC*%
G36*
X525622Y575406D02*
X525622Y575406D01*
X525406Y575452D01*
X525297Y575485D01*
X524434Y575657D01*
X523972Y575848D01*
X523555Y576127D01*
X523202Y576480D01*
X522923Y576897D01*
X522732Y577359D01*
X522634Y577850D01*
X522634Y580137D01*
X525662Y580137D01*
X525662Y575392D01*
X525622Y575406D01*
G37*
%LPD*%
%LPC*%
G36*
X525622Y346806D02*
X525622Y346806D01*
X525406Y346852D01*
X525297Y346885D01*
X524434Y347057D01*
X523972Y347248D01*
X523555Y347527D01*
X523202Y347880D01*
X522923Y348297D01*
X522732Y348759D01*
X522634Y349250D01*
X522634Y351537D01*
X525662Y351537D01*
X525662Y346792D01*
X525622Y346806D01*
G37*
%LPD*%
%LPC*%
G36*
X533788Y359663D02*
X533788Y359663D01*
X533788Y364241D01*
X534525Y364241D01*
X535016Y364143D01*
X535478Y363952D01*
X535895Y363673D01*
X536248Y363320D01*
X536527Y362903D01*
X536718Y362441D01*
X536816Y361950D01*
X536816Y359663D01*
X533788Y359663D01*
G37*
%LPD*%
%LPC*%
G36*
X533788Y435863D02*
X533788Y435863D01*
X533788Y440441D01*
X534525Y440441D01*
X535016Y440343D01*
X535478Y440152D01*
X535895Y439873D01*
X536248Y439520D01*
X536527Y439103D01*
X536718Y438641D01*
X536816Y438150D01*
X536816Y435863D01*
X533788Y435863D01*
G37*
%LPD*%
%LPC*%
G36*
X533788Y512063D02*
X533788Y512063D01*
X533788Y516641D01*
X534525Y516641D01*
X535016Y516543D01*
X535478Y516352D01*
X535895Y516073D01*
X536248Y515720D01*
X536527Y515303D01*
X536718Y514841D01*
X536816Y514350D01*
X536816Y512063D01*
X533788Y512063D01*
G37*
%LPD*%
%LPC*%
G36*
X533788Y588263D02*
X533788Y588263D01*
X533788Y592841D01*
X534525Y592841D01*
X535016Y592743D01*
X535478Y592552D01*
X535895Y592273D01*
X536248Y591920D01*
X536527Y591503D01*
X536718Y591041D01*
X536816Y590550D01*
X536816Y588263D01*
X533788Y588263D01*
G37*
%LPD*%
%LPC*%
G36*
X533788Y321559D02*
X533788Y321559D01*
X533788Y326137D01*
X536816Y326137D01*
X536816Y323850D01*
X536718Y323359D01*
X536527Y322897D01*
X536248Y322480D01*
X535895Y322127D01*
X535478Y321848D01*
X535016Y321657D01*
X534525Y321559D01*
X533788Y321559D01*
G37*
%LPD*%
%LPC*%
G36*
X533788Y397759D02*
X533788Y397759D01*
X533788Y402337D01*
X536816Y402337D01*
X536816Y400050D01*
X536718Y399559D01*
X536527Y399097D01*
X536248Y398680D01*
X535895Y398327D01*
X535478Y398048D01*
X535016Y397857D01*
X534525Y397759D01*
X533788Y397759D01*
G37*
%LPD*%
%LPC*%
G36*
X533788Y473959D02*
X533788Y473959D01*
X533788Y478537D01*
X536816Y478537D01*
X536816Y476250D01*
X536718Y475759D01*
X536527Y475297D01*
X536248Y474880D01*
X535895Y474527D01*
X535478Y474248D01*
X535016Y474057D01*
X534525Y473959D01*
X533788Y473959D01*
G37*
%LPD*%
%LPC*%
G36*
X533788Y550159D02*
X533788Y550159D01*
X533788Y554737D01*
X536816Y554737D01*
X536816Y552450D01*
X536718Y551959D01*
X536527Y551497D01*
X536248Y551080D01*
X535895Y550727D01*
X535478Y550448D01*
X535016Y550257D01*
X534525Y550159D01*
X533788Y550159D01*
G37*
%LPD*%
%LPC*%
G36*
X522634Y435863D02*
X522634Y435863D01*
X522634Y438150D01*
X522732Y438641D01*
X522923Y439103D01*
X523202Y439520D01*
X523555Y439873D01*
X523972Y440152D01*
X524434Y440343D01*
X524925Y440441D01*
X525662Y440441D01*
X525662Y435863D01*
X522634Y435863D01*
G37*
%LPD*%
%LPC*%
G36*
X522634Y359663D02*
X522634Y359663D01*
X522634Y361950D01*
X522732Y362441D01*
X522923Y362903D01*
X523202Y363320D01*
X523555Y363673D01*
X523972Y363952D01*
X524434Y364143D01*
X524925Y364241D01*
X525662Y364241D01*
X525662Y359663D01*
X522634Y359663D01*
G37*
%LPD*%
%LPC*%
G36*
X522634Y512063D02*
X522634Y512063D01*
X522634Y514350D01*
X522732Y514841D01*
X522923Y515303D01*
X523202Y515720D01*
X523555Y516073D01*
X523972Y516352D01*
X524434Y516543D01*
X524925Y516641D01*
X525662Y516641D01*
X525662Y512063D01*
X522634Y512063D01*
G37*
%LPD*%
%LPC*%
G36*
X522634Y588263D02*
X522634Y588263D01*
X522634Y590550D01*
X522732Y591041D01*
X522923Y591503D01*
X523202Y591920D01*
X523555Y592273D01*
X523972Y592552D01*
X524434Y592743D01*
X524925Y592841D01*
X525662Y592841D01*
X525662Y588263D01*
X522634Y588263D01*
G37*
%LPD*%
%LPC*%
G36*
X524925Y473959D02*
X524925Y473959D01*
X524434Y474057D01*
X523972Y474248D01*
X523555Y474527D01*
X523202Y474880D01*
X522923Y475297D01*
X522732Y475759D01*
X522634Y476250D01*
X522634Y478537D01*
X525662Y478537D01*
X525662Y473959D01*
X524925Y473959D01*
G37*
%LPD*%
%LPC*%
G36*
X524925Y321559D02*
X524925Y321559D01*
X524434Y321657D01*
X523972Y321848D01*
X523555Y322127D01*
X523202Y322480D01*
X522923Y322897D01*
X522732Y323359D01*
X522634Y323850D01*
X522634Y326137D01*
X525662Y326137D01*
X525662Y321559D01*
X524925Y321559D01*
G37*
%LPD*%
%LPC*%
G36*
X524925Y397759D02*
X524925Y397759D01*
X524434Y397857D01*
X523972Y398048D01*
X523555Y398327D01*
X523202Y398680D01*
X522923Y399097D01*
X522732Y399559D01*
X522634Y400050D01*
X522634Y402337D01*
X525662Y402337D01*
X525662Y397759D01*
X524925Y397759D01*
G37*
%LPD*%
%LPC*%
G36*
X524925Y550159D02*
X524925Y550159D01*
X524434Y550257D01*
X523972Y550448D01*
X523555Y550727D01*
X523202Y551080D01*
X522923Y551497D01*
X522732Y551959D01*
X522634Y552450D01*
X522634Y554737D01*
X525662Y554737D01*
X525662Y550159D01*
X524925Y550159D01*
G37*
%LPD*%
D10*
X381000Y193802D02*
X381000Y212598D01*
X406400Y212598D02*
X406400Y193802D01*
X431800Y193802D02*
X431800Y212598D01*
X457200Y212598D02*
X457200Y193802D01*
X482600Y193802D02*
X482600Y212598D01*
X508000Y212598D02*
X508000Y193802D01*
X533400Y193802D02*
X533400Y212598D01*
X381000Y663702D02*
X381000Y682498D01*
X406400Y682498D02*
X406400Y663702D01*
X431800Y663702D02*
X431800Y682498D01*
X457200Y682498D02*
X457200Y663702D01*
X482600Y663702D02*
X482600Y682498D01*
X508000Y682498D02*
X508000Y663702D01*
X533400Y663702D02*
X533400Y682498D01*
D11*
X587900Y584200D02*
X605900Y584200D01*
X605900Y558800D02*
X587900Y558800D01*
X587900Y508000D02*
X605900Y508000D01*
X605900Y482600D02*
X587900Y482600D01*
X587900Y431800D02*
X605900Y431800D01*
X605900Y406400D02*
X587900Y406400D01*
X587900Y355600D02*
X605900Y355600D01*
X605900Y330200D02*
X587900Y330200D01*
X587900Y241300D02*
X605900Y241300D01*
X605900Y266700D02*
X587900Y266700D01*
D12*
X562475Y584200D03*
X529725Y584200D03*
X562475Y558800D03*
X529725Y558800D03*
X562475Y508000D03*
X529725Y508000D03*
X562475Y482600D03*
X529725Y482600D03*
X562475Y431800D03*
X529725Y431800D03*
X562475Y406400D03*
X529725Y406400D03*
X562475Y355600D03*
X529725Y355600D03*
X562475Y330200D03*
X529725Y330200D03*
D13*
X342900Y558800D02*
X342900Y596900D01*
D14*
X342900Y596900D03*
D13*
X342900Y558800D02*
X342900Y520700D01*
D14*
X342900Y558800D03*
D13*
X342900Y520700D02*
X342900Y482600D01*
D14*
X342900Y520700D03*
D13*
X342900Y482600D02*
X342900Y444500D01*
D14*
X342900Y482600D03*
D13*
X342900Y444500D02*
X342900Y406400D01*
D14*
X342900Y444500D03*
D13*
X342900Y406400D02*
X342900Y381000D01*
D14*
X342900Y406400D03*
D13*
X342900Y381000D02*
X342900Y368300D01*
X342900Y330200D01*
D14*
X342900Y368300D03*
X342900Y330200D03*
X228600Y381000D03*
D13*
X342900Y381000D01*
X342900Y241300D02*
X381000Y203200D01*
X342900Y241300D02*
X342900Y330200D01*
X342900Y635000D02*
X381000Y673100D01*
X342900Y635000D02*
X342900Y596900D01*
X533400Y673100D02*
X533400Y735230D01*
X381000Y735230D01*
X381000Y673100D01*
X533400Y203200D02*
X533400Y139700D01*
X381000Y139700D01*
X381000Y203200D01*
X406400Y508000D02*
X406400Y673100D01*
X406400Y508000D02*
X406400Y419100D01*
X406400Y203200D01*
X508000Y673100D02*
X508000Y711200D01*
X406400Y711200D01*
X406400Y673100D01*
X406400Y203200D02*
X406400Y165100D01*
X508000Y165100D01*
X508000Y203200D01*
D14*
X406400Y508000D03*
X406400Y419100D03*
D13*
X457200Y419100D02*
X457200Y673100D01*
D14*
X457200Y419100D03*
D13*
X457200Y203200D01*
X482600Y203200D02*
X482600Y304800D01*
X482600Y673100D01*
D14*
X482600Y304800D03*
D15*
X562475Y584200D02*
X596900Y584200D01*
X596900Y558800D02*
X562475Y558800D01*
X562475Y508000D02*
X596900Y508000D01*
X596900Y482600D02*
X562475Y482600D01*
X562475Y431800D02*
X596900Y431800D01*
X596900Y406400D02*
X562475Y406400D01*
X562475Y355600D02*
X596900Y355600D01*
X596900Y330200D02*
X562475Y330200D01*
D14*
X508000Y584200D03*
X508000Y546100D03*
X508000Y495300D03*
X508000Y457200D03*
X508000Y419100D03*
X508000Y381000D03*
X508000Y342900D03*
X508000Y304800D03*
D13*
X596900Y266700D02*
X596900Y241300D01*
X596900Y266700D02*
X546100Y266700D01*
D15*
X508000Y304800D01*
X508000Y330200D01*
X508000Y355600D01*
X508000Y406400D01*
X508000Y431800D01*
X508000Y482600D01*
X508000Y508000D01*
X508000Y558800D01*
X508000Y584200D01*
X529725Y584200D01*
X529725Y558800D02*
X508000Y558800D01*
X508000Y508000D02*
X529725Y508000D01*
X529725Y482600D02*
X508000Y482600D01*
X508000Y431800D02*
X529725Y431800D01*
X529725Y406400D02*
X508000Y406400D01*
X508000Y355600D02*
X529725Y355600D01*
X529725Y330200D02*
X508000Y330200D01*
M02*
