G04 EAGLE Gerber RS-274X export*
G75*
%MOMM*%
%FSLAX34Y34*%
%LPD*%
%INSolderpaste Top*%
%IPPOS*%
%AMOC8*
5,1,8,0,0,1.08239X$1,22.5*%
G01*
%ADD10R,2.032000X0.660400*%
%ADD11R,1.400000X1.000000*%
%ADD12R,1.300000X1.500000*%
%ADD13R,0.611800X0.911800*%


D10*
X228346Y495300D03*
X289814Y495300D03*
X228346Y482600D03*
X228346Y469900D03*
X289814Y482600D03*
X289814Y469900D03*
X228346Y457200D03*
X289814Y457200D03*
X228346Y444500D03*
X289814Y444500D03*
X228346Y431800D03*
X228346Y419100D03*
X289814Y431800D03*
X289814Y419100D03*
X228346Y406400D03*
X289814Y406400D03*
D11*
X544400Y596900D03*
X522400Y587400D03*
X522400Y606400D03*
X544400Y558800D03*
X522400Y549300D03*
X522400Y568300D03*
X544400Y508000D03*
X522400Y498500D03*
X522400Y517500D03*
X544400Y469900D03*
X522400Y460400D03*
X522400Y479400D03*
X544400Y431800D03*
X522400Y422300D03*
X522400Y441300D03*
X544400Y393700D03*
X522400Y384200D03*
X522400Y403200D03*
X544400Y355600D03*
X522400Y346100D03*
X522400Y365100D03*
X544400Y317500D03*
X522400Y308000D03*
X522400Y327000D03*
D12*
X473100Y596900D03*
X492100Y596900D03*
X371500Y558800D03*
X390500Y558800D03*
X371500Y520700D03*
X390500Y520700D03*
X371500Y482600D03*
X390500Y482600D03*
X371500Y444500D03*
X390500Y444500D03*
X371500Y406400D03*
X390500Y406400D03*
X371500Y368300D03*
X390500Y368300D03*
X371500Y330200D03*
X390500Y330200D03*
X473100Y558800D03*
X492100Y558800D03*
X473100Y520700D03*
X492100Y520700D03*
X473100Y482600D03*
X492100Y482600D03*
X473100Y444500D03*
X492100Y444500D03*
X473100Y406400D03*
X492100Y406400D03*
X473100Y368300D03*
X492100Y368300D03*
X473100Y330200D03*
X492100Y330200D03*
X371500Y596900D03*
X390500Y596900D03*
D13*
X424300Y596900D03*
X439300Y596900D03*
X424300Y558800D03*
X439300Y558800D03*
X424300Y520700D03*
X439300Y520700D03*
X424300Y482600D03*
X439300Y482600D03*
X424300Y444500D03*
X439300Y444500D03*
X424300Y406400D03*
X439300Y406400D03*
X424300Y368300D03*
X439300Y368300D03*
X424300Y330200D03*
X439300Y330200D03*
M02*
